<svg height="64" viewBox="0 0 64 64" width="64" xmlns="http://www.w3.org/2000/svg"><path d="m13.55 42.92c-.88-.13-6.44-.06-9.85 0s-2.65 5.94-2.59 7.58c.09 2.27 1.52 3 2.34 3s6.69.32 8.34.26 2.58-.32 3.28-1 .63-2.85.69-6-1.32-3.76-2.21-3.84zm-.55 7.73a63 63 0 0 1 -9.52 0c-.33-.23-.57-4.83.38-5.35 1.19-.65 8.9-.19 9.14 0a22.79 22.79 0 0 1 0 5.35zm15.91-6.78c-1.58-.07-6.54-.26-9.19-.13s-2.68 1.33-2.68 2.62c0 0-.07 2.49 0 4.39s1 2.75 1.64 2.84 7.74.16 9.76.1a2.46 2.46 0 0 0 2.56-1.8 45.79 45.79 0 0 0 0-5.31c0-1.58-.49-2.65-2.07-2.71zm.31 6.57a10.2 10.2 0 0 0 -2.09-1.78c-.33 0-.45.29-.4.55a16.47 16.47 0 0 0 1.88 2h-1.16c-.22-.45-2.38-3-2.73-3s-.36.24-.36.59a14.54 14.54 0 0 0 2.07 2.47c-2.93 0-7.2 0-7.37-.22a22.54 22.54 0 0 1 .06-5.27c.2-.2 9.76-.06 10 .06s.22 3.16.12 4.6zm-10.84-7.65c.57 0 5.12.13 7.9.1s3.72-.07 4.29-.82.35-1.87.41-4.33-.12-4-1.29-4.45-10-.22-11.18-.22-1.77.85-1.8 2.56c0 0 0 3.37-.06 4.6a2.89 2.89 0 0 0 1.73 2.56zm.07-7.95c.37-.19 10.45-.1 10.7 0a7.83 7.83 0 0 1 .15 2.26 3.59 3.59 0 0 0 -1.1-1c-.36 0-.5.36-.45.57a15.61 15.61 0 0 0 1.54 1.75c0 .72-.05 1.37-.08 1.8a18.39 18.39 0 0 0 -2.53-2.67.55.55 0 0 0 -.64.5c0 .31 1.65 2.07 2.27 2.71h-1.52a8.09 8.09 0 0 0 -2.08-2.05.47.47 0 0 0 -.45.45 10.21 10.21 0 0 0 1.17 1.59c-3.07 0-6.95-.09-7-.15s-.24-5.6.02-5.76zm-.82-3.07c.34.22 10.16.29 11.36.16a2.09 2.09 0 0 0 1.87-1.29c0-.35.19-3.6.12-5.84s-.95-3-1.64-3.16-10.17-.07-11.34-.07a1.69 1.69 0 0 0 -1.74 1.08c-.13.38-.21 5.08-.16 6.28a4 4 0 0 0 1.53 2.84zm.37-8.46a89.93 89.93 0 0 1 10.77.1c.28.22.32 6.18 0 6.28s-10.51 0-10.83-.28-.25-5.91.06-6.1zm16 19.32c.41.1 9 .23 10.17.13s1.39-.82 1.55-1.48a60.12 60.12 0 0 0 .09-6.13c0-2.15-1.48-2.62-1.92-2.62s-7.83-.22-9.51 0a2.23 2.23 0 0 0 -2 2.27 53.42 53.42 0 0 0 -.15 5.37 3.72 3.72 0 0 0 1.77 2.46zm.26-8.52c.19-.22 9.28-.19 9.44.16a15 15 0 0 1 .09 2.43c-.4-.44-.86-.88-1-.87s-.36.17-.29.54a7.13 7.13 0 0 0 1.28 1.63c0 .52 0 1-.07 1.35a19.24 19.24 0 0 0 -2-2.45c-.21 0-.66.36-.64.52s1.45 1.85 2.12 2.67c-.34 0-.89 0-1.57.07a15 15 0 0 0 -2.23-2.62c-.21 0-.64.17-.52.5a21.06 21.06 0 0 0 1.64 2.14 58 58 0 0 1 -6.4-.1c-.41-.26-.11-5.72.16-5.97zm9.91 9.57a103.2 103.2 0 0 0 -10.89-.19c-.73.09-1 1.76-1 2.81 0 0-.16 2.71-.16 4.7s.88 2.34 1.32 2.43a33 33 0 0 0 5.24.26c2.81 0 6.41.18 6.89-.54s.53-3.16.44-5.87-.72-3.28-1.83-3.6zm-.33 6.14a3.12 3.12 0 0 1 -.14 1 1.42 1.42 0 0 1 -.46.07 22.4 22.4 0 0 0 -2.24-2.65c-.17-.07-.78.28-.78.47a21.53 21.53 0 0 0 1.71 2.29h-1.34a13.47 13.47 0 0 0 -1.86-2.38c-.16 0-.59.33-.56.59a10.69 10.69 0 0 0 1.25 1.79c-2.45 0-5.07 0-5.19-.25a24.49 24.49 0 0 1 -.23-5.59c.43-.31 9.26 0 9.57.19a10.81 10.81 0 0 1 .26 3.14 9.88 9.88 0 0 0 -1.37-1.44c-.31-.16-.47.41-.47.64a15.56 15.56 0 0 0 1.86 2.13zm16.56-6.18c-.63 0-8.84-.25-10.74-.09a2.48 2.48 0 0 0 -2.49 2.3s0 3.76.06 5.15.89 2.21 1.27 2.21 9.88.16 11.8 0 2.06-1.07 2.12-1.26 0-4.2-.1-6.06-1.32-2.25-1.91-2.25zm.18 6.68a33.59 33.59 0 0 0 -2.34-2.7c-.15-.07-.62.41-.62.5s1.76 2.09 2.4 2.82c-.36 0-.92 0-1.62.05a31.27 31.27 0 0 0 -1.82-2.7c-.12-.08-.57.16-.62.33a19.34 19.34 0 0 0 1.56 2.38h-1.44a26.17 26.17 0 0 0 -1.74-2.35c-.1 0-.64.38-.64.38s.74 1.23 1.2 2c-2.81 0-5.65-.12-5.76-.2a28.33 28.33 0 0 1 -.14-4.69.88.88 0 0 1 .63-.92c.53-.14 10.17.07 10.48.1s.32.85.35 1a30.36 30.36 0 0 1 .13 4zm-12.39-7.62c.73.22 9.47.22 11.43.28s2.49-1 2.56-1.8.12-3.12.09-5.18-.28-3-1.45-3.09-10.77-.38-12.06-.28a2.57 2.57 0 0 0 -2.09 2.14 44 44 0 0 0 0 5c.16 1.76.79 2.71 1.52 2.93zm.44-8.34c.24-.35 11.4-.09 11.59.32a17.21 17.21 0 0 1 .21 2.83 7.91 7.91 0 0 0 -1.36-1.3c-.16 0-.54.14-.49.35a19.54 19.54 0 0 0 1.86 1.9 9.52 9.52 0 0 1 -.09 1.82c-.71-.82-2.85-3.08-2.93-3.08s-.41.34-.36.5 1.64 1.92 2.37 2.73c-.43 0-1 0-1.62 0a23.6 23.6 0 0 0 -2-2.21c-.09 0-.73 0-.73.3a10.82 10.82 0 0 0 1.66 1.92c-3.4 0-8-.11-8.17-.33s-.06-5.56.06-5.75zm12.47-12.75c-1-.07-10.29-.38-11.9-.26s-2 1.37-2.12 2.37a49 49 0 0 0 .29 6.16c.25 1.64 1.2 1.83 2.87 1.8s10.39.38 11.68-.06 1.08-4.17 1-6.48-.81-3.47-1.82-3.53zm-.1 4.95a7.27 7.27 0 0 0 -1.51-1.31c-.23 0-.35.26-.23.54a12.33 12.33 0 0 0 1.71 1.53c0 .53 0 1-.08 1.36a19.51 19.51 0 0 0 -2.44-2.58.52.52 0 0 0 -.38.4 30.36 30.36 0 0 0 2.48 2.85h-1.69a31.09 31.09 0 0 0 -2.4-2.94 1.49 1.49 0 0 0 -.64.5c0 .07 1.42 1.78 2 2.44-3.44 0-8.67 0-8.8-.12a33 33 0 0 1 0-6.13c.27-.31 11.81-.09 12 .22a20.84 20.84 0 0 1 -.02 3.24zm-13-6.09c.85.16 11.18.28 12.6.13a2.3 2.3 0 0 0 2.18-1.52 47.37 47.37 0 0 0 .03-5.08c-.1-2.31-1.42-3.41-2.31-3.54s-10.64-.22-11.68-.1-1.85 1.59-1.89 2c-.1.76-.07 4.17 0 5.75s.19 2.2 1.07 2.36zm.82-8.34c.45-.35 11.15 0 11.52.16s.62 4.92.34 5.9a19.58 19.58 0 0 0 -2.95-2.56c-.21 0-.54.21-.52.43a28.42 28.42 0 0 0 2.67 2.41c-.43 0-1 .05-1.73.07a20.64 20.64 0 0 0 -2.29-2.39c-.21-.16-.78.33-.78.48a22 22 0 0 0 1.89 1.92c-3.5 0-8.27-.12-8.43-.39a22.27 22.27 0 0 1 .25-6.03zm-44.07 34.17c-.21.12-.09 1.65-.09 1.65s.64.15.71 0a6.09 6.09 0 0 0 0-.82c0-.1.66-.1.87-.1s.14-.59.1-.69a4.21 4.21 0 0 0 -1.59-.04zm15.54-18.66c.07-.12-.1-2.25 0-2.35a15.89 15.89 0 0 1 2-.14 1.56 1.56 0 0 0 0-.73c-.12-.22-1.07-.17-1.85-.12s-1.09.19-1.14.4a20 20 0 0 0 0 2.89 1.39 1.39 0 0 0 .99.05zm30.45-11.64c.31-.31-.05-1.61 0-1.77s1.51-.19 1.68-.29 0-.42 0-.61a5.3 5.3 0 0 0 -2.28 0 11.21 11.21 0 0 0 0 2.65.34.34 0 0 0 .6.02z" fill="#fff"/></svg>