<svg height="64" viewBox="0 0 64 64" width="64" xmlns="http://www.w3.org/2000/svg"><path d="m6.7 13.39c.51.06 4-.21 17.46-.51s30.27-.15 30.75-.15 2.54-2.3 2.87-2.75.09-.81-.3-1.11-1.14-.18-1.35-.21a36.2 36.2 0 0 1 -2.33-3.95c-.18-.36 1.26-.18 1.41-.18a32.68 32.68 0 0 1 2.24 2.39 11.89 11.89 0 0 1 .3 1.41c.06.54.69.87 1 .66s.12-2.55 0-3.95-.93-1.89-2.31-1.89-7.66.39-10.09.48-8.65.27-15.21.21-8.3.16-10.67.16-4-.06-8.59-.09-7.07 0-7.81.66.4 6.79.62 7.12a4.1 4.1 0 0 0 2.01 1.7zm50.66-8.59c.21.33.21 1.43-.09 1.23a3.53 3.53 0 0 1 -.69-1.5c0-.24.57-.06.78.27zm-51.47.54c.36-.34 3.48-.34 6.83-.34s5.09.09 10 0 15.48 0 19.16 0 9.4-.39 9.88-.39.81 0 .81 0 3.06 4 2.76 4a4.41 4.41 0 0 1 -1.77 0c-.24-.18-1.92-3.26-2.34-3.26s-1 .24-.68.75 2.21 2.54 2 2.69a1.29 1.29 0 0 1 -1 .09 36 36 0 0 0 -2.33-3.17c-.27 0-.51.21-.3.56s2.09 2.84 1.83 2.81-1.1.09-1.31-.09-2.22-2.84-2.61-2.87-1.11.08-.75.59 2.49 2.29 2.16 2.34a5.43 5.43 0 0 1 -1.83.06c-.24-.15-1.73-2.4-2.09-2.43s-1 .3-.75.81 1.8 1.59 1.44 1.74-10 .48-13.57.63-12.63 0-17.18.24-7.76.6-8.27.39c-.24-.1-.45-4.85-.09-5.15zm2.19 3.56a5.73 5.73 0 0 0 .12-1.47c0-.27 5.51-.09 5.93-.09s.77-1.14.18-1.34a36.88 36.88 0 0 0 -6.8.18c-.63.17-.75 2.41-.36 2.72.15.1.85.18.93 0zm51.74 42.16c-.18-1.77-1.38-1.5-4.34-1.38s-10.72.75-11 .45 3.41-11.35 3.65-11.56a18.6 18.6 0 0 1 3.17 0c.45 0 3-3 3.33-3.62a5.68 5.68 0 0 0 .45-2.49c0-1-.42-8.65-.48-10.45s-.78-5.74-1.44-6.31-4.52 0-6.44.24a123.21 123.21 0 0 1 -14.28.62c-6.89-.06-20.27.21-20.72.21a7.15 7.15 0 0 0 -2.23.23c-.24.18-.12 1.8-.06 3.18s.71 14 .89 14.76.45 3 1 3.35 3.59.21 3.89.24.66.48 1.77 2.52 3.77 9.16 3.92 9.58-.84.09-4.64.09-10.15.06-11 .15-.8 4.4-.59 5.72 1 1.55 1.73 1.88a35.34 35.34 0 0 1 3.68 2c.69.51 2.67.36 8.36.39s15.84-.57 22-.45 15.13.45 15.33.45.75-.33 1.74-1.41a34.47 34.47 0 0 0 2.61-2.93c.21-.43-.12-3.7-.3-5.46zm-15.82-4.13c-.33 1.19-.66 2.33-.84 2.21a16.18 16.18 0 0 1 -2.43-2.9c0-.33.24-1.77.48-1.53a16.6 16.6 0 0 0 2.16 1.92c.12-.09.33-.84.21-1s-2.07-1.89-2.1-2.34.24-1.58.36-1.49a30.85 30.85 0 0 0 2.46 2.69 1 1 0 0 0 .21-.93c-.12-.3-2.19-2.36-2.28-2.69s0-1.68.3-1.62a39.1 39.1 0 0 1 3 2.87c.15.31-1.19 3.61-1.53 4.81zm-5.36 3c-.18 0-9.37.54-9.7.42s-5-10.24-5.06-11.26a72.74 72.74 0 0 1 8.53-.48c4.49-.12 8.35-.24 8.56.27s-2.14 10.98-2.32 11.01zm7.19-8.93a10.75 10.75 0 0 1 -2.48-2.4c-.6-.9-.57-2-.15-1.91.18 0 2.9 2.48 3.11 2.63s-.31 1.62-.48 1.68zm3.39-6c-.15-.12-2.25-3.38-2.37-3.62s1.38-.18 1.47-.12 3 3.38 2.84 3.53a4.83 4.83 0 0 1 -1.94.21zm-17.79-4.87c-6.67.39-14.13.84-14.52.6s-1.53-5.09-1.08-6c.12-.23 9.64-.39 13.42-.36s15.93.18 16.46.15 1.32-.18 1.62.12a15.59 15.59 0 0 1 -.06 5c-.27.04-9.16.1-15.84.49zm20.69 4.55c-.15-.24-3.23-4.19-3.35-4.49s0-1.47.21-1.44a54.28 54.28 0 0 1 4.43 5.48c-.03.09-1.14.69-1.29.45zm1.5-1.68c-.36-.36-4.7-5.75-4.76-6s0-1.58.12-1.49 3.59 4.49 3.92 4.49.24-.81.15-.9-4-4.85-4.13-5.15-.21-1.5 0-1.56a60.21 60.21 0 0 1 4.64 5.3c.09.31.44 5.7.06 5.31zm-7.31 23.45c-.09-.24-.12-.57-.33-.69s-3.8-4-4.13-3.95a.64.64 0 0 0 -.21 1c.36.39 3.69 3.63 3.69 3.63h-2.07s-.09-.78-.27-.93-2.31-2.19-2.58-2.28-.53.36-.5.69a21.08 21.08 0 0 0 2.51 2.61 6.38 6.38 0 0 1 -1.32 0c-.21-.09-2.75-2.91-3.29-2.91s-1.2.27-.69 1 2.52 1.8 2.22 1.89-8.84-.15-17.28 0-12.19.49-13.86.49-1.86.15-2-.06a23.46 23.46 0 0 1 0-4.59c.12-.12 10.15-.09 12.79-.26s2.81-.24 3.26-.57.93-.78.75-1.17-4.47-11.78-5.1-12.98-.9-1.67-1.23-1.73-2.93 0-3.71.09-.93.15-1.11-.12-.72-8.21-1-11.77-.36-5.69-.21-5.9 5.48.06 9.55 0 18.36-.18 22.52-.42 7.16-.9 7.34-.66 2.24 2.37 2.24 2.46-.24 1.2.27 1.47a5.06 5.06 0 0 0 .81.36l.09 2.12s-4.43-5.6-4.58-5.42-.27 1.17-.12 1.29 4.52 5.15 4.58 5.42.36 2 .21 1.8-4.61-6-4.73-5.93-.24.69-.24.69a5.2 5.2 0 0 0 -2.58-.6c-1.61 0-12.51-.39-15-.3s-2.6.12-2.93.15a38.68 38.68 0 0 0 -4-.21c-2.13.06-4.4-.09-6.65 0s-3.08.09-3.26.93a59.33 59.33 0 0 0 1 9.73c.36.72.54.93 1.77.9s3.59 0 10.06-.3 15.22-.42 16.51-.42 1.59.15 1.74.33a35.29 35.29 0 0 1 2.6 3.41 3.38 3.38 0 0 1 -.09.54c0 .27-.39 1.58-.51 1.47s-3.38-4.95-3.68-4.95-.63.69-.42 1.08 3.8 4.16 3.8 4.52-.21 1.35-.45 1.11-2.72-3.2-3.08-3.35-.36-.24-3.89.09a69.72 69.72 0 0 1 -9.17.69c-3.74-.06-7.48-1-8.26-.84a1.26 1.26 0 0 0 -.78 1.9c.39.81 5.69 12.19 6 13.15s.39 1.38.78 1.47 3-.27 6.17-.3 5.06.33 5.42-.18.89-3.06 1.1-2.94a15.33 15.33 0 0 1 2.16 2.31c-.06.15-.24.93 0 1.2s1 .36 1 .36 4 4.31 3.8 4.4-1.34.22-1.43-.02zm2.43-.06c-.12-.15-3.65-4.55-3.59-4.67s.44-.12.68 0a57.42 57.42 0 0 1 4.23 4.58c-.15.03-1.2.24-1.32.09zm4.43-.12a6 6 0 0 1 -1.8 0 50.61 50.61 0 0 1 -3.8-4.43c0-.26 1.2-.39 1.8-.12s4.1 4.55 3.8 4.55zm1.14 0a58.49 58.49 0 0 1 -3.74-4.85c0-.28 1.31-.27 1.61-.06a37.56 37.56 0 0 1 3.54 4.85 2.05 2.05 0 0 1 -1.41.09zm4.64.24a11.31 11.31 0 0 1 -2.25 0 49.1 49.1 0 0 1 -3.23-5.15c0-.18.6-.15.84 0s3.08 4.07 3.53 4.1.51-.63.36-.81a37 37 0 0 1 -2.54-3.65c.14-.06 2.6-.18 2.75.12a33.1 33.1 0 0 1 .59 5.42zm-45.24-4c-.32 0-6.45 0-6.65.12a13.91 13.91 0 0 0 0 3.92 1.8 1.8 0 0 0 1.12 0c.28-.08.22-2 .16-2.46s1-.26 1.69-.28 3.86.08 4-.16-.03-1.08-.32-1.12zm-2.24-32.81c-.28.54.49 4.34.66 4.41a.64.64 0 0 0 .8-.38 25.78 25.78 0 0 0 -.06-3.91.84.84 0 0 0 -1.4-.12z" fill="#fff"/></svg>