<svg height="64" viewBox="0 0 64 64" width="64" xmlns="http://www.w3.org/2000/svg"><path d="m48.55 4.61c-2.19-1.56-6.94-1-15.53-.88s-12.41.36-15.13.48a13 13 0 0 0 -5.55 1.4c-1.67 1 .76 16 1.2 21.72s.92 16.05 1.24 20.67.84 9.62 1.24 10.5a3.78 3.78 0 0 0 3.43 2c1.88 0 3.55-1.5 5.55-4.67s7.27-11.94 8-12.29 6.63 0 8.43-.08 4.35-.48 5.07-1.68 2.19-9.66 3.79-16.49a63.94 63.94 0 0 0 1.88-13.17 9 9 0 0 0 -3.62-7.51zm.56 8.94c-.28-.48-.36-1.75-1-1.55s-.67.6-.55 1.31a19 19 0 0 0 1 2.28c0 .28-.08 2-.2 1.72s-1.15-3-1.39-2.84a.76.76 0 0 0 -.52 1c.2.76 1.43 3.39 1.43 3.83s-.19 1.68-.35 1.44-1.13-3.39-1.53-3.47a.72.72 0 0 0 -.76.87c.16.52 2.2 4.48 2.2 4.48s-.32 2.75-.48 2.55-1.72-4.51-2-4.51-.64.84-.64.84 2.24 5 2.16 5.47-.32 1.83-.44 1.63-1.32-3.83-1.8-3.83-1 .92-.84 1.2 2.2 4.31 2.28 4.71a12.38 12.38 0 0 1 -.44 3.15c-.12-.12-1.84-5.7-2.12-5.7s-.71.19-.55 1 2.23 6.19 2.23 6.79-.28 2.32-.4 2-2.39-6.35-2.55-6.47-.8.76-.76 1 2.95 7 2.83 7.1-1 .32-1.16.16-1.76-5.71-2.03-5.84-.76.36-.68.76 1.92 5.23 1.76 5.23-.88.08-1-.08-1.8-5.51-2.24-5.51-.91.2-.91.36 2.19 5.11 1.91 5.19a2.2 2.2 0 0 1 -1.16-.08c-.16-.12-1.59-5.11-1.91-5.19s-1 .28-1 .64 1.84 4.55 1.68 4.59a1.63 1.63 0 0 1 -.88-.08c-.12-.12-1.56-4.75-1.72-4.79s-.88.2-.88.6 1.56 4.23 1.44 4.23-1 .2-1.24 0-1.71-5.15-2.19-5.23-.64.4-.68.52 1.83 4.79 1.83 4.79-.71-.08-.95.16-.2.36-.24.24-1.92-4.79-2.16-4.79a.7.7 0 0 0 -.72.52c-.08.4 2 4.59 2 4.79a3 3 0 0 1 -.8 1.12c-.12 0-1.72-4.31-2.08-4.31s-.87.2-.87.56 2 4.71 2 4.71l-.6 1.47s-1.67-4.07-2-4.15-.88.44-.84.76 2.11 4 2.11 4.55-.67 1.4-.79 1.28-1.28-4.31-1.64-4.39-1.12.32-1 .72 1.84 4.55 1.84 4.83-.2.64-.32.36a22.43 22.43 0 0 0 -1.68-3.4c-.24 0-.88.48-.8.76a35 35 0 0 1 1.68 3.75c-.08.32-.36 1.08-.64.84s-.8-2.27-1.24-2.27-.91.52-.79.79a21.48 21.48 0 0 1 1.11 3.2c-.12.16-2.59 4.07-4 5.07s-2.19.48-2.43.2-1.47-16.09-1.79-21.48-1.44-21.84-1.64-23.83-.68-4.71-.28-5.31 3.08-1.08 5-1.28 16.64-.29 20.87-.44 7.15.16 8.11.56a3.4 3.4 0 0 1 2.51 3.39c-.04 2.28-.4 5.2-.68 4.75zm-6.42-3.33c-.92-.22-10.69-.22-14.69.06s-6.93.71-7.66 1.18c-1.7 1.08-1.3 4.71-1.22 6.94s.54 11.86.66 14.7.68 11.61.82 11.69a1.11 1.11 0 0 0 1.06-.22c.24-.32 3.59-6.14 4.53-7.82a6.87 6.87 0 0 1 2.55-2.84c.34 0 5.07-.28 7.27-.42s2.93-.55 3.55-1.57a23.05 23.05 0 0 0 1.44-5.41 41.8 41.8 0 0 0 -2-4.05.8.8 0 0 0 -1.12-.08c-.18.28 1.1 2.55 1.2 2.73s-.92.1-1 .06-1.23-2.49-1.37-2.69-1-.14-1.14 0a14.77 14.77 0 0 0 1.15 2.52c.1.24-.74.28-1 .2s-1-2.71-1.2-2.83-.8-.14-.92.14a12.74 12.74 0 0 0 1.06 2.49c.08.24-.58.32-.86.22s-1.21-2.47-1.47-2.79a.8.8 0 0 0 -1.1 0c-.14.26 1 2.39 1.1 2.53s-.64.22-.82.16a14.31 14.31 0 0 1 -1.3-2.47c-.08-.26-.86-.1-1 .12s.82 1.91.92 2.11-.88.34-1.3.14-.72-.4-.58-1.18.26-1.83.66-2.05 1.1-.36 3.79-.4a50.74 50.74 0 0 0 7.3-.25c2.08-.36 2.38-1 3.17-2.9a32.36 32.36 0 0 0 1.56-6.62c-.01-.5-1.13-1.14-2.04-1.4zm-2 9.46c-.8.4-3.49.5-6.35.58a32.39 32.39 0 0 0 -6.23.46c-.91.32-1.09 2.59-1.13 3.43a4.08 4.08 0 0 0 1.11 2.54c.72 1 1.2 1.4 1.48 1.46s4.93 0 6.95 0 2.77 0 2.87.11a17.39 17.39 0 0 1 -.78 2.8c-.22.7-1.13 1.06-2.25 1.18s-7.53 0-8.23.38a20.1 20.1 0 0 0 -3.13 3.61c-.56.78-.82 1.72-1 1.72s-.32-1.64-.34-2.54-.14-8.88-.16-12.45-.2-6.37.34-7.27c.16-.25.8-.32 3-.36s12.47-.08 13.85-.08 2 0 2 .44-1.24 3.59-2.04 3.99zm-21.99-11.54c.33-.09.39-.41-.06-.83s-2.18-.15-3.11 0-1.2 1.73-1.11 3a13.25 13.25 0 0 0 .66 3.69.82.82 0 0 0 .93-.12c.18-.24-.24-4.82-.09-5.09s2.45-.56 2.78-.65zm24.64-2c-1.28 1.32 1.38 1.41 2.7 1.7s1.17 1.29 1.2 1.74.45.93.92.81.51-2.28-.09-2.93-4.49-1.59-4.73-1.35zm-22.84 45.72c-.33-.18-1.26 1.32-1.47 1.11a70.91 70.91 0 0 1 -.57-7.58.75.75 0 0 0 -1.14-.75c-.23.45 0 3.42.06 5.21s.12 5.06.69 5.24a2.17 2.17 0 0 0 2.34-1.23c.66-1.16.42-1.86.09-2z" fill="#fff"/></svg>