<svg height="64" viewBox="0 0 64 64" width="64" xmlns="http://www.w3.org/2000/svg"><path d="m61.68 45.74c-1.27-.83-3.29-1-4.19-1.2s-1.72-1.12-5.83-3.29-14-7-14.67-7.71 1.42-5.53 1.5-5.76.3-.15 1.57-.52a23.35 23.35 0 0 0 4.56-1.8c.53-.45 2.92-.6 3.37-.6s2.09-1.12 3.52-1.87 5.76-2.54 6.21-3.07.15-3.92-.72-4.19-4.94 1.2-6.13 1.73a37.46 37.46 0 0 1 -6.59 1.72 38.5 38.5 0 0 0 -4.49 1s1.13-2.24.6-3.74-3.14-3-4.49-3-5.76 1.72-6.73 3.22.15 4.41.15 4.41-3.85-3.84-4.67-5.07-6.07-6.4-6.74-6.55-2.69.67-2.69 2.09.37 3.9 1.42 4.79 8.83 8.91 8.83 8.91.07 1.72.15 2.77a13.58 13.58 0 0 0 1.19 3.29 6.9 6.9 0 0 1 -1.72 2.62c-1.49 1.64-9.35 7.1-9.65 7.48s-.45.52-2.32 1.05-11 6.43-11.67 7.33a2.72 2.72 0 0 0 0 3c.52 1 6.14 1.72 7.33 1.8s3.59-3.59 5-4.27 4.26-.82 6.36-1.79 9.27-5.62 10.55-5.84 3.66.75 6.36 1.65 10 2.39 10 2.39a33.63 33.63 0 0 0 3.95 2.61 13.12 13.12 0 0 0 7.63 1.79 5.08 5.08 0 0 0 4.19-3c.43-.66.18-1.56-1.14-2.38zm-31.5-27.54c.45-2.39 4.57-3.66 6.21-3.21s3.22 1.94 1 4-3 2.47-4.56 2.17c-.76-.16-3.1-.56-2.65-2.96zm29.93 30.16a32.86 32.86 0 0 1 -5.24-.68 50.31 50.31 0 0 1 -8.15-3.44 73.33 73.33 0 0 0 -7.48-2.62c-.6-.22-5.32-.52-5.77-.9a4.94 4.94 0 0 0 -2.47-1c-.82 0-6.21 2.77-7.7 3.74a32.85 32.85 0 0 1 -7.3 3.18c-2.62.74-5.32 1.72-6.06 2.39s0 1.12-1.65 1.5-5 .45-5.39.15-.3-.45.75-1 6.81-4.57 8.16-5.31a46.55 46.55 0 0 1 4.41-2c.22-.07 6.36-4.86 7.26-5.61a52.22 52.22 0 0 0 4.86-5.16c.45-.75.15-.75.08-1.28a35.61 35.61 0 0 1 -.83-3.81c0-.82.23-1.35 0-1.72s-8.9-11-10-12.2c0 0-1-1.57-.38-1.94a.92.92 0 0 1 1.13.22s11.14 12 11.44 12.05 2-.3 2.25-.23a15.86 15.86 0 0 0 4.34.08c.89-.3 3.59-1.27 5.76-2s11.75-3.22 12.42-3.22h1.79s-.3 1.5-.74 1.65-7.11 2.54-8.83 3.36a43.37 43.37 0 0 1 -7 2.47c-1 .15-1.5.15-1.72.45a7 7 0 0 1 -.9.82s-.75-1.49-1.2-1.27-1 .38-.6.68a16.21 16.21 0 0 1 1.43 1.72s-.3 1.19-.53 1.12a16.84 16.84 0 0 1 -1.57-1.42s-.9.6-.52.75a10.39 10.39 0 0 1 1.57 1.64l-.45 1.05a10.44 10.44 0 0 0 -1.65-1c-.22 0-.22 1-.22 1l1.5 1.43a4.78 4.78 0 0 0 2.39 4c2.32 1.12 16.31 7.93 18.26 9a13.39 13.39 0 0 0 3.14 1.42c.37.08 1.79.23 2.09.67s-.31 1.19-.68 1.27z" fill="#fff"/></svg>