<svg height="64" viewBox="0 0 64 64" width="64" xmlns="http://www.w3.org/2000/svg"><path d="m62.42 38.41c-1-4.29-4.55-7.44-11.89-6.39s-8.09 8.54-8.09 8.54-.45-5.69-9.59-5.89-10.54 7.33-10.54 7.33-2-5.79-10.18-5-10.54 6.51-10.64 7.31-.35 5.24-.3 5.89 2 2.65 2 2.65c.8.6 56.23 1.5 56.23 1.5s2.65-1.45 3.1-2.5.85-9.14-.1-13.44zm-40.36 11.84s-18.62-.6-18.87-.85c0 0 .1-5 .3-5.49s4-5.3 9.39-5.5 9 5.5 9.23 6.45a45.62 45.62 0 0 1 -.05 5.39zm19.48.4c-.35.2-17.73-.2-18-.4s.25-7.79.4-8.79 2.62-6.09 9.36-5.46 8.39 5.79 8.39 6.19.2 8.26-.15 8.46zm18.83-.95a4.91 4.91 0 0 1 0 1.25 3.45 3.45 0 0 1 -1.75 0c0-.15-5.09-6.24-5.24-6.24s-.55.35-.5.6 4.5 5.49 4.5 5.49h-2.38s-3.4-4.15-3.8-4.19-1 .89-1 .89a42 42 0 0 1 3.3 3.4 13.36 13.36 0 0 1 -2.45 0 27 27 0 0 0 -2.17-1.9c-.24-.05-1 .45-.84.7a17.55 17.55 0 0 0 1.19 1.3s-4.89-.3-5.14-.65-.05-8.69.35-10.24 2.6-6.39 7.89-6.84 7.19 2.6 7.49 3.55a6.8 6.8 0 0 1 .3 1.84s-1.75-1.66-2-1.66-.74 1-.54 1.29 2.54 2 2.54 2.4a27.87 27.87 0 0 1 .2 3.2c-.15-.1-3.44-4.45-3.69-4.45s-.9.8-.75 1 4.34 4.85 4.44 5.15a22.7 22.7 0 0 1 0 2.54s-5-5.89-5.19-5.94-1 .9-.9 1.05 6.14 6.16 6.14 6.46zm-50.44-16.13c5.84 0 9.09-2.95 9.29-9.44a8.86 8.86 0 0 0 -10.34-9.34c-6.79 1.1-8.14 7.04-7.88 11.39s3.08 7.34 8.93 7.39zm-5.4-13.79c3.15-3.94 3.3-3.09 5.25-3.49 2.72-.56 6.19 1.35 7 3.94a13 13 0 0 1 .05 5.8 17.23 17.23 0 0 0 -2-2.45c-.25 0-1.2.1-1.05.55s2.7 3.15 2.5 3.75a3.1 3.1 0 0 1 -.86 1.12 34.09 34.09 0 0 0 -2.25-2.74c-.19-.05-1 .4-.94.65s2.34 2.79 2 3-1.29.7-1.39.55-1.8-2.69-2.3-2.74-.9.35-.85.55 1.65 2.34 1.4 2.44-3.6.55-5.65-1a7.15 7.15 0 0 1 -.91-9.93zm25.47 10.54c3.59-.55 8.34-2.09 8.54-10.19s-6.08-9.73-10.39-8.79c-6.59 1.45-8 8.05-7 12.24s5.26 7.29 8.85 6.74zm-1.8-17.58c1.82-.72 6.64 0 7.84 3.1a12.44 12.44 0 0 1 .15 6.84 22.46 22.46 0 0 0 -2.4-2.55c-.25 0-.75 1.3-.75 1.3s2.45 1.95 2.3 2.3a12.62 12.62 0 0 1 -1.7 1.65 23.92 23.92 0 0 0 -2.35-2.9c-.25 0-.84.65-.84.65s2.59 2.9 2.24 3.2a6.19 6.19 0 0 1 -1.45.65 31.64 31.64 0 0 0 -2.24-3.45c-.25-.05-1.15 0-1 .45a34.91 34.91 0 0 1 1.7 3.15 7.15 7.15 0 0 1 -5.15-2.25c-1.74-2.1-4.63-8.88 3.66-12.14zm24.68 16.08c3.25-.59 6.09-4.34 6.44-10.48a8.15 8.15 0 0 0 -11.08-8.09c-6.5 2.74-6.5 9.14-4.8 13.73s6.19 5.44 9.44 4.84zm-4.34-16.43c2.45-1.77 6.09-.15 7.24.75s2.22 5.3 2.22 5.3a8.9 8.9 0 0 0 -1.24-.8c-.15 0-.5.5-.3.7s1.1.5 1 1-.2 1.19-.35 1.09-2.2-2.19-2.5-2.14-.65.8-.65.8 2.65 2.54 2.55 3-1 1.6-1.15 1.5a40.17 40.17 0 0 0 -3.36-3.16c-.3 0-.9.55-.75.9s3.4 2.75 3 3.05-.85.8-1 .55-2.3-2.55-2.65-2.55-1.2.6-.9.95 2.15 1.9 1.85 2.05-2.15.4-4.29-1.55-4.67-7.14 1.28-11.44zm-41.86 12.44a16 16 0 0 0 .45-2.35c.25-1 1.7-1.7 2-1.85s-.15-.8-.6-1-.9.09-2.4 2.14-.8 2.95-.8 2.95c.05.36 1.15.28 1.35.11zm19.32-4.6c.4-.15.1-1.29.55-2.24a8.65 8.65 0 0 1 1.45-1.99s-.25-.55-.45-.65-1.05.15-2.1 1.65-.82 2.59-.7 2.74a1.41 1.41 0 0 0 1.25.49zm22.38-3.54a6.27 6.27 0 0 1 1.79-2.4c.3-.25-.1-.65-.45-.65s-1 .1-2.09 1.55a6.28 6.28 0 0 0 -1.1 3.15.92.92 0 0 0 1 .6c.41-.05.47-1.15.81-2.25z" fill="#fff"/></svg>