<svg height="64" viewBox="0 0 64 64" width="64" xmlns="http://www.w3.org/2000/svg"><path d="m45.16 5.16c-5.71-5-19.54-5.72-25.92-.8s-7.91 13.76-8 18.08 1.09 39.16 1.42 39.62c.49.66 9.09 1.13 12.81.86s3.72.07 4.19-1.66.06-35.43.26-38.95 3.19-5.39 5.12-4.92 2.79 3.32 1.6 5.65-4.52 2-4.86 2-1.13 2.2-1.06 2.86.48 13.42.68 14.1 1 .87 2.46 1a20.56 20.56 0 0 0 9.77-2.06c4-2 6.52-3.46 8.58-14.89s-1.33-15.84-7.05-20.89zm1.49 14c.13.17 2.83 3.14 3 3.81a11.34 11.34 0 0 1 -.22 3.1 38.31 38.31 0 0 0 -3.19-4.25c-.27 0-.8.84-.53 1.15s3.36 4.34 3.36 4.47a10.9 10.9 0 0 1 -.79 2.35c-.09-.17-2.44-5-2.8-5s-.44.31-.44.66 2.93 5.1 2.84 5.32-.62 1.86-.62 1.86-2.93-4.92-3.15-4.92-.93.49-.71.76a58 58 0 0 1 3.24 5.32c-.09.17-1 1.72-1.24 1.59s-2.66-5.41-3-5.45-.75.4-.62.62 3.24 5.54 2.79 5.76-1.24.84-1.41.67-2.49-4.7-2.93-4.83-.84.66-.57 1 3 4.52 2.57 4.7-1.64.89-1.82.8-2.41-4.42-2.89-4.55-1.07.71-.76 1 3.24 3.74 2.84 3.96a6.82 6.82 0 0 1 -2.44.53c-.26-.13-1.86-3.72-2.21-3.94s-.84.44-.71.66 1.9 3.19 1.42 3.24-3 .09-3.06-.14-.44-12.71-.22-12.8 5.23-.53 5.76-4.12-.27-5.41-2.53-6.34-6.87-1-8.42 3.54-.19 21.05-.13 22.21.09 1.64.09 1.64a35.55 35.55 0 0 0 -2.57-3.54c-.22 0-.53 1.07-.36 1.25a46.81 46.81 0 0 1 3.15 4.75c0 .31 0 5.06-.09 5.06s-4.21-8.69-4.48-8.65-.44 1.07-.17 1.64 4.78 8.69 4.74 9a15.67 15.67 0 0 1 -.27 2.53c-.13 0-4.78-9.8-5.18-9.67s-.67.62-.53.85 5.94 10.24 5.94 10.6a13.56 13.56 0 0 1 -.14 2.53c-.13 0-.62.13-.66 0s-5.23-10-5.67-9.84-.85.44-.63.75 5.41 9 5.1 9-1 .18-1.15 0-4.18-6.87-4.48-6.8-.84.71-.44 1.11 4.3 5.71 4 5.71a12.16 12.16 0 0 1 -2.26 0c-.18-.13-2.53-4.47-2.79-4.47s-1.2.57-.62 1.15a18.6 18.6 0 0 1 2.41 3.39c-.22 0-.57.35-.93 0s-2.38-2.89-2.38-2.89-1.2.67-.8 1.11 2 1.64 1.64 1.64-3.5.4-3.72.13c0 0-.71-29-.84-33.63s.31-12.41 3.68-16.58 8.06-8.5 17.72-6.47 12 5 13.74 8.69 1.37 4.17 1.24 4.08-1.77-1.91-2-1.73-.45.75-.23 1 2.57 2.35 2.71 2.88 0 3.55-.18 3.37-2.38-3.61-2.6-3.49-.54.94-.4 1.12zm-26.25-9.28c-.6-.14-2.66.83-4.42 4.35a11.58 11.58 0 0 0 -1.06 7.31c.23.5 1.09.1 1.43-.06s.36-4.19 1-7a6.48 6.48 0 0 1 3.32-4c.16-.07.33-.48-.27-.6z" fill="#fff"/></svg>