<svg height="64" viewBox="0 0 64 64" width="64" xmlns="http://www.w3.org/2000/svg"><path d="m20.89 11.22c.24 0 3.76 2.76 7.55 5.27s12.3 10.3 12.61 10.42 1.16-1 1.36-2-.56-17.2-.52-17.64.08-1.16-2.75-1.4-11.74.13-15.09.96-4.31 1.72-4.31 2.36.26 1.89 1.15 2.03zm9.82-4.22c5.63-.44 9.91.12 9.95.4s.79 17 .59 16.73-11.57-8.87-14-10.7a41.7 41.7 0 0 1 -5.43-4.55c-.07-.18 3.27-1.45 8.89-1.88zm-4.79 2.66c.44.12.6 0 2.92-.59s8.3.08 8.86 0 1-.8.52-1.16-2.83-.32-5.35-.28a37.63 37.63 0 0 0 -7 1.08.47.47 0 0 0 .05.95zm31.5 14.7c-1.51-6.35-4-8.43-7.94-12.94s-6-5.13-6.19-4.43c-.16.52.16 10.66.2 16.61s0 16.6.28 17 2 .24 3 .24 9.62.24 10.06 0 1.4-2 1.72-3.59.39-6.55-1.13-12.89zm.08 11.13c-.28-.12-6.9-8.66-7.46-8.34s-.48 1-.36 1.08 7.5 8.06 7.58 8.26-.12 2.2-.52 2.08-8-9.3-8.38-9.3a.33.33 0 0 0 -.24.56c.16.15 7.51 8.62 7.39 8.74a5 5 0 0 1 -2.56 0c-.48-.32-4.07-4.91-4.43-4.75s-.32.92-.08 1.12 3.63 3.71 3.51 3.71-2.07 0-2.31-.12-2.8-3.28-3-3.16-.6.36-.4.56 2.28 2.44 2 2.48-3.15.36-3.39 0-.12-13.14-.24-19.8-.36-10-.16-10.1c.35-.21 6.07 5.71 5.79 5.71s-1 0-1.08.24.88.83 1.44 1.19a16.4 16.4 0 0 1 4.07 4.43 15.21 15.21 0 0 1 1.28 3.4s-4.84-6.59-5.71-6.55-.44.72-.2.92 6.14 6.67 6.14 6.67 1.24 3.47.68 2.91-6.42-7.43-6.78-7.43-.16.8.32 1.28 6.6 6.95 6.6 6.95a9.57 9.57 0 0 1 .44 2.11c.08 1.08.08 1.64.08 1.64s-6.72-8.18-7.04-8.18-.72.24-.48.52l7.5 8.58s.28 2.71 0 2.59zm-16.13 6.87c-7.1 0-19.6-.44-19.88-.32s-.4 12.14-.16 13.18 2.32 2.11 4.79 2.51a29 29 0 0 0 13-.68 28.3 28.3 0 0 0 13.57-7.9c2.92-3 5.23-6.43 4.83-6.91s-9.04.12-16.15.12zm12.63 3.39c-.24-.32-1.36-2.11-1.64-1.87s-.4.24-.24.4a7.81 7.81 0 0 1 1.16 2c-.08.2-1 1.44-1.16 1.2s-2-3.07-2.31-3-.68.32-.52.48a23.47 23.47 0 0 1 2.15 3.19c0 .24-.67 1.2-1 1s-3-5-3.36-4.87-.76.28-.68.44 3.6 4.87 3.6 5-1.12 1.28-1.4 1.18-4-6.34-4.31-6.3-.68.28-.52.52 4.07 6.06 4 6.26-1.08 1-1.2.84-4.79-7.06-5.19-7.14-.83.43-.63.59 5.42 6.71 5.34 6.83-2 1.56-2.15 1.4-5.15-8.27-5.43-8.27a.39.39 0 0 0 -.36.28s5.27 8.27 5.15 8.35-1.32.72-1.8.56-5.15-7.91-5.39-7.91-.71.44-.51.72 5.34 7.47 5.15 7.59-1.44.43-1.72.23-4.32-6.45-4.64-6.45-.8.36-.6.52 4.21 5.93 4.21 5.93a6.77 6.77 0 0 1 -1.72.2c-.24-.12-3.79-5.19-4-5.15s-.64.44-.52.52 3.68 4.59 3.4 4.59-1.48.28-1.84 0-2.68-4.27-3-4.31-1 .12-.76.44 3 3.91 2.71 3.91-1.4.16-1.52 0-2.59-3.31-2.75-3.31-.72.44-.52.64 2.24 2.24 1.84 2.24a21.62 21.62 0 0 1 -4.32-.76 16.62 16.62 0 0 1 -2.36-1.08s-.08-9.46 0-10c0-.2 17.49.2 21.36.12s11.39-.5 11.59-.3-1.32 2.87-1.59 2.55zm-36.1-10.75c-.56.19-9.65 8.83-9.7 9.06-.36 1.75 1.68 3.39 5.75 7.58s4.75 4.07 5.39 4 .36-17.08.16-18.36-1.04-2.46-1.6-2.28zm-.16 17c-.28-.44-3.39-2.83-4.83-4.27s-3.11-3.21-2.91-3.73c.08-.31 7.42-7.63 7.62-7.11s.38 15.57.12 15.11zm-3.11-11a17.17 17.17 0 0 0 -2.92 2.88.92.92 0 0 0 .72 1.2c.32 0 .56-.16.72-.8s1.24-1.64 1.68-2.16.04-1.12-.2-1.12zm-6.27 1.32c.56.2 2.51-2 5.39-5s16.61-17.16 16.73-17.48a2.72 2.72 0 0 0 -.76-1.71c-.44-.48-11.74-7.71-12.18-7.95s-4.31 3.28-7.27 7.11a24.26 24.26 0 0 0 -4.79 11.46 21.61 21.61 0 0 0 .76 9.42c.68 1.88 1.67 3.99 2.12 4.15zm-.08-19.32c1.2-3.08 4.87-7.47 5.71-8.31a24.45 24.45 0 0 1 3.47-3c.32 0 10.5 6.51 10.58 6.87s-8.94 10.31-11.14 12.54-8.18 8-8.5 7.87c-.5-.19-1.6-3.72-1.88-6.27s.56-6.63 1.76-9.7zm3.35 1.08c.6 0 1.2-1 1.92-2.12s5.11-5.59 5.39-6.67-1-1.08-1.2-.95a52.72 52.72 0 0 0 -5.59 6c-1.72 2.18-1.15 3.74-.52 3.74z" fill="#fff"/></svg>