<svg height="64" viewBox="0 0 64 64" width="64" xmlns="http://www.w3.org/2000/svg"><path d="m56.82 34.71a16.1 16.1 0 0 0 -4.91-10.48s-1.38-7-2-9.7-7.82-14.53-18.78-12.45-14.25 6.92-17.13 11.85-1.5 12-1.5 12a22.64 22.64 0 0 0 -2.87 4.77 36.67 36.67 0 0 0 -2.45 9.58c-.3 3.18.3 5.27 2.69 6.35s3.72-.24 3.72-.24c.6 1.26 3.47 3.23 3.47 3.23a11.54 11.54 0 0 0 -4.31 3.18 5.19 5.19 0 0 0 1.32 6.82c2.21 1.5 3.89 2.76 8.38 2.52a26.16 26.16 0 0 0 9.28-2.81c1.14.41 4.55-.12 4.55-.12a13.84 13.84 0 0 0 4.72 1.61 14.31 14.31 0 0 0 8.87-1.49c2.63-1.44 4.25-3.72 3.35-6.77a5.56 5.56 0 0 0 -3.65-3.77s.12-.3.83-1.74a12.9 12.9 0 0 0 .85-4.05l1.38.42c.6.18 1.44-.24 2.46-.78s2.09-1.4 1.73-7.93zm-6.11 16.47c.66.84.6 3.77.12 3.71s-2.39-4.13-2.63-4.79c-.09-.25 1.85.24 2.51 1.08zm4.73-13.65c-.47-.72-5.68-10.3-6.22-10.24s-.78.24-.42.6 6.7 11 6.7 11a5.09 5.09 0 0 1 -1.07 1.79 2.52 2.52 0 0 1 -1.2.54s-5-8.32-5.27-8.32a.86.86 0 0 0 -.54 1.19c.3.6 5 7.07 4.61 7.13s-1.86-1.68-2.27-1.5a1.66 1.66 0 0 0 -.66.54s-2.1-4.43-2.58-4.43-.72.24-.6.42 2.94 5.21 2.94 5.21.06 2.46-.24 2.28-2.58-5.39-3-5.39-.72.83-.54 1.07 3.12 5.63 3.12 5.63-.36 2.22-.6 1.92-3.17-5.09-3.17-5.09-.48 1-.24 1.32 3.05 4.8 3.05 4.8l-.24.42-.84-.18 4.31 7.84s-.53.66-.77.48-6.47-10.56-6.7-10.56-.36.66-.36.66l6.28 10.34s-1 1-1.26.54-6-9.64-6.23-9.64-1.08.24-.78.54 6 9.46 6 9.46-1.14.72-1.68.24-4.91-8.39-5.15-8.39-.71.54-.71.54 5 8 4.73 8-1.84-.29-1.84-.29-4.31-7.25-4.61-7.31-.9-.06-.72.18 4.25 7 4.25 7a1.12 1.12 0 0 1 -1.25-.18c-.54-.54-3.78-6.35-4-6.35s-.9.06-.6.6 3.48 5.21 3.12 5.21a4 4 0 0 1 -1.86-.6c-.42-.36-2.45-4.07-2.75-4.07s-1.14.24-.66.78a7.54 7.54 0 0 1 1.32 2.39c-.18 0-.48.36-.78-.06s-1.26-2-1.56-2-1.14.06-.72.54a10.64 10.64 0 0 1 1 1.67 15.06 15.06 0 0 0 -2.52.54c-1.37.42-4.55 2.7-9 2.88s-6.18-1.69-6.83-3.22.77-3.83 1.91-4.55a4.3 4.3 0 0 1 3.12-.6c.65.18.89.3 1.19.18a.46.46 0 0 0 .12-.84 21.25 21.25 0 0 1 -4.07-4.37c-1-1.67-1-4.49-2.15-4.13-.31.09-1.56 2.4-2.28 2.46s-2.28.65-2.87-1.32-.3-5.51 1.31-9.58a67.22 67.22 0 0 1 3.6-7.55s-1-6.11.77-9.76 4.62-8.11 8.45-10.03 11.74-4.13 18-.54a18.11 18.11 0 0 1 8 10.42s-.93-1.14-1.33-.79-.24.66-.06.72a11.71 11.71 0 0 1 2 3.17c.24.9.42 1.92.42 1.92s-2.1-3-2.4-2.75-.66.83-.48.89 3.17 3.78 3.17 3.78l.12 2s-2.63-3.59-2.75-3.41a1.48 1.48 0 0 0 .06 1.32 20.74 20.74 0 0 0 2.51 2.93 3.44 3.44 0 0 1 2.94 2c1.08 2 1.5 4.19 1.14 3.95s-2.46-5.33-3.12-5.21-.18 1-.18 1l3.9 6.41s1.05 4.53.57 3.81zm-7.72-7.71a10.52 10.52 0 0 0 1 2.18c.44.72 4.17 7.28 4.31 7.42s.58.14.62-.08a25 25 0 0 0 -1.42-2.61c-.74-1.44-3.8-7-3.91-7.13s-.6.04-.6.22zm-8.62-2.53c-.32-.2-1.16.78-1.62.72s-1.21-1.1-1.58-1.08c-1.1.06-.66 1-.3 1.38s2.22 1.11 3 .5.82-1.32.5-1.52zm-3.32-11.6a5.76 5.76 0 0 0 -2.91 4.31 7.9 7.9 0 0 0 1.4 5.29 3.73 3.73 0 0 0 3.87 1.16c.9-.2 2.13-1.58 2.55-3.75s.31-4.93-.69-6.11a3.47 3.47 0 0 0 -4.22-.9zm2.56 9.22a2.12 2.12 0 0 1 -2.94-.34c-1-1-1.35-3.11-1-5a3.37 3.37 0 0 1 1.85-2.63c1.23-.74 3 .4 3.28 2.11s-.23 5.26-1.19 5.86zm-10.5-9.08a5 5 0 0 0 -3.63 2.87 8.32 8.32 0 0 0 -.48 5.49 5.16 5.16 0 0 0 2.91 3.16 3.47 3.47 0 0 0 3.71-1c1-1.4 1.36-5 1-7.39a3.33 3.33 0 0 0 -3.51-3.13zm1.36 9.68a2.2 2.2 0 0 1 -2.92.22 5.26 5.26 0 0 1 -1.58-3.37 7.77 7.77 0 0 1 1.08-3.79 3.22 3.22 0 0 1 2.12-1.5 2.6 2.6 0 0 1 2.35 2.61c.04 2.1-.25 5.07-1.05 5.83zm-1.08-5.51a1.69 1.69 0 0 0 -1.3 1.6c.08.52.6 1.66 1.44 1.42s1.75-1 1.51-1.84a1.42 1.42 0 0 0 -1.65-1.18zm8.64-.4c-1.92.16-1.74 1.28-1.82 2.1s.5.94.88.78.18-1.18.7-1.44 1 .56 1.3.76 1-.22.78-.64-.88-1.64-1.84-1.56zm-14.25-9c-.46 0-2.16 1.18-3.51 3.15a14 14 0 0 0 -2.16 6.13c-.12 1.5.47 1.75.68 1.88s.56.2.7 0a36.79 36.79 0 0 1 1.15-5.76c1-3.37 3.44-4 3.8-4.59s-.17-.83-.66-.85zm16.17-1.2c.54.24 1.39.12 1.49-.34s-.91-2.25-4-2.41-4 1.14-4.13 1.4.18 1.11.78.93 1-1 2.67-1.05 2.65 1.23 3.19 1.47zm-24.57 23.29c-.36 0-2.56 1.93-3.23 4.13a12.13 12.13 0 0 0 -.38 4.84.74.74 0 0 0 1 0c.23-.31.07-2.22.61-4.07a10.38 10.38 0 0 1 2.18-3.59c.64-1 .18-1.26-.18-1.31z" fill="#fff"/></svg>