<svg height="64" viewBox="0 0 64 64" width="64" xmlns="http://www.w3.org/2000/svg"><path d="m18.62 38c1.2-2.4 1.74-9.1 1.68-12.58s.06-9-3.11-9.52-4.73.72-7.49 3.12-4.13 8.18-3.65 11.98 2.3 8.7 4.07 10.18c2.94 2.49 7.31-.75 8.5-3.18zm-5.92.9c-1.38-.35-4.2-2.82-4.85-6.23s-.3-9.88 1.91-12.46 6.35-4.19 7.79-3.17 1.85 7.88 1.45 11.66-2.29 11.3-6.3 10.24zm27.18 1.85c2.28-3.11 4.14-10.06 4.19-15.27s-1.73-8.08-2.15-8.44-1.08-.6-3.41 0-5.51 3.57-5.51 3.57a15.85 15.85 0 0 0 -2.34-2.69c-2-2.1-5.31-2.75-6.23-2.1a4.14 4.14 0 0 0 -1.61 3.06c-.06 1.07.6 7.42 1.13 12s1.14 5.39 2.76 7.37a11.3 11.3 0 0 0 4 2.93c.66 1.68 2.46 3.72 3.23 4s3.67-1.27 5.94-4.39zm-10.88-9.42c.48 3.24 2.22 7.67 1.8 7.73a8.21 8.21 0 0 1 -4.55-3.78c-1.08-2.27-1.68-9.88-2-11.43s-.65-5.93.72-6.59c.46-.22 3.6.78 5.27 2.16a3.87 3.87 0 0 1 1.68 2.69s-3.41 5.99-2.92 9.22zm3.34 6.67c-.36-.12-.6-6.41-.36-8.44a9.11 9.11 0 0 1 2-4.44c.35-.34 1.32 3.12.3 7.67s-1.58 5.31-1.94 5.21zm2.57 4.31c-1.49-.78-2.09-2-1.79-2.57s2.93-6 2.75-9.65-1.92-8.44-1.68-8.8 5-4.07 6.65-3.11 3.41 7.9.84 14.73-5.27 10.16-6.77 9.38zm19.23-21.4a9.25 9.25 0 0 0 -7.91-3.91c-2.16.06-1.2 12.34-1.2 14.55s1.14 4.55 3.24 7.25 4.37 3.53 5.45 3.65 2.93-1.8 4-8.14-.72-9.45-3.58-13.4zm2.29 14.41c-.24 1.32-1.08 4.24-1.52 4.2s-3.91-5.43-4.31-5.27-.76.36-.36.76a47.17 47.17 0 0 1 3.88 5.22 3.05 3.05 0 0 1 -2.12-.67 22.62 22.62 0 0 1 -4.15-5.27c-.64-1.32-.52-8.83-.56-10.3a49 49 0 0 1 0-6c.2-.22 4.51 1.34 6.47 4.09s2.47 4.87 2.19 4.59-2.95-4.76-3.39-4.67-.36.64-.2.92a49.78 49.78 0 0 0 3.11 4.83 1.36 1.36 0 0 0 .68 0s.56 3.59.28 3.51-4-6.43-4.63-6.58-1-.28-.56.51 4.15 6.55 4.47 6.71a.63.63 0 0 0 .64-.12 13.74 13.74 0 0 1 .08 3.54zm-5.07-7.32a.77.77 0 0 0 -.64.6c0 .24 4.43 6.15 4.67 6.35s.36-.16.48-.48-4.19-6.47-4.51-6.47zm-.2 3.39c-.44 0-.88.36-.72.64s4 5.71 4.35 5.87.4 0 .36-.52-3.45-5.92-3.99-5.97zm-2.16 10.44a18.34 18.34 0 0 1 -4.12-5.19c-.6-1.36-1.22-1.25-1.51-1.08-.48.28-.84 2.64-2 4.87a10.62 10.62 0 0 1 -4.19 4c-.6.32-.12 1.19.56 1.79a7.68 7.68 0 0 0 3.87 2 11.86 11.86 0 0 0 6.51-.64c1.79-.76 3.15-1.92 3-3s-.56-1.47-2.12-2.75zm-.92 3.59c-.48.2-2 .72-2.36.4s-1.64-3.59-2.07-3.59-.88.24-.56.72 1.51 2.79 1.19 2.83-.75.16-.83-.16-1-2.27-1.48-2.27-.84 0-.64.4.88 1.87.4 1.83-3.11-.24-3-.83 1.79-1 3-2.8 1.88-3.07 1.88-3.07c.36-.2 2.07 2.71 2.71 3.31s1.36 1 1.24 1.2a.55.55 0 0 0 0 .68c.25.24 1.01 1.16.53 1.35zm1.11-.51c-.19 0-.39-1-.39-1 .43 0 .47.16.67.56s-.07.53-.27.44zm-4.47-2.48a14 14 0 0 0 1.52 3 .54.54 0 0 0 .88-.27 7.3 7.3 0 0 0 -1.12-2.49c-.51-.8-1.36-.51-1.27-.24zm-17.64-.92a17.78 17.78 0 0 1 -3.4-2.35c-1.68-1.6-2.15-4.09-2.42-4.16-1.24-.28-1.52 3-2.52 5a6.09 6.09 0 0 1 -3.51 2.91 1.84 1.84 0 0 0 -1.23 1.44c0 .76 1.48 1.39 6.27 1.75s6.15-1.27 7.15-2.31.43-1.72-.33-2.28zm-3.59-.6c-.52 0-.88 0-.76.36s1.15 2 .72 2.12-.44.28-.6 0-1.4-2.56-1.8-2.4-.48.44-.2.72 1.2 1.88.88 2-.8.24-.88 0-1-2.24-1.48-2.08-.76.28-.56.52 1.2 1.4.72 1.44-2.67.16-2.63-.44 2.6-2.15 3.2-3.31.8-2.4 1-2.36 1 2.2 1.76 2.71 1.14.68.64.72zm1 2.2c-.24-.12-.48-1.6-.48-1.6.32 0 1.48.88 1.76.88s-1 .84-1.24.72zm-9-24c-.56-.32-2.35 0-4.27 2s-2.16 4.26-1.92 4.71 1.16.32 1.36 0a7.06 7.06 0 0 1 1-3.07 6.41 6.41 0 0 1 3.73-2.75c.61-.17.68-.6.12-.92z" fill="#fff"/></svg>