<svg height="64" viewBox="0 0 64 64" width="64" xmlns="http://www.w3.org/2000/svg"><path d="m58.56 21.4c-2.11-7.79-6.21-10.26-13-13.47s-17.11-2.85-22.74-1.43a25.39 25.39 0 0 0 -15.22 10.27c-3.84 5.74-3.26 8.42-1.42 15.9s9.82 13.79 9.82 13.79-1.73 5.74-2.26 7.95.53 3.05 2.37 2.89 11.07-6.3 11.07-6.3 5.16.89 13.59-.42 10.23-4.86 14.58-9.12 5.31-12.27 3.21-20.06zm-10.16 11.74c.16.16 6 4.79 6 4.79l-1.42 2.21s-5.58-4.63-5.85-4.58-.63 1-.63 1 5.5 4.11 5.32 4.44a14.2 14.2 0 0 1 -1.82 1.62l-4.55-3.62s-1.1.48-1 .74 5 3.47 4.84 3.63-2.68 1.48-2.68 1.48l-4.32-3.45s-1.26.69-1 1 4 3 3.68 3.16-3.15 1.06-3.15 1.06-2.85-2.69-3.06-2.74-.94.47-.89.68 2.79 2.48 2.63 2.58a17.78 17.78 0 0 1 -8.11 1c-4.31-.47-5.58-1-6.47-.94s-8.53 7-9.27 6.47c-.21-.15 2.48-6.9 2.27-7.11s-3.69-2.1-8.06-8.52-5.42-12.74-3.68-17.8 10.63-11.24 16.11-12.37a37.55 37.55 0 0 1 20.48 1c7.73 2.74 11 7 12.53 10s1.57 8.06 1.57 8.06-6.58-5.74-6.87-5.63-.37.94-.21 1.1 7 5.42 7 5.69-.05 2.73-.11 2.58-6.68-5.9-6.84-5.9-.84.63-.53 1 7.06 5.74 7.06 6.16a8 8 0 0 1 -.69 2.26 88.31 88.31 0 0 0 -6.79-5.68c-.31 0-.73.79-.58 1s6.79 5.26 6.79 5.53a12.62 12.62 0 0 1 -1.23 1.96s-5.52-4.73-5.73-4.73-.9.73-.74.87zm7.53-11a2.15 2.15 0 0 0 .21-.74c0-.32-5.74-5.16-5.74-5.16-.32.16-.74 1.16-.53 1.37s6.06 4.48 6.06 4.48zm-38.12-9.21a17 17 0 0 0 -5.1 3.73 18.1 18.1 0 0 0 -2.9 4.9c-.1.31.95.63 1.16.58a22.35 22.35 0 0 1 2.58-4.06c2.11-2.52 4.84-3.68 4.95-4s-.35-1.3-.69-1.15zm11.19-10.22c.22 0 .48-.58-.15-1s-6.31 1.08-6.48 1.16a.75.75 0 0 0 -.1 1.32c.44.26 6.49-1.42 6.73-1.48zm10.22.48c.37.05.21-1.42.05-1.58s-5.48-.21-5.48-.21c-.26.21-.42 1.05-.15 1.26s5.18.47 5.55.53zm7 1.16c.21-.06.36-.95.26-1.16a29.28 29.28 0 0 0 -3.74-1.06c-.31.06-.42 1.11-.26 1.32a18.54 18.54 0 0 0 3.66.9zm6.58 3.89c.26-.05.42-.53.31-1s-2.75-2.73-3.1-2.63a1.28 1.28 0 0 0 -.64 1.16 12.74 12.74 0 0 0 3.35 2.47zm5.15 5.21c1.06 1 1.43 2.95 1.58 3s.85-.31.85-.63a10 10 0 0 0 -1.16-3c-.69-1.16-1.45-1.74-1.69-1.74-.58 0-1 .69-1.1.95s.39.42 1.44 1.42zm4.58 11.37c.43-.05-.36-4.63-.52-4.79s-1.11 0-1.11 0c-.16.32.32 4.32.32 4.69s.78.16 1.23.1zm.32 4.11a7.83 7.83 0 0 0 -1.16.05c-.16.37 0 4.42 0 4.9s1 .1 1.27-.11a18.52 18.52 0 0 0 -.19-4.84zm-3.5 10.74c0 .37.68.42 1 .37s2.05-3.32 2.05-3.32l-.84-.53a17.33 17.33 0 0 0 -2.21 3.48zm-2 3.21a46.24 46.24 0 0 0 -3.26 3.74c-.21.42.52.63.79.63a21.71 21.71 0 0 0 3.31-3.69c0-.21-.79-.68-.79-.68zm-12.53 9.58c-.47.32.16.95.47 1.16s5.16-2.42 5.21-2.69a3.61 3.61 0 0 0 -.36-1.16c-.14.23-4.85 2.37-5.32 2.69zm-4.21 1.26c-.37.06-4.16.58-4.53.74s-.21 1.21-.21 1.21l5.13-.84s-.07-1.15-.39-1.11zm-10.48.79a14.56 14.56 0 0 0 -1.95-.1c-.94.1-.52 1.21-.52 1.21a16.27 16.27 0 0 0 2.74-.06c.31-.15.1-1-.27-1.05zm-5.89 1.69a47.41 47.41 0 0 0 -4.58 2.8c-.42.42.31 1.1.58 1.16a37 37 0 0 0 4.47-3c.29-.16-.26-1.02-.47-.96zm-8.79 4a11.85 11.85 0 0 1 -2.37 1 4.21 4.21 0 0 1 -2.16-.2c-.16 0-.47 1.47-.47 1.47a5.77 5.77 0 0 0 1.63.06c.84-.11 3.58-.74 3.73-1.11a1.37 1.37 0 0 0 -.36-1.17zm-5.27-8.2c-.26 0-1.89 6.53-1.84 7s.95.37 1.37.26 1.79-6.63 1.79-7-1.05-.26-1.32-.26zm1.69-2.9c.47-.16.68-2.21.63-2.42s-.84-.37-1.21-.26-.53 2-.58 2.37c0 .04.68.51 1.16.35zm-2.53-5.7c-.16-.21-.47-.57-1.63-1.84a7 7 0 0 1 -1.53-2.63l-1.47.84a11.75 11.75 0 0 0 4 4.85c.29.1.79-1 .63-1.22zm-8.16-12.63a18 18 0 0 0 1.37 5.53c.21.21 1-.11 1.26-.32s-1.16-5.26-1.31-5.42-1.32.21-1.32.21zm1.82-11.69s-.53.22-1.32 3.11-.68 3.81-.6 4.16 1.1.47 1.26.37a11 11 0 0 0 .31-2.72 27.8 27.8 0 0 1 1.21-4.58c.06-.18-.86-.34-.86-.34zm2.13-3.08c.21-.05.63-.79 1.26-2.11s2.48-3.26 2.42-3.52-.94-.37-.94-.37a24.66 24.66 0 0 0 -1.87 2 14 14 0 0 0 -2.16 3.16c-.19.56 1.08.84 1.29.84zm6.68-7.16c.48 0 5.64-3.32 5.64-3.32s-.11-1-.42-1.1-.79.1-3 1.16-3.21 1.79-3.21 2.05.52 1.14.99 1.19z" fill="#fff"/></svg>