<svg height="64" viewBox="0 0 64 64" width="64" xmlns="http://www.w3.org/2000/svg"><path d="m57.74 18.79c-.17-.92-4.36-4.19-5-4.35a2.49 2.49 0 0 0 -2.17 0c-1.22.47-9.17 7.29-10.13 9.8s1.38 5.11 3.14 6.15 3.34 2.51 3.43 5.15a3.24 3.24 0 0 1 -4.4 3.23c-2-.76-1.71-3.06-1.71-5.11s-1.26-4.56-4.69-3.69-3.89 5.15-4.1 7.37.25 4.06-1.09 6.16-3.94 1.13-4.44-1.18 2.72-4.81 5.11-8.75.33-6.07-2.14-6-5 2.85-6.15 4-2.68 1.21-3.22.67-.34-1.39 1.08-2.31 6.28-2.59 7.5-3.56 1.63-2 1-3.05-4.18-.8-5.36-.71-1.63-1-.62-1.38 2.21.25 4.81.58a13.61 13.61 0 0 0 8.2-.75c4-1.47 6.83-8.25 7.12-10.13s-7.91-9.47-9.15-9.85-2.47.55-5.28 2.31-13.48 8.87-15.7 10.34-6.26 3.67-7 4.85c-1.09 1.68-.63 5.65-.38 8.25s.88 11.72.93 15.11.87 5.69 3.6 8 17.45 13 20.59 13.1 4.19-.62 9.54-3.68 15.45-9.42 16.33-14.65.51-25 .35-25.92zm-2.1 3.1c-.16-.09-3.43-2.51-3.6-2.3s-.33.79-.08 1a36.89 36.89 0 0 1 3.6 2.64c0 .2.17 2 0 1.88a32.85 32.85 0 0 0 -3.85-2.68c-.08.13-.29.71-.08.88a44.7 44.7 0 0 1 3.89 2.69 10.26 10.26 0 0 1 -.09 1.72s-3.35-2.68-3.6-2.68-.29 1.09-.12 1.13a34.48 34.48 0 0 1 3.68 2.59c0 .17-.12 1.26-.12 1.26s-3.19-2.55-3.35-2.51-.09 1.05-.09 1.05a27 27 0 0 1 3.35 2.51c0 .29.17 1.71 0 1.75s-2.8-2-3.18-1.8-.33 1-.08 1.14 3.14 1.71 3.22 2.05a7.09 7.09 0 0 1 0 2.09c-.12 0-3.14-2.76-3.35-2.55s-.12 1.13-.12 1.13 3.35 2.59 3.43 2.8a17 17 0 0 1 0 2 43.85 43.85 0 0 0 -3.68-2.56c-.21.05-.08 1.13-.08 1.13a36.33 36.33 0 0 1 3.72 2.81c0 .25 0 1.88-.17 1.88s-3.14-3-3.64-2.89-.75.38-.42.76 3.9 2.84 3.85 3.18a4 4 0 0 1 -1.34 1.51c-.16 0-3.18-3.35-3.51-3.35s-.92.5-.71.71 3.68 3.31 3.55 3.39l-1 .71s-3.89-3.35-4-3.35-.59.8-.59.8 4.15 3.05 3.94 3.18-1.42 1.3-1.51 1.13a37.89 37.89 0 0 0 -3.68-3.27c-.21 0-.59.13-.55.46s3.81 3.23 3.56 3.44-1.38.92-1.38.92-3.29-3.35-3.66-3.27-.67.75-.67.75 3.72 2.77 3.51 3.06a4 4 0 0 1 -1.17.67s-3-3.1-3.18-3.1-.67.17-.59.38 3.3 3.02 3.1 3.24-1 1.13-1.38 1-2.8-3.47-3.06-3.47-1.08.42-.83.71a40.62 40.62 0 0 1 3 3.43c-.13.13-.75 1-1 .67s-3.35-3.52-3.51-3.56-1 .34-.8.59 3.73 3.31 3.52 3.47-1.72 1.18-1.72 1.18-3-4-3.35-4-1 .21-.92.54 3.56 4 3.43 4.15a1.69 1.69 0 0 1 -.83.33c-.25 0-3.94-3.68-4.23-3.68a.86.86 0 0 0 -.67.5c0 .17 4.35 3.52 4 3.77a12.19 12.19 0 0 1 -1.43.67s-4.31-4.19-4.64-4.19-1.26.71-1 1 4.77 3.64 4.48 3.89-1.13.92-1.51.75-20.24-14.17-21.2-15.38-1.09-4.27-1.51-8.63-1.34-15.9-.71-16.87c.36-.54 24.19-16 25.28-15.82s6.66 6.07 6.79 6.61-2.64 7.2-5.94 8.46-6.87-.63-9.92-.25-4.27 1.59-4.53 3.39 1.68 2.85 3.1 3 3.14-.12 3.48.3.42 1-2 1.5-6.38.94-7.81 2.94-.79 3.94 1.93 5.15 5.44-1.21 6.19-1.88 3.23-2.89 3.94-2.43.71 3.26-2.26 6.57-4.18 7.24-.67 9.09 7.2-.46 7.62-3.31-.55-5.36 1-7.91 3-3.06 3.35-1.76-1.09 4.86 2 7.12 6.23 1.59 7.7-1.09 1.42-5.07.21-6.32-5.07-3.81-5.69-5.53-.55-2.47 1.21-4.27 7-6.24 7.66-6.07a21.49 21.49 0 0 1 4.1 2.93 6.61 6.61 0 0 1 -.03 2.6zm-32.06-8.16c.38 0 7-4.36 7.16-4.53s-.3-.67-.67-1-7.32 4.24-7.41 4.52.54.96.92 1.01z" fill="#fff"/></svg>