<svg height="64" viewBox="0 0 64 64" width="64" xmlns="http://www.w3.org/2000/svg"><path d="m50.67 33.52c-.12-.3.3-.39 1.38-1.5s4.58-5.57 7.33-9a9.14 9.14 0 0 0 2.25-7.75 3.79 3.79 0 0 0 -2.55-3.57c-1.22-.45-6.94-.21-7.93-.15a2.41 2.41 0 0 0 -2 1.41c-.54.84-4 6.08-5.3 7.69s-4.1 4.23-4.34 4.14-.18-6.89-.39-8.45-3.17-3-5.09-3.14a108.51 108.51 0 0 0 -10.93.42c-.95.21-1.58 1.14-1.46 1.5s1.76 2 2.21 2.6 1 6.44.93 8.86-1 3.45-1.32 3.36a8.93 8.93 0 0 1 -3.71-2.82c-1.87-2.12-6.75-12.12-6.93-12.43s-1.1-.45-3.83-.54-5.47.23-5.93 1c-1.37 2.36-.68 7.18 0 9.37a40.93 40.93 0 0 0 4.67 9.91 76.69 76.69 0 0 0 10.54 12.26c3.87 3.78 6.77 5 8.45 5.54s4.7.36 7.3.27 3.63-1.17 4.2-2.45.41-4.64.35-5-.09-1.83.45-1.86 1 .69 2 1.74 2.45 5.39 3.14 5.84a8.52 8.52 0 0 0 4.29.8 57.57 57.57 0 0 0 7.93-.44c.93-.3 3-2.73 3.35-4.29s-.78-3.11-1.88-5.06-7.06-7.96-7.18-8.26zm7.61 13.56c-.09-.21-4.35-5.45-5.84-7.3s-2.1-2.64-2.55-2.4-.27.72 0 1 7.55 9 7.46 9.13-1.38.42-1.5.18a78.43 78.43 0 0 0 -4.7-6.35c-1.83-2.12-3-3.11-3.35-3a.61.61 0 0 0 -.12 1 22 22 0 0 1 4.28 4.31c1.53 2.19 3.14 3.86 2.9 4.07a3.21 3.21 0 0 1 -1.67.06c-.06-.09-3.24-4.1-4.71-5.78s-1.79-1.79-2.24-1.61.48 1 1.17 1.73 4.28 5 4.49 5.24.33.66.09.66a9 9 0 0 1 -1.83-.09c-.15-.12-5-7.06-5.48-7.15s-.75.18-.63.41 5.12 6.47 4.76 6.56a2.09 2.09 0 0 1 -1.46-.21c-.33-.27-3.3-4.73-5.24-6.29s-3.06-2-4-2a2.14 2.14 0 0 0 -1.53.81s-2.7-3.21-3.12-3.06-.47.45-.21.81 2.75 2.81 2.75 2.96-.21 1.61-.24 1.73-3.59-3.83-3.83-3.74a1.1 1.1 0 0 0 -.33 1.08c.15.24 4.46 3.8 4.52 4.13s.27 2.6 0 2.42-4.76-5.59-5-5.53-.72.71-.54 1 5.42 5.34 5.42 5.58a.76.76 0 0 1 -.84.51c-.36-.12-5-5.6-5.48-5.42s-.81.51-.45.87 4.88 4.6 4.77 4.88-1.4.15-1.64 0-4-4.94-4.58-4.79-.72.66-.51 1 4.13 3.74 3.89 3.89a3.32 3.32 0 0 1 -1.71 0c-.3-.15-3.47-3.8-3.86-3.86s-.72.51-.57.72a29.92 29.92 0 0 1 2.48 2.76 11.91 11.91 0 0 1 -5.09-2.18 57.26 57.26 0 0 1 -8.33-8.66 56.86 56.86 0 0 1 -6.5-10.09c-2.33-4.63-4.34-9.81-3.26-11.07a3.08 3.08 0 0 1 2.31-.68c1.1 0 5.15-.12 5.39.23s3.56 7.79 5.42 10.54 3.62 4.47 4.79 4.94a2.55 2.55 0 0 0 3.32-1.43 13.33 13.33 0 0 0 .36-5.75c-.21-2 0-5.15-.87-6.41a10.74 10.74 0 0 1 -1.5-2.39 53.33 53.33 0 0 1 7.1-.6c2.84-.12 5-.36 5.06 1.16s.15 3.72 0 7 0 4 1.08 4.52 2.51-.06 4.88-2.21a43.62 43.62 0 0 0 6.34-7.87 29.61 29.61 0 0 1 3-4.16c.21-.12 5.18-.45 5.66-.09s2 2.34 2.24 2.52a.53.53 0 0 1 .24.56c0 .09-.39 1-.62.87s-2.07-2.09-2.43-2-.48.39-.18.77 2.22 1.89 2.19 2.16-.66 1.29-.84 1.17-2.26-2.85-2.58-2.73-.66.66-.39 1a27.63 27.63 0 0 1 2.28 2.58c0 .21-.66 1.31-.81 1.19s-2.36-2.54-2.66-2.36-.6.39-.33.72 2.6 2.24 2.48 2.57-.78 1.62-1 1.5-2.69-3.17-3-3-.6.44-.39.71 2.66 3 2.66 3.15a3 3 0 0 1 -.65 1c-.09 0-2.4-2.73-2.58-2.67s-.69.51-.57.72 2.49 2.54 2.19 3-.63.84-.81.78-2.64-3-2.9-2.9-.75.3-.6.66 2.81 2.84 2.69 3.08-.87.84-1.08.69-2.28-2.66-2.67-2.54-.6.15-.54.45 2.43 2.49 2.25 2.7-1.44.87-1.92 1.35-.45.86-.09 1.1a53.31 53.31 0 0 1 7.9 7.7c2.7 3.5 3.42 5 3.81 6a3.34 3.34 0 0 1 .33 1.78zm-49.08-30.08c-.33-.24-3.38-.24-3.53.15a12.64 12.64 0 0 0 1.44 4.37.58.58 0 0 0 .89-.34c.12-.3-.77-2.84-.74-3.11s1.64-.07 1.94-.15.33-.66 0-.92zm20-1.14a.89.89 0 0 0 .39 1c.36.15 2.91.24 3.12.3s.18 1.44.27 1.92.8.24 1 0a9.25 9.25 0 0 0 0-3.15c-.08-.32-4.69-.25-4.78-.05z" fill="#fff"/></svg>