<svg height="64" viewBox="0 0 64 64" width="64" xmlns="http://www.w3.org/2000/svg"><path d="m45.19 29.7s.16-.32.28-.6a6.77 6.77 0 0 0 -.32-4.87c-1.08-2.71-4-2.79-6.23-2.71s-4.75 1.95-5 1.92-.08-.56-.16-1.12a9.15 9.15 0 0 0 -1.88-4c-1.34-1.71-3.22-2.32-5.88-2.15s-7 3.59-9.19 5.27-6.35 6.67-8.39 9.56-4 7.38-4 10.06c0 5.19 6.11 9.06 10.66 11.38s8.92 2.56 16.92 2.37 14.18-3.11 17.29-6.9 3.47-6.67 2.36-10.62-6.46-7.59-6.46-7.59zm-.52 2.84c.12.12 4.71 6.58 4.79 6.82s0 1.76-.36 1.56-5.63-8.06-6-8-.76.72-.52 1 6.15 7.51 6.11 8-.48 1-.64.88-5.19-7-5.55-7a.43.43 0 0 0 -.4.64c.16.28 5.51 6.75 5.51 7.11s0 1-.48.83-5.31-6-5.7-6-1 .43-.52.83a68.19 68.19 0 0 1 5.23 6.15c0 .28-.76 1.36-1.2 1.12s-3.87-5.79-4.27-5.71-1.08-.16-.6.64 4 5.59 3.83 5.79-1 .72-1.16.56-3.86-5.76-4.22-5.76-.92.4-.64.8 4.07 5.19 4 5.43-.87.68-1.15.4-3.12-4.91-3.48-4.91-1 .55-.84.63a45.81 45.81 0 0 1 3.24 4.95c0 .24-.72.68-1.08.44s-3.28-4.63-3.57-4.63-1.12.24-.72.64 3.23 4.19 3.07 4.43-.52.56-.72.44-3.19-4.35-3.43-4.35-1 .36-.68.68 3 3.79 2.8 4.11a1 1 0 0 1 -1 .36c-.16-.12-3.31-4.39-3.59-4.35s-.84.44-.6.72a30.06 30.06 0 0 1 2.67 3.71 1.54 1.54 0 0 1 -1.12.08c-.2-.16-3.07-4.27-3.43-4.27s-1.12.2-.84.48 3 3.75 2.68 3.87-1.08.24-1.36 0-2.83-3.83-3.19-3.83-1 .36-.72.64 2.15 2.79 1.95 2.91-.83.32-.91.12a24.46 24.46 0 0 0 -2.95-3.5c-.28 0-1.08.08-.76.56s2.28 2.59 2 2.67-.68.4-1.08 0-2.43-3.32-2.67-3.23-1.24.52-.92.8 2.07 2.14 1.52 2.2-1.28.32-1.48 0-1.28-2.87-1.88-2.87-.76 0-.64.48 1.28 1.71.84 1.79a19.37 19.37 0 0 1 -7.74-3.71 10.88 10.88 0 0 1 -3.52-9.54c.23-1.37 3.2-5.79 5.71-8.9a41 41 0 0 1 8.27-8.19c2.87-1.91 5-3.39 7.54-2.47s4.27 2.71 4.23 4.71-.28 2.83.16 3.23.44.6.6.24 3.95-3.51 7-3.27 4.83 1.47 4.55 3.91-.8 3.07-1.08 3.31-.16 1.12 0 1.28 1.64 0 2 .28a13.09 13.09 0 0 1 3.07 3.75 12.53 12.53 0 0 1 .84 2.88s-3.84-5.91-4.2-5.81-.72.32-.6.44zm-25.23-9.1c.36.15 1-.52 1.24-1a6.74 6.74 0 0 1 3.23-2.16 3.25 3.25 0 0 1 3.19.84c.24.16.36.24.6-.28s.28-1.16-1-1.72a4.61 4.61 0 0 0 -3.71.08 9.54 9.54 0 0 0 -3.63 2.8c-.44.68-.28 1.28.08 1.44zm19.8 1.07a5.92 5.92 0 0 0 -3.87 1.28c-.76.56-.64 1.6-.28 1.76.64.28 1-.76 1.75-1.36a3.06 3.06 0 0 1 2.88-.2c.84.36 1.36 1.2 2.07.56s-1.15-1.8-2.55-2.04zm-9.5 6.55c-6.43-1.52-10.27-.14-13.26 1.36-4.23 2.11-6.54 5.67-5.74 7.82s1.63 4.39 6.78 5.63 8.9 1.48 14.33-.84 5.43-5 5.31-7.82-.99-4.63-7.42-6.15zm3.39 11.58c-3 1.79-5.31 3.27-10.18 3s-6.95-1.64-8.38-3.24-.92-5.83 3.63-8.4c1.78-1 3.59-2.39 9.22-1.75s8.43 3.27 8.55 4.31a6.19 6.19 0 0 1 -2.84 6.08zm-12.53-9c-1.56.71-3.6 2.91-3.72 4.55s1.2 4.91 3.36 5.11 5.51.48 7.1-1.12a5.26 5.26 0 0 0 .4-7 6.58 6.58 0 0 0 -7.14-1.56zm3.11 6.46a3.82 3.82 0 0 1 -4.59-.72c-.88-1-.76-3 1.84-4.51a3.53 3.53 0 0 1 4.71 1c1.39 1.78-.32 3.21-1.96 4.21zm20.29-23.41c-1.64 1-1.08 3.07-.68 3.71s3.2 3.15 3.63 3.75 1.52 3.56 3.12 4.16a2.34 2.34 0 0 0 3.07-1.48c.48-1 .32-4.07-2.11-7.31s-6.56-3.16-7.03-2.83zm6.91 8.66c-.76-.56-1.4-2.83-3.08-3.83s-2.72-1.52-3.16-1.88-.24-.76-.16-1c.2-.71 2.47-.83 4.27.56a8.34 8.34 0 0 1 3 4.79c.03 1.01-.16 1.92-.92 1.36zm7.86-7.14c-.92-3.76-4.63-6.27-7-7.75s-5.75-2-6.63.08.18 3.13 1 4.07c1.23 1.44 4.07 2.4 5.63 4.47s3.47 8.11 4.11 8.83 1.67 1.43 2.95 0 .81-5.91-.11-9.7zm-1.12 7.1c-.91 0-.87-2.47-2.51-5.43a14.06 14.06 0 0 0 -4.83-5.27c-1.28-.8-3-1.51-3.44-1.83s-.79-2 .16-2.32 5.07 1.2 7.51 3.47a12 12 0 0 1 3.67 8c-.05 2.26.31 3.42-.61 3.38z" fill="#fff"/></svg>