<svg height="64" viewBox="0 0 64 64" width="64" xmlns="http://www.w3.org/2000/svg"><path d="m45.32 17c-.39-3.18-4.17-6.71-4.17-6.71s2.5-4.61 2-5.15a4.54 4.54 0 0 0 -3.18-.88c-.79.24-3.09 3.33-3.19 3.53s-1.91-1-5-1a18.19 18.19 0 0 0 -5.44 1c-.34 0-2.35-3.53-2.79-4s-3.14 1.27-3.29 1.76 2.4 3.87 2.65 4.46-.88.59-2.11 1.82a10.55 10.55 0 0 0 -2.8 5.59c-.35 2.26-.05 4.32.34 4.51.88.45 23.72.54 25.54.25s1.83-1.96 1.44-5.18zm-1.91 2.8c-.74.34-21.77.68-23.82 0-.59-.21-.4-2.21 0-4s5.4-4.56 5.15-5.2-2.85-4.3-2.8-4.6.73-1.32 1.08-.78 2.64 4.41 3.13 4.36 2.21-1.71 5.94-1.18 4.55 1.67 5.14 1.28 2.94-3.87 3.19-4 1.71 0 1.47.59-3.29 4.07-2.55 4.6a20.47 20.47 0 0 1 3.82 4.32c.98 1.65.98 4.29.25 4.64zm-2.6 3.28c-2.16-.1-16.22-.34-19-.2s-3.38 1.33-3.38 2.21c0 3.77.59 26.47.59 27.11s3 .83 3.67.83.1 5.29.69 6.62 7.16.14 7.55-.3.14-6.07.14-6.56 1-.4 1.28-.3-.25 6.47.44 7.21 6.08.68 7-.4.29-6.17.25-6.61.88-.1 1.91-.2 2.2-1.18 2.35-3.18.24-22.6.29-23.93-1.59-2.17-3.78-2.27zm2.35 12.25c-.16-.11-1.32-1.33-1.71-1.33s-.88.79-.54 1.08a14.77 14.77 0 0 1 2.16 2c0 .25.09 3-.1 2.84s-2.06-2.69-2.36-2.59-.88 1.47-.49 1.71a12.28 12.28 0 0 1 2.65 2.45c.2.54.2 1.57 0 1.52s-2.55-2.6-2.89-2.35-.74 1-.25 1.32a25.76 25.76 0 0 1 3.29 3.02c0 .25 0 2.8-.2 2.6s-2.84-3.77-3.14-3.73a.67.67 0 0 0 -.34 1.13c.49.64 3.73 4.22 3.43 4.51a1.87 1.87 0 0 1 -1.71 0 39.17 39.17 0 0 0 -2.45-3.68c-.2 0-1.28.2-.93.69a35.34 35.34 0 0 1 2.15 3.33c-.15 0-.64.69-.93.3s-1.86-2.8-1.86-2.8-1.08.3-.84.69 2.21 2.7 2.21 2.94.39 5.93.1 6.13-3.38.49-3.48-.25.24-6.52-.2-6.71-5.14-.59-5.24.29.44 6.47.14 6.62-4.06.69-4.06-.15.34-6.81-.45-7-3.87.1-3.92-.39-1-23.67-.93-24.75c0-.4 4.22-.4 9.9-.3s12.16-.1 12.5.49.69 10.55.49 10.4zm-27.54-11.44c-1.48-.24-3.33-.13-3.88.49-.68.79-1.27 17.46-.54 19.56s2.65 2.11 4.27 2a3 3 0 0 0 2.53-2.83c.19-1.18-.2-15.64-.25-16.62a2.71 2.71 0 0 0 -2.13-2.6zm-.25 18.29a3.91 3.91 0 0 1 -2.7 0c-.09-.25-.14-16.18.05-16.77a3.65 3.65 0 0 1 2.36 0c.19.2.92 16.38.29 16.77zm37.4-17.26c-.24-1.47-2.25-2.2-4.26-2.05s-2.56.67-2.7 1.32-.44 16.86-.24 18.81.43 4.23 3.43 4.13 3.87-2 4.06-2.75-.06-17.99-.29-19.46zm-2.55 19.17c-.29.29-3 .49-3.09 0s-.29-18.68-.05-19.31c.13-.33 2.6-.4 3-.1s.44 19.12.14 19.41zm-28.87-18.38c-.34.1-.1 3.82.15 4.07a.85.85 0 0 0 1.08-.1c.29-.3-.15-2.26-.15-2.45s1.71-.15 1.91-.15 0-1-.15-1.42-2.5-.05-2.84.05zm8.33-13.09c-.78-.54-3.3-.6-4 .29s-.93 2.55-.14 3.24 2.59 1.57 4.11.44a2.69 2.69 0 0 0 .03-3.97zm-2.25 3c-.69-.15-1-1.13.1-1.67a.78.78 0 0 1 1.22.69 1.06 1.06 0 0 1 -1.32 1.02zm6.27-2.62c-2.79 2.41.89 4.27 2.11 4.27s2.79-1.82 1.81-3.09-2.74-2.18-3.92-1.18zm2.3 2.22a1.21 1.21 0 0 1 -1.52.34c-.59-.24-.15-1.37.49-1.32.4.03 1.43.49 1.03.98z" fill="#1d1d1b"/></svg>