<svg height="64" viewBox="0 0 64 64" width="64" xmlns="http://www.w3.org/2000/svg"><path d="m60.24 47.76c.08-6.55-.79-38.41-.79-39.69s-1.28-3.27-2.56-4.39-13.09-.4-18.28-.32-24.92.24-27.79.16-6.32 0-6.47.72.24 5.59.24 8.46.4 14 .16 19.49-.88 20-1 23 1.92 5.35 2.48 5.35 9.82.32 15.17.4 32.42-.56 33.93-.56 3.44.32 4.39-.4.44-5.68.52-12.22zm-12.53 9.06c-.32 0-1.84.2-2-.08s-1.83-3.83-1.79-3.91a1 1 0 0 1 1.08-.16c.31.24 3 4.11 2.71 4.15zm2.75-5.91c-.68.12-5.23.36-7.58.44-3.19.11-8.35 0-8.63-.36s0-13 .44-14 1.36-1.52 3.8-1.72 7.54 0 9.7 0 3 .2 3.15.4-.24 12.18-.24 13.37.04 1.75-.64 1.87zm-.4 5.63a3.25 3.25 0 0 1 -1.51 0 33.36 33.36 0 0 1 -2.32-4c0-.26 1.48-.12 1.56 0s2.63 3.92 2.27 4zm2.48.24c-.32 0-1.24 0-1.44-.12a34.33 34.33 0 0 1 -2.47-4.15c0-.2.95-.32 1-.16s3.23 4.47 2.91 4.43zm2-.2c-.31 0-1.11.28-1.35 0s-2.19-4.27-2.25-4.43c0 0 .44-.36.72-.2s3.23 4.59 2.91 4.63zm2.2 0c-.24 0-1 .12-1.2 0s-3.08-5.27-3.28-5.58 0-1.88.24-1.84a75.13 75.13 0 0 1 4.23 6.31c.16.39.27 1.15.04 1.15zm.16-10.78c-.08-.12-3.31-6.11-3.59-5.91s-.28 1.12-.28 1.24 3.75 5.59 3.75 5.71.08 3.63 0 3.47-3.55-5.67-3.71-5.71-.36.6-.32.76 3.95 5.83 3.91 6 .12 3.11 0 3-3.67-6.54-3.79-6.54-.52.44-.52.44.12-10.22.08-12.94-.36-3.59-1.6-3.83a95.18 95.18 0 0 0 -11.5-.72c-4.51 0-8.94-.8-9.1 1.92s-.2 15.45-.2 16.68.4 2.52 1 2.72a70.52 70.52 0 0 0 7.07.36 34.43 34.43 0 0 1 4.31.36l2.11 3.71s-1.19.08-1.43-.16-1.6-3-1.88-3-.92 0-.8.43 1.84 2.72 1.52 2.8a3 3 0 0 1 -1.32 0c-.08-.12-1.24-3.31-1.63-3.31s-1.08.16-.92.51a19.1 19.1 0 0 1 1.35 2.84h-1.39a26.13 26.13 0 0 0 -2-3.47c-.24 0-1 .08-.88.39s1.72 3.24 1.72 3.24a5.53 5.53 0 0 1 -1.36-.12c-.08-.12-1.59-3.51-1.83-3.51s-1 0-.88.43 1.67 3 1.51 3h-.87s-2.12-4-2.6-4.11-1 .6-1 .6 2.52 3.63 2.2 3.55a15.63 15.63 0 0 0 -1.64-.12s-3.75-7.19-4.07-7.43-1.24 0-1.16.2 4 7.11 3.87 7.15a8.07 8.07 0 0 1 -1 0s-3.76-8-4.12-8.15-.91.08-.87.28 4.47 8 4 8a9.85 9.85 0 0 1 -1.64 0c-.12-.08-3.51-7.75-3.79-7.87s-1-.08-1 .4 3.47 7.55 3.27 7.55-.67 0-.67 0-3.6-7-4-7-.95.76-.91 1 3.91 6.07 3.67 6.11a8.61 8.61 0 0 1 -1.72.16c-.2-.08-2.91-6.07-3.19-6.11s-.68.52-.6.64a63 63 0 0 1 2.91 5.59c-.24 0-.67.08-.83-.16s-2.72-4.95-3-5-.8.44-.76.68 2.68 4.39 2.56 4.39-.76.12-.84 0a24.37 24.37 0 0 0 -2.08-3.2c-.24 0-.48.56-.36.88s1.56 2.32 1.4 2.32-.56.12-.68 0-1.16-2-1.35-2-.56.44-.4.56 1.11 1.52 1 1.52-4.91.12-6.54 0-2.6-.56-2.68-1.4.2-9.5.8-16.13.48-8.86.2-16.57-.5-17.16-.3-17.92c.1-.37 4.47-.08 6.15-.08s14.09-.16 21.44-.24 19.8-.4 20.52-.36 2.11 0 2.27.44a65.16 65.16 0 0 1 .28 7.67c-.16-.08-.36-.4-.56-.28a1.9 1.9 0 0 0 -.52 1.19c.08.24 1.16 1.36 1.16 1.8s.2.92 0 .92-1.72-2.84-2-2.56a1 1 0 0 0 -.25 1.08c.16.36 2.51 3.08 2.51 3.75s0 2.44-.12 2.16-2.95-5.27-3.19-5.07-.6.68-.48 1 3.63 5.43 3.71 5.75a13.67 13.67 0 0 1 0 2.87c-.12 0-4.23-7.5-4.55-7.3s-.68.87-.56 1 5.19 7.55 5.19 7.83 0 2.39-.2 2.35-4.63-7.86-4.91-7.82a1 1 0 0 0 -.4 1.2c.24.4 5.31 7.78 5.31 7.9s.16 3 0 2.95-5.79-9-6.07-8.86-.52.8-.52.8 6.59 8.54 6.59 8.7.16 2.72.16 2.72l-2.95-5-.32 1.08s3.63 5.23 3.59 5.35.08 2.71 0 2.67-3.05-5.67-3.25-5.61-.32 1.2-.24 1.48 3.51 5.07 3.51 5.23.19 4.29.12 4.13zm-48.59 8.7c-.24 0-.28-3.67-.24-4.11s-.84-.64-1.12-.16-.2 5.71.16 5.87c.88.4 2.23-.52 2.87-.6s1.08-.88 1-1a14.58 14.58 0 0 0 -2.67 0zm-.44-39c.75.2 1-.08 1.07-.36s0-6.43 0-6.75.36-.52 1.16-.56 4.43-.2 4.79-.2.56-1 0-1.19a42.46 42.46 0 0 0 -6.46.24c-1.56.2-1 4-1 5.71s.09 3.06.44 3.15zm21.55-5.19c-1.07-.24-8.54-.64-12.89-.68s-4.9.69-5.31 1.16c-.56.64-.56 2.79-.56 5.23s-.48 12.77-.4 14.17.6 1.44 2.68 1.48 9.46 0 13.29 0 3.55-.36 4.07-.8 1-15 1-17.49-.8-2.79-1.88-3.03zm0 16.81c-.24 2.71 0 2.95-.67 3.15a70.87 70.87 0 0 1 -8.43.12c-4.51 0-6 .16-6.23-.2s-.51-13.29 1.08-15.33c.5-.63 2.12-1 4.11-1a91.74 91.74 0 0 1 10.3.8c.68.24.12 9.78-.12 12.5zm24.31-19.63c.27 0 .3 2.6.36 3s.92.21 1.16.06a9.4 9.4 0 0 0 -.36-4.1c-.38-.39-5.94-.24-6.1.09s-.09.87.12 1 4.55-.05 4.82-.05z" fill="#1d1d1b"/></svg>