<svg height="64" viewBox="0 0 64 64" width="64" xmlns="http://www.w3.org/2000/svg"><path d="m50.25 41.23c0-2.49-.78-2.7-1.32-2.88s-9.7-.15-9.85-.15a71.89 71.89 0 0 1 6-9.91c3.25-4.52 3.92-6.29 4.21-8.59s-.27-12.55-.42-14-1.23-1.33-2.69-1.7a10.5 10.5 0 0 0 -5 .33c-.81.36-2.82 3.77-4 5.54s-3.72 6.08-4.38 6.5-8.62.47-11.61.32-4.73.06-6 .81-1.05 3.36-1 3.75.69 7.42.84 7.87a8.17 8.17 0 0 0 1.76 2.58c.75.38 7.79-.06 8 .15s-2 3-3.35 5.24-7.58 11.34-7.76 12 1.32 10.36 1.83 10.9 8.92.06 9.52-.12 5.15-7.69 5.51-8 15.81-.24 16.5-.21 2.69-2.73 3-3.15.21-4.8.21-7.28zm-1.14 7.09c-.3.06-.51.3-.63 0s-4.76-6.25-5.27-6.32-1 .44-.78.71 5.12 5.57 4.86 5.6-.9.12-1 0-4.13-5.27-4.46-5.3-1 .06-.6.54 4.1 4.73 3.83 4.73a6.27 6.27 0 0 1 -1.5 0c-.21-.12-3.38-4.58-3.89-4.61s-.9.21-.51.72 3.92 4 3.59 4a8.71 8.71 0 0 1 -1.79 0c-.18-.12-2.31-3.11-2.94-3.08s-1 .42-.72.66a17.48 17.48 0 0 1 2.37 2.36 4.7 4.7 0 0 1 -1.59 0c-.33-.15-1.37-2.06-1.88-2.12a.44.44 0 0 0 -.51.63c.15.21 1.56 1.55 1.26 1.55a3.88 3.88 0 0 1 -1 0c-.15-.09-1.26-1.61-1.44-1.61s-.24.77-.06.92.84.69.51.72-5.45 0-5.78 0-4.07 5.75-5.3 7.49-1.38 1.91-1.68 2-5.53.57-5.92.15-1.47-8.26-1.26-8.65 7.98-12.67 10.08-15.61 3.08-3.89 3-4.67-.81-.51-1.28-.51-8.87 1.32-9.95.81c-.28-.13-.65-1.92-1-4.85s-.63-5.39.36-5.93 2.54-.66 6-.81 10.18-.18 11-.18 1.74-1.28 2.52-2.6 3.92-6.23 4.46-7.22a5.88 5.88 0 0 1 2.07-2.36 16 16 0 0 1 4.64 0c.65.24.77.3.77.78s.12 2.21-.09 2-.44-.9-.74-.63-.57.57-.24.93a8.14 8.14 0 0 1 1.22 1.71c.15.42.33 1.73.09 1.37s-1.43-2.45-1.7-2.33-.78.48-.48 1 2.12 2.93 2.18 3.14.06 2.46-.09 2.22-2.12-4.11-2.39-4.11-.78.42-.57.75 2.78 4.14 2.63 4.64-.23 1.71-.44 1.44-1.86-4.28-2.28-4.28-1.08.36-.75.87 2.64 3.86 2.52 4.25-.15 1.2-.45.87-2.57-4.1-2.81-4.1-.9.39-.69.62 3.15 4.17 3.06 4.5-.48 1.28-.63 1-2.67-4.12-3.04-4.07-.63.42-.54.63 3.08 4.1 3 4.46-.63 1.68-.78 1.41-2.63-3.62-3-3.59a.51.51 0 0 0 -.36.78c.15.32 3 3.32 2.93 3.71s-.27 1.61-.69 1.46-2.87-3.71-3.11-3.71-.69.42-.6.69 3.3 3.59 3.21 3.92-.54 1.44-.81 1.11a35.85 35.85 0 0 0 -3.06-3.44.66.66 0 0 0 -.33 1c.3.36 2.85 3.14 2.76 3.56s-.42 1.65-.72 1.2-2-2.94-2.37-2.94-.62.75-.38 1.11 2.24 2.4 2.18 2.66-.3 1.08-.48.9-1.85-2.78-2.3-2.75-.69.24-.42.48a24 24 0 0 1 2.45 3c-.12.09-.45 1.17-.75 1s-1.64-2-2.06-2-.45.51-.09 1a10.49 10.49 0 0 1 1.47 2.1c-.09.18-2.31 3.29-2 3.59s1.5.09 3.68.12l8.3.09c.74 0 1.37 0 1.46.42a39.27 39.27 0 0 1 .25 4.98c-.15-.15-3.32-4-3.68-4s-.72.3-.51.66 4.28 4.7 4.31 5 .45 1.6.15 1.66zm-.85-5.82c.16.06.28-.45.27-.84a4.74 4.74 0 0 0 -1.63-1.8c-.18.11-.48.41-.47.53a17.06 17.06 0 0 0 1.83 2.11zm-28.94-23.09c-2.08 0-2.22.84-2.28 1.38a35.35 35.35 0 0 0 .32 5.32c.24.1 1.06.28 1.11 0s-.17-4.34.13-5 2.16-.35 2.41-.35.9-.49.74-.94-.35-.41-2.43-.41zm21.68-7.78a33.84 33.84 0 0 0 2-3.22c.13-.16 1.27 0 1.62 0s.49-.93.15-1.18a3.23 3.23 0 0 0 -2.19-.08c-.39.26-3 3.81-2.84 4.05s.91.68 1.26.43z" fill="#1d1d1b"/></svg>