<svg height="64" viewBox="0 0 64 64" width="64" xmlns="http://www.w3.org/2000/svg"><path d="m26.15 23c-.32-.06-3.23-.21-3.65-.21a6.23 6.23 0 0 0 -1.32.42 10.27 10.27 0 0 1 0-2.16c.06-.12.45.27.69.42a1.69 1.69 0 0 0 .84.36 29.3 29.3 0 0 0 4.61-.12c.54-.09.33-4.4.15-4.67a5 5 0 0 0 -1.79-.81c-.48-.12-4.17.06-4.35.06s-.09-1.94-.18-2.18a5.84 5.84 0 0 0 -3.15-.76 12.21 12.21 0 0 0 -4.22.66c-.27.27-.09 8-.12 8.14s-.27.09-2.76.21-4.64.38-5.09.69c-.65.45-.62 1.82-.59 3.41s-.08 11.54-.02 12.25a11.63 11.63 0 0 0 1.55 3.77c.48.48 2.22.33 4.73.48s6.8.24 7.28.27a2.36 2.36 0 0 0 1.56-.69c.18-.3.21-6.56.21-6.56s.36 5.48.39 5.84.59.66.86.78a19.49 19.49 0 0 0 2.55-.27c.63 0 3.08.21 3.26.24s.39-.21.36-.9-.09-15.87-.09-16.92-1.38-1.7-1.71-1.75zm-3.8-5.57a6.69 6.69 0 0 1 2.61 0 3.07 3.07 0 0 1 .12 2.19 6.79 6.79 0 0 1 -2.79.23c-.39-.27 0-2.31.06-2.43zm-3.5 9.57a8.19 8.19 0 0 1 -.3 3.2c-.15 0-1.17-2.3-1.53-2.15s-.72.81-.6.93a18.28 18.28 0 0 1 1.92 3c0 .36 0 1.41-.15 1.32s-1.38-3.43-1.83-3.3-.42.87-.39 1.2 2.19 3.66 2.19 3.92.21 1.62 0 1.47-1.71-3.26-1.89-3.17-.77.57-.5 1.05 2 3.56 2.12 4 .18 1.76-.15 1.73-2.51-4.88-2.78-4.85-.81.33-.63.6a39.06 39.06 0 0 1 2.36 4.16 4.77 4.77 0 0 1 -1.4-.08c-.21-.12-1.95-3.42-2.19-3.39s-.69.36-.54.63a20.05 20.05 0 0 1 1.5 2.7c-.18 0-.57.09-.75 0s-1.83-2.97-2.19-2.97-.71.24-.62.51 1.7 2.4 1.58 2.4a6.32 6.32 0 0 1 -1.67 0c-.3-.15-1.38-2.76-1.68-2.82s-.9.3-.84.51a19 19 0 0 1 1 2.31 6.63 6.63 0 0 1 -1.89-.33c-.51-.24-.54-1.74-.51-4s.05-11.18.41-11.78c.22-.37 2.52-.3 4-.36s3.81.12 4-.42a60.59 60.59 0 0 0 .21-6.65 4.14 4.14 0 0 1 .21-1.68 13.46 13.46 0 0 1 3.59 0c.21.21-.09 10.48-.06 12.31zm7.33 7.58c-.11-.06-1.1-1.83-1.4-1.74s-.66.63-.48.84a19.68 19.68 0 0 1 1.62 2.72 12 12 0 0 1 -.09 1.47c0-.21-1.08-2.16-1.38-2.19s-.6.84-.39 1.05 1.8 2.55 1.62 2.7a1.15 1.15 0 0 1 -1.05.06c-.3-.18-1.41-2.31-1.56-2.37s-.81.27-.63.54 1.32 1.89 1 1.89-1.32.15-1.41-.09-.3-8.93-.36-10.81-.18-3.87-.09-4.34a8.71 8.71 0 0 1 2.49-.15c1.11 0 1.62.12 1.65.21s.58 10.24.46 10.18zm-15.86-6.5c-.72.3-.51 5.51-.45 6.11s.3 1.19.69 1.28a13.94 13.94 0 0 0 3.59-.71 37.48 37.48 0 0 0 -.15-6.92 25.71 25.71 0 0 0 -3.68.21zm2.75 5.81c-.15.06-.42.24-.63 0a30.32 30.32 0 0 1 -.09-4c0-.26.69-.06.75.08a24.85 24.85 0 0 1 -.03 3.89zm-2.33-9.28c-.15-.21-2.91.06-3.24.06s-.36 2.75-.33 3.33a.84.84 0 0 0 .81.84c.54 0 .45-2.52.42-2.82s1.77-.48 2.22-.6.26-.64.12-.84zm12.27 2c0 .24-.45 4.67-.39 5a.59.59 0 0 0 .69.48 1.09 1.09 0 0 0 .9-1 20.77 20.77 0 0 0 0-4.52c-.21-.38-1.21-.36-1.21-.02zm35.33 11.2c-.09-4.25.39-11.5.3-12.19s-1.35-1.76-2-2.27-2.34-.66-5.06-.78-6.8-.09-7.4 0-1.18 1.62-1.18 1.62a1.5 1.5 0 0 0 -.72-1 11.73 11.73 0 0 0 -3.28-.19c-1.35 0-4.94-.09-6.23-.12a4.4 4.4 0 0 0 -3.26 1.32 19.79 19.79 0 0 0 -.18 4.34c0 1.79.27 9.22.33 11.49v.49a1.68 1.68 0 0 0 .58.8 36.56 36.56 0 0 0 5.24.09c1 0 1.61-.24 1.7 0s.3 1.29-.12 1.35-5.72.27-6.4.27c-.28 0-.51 0-.7 0a.7.7 0 0 1 -.23.15c-.24.09-.18 3.89-.15 4.19a12.28 12.28 0 0 0 1.11 3 21.43 21.43 0 0 0 4.28.09c2.24-.06 7.87.12 8.2.12s.54-.36.54-.77-.21-8.39-.24-8.69a3.39 3.39 0 0 1 .27-1s.51.72.75 1 .33.15 1.14.27 5.9-.21 6.1-.12.15 1.35-.06 1.68-5.5.21-6.07.21-1.5 1.14-1.38 1.53.6 3.89.72 4.19 1 .33 3.35.45 7.25.21 8.47.27a1.73 1.73 0 0 0 2-1.5c.18-.92-.33-6.04-.42-10.29zm-16.83 10.39-.35-.09s-1.59-3.86-1.89-3.92-.78.39-.69.51a23.85 23.85 0 0 1 1.56 3.56 6.84 6.84 0 0 1 -.93-.06s-1.65-3.2-2-3.23-1 .38-.78.74a10.3 10.3 0 0 1 1.1 2.29c-.15.06-1.08.09-1.25-.15s-1-2.13-1.38-2.22-.81.21-.69.36 1.14 1.92.81 1.92-1.32.15-1.41-.09-.61-1.75-.93-1.82-.9-.27-1 .12 1 1.77.72 1.8-1.34.15-1.37-.06a20 20 0 0 1 0-3.56c.17 0 6.07-.06 6.43-.15s.84-.48.84-2 .12-2.18-.21-2.21-3.2.26-4.52.26-2.25.33-2.54-.06-.3-2.54-.45-8-.24-7.22 0-7.57a3.66 3.66 0 0 1 2.67-.57c1.35.06 6.83.24 7.46.3s.95.21 1.13.59.16 11.24.16 12.68a23.25 23.25 0 0 1 0 2.43s-.77-1.23-.83-1.14-.36.54-.3.69 1.1 2 1.1 2l.03 3.18s-1.49-2.88-1.7-2.76a1.27 1.27 0 0 0 -.39 1c.09.21 2.3 4.7 2.3 4.7s-.34.62-.7.53zm12.22-1.59c-.3 0-1.47.21-1.65 0s-1.19-2.06-1.49-2.09-.81.15-.72.33a12.44 12.44 0 0 1 .9 1.79c-.12 0-1.08.09-1.17 0s-1-2-1.29-2-1 .39-.87.51a7.18 7.18 0 0 1 1.08 1.67 17.65 17.65 0 0 1 -2.54 0c-.39-.13-.51-.63-.54-1s-.06-1.55.09-1.55 6.76-.33 7-.12 1.47 2.43 1.2 2.46zm2.27-1.52c-.18-.06-1.17-2.34-1.29-2.28s-.75.66-.66.84 1.62 3 1.5 3-.63.12-.69 0l-1.71-2.84s.09-2.82 0-3-.36-.83-.66-.83-6.37.23-6.82.14-.81-.2-.9-.77-.33-5.51-.42-9.14-.24-5.89-.06-6.22 2.6-.36 3.86-.36 6.32.51 7 .54.63.12.63.74.22 12.36.22 12.36-.51-1.38-.81-1.29-.72.42-.66.57 1.47 2.64 1.47 2.91.09 1.79.09 1.79-1-2.15-1.26-2.15-.72.66-.63.9 1.92 3.23 1.92 3.38.1 1.77-.12 1.71zm-22.15-15.81c-.21.54-.33 7.18-.06 7.45a15.63 15.63 0 0 0 4.21.27c.48-.09.15-7.39-.21-7.78s-3.79-.34-3.94.06zm3.08 6.58c-.15 0-.36.18-.57-.06a48.43 48.43 0 0 1 -.36-5.15c.15-.06.5-.21.68 0a28.57 28.57 0 0 1 .25 5.21zm11.26-6.46c-.18.56 0 6.82.45 7.12s4 0 4.25-.15a33.35 33.35 0 0 0 -.6-7c-.29-.3-4.05-.14-4.1.03zm3.39 6c-.18 0-.78.33-.93 0a24.78 24.78 0 0 1 .09-4.4c.07-.24.63-.06.72.12a24.33 24.33 0 0 1 .12 4.29zm-2.58-8.79c.42.06.6-.42.39-.93s-.6-.48-1.83-.51a2.2 2.2 0 0 0 -2.09.87 52.14 52.14 0 0 0 .12 6.05c.18.15.69.09.95.09s.06-5.36.12-5.57 1.92-.06 2.34 0zm-14.52-.09c.27 0 .39-.69.15-.87a9.74 9.74 0 0 0 -3.36-.06c-.2.21-.2 7.16.06 7.31a1.27 1.27 0 0 0 1 0c.12-.12 0-6.11 0-6.29s1.88-.06 2.15-.09z" fill="#1d1d1b"/></svg>