<svg height="64" viewBox="0 0 64 64" width="64" xmlns="http://www.w3.org/2000/svg"><path d="m59.19 25.39a22.2 22.2 0 0 0 -7-13.06c-2-1.84-6.59-5.91-13-7.38s-13-.81-17 .71c-4.55 1.76-7.83 4.87-10.06 6.91s-7.43 8.9-7.83 13.1-.57 10.18 1.51 15.44 4.75 7.55 7.82 10.11 8 7.54 14.46 8.38 13.21-.2 18.2-3.16 7.35-5.07 10.86-12.93 2.99-11.38 2.04-18.12zm-6 2.79c.15.27 3.32 3.92 3.59 4.1s.51.12.57.3-.06 1.83-.39 1.8-2.96-3.38-3.43-3.68-.84.5-.69.68 3.83 3.9 3.86 4.11-.12 1.58-.36 1.49-3.53-3.59-3.83-3.38-.51.84-.42.93 3.74 3.11 3.74 3.41-.48 2-.69 1.92-3.41-4-3.74-4-.78.65-.51.89 3.83 3.69 3.71 4-.23.89-.44.71a47.37 47.37 0 0 0 -3.6-3.46c-.24 0-.84.6-.66.81s3.75 3.2 3.69 3.44-.66 1.47-.9 1.41-2.91-3.56-3.18-3.56-.92.87-.8.95 3.29 3.3 3.29 3.51-.69 1.38-.84 1.29-2.84-3.6-3.14-3.51-.81.45-.63.75 3.23 3.41 3.2 3.56-.69 1.41-.93 1.26-3.29-4-3.77-3.89-.69.3-.6.57 3.6 3.62 3.54 3.92-.36.9-.72.87-3.09-3.53-3.42-3.53-.95.5-.89.65 3.5 3.39 3.44 3.5-.48.75-.63.69-3.86-4-4.07-4-.84 1-.72 1.11a47.4 47.4 0 0 1 3.59 3.65c-.06.21-.93.69-1.08.6s-3.14-3.68-3.44-3.53-.6.63-.54.75a40.27 40.27 0 0 1 2.85 3.26 1.54 1.54 0 0 1 -1 .39c-.24-.06-3.23-3.2-3.47-3.11s-.84.87-.75 1a31.8 31.8 0 0 1 3.02 2.64.53.53 0 0 1 -.63.3c-.33-.12-2.87-3-3.26-2.9a.87.87 0 0 0 -.54.89c.09.18 2.55 2.31 2.43 2.37s-1.2.66-1.68.42-2.37-2.28-2.73-2.19-.83.57-.68.75 1.94 1.56 1.67 1.65-.63.3-.93.09a22.74 22.74 0 0 0 -2.65-1.95c-.24 0-.9.36-.78.57s1.71 1.32 1.41 1.44a25.56 25.56 0 0 1 -9.91-1.5 37.66 37.66 0 0 1 -11.53-7 18 18 0 0 1 -5.19-8.63 34 34 0 0 1 -.6-10.06c.33-3.29 2-6.92 3.92-9.88s6.68-7.22 8.34-8.44a28.37 28.37 0 0 1 5.42-3c2.92-1.2 6.46-1.25 9.92-1.22a27 27 0 0 1 11.16 2.84c3.38 1.71 5 3.2 5.26 3.59s0 1.62.3 1.89 3.36 2.42 3.84 2.84a5.68 5.68 0 0 1 1.37 2c.27.72.51 1.08.27 1s-3.89-4-4.25-3.77-.66.47-.36.77 4 3.81 4.25 4 .57-.18.57-.18a27.24 27.24 0 0 1 1.74 5.57c.48 2.75.33 3.14.27 3.05s-3.08-3.53-3.53-3.44a.55.55 0 0 0 -.27.95c.33.33 3.32 3.18 3.56 3.39a.93.93 0 0 1 .33.69c0 .21 0 1.34-.15 1.1s-3.41-4.1-3.74-4a.69.69 0 0 0 -.39.73zm-41.29-.9c.42.39 1.05.27 3.71.3s6.53-.87 10.57-2.12 4.79-2.28 4.82-3-1.56-3.05-3.17-5.06a18.36 18.36 0 0 0 -5.66-4.19 4.9 4.9 0 0 0 -3.17 1.44 46.85 46.85 0 0 0 -5.56 8.35c-1.44 3.2-1.58 4.21-1.5 4.28zm7.9-8.08c1.56-1.95 3.24-3.63 3.81-3.63s4.16 3.69 5.09 5.15.74 1.53.59 1.8a20.2 20.2 0 0 1 -8.14 3.2c-4.28.69-5.15.78-5.6.39a44.19 44.19 0 0 1 4.29-6.91zm9.29-7.2c.54.12 1.77.75 3.3 2.64s3.44 6.4 3.77 6.64 1.35-.48 3.89-2.39a11.49 11.49 0 0 0 3.95-4.72c.33-.87.27-.72-1.71-2.43s-5-2.45-8.41-2.3-5.48 1.26-5.6 1.46.28.99.81 1.1zm10.63.54c2.13.75 2.88 1.29 2.91 1.65s-2.25 2.57-3.18 3.59-1.13 1.2-1.49 1-1.38-4.88-4.13-6.92a17.1 17.1 0 0 1 5.89.69zm9 5.63a1.85 1.85 0 0 0 -2.19-.84c-.45.15-1.86 2.07-3.08 3.26a34.05 34.05 0 0 1 -5 3.42 14.53 14.53 0 0 0 -1.92.93c0 .3 1.08.86 2.07 2.24s1.19 3.92 1.52 4.13 2.4-.59 4-.92a37.46 37.46 0 0 1 5.88-.11c.3 0 1.17 0 1.47-.72a11.44 11.44 0 0 0 0-5.15c-.37-2.55-2.19-5.18-2.73-6.23zm1.78 10.58c-.21.12-5.27-.27-6.7.15s-2.67 1-2.82.84a6.77 6.77 0 0 0 -1.08-3.63c-.15-.23 3.81-2.24 5.45-4.31s2-2.57 2.28-2.54a13.89 13.89 0 0 1 2.57 5.54c.3 2.12.51 3.83.3 3.95zm-17 5.69c1-.27 1.55 0 1.76-1.2s-.36-2-1.08-3.8-1.18-2.34-1.79-2.37a4.79 4.79 0 0 0 -2.37 1 44.14 44.14 0 0 1 -6.19 2.55 41.38 41.38 0 0 1 -9.38 1.61c-1.46 0-3.84-.19-3.95.09-.45 1.2.42 3.83 2 7.64s4.07 4.37 4.37 4.46.9-.33 1.32-.81a30 30 0 0 1 6.11-5.31 24.91 24.91 0 0 1 9.17-3.86zm-16.2 7.84c-.39-.09-2.25-2.51-1.77-5.78 0-.25 6.14-1.25 8.77-2.66s7.76-4.55 8-4.67 2.15 3.35 1.7 3.83-4.86.81-9.68 3.89-6.63 5.48-7.02 5.39zm30.36-9.1c-1.68.18-5.9 1.15-6.14 1.53-.39.63.45 3.41.84 6.23s.72 3 1.14 3.2 1.5-.27 3.68-3.14 3-5.69 2.9-6.71-.74-1.29-2.42-1.11zm-2.07 8c-.42-.12-1.46-4.76-1.4-5.12s4.13-1 4.4-.83-2.59 6.09-3 5.97zm-9.1-4.55c-.48-.21-1.92.39-3.26 1.23s-7.49 6-9 8.56-1.1 3.87-.89 4c.77.57 3.8 1.19 7.15.72s7.52-2 8-2.58.33-1.92-.06-5.39-1.43-6.31-1.94-6.52zm1 10.51c-.63 1.08-7.73 3.69-10.6 2.49-.29-.12.9-2.85 3-5.21a34.93 34.93 0 0 1 6.35-5.39c.19.11 1.87 7.06 1.24 8.13zm-29.08-18.69c-.57.18-1.2 2-1.17 5.81s.73 4.93 1 5c.62.21.83-.45.68-1.08a21.89 21.89 0 0 1 -.3-4.13 18.32 18.32 0 0 1 .69-4.82c.2-.33-.31-.96-.9-.78zm6.7-13.56c.24-.51.09-.78-.3-.78s-3.44 4-4.4 5.72-1.92 3.97-1.65 4.17c.51.3.66.36 1.05.24s1-2.55 1.77-4.1 3.29-4.74 3.53-5.25zm13.6 10.86a.58.58 0 0 0 .77.45 36.58 36.58 0 0 0 4.23-2.2c.62-.45.62-.87.3-.9s-5.42 2.27-5.3 2.65zm16.1-10a10.5 10.5 0 0 0 2.19-3.41.78.78 0 0 0 -.93-1c-.33.06-.36.87-.57 1.74a5.65 5.65 0 0 1 -1.28 2.13c-.22.3 0 .93.59.57zm11.14 7c.24-.33-.57-1.44-1.38-2.07a20.1 20.1 0 0 0 -2.39-1.91.72.72 0 0 0 .09 1.32 31.93 31.93 0 0 1 3.08 2.72c.21.28.36.34.65.01zm-.12 2.79c.69.41.81.38.87-.09s-3.33-3.82-3.56-3.75c-.39.12-.63.45-.45.81a20.37 20.37 0 0 0 3.14 3.1z" fill="#1d1d1b"/></svg>