<svg height="64" viewBox="0 0 64 64" width="64" xmlns="http://www.w3.org/2000/svg"><path d="m17.22 13.12c.77-.56.05-7.91 0-9.54s-.76-2.09-2.55-1.73-5 5.46-6.17 7.29-1.5 2.93-.71 3.73c1.37 1.43 8.67.81 9.43.25zm-3-7.65c.46.1.62 4.64.21 4.9s-3.88.41-4.08 0 3.41-5 3.86-4.9zm41.72 13.53c-.81-5.51-.92-6.12-4.49-10.15s-14.08-3.85-14.08-3.85a3.8 3.8 0 0 0 -1.27-2.9c-1.43-1.37-7.55-1.17-11.53-.92s-5.97 2.15-6.22 2.82 0 10.26 0 10.56-9.86-.14-10.1.31c-1.13 2 1.42 17.75 2 20.25s.75 2.88 4.4 4.88c4.42 2.31 12.32 2.56 16.76 1.89s5.25-3.77 5.25-3.77c1.73 3.06 8.72 2 8.72 2s.26.3-.15 3.41a30.09 30.09 0 0 1 -1.68 6.69c-.21.3-1.58-.1-2.09-.31s-.36-1.12 0-1.53 1-.36 1.32-.46a2.67 2.67 0 0 0 .72-3c-.46-1.63-1.18-3.06-2.71-3.11s-8.67 1.38-9.54 3.06 1 15.36 2.2 16.79 8.46 1.42 10.4 1.32 4.29-.25 6.33-3.37 4.74-6.53 5.76-15.71a111.21 111.21 0 0 0 0-24.9zm-2.19 13.81a7.67 7.67 0 0 1 -.2 2.35c-.16-.1-2.61-2.81-2.81-2.81s-.61 1.07-.56 1.23 3.42 3.16 3.42 3.57-.31 1.48-.36 1.33a17.29 17.29 0 0 0 -2.09-2.25 1.06 1.06 0 0 0 -.51 1.12 24.24 24.24 0 0 0 2.45 3s-1.48 8-3.47 11.89-2.4 4.13-2.4 4.13a16.87 16.87 0 0 0 -1.58-2.45c-.21 0-.87.56-.82.77s1.89 2.6 1.79 2.91-.67.86-.82.71-1.73-3-2.09-3-.82.25-.71.56 1.78 2.65 1.63 2.81-1 0-1 0a22.93 22.93 0 0 0 -2.19-2.81c-.36-.15-.82-.25-.87.1s2.24 2.91 1.83 3-6.68-.81-7.14-1.22-2-11.53-1.53-12.19 6.68-2 7-1.53a5.57 5.57 0 0 1 .46 1.73s-2.7 1.28-2.86 1.89.16 3 .82 3.52 5.66 2.19 6.22 1.68 1.79-5.56 2.15-9.44 0-6.07-.31-6.12-5.15.87-6.79-1.22-2.85-5.72-3.21-6-1.53.25-1.53.25-2.07-4.32-2.53-4.39-1.07.35-.77.76 2.56 4.24 2.56 4.24a7.1 7.1 0 0 1 0 2.6c-.31.86-.67 1-.67 1s-3-5.92-3.47-6-1 .36-.86.56 3.72 6.43 3.62 6.63-1.18 1-1.53.87-3.78-6.59-4.02-6.59-.87.66-.87.66 4.07 6.08 3.87 6.23a14.23 14.23 0 0 1 -2.35.31s-3.26-5.41-3.42-5.46-1 .26-.86.61 3.16 5 3.16 5h-2.81s-2.39-4.74-2.65-4.89-1 .05-.92.2 2.6 4.85 2.35 4.8-1.74-.26-1.74-.26-2.29-4.49-2.44-4.54-.87-.15-.92.1 2.29 4.34 2.14 4.34-4.8-.66-6.58-2.81-1.94-5.4-2.5-9.13-1.53-8.16-1.17-8.67 9.74.41 9.89-.21.05-11.22.67-12 4.74-1.28 8.21-1.11 5.1.57 5.36 1.28.25 2.55 1.22 2.75 5.15-.86 10.71 1.59 6.65 5.71 6.94 10.45.36 8.42.36 8.42-1.89-2.4-2.2-2.4-.61 1-.3 1.38 2.55 3.06 2.65 3.27a4.17 4.17 0 0 1 0 1.17s-2.19-2.6-2.55-2.6-.46 1.52-.46 1.52a25.14 25.14 0 0 1 2.96 2.81zm-30.81-26.32a38.31 38.31 0 0 0 -.1 4.85 4.12 4.12 0 0 0 1.07.25 32.7 32.7 0 0 0 0-4.95c-.05-.2-.81-.35-.97-.15zm22.19 13.37c-3.88.05-3.42 4.94-3.42 4.94.15.46.2.77 1.07.72s5.1-.05 5.41-.31.81-5.41-3.06-5.35zm1.48 3.62a9.41 9.41 0 0 1 -3.11.3c-.15-.06-.16-2.34 1.17-2.34s2.33 1.78 1.94 2.04zm-11.48 23.16a18.46 18.46 0 0 0 .46 4.18c.15.41.87.1 1.07-.1a16.73 16.73 0 0 0 -.51-4.18.93.93 0 0 0 -1.02.1z" fill="#1d1d1b"/></svg>