<svg height="64" viewBox="0 0 64 64" width="64" xmlns="http://www.w3.org/2000/svg"><path d="m62.52 31.65c-.45-5.59-5.29-5.94-7.54-6s-25 .3-29.95.3-6.89 2.05-7.19 3.5a78.4 78.4 0 0 0 -.2 12.48c.35 2.7 1.15 3.8 4.75 4.34a80 80 0 0 0 9 .6 8.12 8.12 0 0 0 4.2 4.85c3.19 1.34 9.38.4 11.33-1.25s3.29-5.14 2.54-9.39-4-7-9.58-6.64a9.38 9.38 0 0 0 -7.64 5.3c-.15.1-6.44-.3-6.79-.4s-.3-5.4.1-5.94 27.66-.75 28.11-.65-.25 19.22-.35 20-.7 1.55-2.2 1.75-15.08.55-19.72.45-17.67.15-18.67-.55-2.14-3-2.39-7.54.05-29 .35-31.35 1.24-3 10.48-3.19 21.21 0 21.21 0 2.8 5.94 8.54 6.84 9.61-2.16 10.66-5.16.8-11.38-6.64-12.73-9.58 3.24-9.58 3.24-29.8-.5-35.49.2-6.59 5.12-6.94 9.47-1.65 31.5-1.6 36.82 1.05 9 2.95 10.25 7.58 1.65 13.57 1.75 30.7.15 35.2-.2 7.39-1.15 8.38-3.15 1.58-22.41 1.1-28zm-3.59 13.58c0 4.51 0 7.75-.1 10-.28-.42-.64-.89-.8-.92s-.65.35-.72.45a14.6 14.6 0 0 0 1.44 2 7.43 7.43 0 0 1 -.3 1.77 12.78 12.78 0 0 0 -1.72-2.4c-.2 0-.72.52-.65.67s1.15 1.82 1.59 2.49a5.36 5.36 0 0 1 -.78.27 11.84 11.84 0 0 0 -1.78-2.26c-.23-.12-.7.35-.68.58a17.15 17.15 0 0 0 1.23 1.92c-.42.06-.88.12-1.42.17a14.41 14.41 0 0 0 -1.08-1.67c-.2-.22-1 .32-1 .4a9.55 9.55 0 0 0 .84 1.3c-1.2.07-2.65.13-4.42.15-6.53.1-30.45-.3-36.19-.45s-7.39-1.59-8.12-3.7-.65-5.89-.8-9.24 1.4-34.19 1.94-36.14 2.85-4 6.44-4.29c2.95-.33 34.35.01 34.65-.33s4.79-5.1 9.88-2.46 4.44 8.49.5 11.29-9.28-.1-10.58-2.45-.9-2.6-1.65-2.85-29.35-.84-32.1-.74-5.89 2.44-6 8.08-.65 33.75-.15 35.69a5.36 5.36 0 0 0 3.85 3.8c1.54.25 23.66.6 31.5.35s10.88-.7 11.93-1.25 1.44-2 1.64-3.39.25-17.78 0-19.42-.55-2.5-2.54-2.6-27-.35-28.36.1-1.23 4.64-1.13 6.85-.2 3.89 1.29 4 9.34.35 9.54.15 1.25-5.39 8.18-4.54 5.05 9.14 3.5 10.58-5.79 3-8.89.85-3.24-3.89-3.74-3.94-10.48-.3-11.33-.4-1.7-1.15-2-3.6-.2-9.53.4-10.43a3.56 3.56 0 0 1 3-1.85c1.64-.1 32.29-.94 34.39 0s1.37 8.37 1.3 17.41zm-21 .1c2.45 1.44 5.84 0 6.24-2.7a4 4 0 0 0 -4.17-4.44c-4.68.25-4.53 5.69-2.09 7.14zm2.45-4.15c1.71-.36 1.84 1.5 1.4 2.3a1.79 1.79 0 0 1 -2.85-.2c-.52-1.1.48-1.9 1.43-2.1zm9.23-29.45c1.25 1.8 6.69 1.85 7.14-2.25s-3.44-3.93-5.11-3.48c-3.25 1-3.3 3.93-2.05 5.73zm3.85-3.19c1-.3 1.69.3 1.49 1.14s-2 2-2.79 1.4-.07-2.14 1.28-2.54zm-5.41-1.45c.34.15.84-.45 1.44-1a4.16 4.16 0 0 1 1.3-.75.73.73 0 0 0 .2-.6c0-.25-.2-.4-1.2-.1a5.5 5.5 0 0 0 -2 1.4.79.79 0 0 0 .26 1.05zm-42.05 47.25c-.13-.2-1 .25-1 .37a4.63 4.63 0 0 0 1.82 2.92c.23 0 .85-.12.83-.27a6.84 6.84 0 0 0 -.85-1.18 6.23 6.23 0 0 1 -.8-1.84z" fill="#1d1d1b"/></svg>