<svg height="64" viewBox="0 0 64 64" width="64" xmlns="http://www.w3.org/2000/svg"><path d="m51.71 10.61c-6.25-6.61-12.1-9.72-19.3-9.61-19.16.3-25.91 14.86-26.11 22.41s.75 15.65 6.1 22.86 18.11 7.35 18.31 7.4.45 8.45.65 9 1.85.15 4-.55 4.65-1.65 11.2-7 9.45-15.56 10.61-22.36.83-15.55-5.46-22.15zm4.5 17.25s-4.85-6.65-5.2-6.55-.35 1.05-.35 1.05 5.35 6.55 5.4 7a26.65 26.65 0 0 1 -.55 3.15s-4.6-6.6-4.8-6.6-.65.2-.55.85 5 6.6 5 7a18.34 18.34 0 0 1 -.65 2.35l-4.85-6.5s-.8.8-.75.95 5.2 6.65 5.2 6.9-.7 2.25-.85 2.15-4.55-7.15-4.85-7.15-.7.75-.7.75 5.05 7.55 5.05 7.8-.9 2.15-1 2-4.6-7.65-4.9-7.6-.7.8-.55 1 4.69 7.5 4.69 7.71a8.32 8.32 0 0 1 -1.55 2.25c-.2 0-4.1-7.21-4.35-7.31s-.75.6-.75.6l4.25 7.46-1.35 1.45s-3.9-7.06-4.3-7.11-.6.5-.6.5l4.1 7.36s-.7 1.25-.9 1.15-4.15-6.86-4.4-6.91-1 .6-.95.75 4.35 7.11 4.35 7.11-1.55 1.58-1.79 1.2-3.55-6.62-3.85-6.62-1 .55-.95.8 4.15 6.5 3.9 6.9a7.75 7.75 0 0 1 -1.7 1.2s-3-5.3-3.3-5.45-.9 1-.9 1 3.3 5 3.15 5-1.25.85-1.35.7-2-3.75-2.4-3.75-1 .65-.8.9 2.15 3 1.95 3.3a30 30 0 0 1 -3.9 1.15s-.5-8.9-.75-9.1-11.86.2-16.66-6-7.5-13.19-7.1-19.79 6.9-20.16 24.71-20.41c7.6-.1 14.45 4.8 17.9 9s5.3 11.15 5.5 13.1a15.19 15.19 0 0 1 0 3.31zm-34-20.76a21.83 21.83 0 0 0 -5.41 4.66c-2.5 2.8-3.25 5.4-3.2 5.65s.7.45 1.1.45.35-1.55 2.85-4.95a15 15 0 0 1 5.11-4.61s-.26-1.3-.45-1.2zm-1.65 11.21a82.27 82.27 0 0 0 -.16 10.2c.21.95 3.81.55 3.81.55s-.05 4.7.45 5 6.3-2.6 6.65-3.3 0-12.4-.1-12.65-10.12-.47-10.65.2zm9.2 11.69c-.15.25-4.05 2.7-4.05 2.4a48 48 0 0 0 -.2-4.8c-.15-.05-2.05-.05-2.05-.05s.05-6.3 0-6.45 6.3-.25 6.4.05.05 8.61-.1 8.85zm4.75-12.1c-.4.3-.4 10.05-.2 10.25a27.92 27.92 0 0 0 3.95.25s.15 4.05.15 4.5.7 1.25 1.05 1.25a22.16 22.16 0 0 0 4.7-3c.25-.5.3-12.65.2-12.85a89.1 89.1 0 0 0 -9.85-.39zm8.15 12.4c-.2.5-2.7 2.35-2.7 2.1s-.05-5.15-.4-5.35-3 .2-3-.3 0-6.3.4-6.5 5.7-.15 5.85.1a95.38 95.38 0 0 1 -.15 9.96z" fill="#1d1d1b"/></svg>