<svg height="64" viewBox="0 0 64 64" width="64" xmlns="http://www.w3.org/2000/svg"><path d="m62.2 48.32c-.2-6.32-.38-33.17-.55-38.22s-1.23-6.78-5.21-8.1-11.33-1-15.7-.93-22-.17-26.08.08-8.78.85-10.48 2.04c-3.43 2.42-2.18 16.88-2.12 22.86s-.12 26.3-.17 27.74a9.92 9.92 0 0 0 1 5 7.46 7.46 0 0 0 5.72 3c2.34 0 4.63.13 14.3.43s22.82.68 27.18.76 7.94-.42 9.51-2.59 2.77-5.75 2.6-12.07zm-8.1-4.54c.09.13 5.77 4.66 5.86 5a9.77 9.77 0 0 1 -.22 1.87l-5.76-5-.39.89s6 5 6 5.18a11.52 11.52 0 0 1 -.68 2.12c-.13 0-6.32-5.73-6.32-5.73s-.55.94-.43 1.11 6.58 5.6 6.45 6a6.81 6.81 0 0 1 -.81 1.74c-.12 0-5.76-5-5.89-5s-.55 1-.55 1 6.1 4.63 5.81 4.84a13.69 13.69 0 0 1 -1.87.68s-4.54-3.82-4.71-3.82-.76.93-.76.93 4.33 3.19 4.2 3.19l-2.25-.09s-2.54-2.08-2.71-2.08-1.06.43-.94.64 2.38 1.69 2.08 1.74-21.33.38-30.75-.51-12.56-.96-13.83-3.59-.22-11.37 0-17.6-.94-22.86-.63-26.29 0-4.76 1.52-6.2c.73-.69 7.38-1.44 12.93-1.91s17.56.3 26.17.3 12.39.42 13.49 5 .59 18.92.59 18.92a26.5 26.5 0 0 0 -2.92-2.11c-.22 0-.6.51-.26.84s3.1 2.17 3.18 2.63a9.63 9.63 0 0 1 0 1.74s-3.7-3.36-3.86-3.31-.63.8-.34 1.14 4.12 3.14 4.2 3.35a6.67 6.67 0 0 1 .09 2c-.13 0-3.74-3.35-4-3.31s-.55.89-.55.89 4.37 3.48 4.49 3.73a17 17 0 0 1 .17 2.38s-3.6-3.48-3.81-3.48-.47 1-.47 1 4.2 3.61 4.24 3.86 0 1.91 0 1.91-4.41-3.73-4.62-3.73-.47.81-.34.93 4.67 4 4.84 4.12a13.48 13.48 0 0 1 .08 2.58s-4.92-4.32-5-4.32-.25 1-.25 1 5.26 4.36 5.34 4.53a16.94 16.94 0 0 1 .13 2s-5.38-4.75-5.55-4.75-.49.92-.39 1.05zm-43.55-38a3.67 3.67 0 0 0 -2.93 2.92c-.26 1.66 0 2.84.13 2.89 0 0 .76-.05.84-.34a25.22 25.22 0 0 1 .17-2.84c.24-1.32 2.17-1.49 2.42-1.62s.34-1.01-.63-.97zm30.53 27.9c1.44-1.86 1.36-9.12 1.06-11.53s-2-2.08-4.66-2.21-4.75-.25-5.52 1-.59 6.32-.67 7.21-8.45 0-8.83 0-.25-17.73-.55-18.41-10.43-.61-10.86-.12c-.67.76 0 17.89-.08 23.53s.25 18.62.25 19.77 1.23 2.16 4.2 2.16 5.86 0 6.66-1 .17-7.51.26-10.48 1.61-3.31 3.3-3.56 3 .55 4 2.46.21 11.41.26 12.17 2.16.93 5.25.81 4.33-.13 5.65-1.15 1.1-3.82 1.23-10.77-2.72-7.93-2.72-7.93.33-.08 1.77-1.95zm-6.49 2.42s4.5.55 5 3.86a38.1 38.1 0 0 1 0 9.54c-.34 2.63 0 3.14-.64 3.44s-6.57.59-6.74.17.42-9.88-.34-12-3.27-3.52-6.19-3.27-5.46 2.46-5.51 5.16.26 9.17 0 9.51-6.49.42-6.7 0-.89-38.72-.47-39.06a43.49 43.49 0 0 1 6.36.09c.13.17-.08 17.73 1.11 18s12.21.64 12.42-.08.56-7.81.81-7.94 6 .22 6.11.77.46 7.8-1 8.74-1.35 1.06-2.63 1.14-1.57.38-1.65.85a3 3 0 0 0 .06 1.08zm9.54-27.33c-3.2 2.44 1.66 6.48 1.66 6.48s2.2-1.45 2.05-1.71-1.55-1-1-1.46 1.35 1 1.78.82 1.92-1.73 1.85-2.06-3.14-4.51-6.34-2.07zm4.87 2.7s-1.95-1.2-2.86-.41.48 2.54.48 2.54l-.62.4c-.24-.12-2.73-3-1.39-4.36s4.7.92 4.76 1.17-.37.66-.37.66zm3.9 1.37c.26-.14.95-1.56 1.46-1s-1 1.35-.83 1.78 1.74 1.93 2.06 1.86 4.51-3.15 2.07-6.35-6.48 1.65-6.48 1.65 1.43 2.22 1.7 2.06zm3.85-3.26c1.35 1.34-.92 4.71-1.16 4.76s-.63-.36-.63-.36 1.2-2 .41-2.87-2.54.48-2.54.48l-.45-.59c.11-.26 3-2.76 4.35-1.42zm.58 12.91c3.2-2.43-1.66-6.48-1.66-6.48s-2.19 1.46-2 1.72 1.56 1 1 1.46-1.35-1-1.79-.82-1.99 1.73-1.88 2.05 3.11 4.51 6.31 2.07zm-5.22-2.07c-.05-.24.37-.63.37-.63s1.95 1.21 2.87.41-.49-2.54-.49-2.54l.62-.43c.24.12 2.73 3 1.39 4.36s-4.72-.93-4.78-1.17zm-3.52-2c-.27.15-1 1.56-1.46 1s1-1.35.82-1.78-1.73-1.93-2-1.85-4.52 3.15-2.08 6.35 6.49-1.66 6.49-1.66-1.53-2.2-1.79-2.06zm-3.86 3.26c-1.35-1.34.93-4.71 1.17-4.76s.62.37.62.37-1.2 1.95-.41 2.86 2.54-.48 2.54-.48l.44.62c-.09.24-3.03 2.71-4.38 1.39z" fill="#1d1d1b"/></svg>