<svg height="64" viewBox="0 0 64 64" width="64" xmlns="http://www.w3.org/2000/svg"><path d="m57.9 36.16c-1.28-3-5.75-5.59-6.75-6.11s-3.35-1.88-3.91-3.79a3.28 3.28 0 0 1 2.72-4c1.83-.39 4.47 2.48 5 2.92s2.19-1.36 2.51-1.84.12-1.59-1.08-3.79-3.39-3.79-8.67-3.75a7.9 7.9 0 0 0 -7.94 7.74c.16 3.16 2.43 5.51 4.27 7.11s6.35 3.43 7.18 4.35.48 2.87-.28 4a4.48 4.48 0 0 1 -3.51 1.48c-.8-.12-4.19-1-5.35-2.76s-5.27-8.62-8.5-14.17-7.43-7-13.18-7.34a14.19 14.19 0 0 0 -12.21 6.21c-1.64 2.76-3.36 7.71-2.68 11.66s1.92 5.59 4.63 8.5 5.79 5 9.51 5.43a19.82 19.82 0 0 0 9.26-.87 11.17 11.17 0 0 0 5.35-4.83c.6-1.36-.48-2.88-.92-3.56s-1.49-1.62-2.16-1.36-3.19 1.88-5.35 2.92a10.53 10.53 0 0 1 -6.82.92c-2.12-.52-5.19-3-5.71-5.87s-.28-6.43 1.91-8.23 5.83-3.55 8.31-3.63 4.23 1.28 6.67 5.67 6.46 11.26 9.18 14 4.79 4 8.54 4.59 7.07-.55 8.94-3.15a8.19 8.19 0 0 0 1.04-8.45zm-3 5.59c-1.12 2-4.51 3.15-6.67 3.35s-7-1.76-8.9-4-7.39-12.38-9.46-15.17-4.2-4.07-6.71-4.23-5.55-.4-8.78 2.19-3.56 7.27-2.68 10.78a11.14 11.14 0 0 0 4.71 7c1.84 1 5.47 1.23 7.47.76s6-3.28 6.42-3.4c.2-.06 1.36 1.24 1.4 1.68s-1 2.35-4.11 3.55-7.51 2-11.46.48-7.54-6-8.58-7.66-1.08-7.27.2-10.46 2.71-6.87 7.54-8.39 9.63-.84 12.78 1.24 8.06 9.9 9.46 13 4 6.71 6 8a6.87 6.87 0 0 0 6.31.84c2.63-.72 3.39-2.56 3.31-4.15s-.68-3.32-1.88-4-6.1-2.95-7.86-4.87a7.81 7.81 0 0 1 -2-5.95 8 8 0 0 1 5-4.71c2.76-.79 5.87-.56 7.35.8s2.27 2.8 2.19 3.12-.59 1.59-1 1.11-2.56-3.51-5.39-3.23-4.87 2.4-4.75 4.79.52 3.63 2.91 5.23 5.55 2.72 7.35 5.11.93 5.15-.2 7.19zm-37.28-22.56c-.6-.16-4.15 1.48-6.07 3.31a11.45 11.45 0 0 0 -2.87 5.15c0 .28.56.44 1 .32s1.39-2.79 2.55-4.63 5.55-3.15 6-3.43-.01-.56-.61-.72zm30.54 23.59a12.57 12.57 0 0 1 -3.39-.67 15.89 15.89 0 0 1 -3.88-2.2s-1.39.24-.2 1.16a21.82 21.82 0 0 0 6.31 2.79c1.44.2 1.56-.96 1.16-1.08zm-2.75-23.55c-.76-.08-2.36 1.28-2.88 2.52a6.81 6.81 0 0 0 -.28 3.75c.16.24.84.2 1.24.16s-.12-1.48.24-2.88a5.07 5.07 0 0 1 2-2.55c.63-.6.43-.92-.32-1z" fill="#1d1d1b"/></svg>