<svg height="64" viewBox="0 0 64 64" width="64" xmlns="http://www.w3.org/2000/svg"><path d="m43.5 40.23c.75.32 1.59-1.76 4.19-6.67s2.47-7 1.44-10.18-3-4.91-8.11-5.71-7.11.56-7.34.92 2.48 2.64 2.91 2.68a11.83 11.83 0 0 1 4.67.48c2.28.79 4.07 1.91 4.55 6.38s-2.27 9.58-2.71 10a1.52 1.52 0 0 0 .4 2.1zm-27.5-9.66c.48-1.16-1.91-1.9-2.16-1.76-3.27 1.92-5.27 10.86-5.62 12.9s-.64 3.39.23 3.43.76-.32 2.4-6.39 4.62-7.02 5.15-8.18zm36.44-16.49c-4.23-3.63-8.86-3.63-13.18-3.27a26 26 0 0 0 -9 2.91c-.16.12.2 2.2-.08 2s-.24-1.16-.48-1.76a45.59 45.59 0 0 0 -4.55-4.63c-.2-.12-.64.16-1 .16s-1.95-1.68-2.43-2.28 0-.91-.52-1.27-3.2-.36-5.53.06a13 13 0 0 0 -7.62 5.51c-2 3.07-1.84 7.51-1.88 8.18s1.64 2.43 2.12 2.87 2.11 1.4 6.22 4.91 11.7 11.1 12.26 11.38a19.33 19.33 0 0 0 3.47.76c2 .4 10.5 2 11.3 2s.44-1.32.4-2.52-3.27-13.81-3.55-14.41-6.79-7.35-7-7.67 3-2.35 6.39-3.31a18.68 18.68 0 0 1 10.7.84c2.52 1.06 4.76 4.81 5.52 9.36s-1.2 11.46-2.4 13.89-8 10.66-11.54 13.06-7 2.95-10.74 3.11a22.27 22.27 0 0 1 -10.14-2.27c-1.83-1.08-3.11-2.36-3.27-6.87s3.35-10.62 3.59-11a.88.88 0 0 0 -.32-1.16c-.4-.32-1.23-.51-1.59-.08s-4.12 8.25-4.59 12.42-.16 6.75 2.59 9.9 5.67 3.51 10.78 3.43 10.18-2.65 14.33-5.53a50.88 50.88 0 0 0 12.9-13.41c4.07-6.07 3.67-8.9 4.15-13.77s-1.08-7.91-5.31-11.54zm-30.06-3.15 4.55 3.67-2.2.52-3.15-4zm-1.8.52 3.42 3.43-.44.36-3.56-3.59zm2 4.07c-.12.08-1.92 1-2 .84s-3.47-3.64-3.47-3.64c.2-.16 1.16-.87 1.63-.72a26 26 0 0 1 3.88 3.52zm-9.78-5.47c.28-.44 3.15-2.68 3.63-2.32a20.76 20.76 0 0 1 2.67 2.68c-.08.12-1.71.68-2.59 1.2s-1.16 1-1.52.75a15.6 15.6 0 0 1 -1.6-1.51c-.23-.24-.83-.36-.55-.8zm-3.28 10.74c-.24.08-1-1.36-.88-3s1.56-5.51 2.64-5.83c.29-.08 2 1.68 2 2s-2.28 2.36-3 4.04-.52 2.71-.76 2.79zm4.27 3.95c-.24-.12-2.91-2.12-2.95-2.64a10.47 10.47 0 0 1 1.28-4.91c1.16-2 3.51-4 4-3.91a38.73 38.73 0 0 1 3.42 3.72 15.36 15.36 0 0 0 -4.23 4c-1.31 2.18-1.31 3.86-1.52 3.74zm12.38 11.46c0-.16.84-4.59.48-5s-.8-.16-.8 0-.44 4.95-.64 4.83-.68-.52-.68-.68.68-5.71.48-5.87-.92-.08-.92.16-.16 5-.4 4.83-.91-.8-.91-1 .6-5.35.48-5.55-.92-.36-.92-.2 0 5-.4 4.95-1-.63-1-.91.72-5.31.6-5.51-.8-.48-.8-.32 0 5.23-.48 5-1-.72-.92-1 .56-5.55.32-5.67-.76-.24-.84 0 0 5.43-.35 5.15-1.16-1-1.16-1.4.6-4.47.48-4.71-.84-.24-.88.16-.24 3.72-.52 3.68-1.6-.88-1.44-1.92 1.28-4.39 3.36-5.51c.42-.23 6.06 6.47 7.3 7.82s2.52 2.76 2.2 4.84-.52 2.47-1 3.15-.64.84-.64.68zm13.29-1.56c.2.88.6.8.36 1.08s-1.83-.12-2.23.36-1.92 1.92-2.08 2.15-.36 1.12-.36.84.36-3.23-.12-3.39-1 .16-.88.48a23.68 23.68 0 0 1 0 2.47h-.79s.12-3.07-.2-3.11-.92.08-.92.52a19.52 19.52 0 0 1 .08 2.51c-.12 0-.84 0-.88-.12s-.12-2.43-.36-2.43-.88.32-.8.64a9.38 9.38 0 0 1 0 1.59l-2.47-.32a17.19 17.19 0 0 0 2.67-3.75 16.41 16.41 0 0 0 .88-3.67c.36-.4 1.72.12 3.15-.6s3-1.92 3.32-2 1.43 5.87 1.63 6.75zm-2.46-9.54c.08.44-.76 1.8-2.84 2.23s-3 .68-3.79 0-9.86-8.94-10-9.42a13.71 13.71 0 0 1 4-1.75 14 14 0 0 1 3.76-.32c.2.04 8.78 8.82 8.87 9.26z" fill="#1d1d1b"/></svg>