<svg height="64" viewBox="0 0 64 64" width="64" xmlns="http://www.w3.org/2000/svg"><path d="m41.74 6.54a20.59 20.59 0 0 0 -18.13.32 15.58 15.58 0 0 0 -8.46 9.5c-2.4 7.43.4 12.77 3.51 19.56s10.86 23.24 13.1 23.48 4.24-4.72 7.42-10.86 9.42-18.61 10.38-25.39-1.68-13.82-7.82-16.61zm6.58 16.89c-.42-.24-6.4-7.37-6.76-7.43s-1 .06-.54.42 6.98 7.72 6.98 8.14-.3 2.16-.59 1.92-5.69-7.66-6.23-7.72a.54.54 0 0 0 -.36.95c.36.3 6 7.43 6 7.79s.06 1.08-.24 1-5.33-7.13-5.93-6.95-.54.54-.36.9 5.75 7 5.75 7-.48 1.68-.84 1.56-4.55-6.17-5.09-6.17-1 .36-.6.9 5.21 6.23 5.15 6.53-1.08 2.87-1.26 2.57-4.61-7.42-5.09-7.48-.6.06-.36.66 5.09 6.88 5.15 7.42-.18 1.56-.59 1.2-5-7-5.45-7.13-.9.06-.54.54 5.57 7 5.39 7.31-.24 1.86-.54 1.44-4.73-6.95-5.15-6.95-1.08.36-.6.78 5.33 6.64 5.21 6.94-.54 1.86-.9 1.5-4.07-5.75-4.55-5.87-1 .24-.6.84 4.79 5.57 4.61 5.93.12 1.92-.72 1.26-3.89-5.15-4.55-5.15-1 .48-.6 1 4.43 5.38 4.43 5.38-.42 1.26-.59 1.08-3.66-5.27-4.26-5.33-.83.18-.66.54 4.32 5.09 4.26 5.57-.11 2.38-.7 1.68-3.54-4.19-3.89-4.13-.78.12-.42.71 3.71 3.9 3.59 4.32-.49 1.1-.73 1.1-2.75-3.59-3.23-3.47-.54.24-.42.72 3.11 3.35 3 3.71-.3 1-.66.6-2.33-2.87-2.63-2.87-.9.3-.54.66 3 3.23 2.81 3.53-.77 1.74-1.31 1.2-8-14-11.44-20.54-5.58-11.13-4.13-16.04 4.19-7.25 5.51-8.09a19.61 19.61 0 0 1 11.66-3.47 18.69 18.69 0 0 1 8.57 2c.72.42.48.83.66 1s4.49 5.09 4.85 5.33.65 2.34.18 1.92-6.43-7.67-7.31-7.73-.9.71-.54.89 8 7.79 8.38 8.51.6 3.29.06 2.51-6.16-7.9-6.94-8.32-1 .72-.6 1 7.36 8.26 7.66 8.86.6 1.76.18 1.52zm-27.66-10.43c-1.2.3-3.54 3.83-3.89 6.76s.74 5.94 1.31 6.23c.24.12.78.18.9-.54s-1.14-4-1.08-5.87 2.52-5 3.18-5.45.78-1.48-.42-1.13zm7.66 1a4.82 4.82 0 0 0 -.78 6.83c1.44 1.62 5.21 2.28 6.77 1a5.44 5.44 0 0 0 1-6.77 5 5 0 0 0 -6.99-1.06zm3.78 7c-1.62.48-2.46-.78-2.76-2.45s.72-1.86 1.68-2.34a2.6 2.6 0 0 1 3.53 1.44c.3 1.17-.84 2.78-2.45 3.26z" fill="#1d1d1b"/></svg>