<svg height="64" viewBox="0 0 64 64" width="64" xmlns="http://www.w3.org/2000/svg"><path d="m41.67 22.39c0-2-.83-1.87-1.47-1.92a48.83 48.83 0 0 0 -5.31-.19 2 2 0 0 0 -1.52 1.47c-.37 1.13-.25 18.91-.37 22.84s-4.23 8.64-8.45 8.5-7.86-2.51-7.52-8.4 3.54-7.17 3.59-7.57a34.17 34.17 0 0 0 -.1-6.63c-.39-2-2.95-1.67-4.52-1.08-4.32 1.62-8 7.42-8.35 12s.5 11.24 5.06 16.4 11.59 6.29 18.62 4.08 10.26-9.38 10.56-12.09-.27-25.4-.22-27.41zm-2.88 25.79c-.59-.72-1.51-1.69-1.83-1.72a.64.64 0 0 0 -.74.59 22.44 22.44 0 0 0 2.32 2.48 11.74 11.74 0 0 1 -.65 2 22 22 0 0 0 -2.16-2.72c-.15 0-.89.1-.94.59s1.76 2.39 2.54 3.25a10.27 10.27 0 0 1 -.65 1 16.49 16.49 0 0 0 -2.13-2.55c-.25-.1-.74.3-.84.59a15.48 15.48 0 0 0 2.16 2.9 10.15 10.15 0 0 1 -1.12 1 17.15 17.15 0 0 0 -2.26-3.13c-.25-.15-.35 0-.74.49s1.31 2.51 2 3.37c-.38.24-.76.48-1.19.7l-.21.11a9.81 9.81 0 0 0 -1.61-2.56c-.3-.1-.69.24-.74.39a24.21 24.21 0 0 0 1.36 2.66l-.91.44a18.77 18.77 0 0 0 -1.77-2.85c-.3-.25-.4-.1-.89.24s1 2.28 1.57 3.09c-.39.16-.77.3-1.14.43a11.91 11.91 0 0 0 -1.61-2.93c-.44-.19-.64.2-.78.44a12.39 12.39 0 0 0 1.41 2.81 10 10 0 0 1 -7.13-.29c-4-1.72-8.15-5-9.68-10.27s-.29-11.29 2.51-14 5.6-3.83 5.94-3 .25 4.77.25 4.77-3.05.44-3.83 6.48 1.57 10.36 5.79 11.69 8.45-.39 11.49-5.06 2.31-9.87 2.31-15.47-.1-11.69.25-11.74a27.16 27.16 0 0 1 4.17.2c.05.08-.14 22.53-.52 25.58zm-21.28-14c.39-.54 0-.85-.64-.69-1.08.24-3 2.65-3.15 3.14s.69 1.33.89 1.28.24-.54.88-1.62 1.62-1.52 2.02-2.06zm31.18-30.7a17.55 17.55 0 0 0 -18.32.2 17 17 0 0 0 -7.85 12.57c-.1 2.9.17 26.72.19 27.21.05.93.4 2.6 1.13 2.8a19.28 19.28 0 0 0 5.11.05c1.52-.25 2.16-.39 2.41-2s-.3-18.32.05-24a7.69 7.69 0 0 1 9.43-7.31c4.12 1 7 3.78 6.38 8.89a6.85 6.85 0 0 1 -4.47 6 48.16 48.16 0 0 0 -.1 6.58c.2.79.35 1.48 1.13 1.62s3.24.1 6.34-2 5.74-4.67 6.24-12.62-1.77-14.7-7.67-17.99zm5.65 18.91a11.92 11.92 0 0 1 -.89 3.42 8 8 0 0 0 -2-1.8c-.24 0-.49.25-.64.54s1.55 1.76 2.09 2.34a12.06 12.06 0 0 1 -1 1.52 8.36 8.36 0 0 0 -2-2.34c-.19 0-.44.3-.49.69a11.34 11.34 0 0 0 1.79 2.54 12.1 12.1 0 0 1 -1.34 1.27 7 7 0 0 0 -1.38-1.94.49.49 0 0 0 -.54.44 9.63 9.63 0 0 0 1.22 2 8.56 8.56 0 0 1 -.92.55 11.62 11.62 0 0 0 -1.19-1.79c-.19-.19-.83.2-.88.4a10.2 10.2 0 0 0 .93 1.85c-1.82.63-2.37.83-2.5.51a12.71 12.71 0 0 1 -.15-3.3c.15 0 5.06-1.91 5.11-10.55s-6.42-9.51-9.9-9.74-9.66 2.54-10.66 8.28.1 24.95-.49 25.44-4.18.4-4.32 0c0 0-.2-25.68 0-27.5a16 16 0 0 1 8-10.71 15.93 15.93 0 0 1 16.5 1.28c4.82 3.39 6.24 11.1 5.65 16.6zm-19.05-16.85a5.43 5.43 0 0 0 -3.29 1.13 10.86 10.86 0 0 0 -2.89 2.65c0 .15.44 1.13.78 1s.94-1.13 2.06-2a28 28 0 0 1 3.49-1.91c.19-.13.14-.77-.15-.87z" fill="#1d1d1b"/></svg>