<svg height="64" viewBox="0 0 64 64" width="64" xmlns="http://www.w3.org/2000/svg"><path d="m59.5 19.67c-3.75-6.4-11.16-6.26-11.16-6.26s-.91-2.41-5.53-4.16-8.23-2.38-16.1-.09a19.27 19.27 0 0 0 -11.2 9c-3.29.09-10.33.87-13.31 9.65s0 14.36 4.07 19.8 11 5 13.45 4.71a10.62 10.62 0 0 0 4.71-2.06s.13 2.47.23 2.75a5.44 5.44 0 0 0 1.14 1.78 3.55 3.55 0 0 0 3.52 1.46c2-.36 6-5.76 6-5.76a12 12 0 0 0 5.26 0c3.15-.6 5.67-3.62 5.67-3.62a14.11 14.11 0 0 0 4.62 0c2.83-.37 6.58-2.24 10.06-8.64s2.32-12.16-1.43-18.56zm.5 10.65a13.12 13.12 0 0 1 -.38 2.6c-1-1.22-3.55-4.07-3.87-4a.66.66 0 0 0 -.61.58c0 .13 3.29 3.47 4.21 4.41a11.64 11.64 0 0 1 -.78 1.79c-.91-1-3.73-4.07-3.86-4.07a1.14 1.14 0 0 0 -.67.46c0 .15 3 3.32 4.06 4.41a12.4 12.4 0 0 1 -1.54 1.94 48.21 48.21 0 0 0 -3.86-4.46c-.12 0-.61.27-.61.58s2.8 3.53 3.72 4.62a15.35 15.35 0 0 1 -1.27 1 31.9 31.9 0 0 0 -3.46-3.9.64.64 0 0 0 -.51.48 40.15 40.15 0 0 0 3.11 4c-.38.27-.76.51-1.11.71a20.25 20.25 0 0 0 -3.38-3.47c-.3-.09-1 .19-1.09.43a36.11 36.11 0 0 0 3.45 3.57 10 10 0 0 1 -2.06.76 37.08 37.08 0 0 0 -3.16-3.56c-.21-.06-.67.55-.67.67s1.94 2.23 2.7 3.08a7.61 7.61 0 0 1 -1.07 0c-.53 0-1-.11-1.35-.17a30 30 0 0 0 -2.32-3.09c-.19-.09-.77.4-.77.61a25.26 25.26 0 0 0 1.94 2.51c-.14.16-.47.78-1 1.48-.62-.86-2.07-2.61-2.38-2.59s-.4.28-.4.52a24.41 24.41 0 0 0 2.13 2.78 6.5 6.5 0 0 1 -1.7 1.22 13.49 13.49 0 0 0 -2.27-2.69c-.4-.24-.61.24-.58.55a19.84 19.84 0 0 0 1.85 2.53 6.06 6.06 0 0 1 -1.24.2c-3.75.18-5.17-.64-5.58-.23s-3.93 4.42-5.08 5.15-2.1.59-2.19.27.18-5.4-.23-5.76a1.58 1.58 0 0 0 -1.6-.23c-.41.23-6.49 5.08-13.49 1.14s-7.86-9.23-7.54-15.68 6.58-10.33 8.32-10.88a17.59 17.59 0 0 1 4.89-.59c.5 0 1.1-1.64 2.33-3.38s5.76-5.49 12.26-6.4 9.23.36 11.84 1.64a14.68 14.68 0 0 1 4.66 4.26s9.33.18 11.53 8.64a24.27 24.27 0 0 0 -2.66-2.19c-.24 0-.48.39-.45.7a34 34 0 0 0 3.49 3.25 20.34 20.34 0 0 1 .3 2.57 37.44 37.44 0 0 0 -3.52-3.09c-.21 0-.4.37-.46.55a53.85 53.85 0 0 0 3.98 3.77zm-48.85-3.94a6.32 6.32 0 0 0 -2.41 5.94c.1.22 1 .58 1.22.34s-.24-2.35 1.8-4.91 3.87-2.47 3.87-2.47.28-.52.09-.73-1.49-.64-4.57 1.83z" fill="#1d1d1b"/></svg>