<svg height="64" viewBox="0 0 64 64" width="64" xmlns="http://www.w3.org/2000/svg"><path d="m58.93 26.62c-.93-9.44-4.15-18.8-14.93-23.33s-22-1.43-27.34 1.51a23.64 23.64 0 0 0 -11.77 19.93c-.46 10.27 5.88 19.85 5.88 19.85s-3.54 13.89-3.54 14.34 3.54 4.08 4.07 4.08 14.7-6.79 14.7-6.79a44.4 44.4 0 0 0 12.53-.68c6.64-1.36 12-4.46 15.55-9.36s5.76-10.12 4.85-19.55zm-4.45 13.81c-2.19 5.21-9.86 9.49-10.52 9.79s-2.51.85-2.51.85a6.94 6.94 0 0 0 -1-1.56c-.25-.1-1 .36-.91.56s.71 1 .51 1.25-1.56.31-1.56.31a12.11 12.11 0 0 0 -1.31-2.22c-.3-.15-1.16.15-1.06.41a14.61 14.61 0 0 1 1.06 2.26 7.89 7.89 0 0 1 -2.06.3 18.62 18.62 0 0 0 -1.41-2.67c-.26-.15-1.36.11-1.36.36a25.69 25.69 0 0 0 1.26 2.61 6.46 6.46 0 0 1 -1.72 0 20.09 20.09 0 0 0 -1.66-2.86c-.3-.16-1.2.1-1.2.35s.95 2.61.95 2.61l-1.46-.2-1.81-2.87s-1 0-.9.31 1.15 2.56 1 2.71-.4.41-.6.31-1.91-2.32-2.07-2.37-.85.2-.8.5 1.81 1.87 1.61 2.17-1.56 1.21-1.76 1-1.91-2.56-2.11-2.66-1.16.55-1.06.7 1.6 2.62 1.6 2.62l-1.62.5a21.58 21.58 0 0 0 -1.81-2.11c-.21 0-1 .55-.91.75s1.72 1.46 1.42 1.66a9.37 9.37 0 0 1 -1.26.66s-1.26-1.36-1.56-1.36-.45.45-.45.6a9.21 9.21 0 0 0 .8 1.26s-5.73 2.62-6.23 2.32-.9-.91-.78-1.19 3.4-13.74 3.4-13.74-6.19-10.19-6-18.19 5.59-16.91 9.59-19.85 16.79-5.21 24.23-3.1 14 9.37 16.23 17.29 0 14.72-2.19 19.93zm-24.21-35.1c-6.54.65-11.12 2.72-15.14 8.3s-5.59 10.37-4.53 17.31 6 13.24 6.14 13.44-3.7 9.2-4 9.71.66 1.06 1.26 1.06 11-8 11.37-8.1a45.77 45.77 0 0 0 6 .6 33.24 33.24 0 0 0 13.19-2.36c5-2 9.81-6.14 10.36-14.4s-1.56-14.09-7.34-20-10.76-6.22-17.31-5.56zm19.38 10.52c4.93 6.09 4.68 14.79 3 19.52s-5.34 8-10.87 9.51-10.22 1.71-12.08 1.31-3.77-.85-4.23-.85-8.55 5.88-9.31 6.24c-.13.06 2.82-6.5 2.77-6.95s-4.68-6.19-5.84-10.31a25.53 25.53 0 0 1 1.66-17c2.92-5.69 11.53-9.67 17.52-9.77a21.59 21.59 0 0 1 17.38 8.3zm-17.56 7.8c.45-.71-.41-3.12-2.87-6.34s-4.86-3.59-5.89-2.82-4.78 4.38-4.18 9 6.49 12.89 10.77 17.51 10.17 2.92 12.63 1.51a8 8 0 0 0 4.08-5.69c.1-1.76-6.39-7.65-6.74-7.85s-4.23 3.32-4.63 3.27-4.58-6.69-4.53-7 .9-.89 1.36-1.59zm1.4 10.26c1.41 1 1.16 1.26 1.87.86s3.67-3.83 4.22-3.63 5.69 4.86 5.42 5.54-1.09 2.47-1.34 2.32-1.76-3.18-2.66-3.07-.75.75-.65 1 2.11 2.42 1.91 2.67a1.35 1.35 0 0 1 -.65.35 32.09 32.09 0 0 0 -2-2.82c-.15 0-1.1.31-1 .61s1.91 2.26 1.61 2.51-.91.61-1.06.41l-2-2.67s-1.31.1-1.11.45 1.51 2.17 1.26 2.17-2.42.65-6.59-3.33-9.61-9.66-10-13.83 2.12-7.85 3.78-7.65c.38 0 6.09 5.78 5.23 6.49s-3 2.36-2.16 3.62 4.52 7 5.92 8zm-9.41-16.1c-1.41.45-2 4.18-2 4.78s1.86.7 2.11.65 0-.25 0-1.3a8 8 0 0 1 .66-3.07c.24-.31-.15-1.26-.77-1.06z" fill="#1d1d1b"/></svg>