<svg height="64" viewBox="0 0 64 64" width="64" xmlns="http://www.w3.org/2000/svg"><path d="m43 48.74c-.16 0-1 .88-.83 1.16s7.49 6.27 7.82 6.32 0 0 .17-.39-7-7.09-7.16-7.09zm14.3-46.33c-1.83-.5-6.41-.25-6.41-.25a7.29 7.29 0 0 0 -2.24-.66c-.83 0-32.77-.5-34.65-.5a3.21 3.21 0 0 0 -2.75 1.5c-8.1-.5-8.1 3.57-8.25 8.06s.41 36.93.5 41.17.91 7.07 3.07 8.48 16.06 2.58 27.28 2.67 17.22.58 21.21-1.25 4.49-4.91 5.07-8.82.87-29.6.87-38.92-1.87-10.98-3.7-11.48zm-45.55 9.59s-.06 38.7-.22 38.7h-1.67s-.66-37.26 0-38.76c.14-.42 1.89.06 1.89.06zm-.17 44.53c-.16 0-5.15.94-6.1-2.67s-.66-18.86-.72-27.52-1.11-20.57 1-21.85 5.24-.77 5.24-.77v3.88s-2.8-.78-2.91 2.55-.17 41.19.55 41.75 3.16.66 3.16.66a31.55 31.55 0 0 1 -.22 4zm14.81.88c-8.82-.22-9.76-.27-9.71-.5s6.49-3.77 6.49-3.77a52.24 52.24 0 0 0 10.37 1c5.93 0 7-.22 7.37-.11s5.6 3.55 5.27 3.83-10.98-.2-19.79-.42zm-.78-5.76c-.38-.21 6.82-3.83 7-3.77s6.54 4.38 6.32 4.54-12.6-.36-13.32-.74zm25.39 6.57c-.66.05-17.3-12-18.35-12.2s-18.35 10.59-19 10.26-1-51.9-.44-53.23c.18-.44 5-.44 9.31-.39s27.28.17 27.5.78.28 15.41.28 15.41a24.74 24.74 0 0 0 -3.05-2.49c-.33 0-.56.94-.33 1.16s3.21 2.28 3.21 2.5.06 2.77.06 2.77a32.26 32.26 0 0 0 -3.11-3.05c-.28 0-.16 1.5-.16 1.5s3.1 2.82 3.27 3.05a7.62 7.62 0 0 1 .05 1.88s-2.77-2.66-2.94-2.66-.38 1-.22 1.33 3.11 2.77 3.22 3.16a21.9 21.9 0 0 1 0 2.61 24.59 24.59 0 0 0 -2.68-2.61 1.48 1.48 0 0 0 -.17 1.33c.23.39 3 2.66 3.11 3.11s.06 2.33.06 2.33-3-3.33-3.17-3.39-.44 1.28-.27 1.5 3.38 3.44 3.49 3.72a14.73 14.73 0 0 1 -.05 2.27 50.13 50.13 0 0 0 -3.83-3.94c-.28 0-.17 1.44-.17 1.44s4.05 3.83 4.11 4.27a20.9 20.9 0 0 1 .16 2.83 59.06 59.06 0 0 0 -4.54-4.55c-.28 0-.61 1.11-.34 1.39l4.83 4.77v3s-4.88-5.32-5-5.38-.61 1.06-.45 1.22 5.38 5.55 5.38 5.88.06 3.33.06 3.33-5.71-6.6-5.94-6.6-.33 1.66-.33 1.66 6.49 6.1 6.49 6.49.62 3.48-.05 3.54zm.72-46s2.72-.55 3.28 0-.23 34.21-.23 36.2-2.33 1.58-2.33 1.58zm7 39.59a6 6 0 0 1 -3.6 3.82c-2.39.83-2.17 1.33-2.39.83a22.8 22.8 0 0 1 0-5.1c.16-.05 2.66.39 3.05-.94s.33-15.19.67-23.73.33-17.35-.23-18.24-.88-1-2.1-1-2-.06-2-.06a27.89 27.89 0 0 1 0-3.77c.16-.11 5.65-.33 6.65 3.05s.38 44.06-.06 45.12zm-41.72-46.26c-.5.27-.28 6.65-.22 7s.94.17 1.22.06 0-6.29-.1-6.79-.75-.38-.9-.27zm25.35 18.07c-.61-1.38-6.87-1.16-6.87-1.16s-2.16-7.54-3.38-7.21-5.05 7.15-5.1 7.43c0 0-6.82.22-7 1.38s5.93 5.88 5.93 5.88l-2.55 7.27s-.11 1.1.72 1.27 7.32-4.66 7.32-4.66 8 4.83 8.37 4.27-1.79-8.15-1.79-8.15 5-4.94 4.35-6.32zm-4.6 12c-.22 0-5.88-3.6-6.32-3.6s-5.76 4.1-5.76 3.77 2.21-6.1 2-6.27-3.27-3.66-3.1-4a23.57 23.57 0 0 0 4 .17c.28-.22 2.83-4.6 3-4.49s1.28 4 1.61 4.16 5.82.44 5.82.44-2.44 3.55-2.44 3.71 1.44 6.14 1.19 6.14z" fill="#1d1d1b"/></svg>