<svg height="64" viewBox="0 0 64 64" width="64" xmlns="http://www.w3.org/2000/svg"><path d="m29.54 64c-6.3 0-11.25-1.28-15.59-4-8.26-5.23-9.35-7.77-9.33-9.56a3.39 3.39 0 0 1 1.75-2.9 2 2 0 0 1 1-.28 2.06 2.06 0 0 1 1 .26c.09 0 9.25 5.21 16.73 5.78 2.67.21 5.23.31 7.58.31a38.07 38.07 0 0 0 8.88-.79c1.22-.34 2.28-.71 3.13-1l.51-.18a3.26 3.26 0 0 1 -.77-1.64 25.32 25.32 0 0 1 -3.09 2.16 5.89 5.89 0 0 1 -2.74.92 2.73 2.73 0 0 1 -2.18-1.08 3.64 3.64 0 0 0 -2.42-1.33h-.18a4.71 4.71 0 0 0 -1.22.43 15.08 15.08 0 0 1 -6.72 1.37 32.59 32.59 0 0 1 -4.66-.37c-5.2-.73-11.61-3.61-12.62-13.22-.32-3.06-1.07-10.22 5.62-16a13 13 0 0 1 2.43-1.65 26.82 26.82 0 0 1 -3.76-1.07 2 2 0 0 1 -1.06-1.24l-.76-2.54a2 2 0 0 1 0-1 22.86 22.86 0 0 1 4.51-9 17.68 17.68 0 0 1 14.26-6.38 27.91 27.91 0 0 1 3.23.19c10.62 1.18 12.16 11.11 12.67 14.37.33 2.14.45 6.43.56 10.58.1 3.5.21 7.47.44 8.5.11.51.2 1 .28 1.4.3 1.55.42 2.19 1.28 3 .43.41.76.69 1 .91a3.57 3.57 0 0 1 1.59 2.95c0 .26 0 .46.06.61a2.92 2.92 0 0 1 -.76 2.61 3.3 3.3 0 0 1 -.33.33c1.13.31 2.46.71 3.19.93 4.4 1.38 5.09 1.94 5.54 2.54 1.26 1.68.86 5.22-.31 7.47l-.22.44a10.57 10.57 0 0 1 -4.53 5.17 7.5 7.5 0 0 1 -3.64 1.15 3.75 3.75 0 0 1 -2.37-.78 4.05 4.05 0 0 1 -1.38-2.37c-.26.19-.47.32-.59.4a20.69 20.69 0 0 1 -9.29 3.27c-2 .18-4.31.36-6.71.36zm-14-26.71a2 2 0 0 1 2 1.62 6.17 6.17 0 0 0 1 2.54 6.94 6.94 0 0 0 1.7.69c1 .31 2.05.64 2.44 1.8a3.23 3.23 0 0 1 .16 1.28 30 30 0 0 0 8-1.62h.12a10.9 10.9 0 0 0 2.4-1.08 3.27 3.27 0 0 1 1.71-.59 2.76 2.76 0 0 1 1.27.44 2.91 2.91 0 0 1 1.07-.71 1.54 1.54 0 0 1 .35-.1 2.76 2.76 0 0 1 .69-.76 2.16 2.16 0 0 1 0-.56 2.94 2.94 0 0 1 1.9-1.91 2.05 2.05 0 0 1 .64-.11h.37l-.11-.13c-.64-.81-1.23-1.56-1.39-1.75-.45-.44-1.11-1.58.15-3.48a2 2 0 0 1 .22-.27 5.06 5.06 0 0 1 -1.23-1.79 3.75 3.75 0 0 1 .28-2.63 2 2 0 0 1 .61-.76l-.29-.34a2.16 2.16 0 0 1 -.82-1.24 3.34 3.34 0 0 1 .55-2.48 1.77 1.77 0 0 1 .16-.22l-.21-.32a2 2 0 0 1 -.28-1.41 2.86 2.86 0 0 1 1.69-2.46h.11c-.17-2.21-.35-4.54-.45-5.57a8.6 8.6 0 0 0 -7.35-7.72 23.06 23.06 0 0 0 -4.06-.39 11.09 11.09 0 0 0 -7.74 2.86l-.38.33a2.69 2.69 0 0 1 1.07 1.55 2.08 2.08 0 0 1 -.59 2c-.12.18-.29.5-.46.83a5.3 5.3 0 0 1 .52.42 6.89 6.89 0 0 1 1.29-1.3 8.1 8.1 0 0 1 5-1.64 12.28 12.28 0 0 1 6 1.76c4.4 2.49 3.74 9.07 3.52 11.24v.42c-.12 2.27-1.42 2.59-2.17 2.59a2.45 2.45 0 0 1 -.77-.13 4.39 4.39 0 0 1 -1.51-.46 16.63 16.63 0 0 0 -7.14-1.43h-1.27c-5.71.3-9.5 4.78-9.94 7.09a28.49 28.49 0 0 0 -.43 6.34 3.54 3.54 0 0 1 1.42-.46zm10.3-17.94a23.28 23.28 0 0 1 6.14.9l.17.06a3.7 3.7 0 0 0 -.93-2.66 3.65 3.65 0 0 0 -2.47-1 3.8 3.8 0 0 0 -2.07.64 5.31 5.31 0 0 0 -.81 2.06zm.24 23.41a14.75 14.75 0 0 1 -2.83-.28c-5-1-7.07-4.6-6.13-10.79.39-2.58 3.32-6.35 9.83-6.35a24 24 0 0 1 8 1.57 2.46 2.46 0 0 1 1.42 1.93 2.56 2.56 0 0 1 .39 0 2.18 2.18 0 0 1 2 1.37c.37.92 0 6-.78 7.2a2.09 2.09 0 0 1 -1.35.91 1.92 1.92 0 0 1 -.78.17 1.88 1.88 0 0 1 -.94-.24 10.06 10.06 0 0 1 -8.86 4.54zm2-9.61a17.07 17.07 0 0 0 -2.93.38h-.17a2.49 2.49 0 0 0 -1.87 1.8 1.46 1.46 0 0 0 0 1.1 5.46 5.46 0 0 0 3.35.9 6.28 6.28 0 0 0 3.28-.81 3 3 0 0 0 1.17-2.68 6 6 0 0 0 -2.82-.69z" fill="#fff"/><path d="m29.54 63.94c-6.29 0-11.23-1.28-15.56-4-8.23-5.21-9.32-7.73-9.3-9.51a3.3 3.3 0 0 1 1.73-2.84 1.86 1.86 0 0 1 1-.28 1.94 1.94 0 0 1 1 .25c.09.05 9.26 5.22 16.75 5.79 2.68.21 5.23.31 7.59.31a38.11 38.11 0 0 0 8.89-.79c1.23-.34 2.29-.71 3.14-1l.6-.21a3.15 3.15 0 0 1 -.85-1.75 27.26 27.26 0 0 1 -3.17 2.22 5.91 5.91 0 0 1 -2.76.87 2.62 2.62 0 0 1 -2.13-1.08 3.71 3.71 0 0 0 -2.47-1.31h-.19a4.63 4.63 0 0 0 -1.23.43 14.71 14.71 0 0 1 -6.7 1.37 32.7 32.7 0 0 1 -4.62-.41c-5.17-.72-11.55-3.6-12.56-13.17-.32-3-1.07-10.18 5.6-15.94a13.29 13.29 0 0 1 2.56-1.71 27.88 27.88 0 0 1 -3.86-1.07 1.88 1.88 0 0 1 -1-1.2l-.76-2.53a2 2 0 0 1 0-1 22.63 22.63 0 0 1 4.49-9 17.64 17.64 0 0 1 14.11-6.32 28.17 28.17 0 0 1 3.23.19c10.57 1.17 12.1 11.07 12.61 14.32.33 2.14.45 6.43.56 10.58.1 3.5.21 7.47.44 8.5.11.51.2 1 .28 1.4.3 1.56.42 2.21 1.3 3.05.43.41.76.69 1 .91a3.52 3.52 0 0 1 1.57 2.91c0 .26 0 .45.06.61a2.9 2.9 0 0 1 -.74 2.56l-.43.43c2.7.69 7.86 2.16 8.82 3.45 1.25 1.66.85 5.17-.31 7.4l-.23.44a10.39 10.39 0 0 1 -4.51 5.08 7.4 7.4 0 0 1 -3.6 1.11 3.68 3.68 0 0 1 -2.32-.77 3.92 3.92 0 0 1 -1.37-2.41 21 21 0 0 1 -9.94 3.72c-2 .18-4.31.36-6.71.36z" fill="#fff"/><path d="m31.34 22.14c-1.16-.42-10.29-2.47-15.77 2.26s-5.36 10.36-4.94 14.27 2.12 10.22 10.9 11.46 9.88-1.24 12.15-1.44a5.3 5.3 0 0 1 4.25 2c.34.41.55.75 2.47-.28a72.58 72.58 0 0 0 8.3-6.58c.48-.55.28-.62.21-1.79s-.35-1-2-2.54-1.58-3-2.13-5.42-.41-15.23-1-19.21-2.28-11.74-10.93-12.7-12.85 2.2-15.78 5.49a20.75 20.75 0 0 0 -4 8.16l.75 2.54c1.3.62 9.81 2.33 9.81 2.33s.48-4 2-5.07a5.55 5.55 0 0 1 7 .55c2.61 2.33 1.23 7.06 1.23 7.06a22.06 22.06 0 0 0 -2.52-1.09zm1.38-8.37c-3.64-2.06-6.8-1.86-8.85-.28s-2.13 4.32-2.68 4.25a64.37 64.37 0 0 1 -7-2.53s2.68-6.21 5.81-8.65 6.2-4.11 13.33-2.88a10.55 10.55 0 0 1 9 9.47c.21 2.26.82 10.63.82 10.63s-1.64-3-1.85-3-.34.89-.34.89l2.12 3.33.06 1.92-2.14-2.52s-.55.89-.21 1.1a19.3 19.3 0 0 1 2.4 3.08c.07.28.21 3.3.21 3.3l-2.31-2.88a2.11 2.11 0 0 0 -.21 1.16c.14.41 2.61 2.82 2.61 3s1.23 4.32.82 4.19a25.59 25.59 0 0 1 -2.61-3.43s-.54.82-.34 1 3.09 3.91 3.36 4.18l2.61 2.47s-.34 1.23-.75 1.1-2.75-3.57-2.95-3.43a.63.63 0 0 0 -.07 1 14.53 14.53 0 0 1 2.26 3c-.07.2-1.3.75-1.3.75a46.18 46.18 0 0 0 -3.52-3.81c-.21.07-.76.41-.55.62s3.16 3.56 3.16 3.56l-1 .83a34.93 34.93 0 0 0 -2.6-3c-.21 0-.76.34-.62.55s2.4 3 2.4 3-.75.89-1.1.68-2.6-3-2.6-3-.69.28-.41.55a25.87 25.87 0 0 1 2.46 2.88c-.2 0-1.23.41-1.37.21s-3.36-3.23-3.77-3.23-1.17.83-3.5 1.58-9.33 3.09-15.09.76-4.67-11.87-4.05-15.17 5.21-8.37 11.8-8.71 9.47 1.85 10.15 1.85.76.55.83-.61 1.21-7.71-2.42-9.76zm-14.41.06c-.28-.06 1.3-3.15 1.58-3.29s-.41-.68-.76-.68-2.93 4.14-2.67 4.39a10.27 10.27 0 0 0 3.43 1.37c.55 0 .2-.62.2-.83s-1.51-.89-1.78-.96zm-1 29.23c-1.24-.89-1.78-3.77-1.78-3.77-1.31.13-1.1 1.16-1.1 1.44a8.18 8.18 0 0 0 1.57 3.5 9.36 9.36 0 0 0 4.46 1.64c.41-.13.48-.89.34-1.3s-2.22-.57-3.45-1.51zm18.93-6.72c.48 0 .83-5.08.69-5.42s-1 .2-1 .2a23.26 23.26 0 0 0 -.21 5.22c.28.27.08 0 .56 0zm-17.11-4.34c-.34 2.26-1.16 7.47 4.53 8.57s9.19-1.71 10.09-4.39 1-7.18.54-7.34c-10.7-3.84-14.81.84-15.16 3.16zm11.67 6.26c-2.89 1.78-7.41 1.23-9.06-.34s-.36-5.71 2.88-6.32c2.95-.55 4.87-1 8.17 1 0 .03.89 3.87-1.99 5.66zm11.32 16.46c-2.95.83-9.13 1.17-17.16.55s-17.56-6-17.56-6c-2.4 1.44.89 4.8 7.62 9s14.2 4 21.06 3.36 11.59-5.28 11.73-6 .07-2.33-.34-2.53-2.4.8-5.35 1.62zm-2 3.16c-4.39 1.1-7.82 2.68-18 .41s-12.8-6.24-12.39-6.65c.15-.15 8.72 5.42 20 5.21s14.41-1.3 14.41-1.3.38 1.23-4.01 2.33zm16.88-7.75c-.61-.83-8.44-3-9.12-3.09s-1.17.82-1.44 2 .62 1.58 1 1.85 2.58 2.18 2.47 3.16a33.51 33.51 0 0 1 -1.79 5.28c-.2.41.28 1.17.62 1.44s1.37.82 3.77-.55 3-2.88 4-4.73 1.11-4.49.49-5.36zm-3.15 5.87a8.71 8.71 0 0 1 -3 2.47c-.21 0 1.23-4.39 1.1-5.22s-3.09-3.84-3.71-4c0 0-.27-.89 1.1-.61s6.1 2.05 6.24 2.74a7.81 7.81 0 0 1 -1.73 4.62z" fill="#232021"/></svg>