<svg height="64" viewBox="0 0 64 64" width="64" xmlns="http://www.w3.org/2000/svg"><path d="m36.34 58.77a19.53 19.53 0 0 0 -14.26 1.47 13.5 13.5 0 0 1 -6 1.49c-.36 0-.73 0-1.1 0a16.67 16.67 0 0 1 -14.91-14.61 16.2 16.2 0 0 1 3.93-12.12 15.42 15.42 0 0 1 11.55-5.11h.32l1.59-1a4 4 0 0 0 1.61-4.89 17.84 17.84 0 0 1 -.55-11.34c1.01-3.26 3.62-7.66 10.37-10.16a11.69 11.69 0 0 1 4-.65c6.27 0 13.34 3.88 14.74 11.32.94 5 .7 8.85-.82 12a3 3 0 0 0 3.28 4.3h.15a14.25 14.25 0 0 1 1.5.07c6 .68 12.44 5.66 12.26 17.65a15.12 15.12 0 0 1 -14.87 15 11.64 11.64 0 0 1 -5.13-1.19z" fill="#fff"/><path d="m45.73 13.53c-1.55-8.2-11.17-11-16.17-9.21-12.72 4.68-10.48 17.13-7.4 21.44s11.28 7.71 17.29 4.24 7.82-8.28 6.28-16.47zm-11.23 9.09c.16.11 2.93 4.79 2.93 4.79l-1.65.59s-2.18-4.68-2.55-4.73-.8.42-.69.58 2.12 4.31 2.12 4.31a9.68 9.68 0 0 1 -2.44 0c-.27-.21-1.6-2.71-1.81-2.82s-1.28.64-1.28.64 1.38 2.02 1.12 2.12a9.78 9.78 0 0 1 -7-4.15c-2.23-3.51-3.67-13.19 5.11-17.45a12.6 12.6 0 0 1 12 1.76c3.77 3.14 3.77 10.32 3.46 10.21s-2.5-4.79-3.3-4.94-.85.47-.69.63 3.19 5.48 3.19 5.8-.32 1.7-.48 1.7-3.09-5.37-3.54-5.42-.74 1-.63 1.17 3.45 5.05 3.4 5.64-1 1.75-1.17 1.65-2.82-5-3.19-5.06-.91.43-.64.64a41.39 41.39 0 0 1 3 5.37 14.27 14.27 0 0 1 -1.54 1 42.92 42.92 0 0 0 -2.71-4.57c-.27-.08-1.18.43-1.02.54zm-4.89-14c-.48 0-1.38.53-2.87 2.18a6.67 6.67 0 0 0 -1.86 3.41c0 .32.85.53 1.11.53s.38-1.12 1.39-2.66a6.64 6.64 0 0 1 2.87-2.24s-.33-1.21-.64-1.21zm21.91 22.83c-4.3-.48-13.88 1.49-15.31 10.37s2 14.26 8.61 17.45 17.08-1.91 17.24-12.13-4.82-15.05-10.54-15.69zm7.77 14.42s-.21 2.81-.53 2.44-2.71-4.31-2.93-4.31-.74.8-.74.8 3.3 4.57 3.24 5a11.27 11.27 0 0 1 -1.11 1.91s-2.66-5.11-3-5.16-.8.48-.75.69 3.3 5 3 5.43-.79 1.43-1 1.27-2.71-4.94-3-4.94-.91.53-.8.8 3.19 4.68 3 5-1.28.9-1.44.74-2.45-4.54-2.77-4.62-.8.42-.8.42 2.72 4.74 2.45 4.95a7.69 7.69 0 0 1 -1.92.32 42.87 42.87 0 0 0 -2.6-4.15c-.32-.16-.75.37-.75.64s2.45 3.56 2.18 3.56a4.85 4.85 0 0 1 -1.75-.16c-.32-.21-1.76-2.82-2.18-2.92s-.91.53-.8.74a14.76 14.76 0 0 1 1.17 2.08 10.19 10.19 0 0 1 -6.17-3.73c-2.18-3-2.55-10.16.21-14.52s8.83-6.06 13.2-4.84a10.91 10.91 0 0 1 6.48 6.44 10.94 10.94 0 0 1 .27 4.15s-1.45-2.9-1.81-2.98-.85.48-.8.64 2.45 4.31 2.45 4.31zm-12.66-9.87a12.71 12.71 0 0 0 -3.51 2.45 7.37 7.37 0 0 0 -2.39 3.55c0 .32.74.64 1 .59s.64-1.54 2.07-3a21.13 21.13 0 0 1 3.46-2.5c.12-.16-.32-1.24-.63-1.09zm-31-4.15c-9.96.15-14.26 8.7-13.63 15.08a14.66 14.66 0 0 0 13.14 12.82c7.13.69 15.48-6.92 14-16.22s-8.76-11.81-13.52-11.71zm10.58 14.81s-2.24-4.3-3-4.36-.85.53-.64.75 3.24 4 3.14 4.57-.32 1.22-.48 1.22-2.77-4.09-3.14-4.2-.85.64-.74.85 3.29 4.63 3.29 4.63l-.79 1.38s-2.72-4.25-2.93-4.3-1 .58-.8.74 3.14 4.36 3 4.68-.37.8-.53.8-2.5-3.94-2.82-4-.77.58-.77.58 3 3.78 2.71 4.15a2.82 2.82 0 0 1 -.95.64 44.62 44.62 0 0 0 -2.76-4.14c-.21 0-.9.64-.85.8s2.88 3.78 2.56 4a14.91 14.91 0 0 1 -1.81.69l-2.34-3.51s-.91.27-.8.64 2 3.19 1.81 3.3a2.13 2.13 0 0 1 -1.12 0c-.16-.11-2-2.77-2.34-2.93s-1 .21-1 .37 2.07 2.61 1.81 2.77-3.41-.48-6.33-3.35-6.15-9-1.38-15.27a12.17 12.17 0 0 1 9.46-4.89c4.63-.17 8.78 2 10.16 6.81s.38 6.58.38 6.58zm-14.53-10.85a17.38 17.38 0 0 0 -2.87 2.56c-1.17 1.22-2 2.44-2 2.81s1.28.59 1.44.27a6.48 6.48 0 0 1 1.06-1.91 14.65 14.65 0 0 1 3-2.56c.12-.16-.31-1.29-.63-1.17z" fill="#1d1d1b"/></svg>