<svg height="64" viewBox="0 0 64 64" width="64" xmlns="http://www.w3.org/2000/svg"><path d="m32.52 64a36.1 36.1 0 0 1 -14.46-3.31c-5.84-2.58-19.24-10.88-17.58-32.23.57-7.23 4.52-24.46 29.46-28.28a16.52 16.52 0 0 1 2.5-.18c7.93 0 17.89 4.7 24.21 11.44 8 8.52 10.12 28.2 1.2 39-7.42 9-15.94 13.56-25.33 13.56z" fill="#fff"/><path d="m55.24 12.77c-7.07-7.53-18.24-11.72-25.01-10.67-24.23 3.73-27.35 20.62-27.81 26.51s-.33 22.91 16.43 30.3 28.86.79 37.5-9.69 5.96-28.93-1.11-36.45zm-6.87 39.23c-9.95 7.07-24 8.32-35.61-1s-8-27.1-5.63-32.27 11.06-12.78 23-14.4c6.38-.86 20.36 3.86 26.25 14.33s1.93 26.24-8.01 33.34zm-33.55-32c.26-.13.3-2.06 2.46-4.09a13.48 13.48 0 0 1 4.45-2.72c.09-.1 0-1-.3-1.18s-2.32.69-5 2.82-3.56 4.85-3.2 5a3.77 3.77 0 0 0 1.59.17zm27.26 22.68c.3-.46 8.74-20.59 9.07-21.63s-.69-1.51-1.38-1.61-25.25-.32-26-.13c-.4.1-.76.66-1.38 1.93s-8.9 18.56-9.26 19.93 1.7 2.88 3.14 2.95 21.93-.23 23.5-.3a2.42 2.42 0 0 0 2.31-1.14zm-23.86-.92c-.06-.36 7.14-17.31 7.5-17.51s21.57 0 21.93.17-6.75 17.21-7.14 17.28-22.22.42-22.29.06zm10.57 10.24c0 .09 3.15 5 3.15 5a1.28 1.28 0 0 0 1-.39c.23-.26-2.88-5.24-3.05-5.34s-1.06.64-1.1.73zm3.28-.63c0 .1 3.14 4.68 3.14 4.68a1.23 1.23 0 0 0 1-.39c.23-.26-2.88-4.94-3-5s-1.11.63-1.14.72zm-4.94.46c-.17-.06-1.15.59-1.15.59a21.16 21.16 0 0 0 2.75 3.58 1.3 1.3 0 0 0 .78-.5 23.59 23.59 0 0 0 -2.38-3.66zm7.92-1.14c.06.29 3.24 4.71 3.33 4.77a1.28 1.28 0 0 0 .85-.39 45.86 45.86 0 0 0 -3-4.87 6.15 6.15 0 0 0 -1.18.5zm4-1.12a5.26 5.26 0 0 0 -1.18.53s3 4.19 3.07 4.25a1.43 1.43 0 0 0 .89-.46 33.55 33.55 0 0 0 -2.83-4.31zm1.5-.72c-.1.36 2.88 4.42 3.11 4.59s.56-.2.72-.46-2.62-4.45-2.78-4.55-1.09.43-1.09.43zm3.45-2.34c-.16-.07-1 .82-1 .82a41.88 41.88 0 0 0 3 3.83 1.07 1.07 0 0 0 .69-.59c.14-.3-2.51-4-2.69-4.06zm1.61-2.78c-.2 0-1 .62-1 .62.13.39 3.86 5.59 3.86 5.59s.62-.22.66-.45a51.73 51.73 0 0 0 -3.51-5.76zm1.73-2.07c-.2 0-.88.66-.88.66.19.39 4 5.33 4.06 5.33a1.56 1.56 0 0 0 .65-.45 41.78 41.78 0 0 0 -3.82-5.54zm2-2.19c-.2 0-.82.58-.82.72a33.88 33.88 0 0 0 3.83 5.3c.26 0 .36-.29.52-.62s-3.29-5.37-3.49-5.4zm1.7-2.65c-.26 0-.91.71-.91.85a30 30 0 0 0 3.73 4.62c.26.09.42-.3.59-.56s-3.11-4.88-3.37-4.91zm1.44-3.37c-.23-.1-1.05.65-1 .85a40.29 40.29 0 0 0 4.09 5c.19.06.49-.46.46-.69a56.44 56.44 0 0 0 -3.51-5.16zm.89-3.7c-.17-.06-.79 1.05-.79 1.05.07.46 4.32 5 4.32 5a1.68 1.68 0 0 0 .33-.69 47.69 47.69 0 0 0 -3.82-5.36zm1.44-2.52c-.17-.06-.79.95-.76 1.05a26.57 26.57 0 0 0 3.14 3.14c.14 0 .2-.26.23-.62a19.65 19.65 0 0 0 -2.57-3.57z" fill="#1d1d1b"/></svg>