<svg height="64" viewBox="0 0 64 64" width="64" xmlns="http://www.w3.org/2000/svg"><path d="m52.39 60.05c-1.78 0-3.67-1.68-7.5-5.69-.42-.44-.91-1-1.24-1.28h-1c-4-.1-14.49-.39-20.12-.39-1.76 0-2.59 0-3 .05l-1.83 1.48c-5.56 4.54-7 5.52-8.32 5.52h-.06a2.24 2.24 0 0 1 -1.6-.83c-.92-1.15-.79-3 .14-8.81 0-.22.07-.45.1-.68-2.58-.07-5.38-.37-5.65-2.78-.08-.73-.73-9.82-1.1-19-.76-19 .32-20 1.18-20.88 1.86-1.84 4.04-2.76 10.22-2.76.35 0 35 0 38.26 1a5.15 5.15 0 0 1 3.55 4.3h1.46c3.64 0 5.2.44 5.94 1.68 1.18 2 1.69 34.75.58 38.12a2.33 2.33 0 0 1 -1.3 1.52 10.16 10.16 0 0 1 -3.35.6c-2.11 7.69-3.73 8.39-4.36 8.66a2.59 2.59 0 0 1 -1 .17z" fill="#fff"/><path d="m60.1 12c-.66-1.1-7.57-.59-7.57-.59s.37-3.82-2.21-4.56-31.54-.85-37.71-.85-7.61 1-8.83 2.16c-2.06 2 .37 36.91.52 38.23s5.58.88 5.88 1.1-1.91 10.15-.74 10.22 8.61-6.47 9.41-6.91 25 .3 25.52.3 6.69 7.57 8.23 6.9 3.61-8.83 3.61-8.83a12.18 12.18 0 0 0 4.11-.44c1.4-.57.45-35.65-.22-36.73zm-9 11c-.22-.45-.51-1.11-1-.89s-1 .81-.66 1.11a9 9 0 0 1 1.62 2c0 .22-.15 2-.15 2s-1.17-2-1.54-1.69-1 1-.52 1.32a8.71 8.71 0 0 1 2.06 2.72c0 .44-.07 2.21-.07 2.21s-2.21-3.46-2.57-3.17-.81 1-.45 1.25a36.94 36.94 0 0 1 3 4.19c.07.23.36 2.65.14 2.43s-3-4.93-3.38-4.78-.88.74-.59 1.1a62.09 62.09 0 0 1 3.85 6.2c0 .45 0 3.17-.29 3.17s-4.2-7.47-4.55-7.4-1.18 1-1 1.18 4.78 7.35 4.34 7.5a5 5 0 0 1 -2.34-.07c-.3-.22-3-5.59-3.24-5.59s-1.18.37-.81.81 2.72 4.7 2.43 4.7-2.06.08-2.13-.22a32.21 32.21 0 0 0 -2.43-4.41c-.22 0-1 .29-.59 1s1.91 3.45 1.62 3.45-2.13.44-2.28.08-1.32-2.95-1.91-3-1.47.37-1 .81 1.91 2.43 1.62 2.43-2.72-.22-2.72-.22-1-2.58-1.47-2.72-1.18.36-1 .66 1.11 2.13 1.11 2.13-12-.66-12.87-.22-9.63 8.6-10 8.6 2.65-9 1.76-9.34-6.25.3-6.76-.22-2.47-32.63.17-33.51c1.24-.42 15.22-1.18 21.69-1.25s22.13.73 22.5 1.47.59 14.56.37 14.12zm-36.36-13.23c-.22-.44-5-.22-5.88.22s-.69 6.3-.3 6.7.88.14 1.25.14.15-4.41.15-5.22 4-.37 4.41-.37.63-1.02.37-1.47zm30.07-.07a1.12 1.12 0 0 0 .29 1.69 9.09 9.09 0 0 0 2.8.44c.81.08.29 2.58.37 2.94s.88.3 1.32.22.22-4.41 0-4.92-4.28-.62-4.78-.37zm-22.94 11.3c-.74-.11-6-.49-6.36-.22-.52.44-2.28 5.77-2.24 6.14s2.35.08 4.73.08 3.75.11 4.71-2.06-.11-3.88-.84-3.94zm-.48 3.71a1.35 1.35 0 0 1 -1.58 1h-3.42a13.79 13.79 0 0 1 1-2.28c.2-.08 3.16 0 3.45 0s.99.13.55 1.23zm.44-5.92c2 0 2.94-.18 3.53-3.49s-7.36-2.41-7.68-2.18a27.55 27.55 0 0 0 -1.84 5.33c.04.37 4.04.29 5.99.29zm-1.91-3.79s2.72 0 3 0 1.18-.08.77 1.32-.91 1.21-1.32 1.21a24.62 24.62 0 0 1 -3.37-.18 13 13 0 0 1 .92-2.35zm17.08 1.72c.62-2.2-.7-3.12-1.1-3.16s-4.8-.39-5.19-.11c-.81.59-2.31 5.18-2.28 5.52s4 .33 5.37.33 2.55-.37 3.2-2.58zm-1.51 0c-.33.8-.59 1.25-1.39 1.21a13.66 13.66 0 0 1 -2.73-.22 8.88 8.88 0 0 1 1.16-2.71 14.64 14.64 0 0 1 2.28.15 1.19 1.19 0 0 1 .66 1.54zm9.93 1.76c-.22 0-4.78-.26-4.93-.15a25.72 25.72 0 0 0 -1.8 5.78c.15.4 4.85.44 5.48.36a3 3 0 0 0 2.53-2.53 3.07 3.07 0 0 0 -1.3-3.49zm-.15 3.24c-.2.92-.79 1.28-1.27 1.28a14.57 14.57 0 0 1 -2.76-.18 9.28 9.28 0 0 1 .76-2.64c.19-.23 2.39.07 2.57.07a1.18 1.18 0 0 1 .68 1.44zm-3.09 5.55c-.55 0-4.43-.36-4.59-.15a27.42 27.42 0 0 0 -1.73 5.62c.11.26 4.26.41 5.11.3s2.32-.41 3-2.87-1.26-2.93-1.81-2.93zm.19 3.31a1.92 1.92 0 0 1 -1.66 1.14c-.73-.08-2.24 0-2.24-.11a11.52 11.52 0 0 1 1.1-2.87 6.91 6.91 0 0 1 2.63.26 1.44 1.44 0 0 1 .15 1.55zm-11.27.42c-.33 0-5.28-.12-5.48 0-.48.3-2.57 5.67-2.32 5.85s6.29.18 6.91.15 1.4-.08 2.32-2.54a2.43 2.43 0 0 0 -1.43-3.46zm-1 4.56c-1.25 0-3.78.11-3.82-.18a6.85 6.85 0 0 1 1.18-2.35 13.84 13.84 0 0 1 3.53.14c.44.21.36 2.38-.89 2.41zm3.31-14c-.7 0-5-.26-5.44 0s-1.54 5.27-1.39 5.44 4.52.15 5.58.15 1.92-.26 2.5-2.21-.55-3.36-1.25-3.4zm-.36 3.2a1.16 1.16 0 0 1 -1.07 1c-.33 0-2.24-.08-2.24-.08a21.63 21.63 0 0 1 .47-2.17 15.88 15.88 0 0 1 2.39 0c.19.01.63.42.45 1.23z" fill="#1d1d1b"/></svg>