<svg height="64" viewBox="0 0 64 64" width="64" xmlns="http://www.w3.org/2000/svg"><path d="m14.38 64c-5.16 0-7.76-.58-9.47-4-2.26-4.53-2.53-37.46-2.53-37.79 0-.94 0-2-.08-3.13-.22-5.95-.49-13.35 3.81-16.6 2.62-2 6-2.24 9.31-2.24h2.81c3.49.02 10.52-.05 17.33-.12 6.49-.06 12.61-.12 15.52-.12h1.49c3.3.09 8.88 1.62 9.17 10.93.25 7.57-.3 39.89-.73 43.22-.47 3.67-2.5 8.2-6.66 8.87-1.9.31-7.39.4-16.19.51-4.49.05-9.58.12-14.34.24l-3.57.1c-2.38.13-4.25.13-5.87.13z" fill="#fff"/><path d="m59.81 11c-.24-7.53-4.25-9-7.29-9s-31.79.32-36 .24-7.16.22-9.24 1.76c-4.24 3.2-3 12.73-3 18.18s.6 33.42 2.36 36.94 4.4 3 17.14 2.72 27.3-.24 30.26-.72 4.64-4.08 5.05-7.21.96-35.39.72-42.91zm-2.41 28.23c.06 3.15-.1 7.37-.1 7.37s-.8-.64-1-.53-.74 1-.48 1.23 1.5 1 1.5 1.22a9.59 9.59 0 0 1 -.22 2.3c-.16-.06-1.86-1.55-2-1.6s-1 1-.81 1.22a18.89 18.89 0 0 1 2.41 2.14c0 .27-.8 2.29-1.12 2.13s-2.5-2.66-2.66-2.71-1.12.32-.91.8 2.56 2.83 2.46 3.15-1.07 1.34-1.39 1.18-2.72-3.53-3-3.63-1.34.26-1.07.64 3.15 3.47 2.88 3.47h-2.65s-2.24-3.75-2.46-3.86-1.55.22-1.39.43 2.09 3.63 2.09 3.63h-2a41.14 41.14 0 0 0 -2.13-3.63c-.27-.16-1.61 0-1.5.27s2.26 3.55 1.94 3.55-18.95.27-24.71.21-9.5-1.49-10.78-6-1.77-14-1.93-21.62-1.22-21.41 1.23-24.77c1.49-2 4.86-2.08 8.17-2.14s21.14-.1 28-.16 10.78-.21 13 2.67.58 29.9.63 33.04zm-41.4-32.72a11.55 11.55 0 0 0 -5.46.49c-1.82 1-1.54 7.31-1.28 7.63s1.49.16 1.81.1.16-.21.11-1.81 0-3.58.85-4.27 3.85-.27 4-.27a2.54 2.54 0 0 0 -.03-1.87zm21.23 21.09s2.29-2.94 2-8.44-3.71-8.43-8.46-8.16-13.77 1.59-14.31 2.13c-.9.86-.8 3.42-.8 5.71s.32 28 .59 29.36 1.17 1.8 3.75 1.92 12.27.22 17.24-1.38 5.49-4 5.28-11.85-5.29-9.29-5.29-9.29zm1.6 18.79c-3 2.19-12.6 2.24-15.27 2.29s-3-.21-3-.21-1-32-.64-32.61 8.22-1.82 11.8-1.55 5.87 4.53 5.82 6.78-2.34 6.29-2.54 6.67a1.24 1.24 0 0 0 .75 1.71 7.35 7.35 0 0 1 4.48 5.76c.68 3.77 1.59 8.97-1.4 11.16zm9.29-4.86c-5.61 3.42-2.46 7.1.16 8.06a4 4 0 0 0 5.55-3.9c-.22-3.15-3.23-5.69-5.71-4.16zm4.05 5.28c-.32 1.71-2.17 2.19-3.57 1.13s-1.23-2.89.42-3.85c1.49-.86 3.47 1.02 3.15 2.72zm-20.76-19.16c1.71-1.76 1.23-5.39-.21-7.58s-6.68-1-6.94-.53.32 9 .42 9.45 5.02.42 6.73-1.34zm-5.23-7.31c.12-.12 3.79-.86 4.48 2s-3.84 4.48-4.32 4.05-.34-5.84-.16-6.05zm7.36 15.11c-1.38-1.18-7.09-.41-8.22.16-.74.37-.32 9.76.22 10.19s6.4 1 9-1.6.39-7.58-1-8.75zm-.37 6.45c-.91 1.39-1.87 1.34-3.26 1.34s-2.67-.06-2.88-.38-.37-5.55.11-5.87 4.27-.74 5.07-.26 1.87 3.79.96 5.17z" fill="#1d1d1b"/></svg>