<svg height="64" viewBox="0 0 64 64" width="64" xmlns="http://www.w3.org/2000/svg"><path d="m11.87 55c-1.34 0-3.74-.11-5.49-.18l-2.06-.08c-2 0-4.09-1.63-4.21-4.74 0-.15 0-.34 0-.56-.11-1.92-.38-5.51 1.44-7.44a4 4 0 0 1 3-1.31c1.91 0 4.53-.07 6.57-.07a27 27 0 0 1 3.29.09 4.83 4.83 0 0 1 .88.2 4.2 4.2 0 0 1 -.1-.93c0-1.19.07-4.44.07-4.44a5.2 5.2 0 0 1 .81-3 5.68 5.68 0 0 1 -1.39-3.41c0-.06-.08-5.82.25-6.79a3.57 3.57 0 0 1 3.5-2.34h5.64a51.87 51.87 0 0 1 5.7.1c.72.14 3.07.88 3.18 4.92.07 2.25-.09 5.47-.13 5.89a4.17 4.17 0 0 1 1.28-.33 25.5 25.5 0 0 1 2.84-.09c2 0 4.62.06 5.86.09h.74a3.38 3.38 0 0 1 1.63.45 4.58 4.58 0 0 1 -.18-.79 42.9 42.9 0 0 1 -.28-6.54 5.8 5.8 0 0 1 .64-2 5.48 5.48 0 0 1 -.81-3.15c0-1.27-.11-4.91 0-5.89a4.59 4.59 0 0 1 3.53-3.58 31.15 31.15 0 0 1 3.43-.08c1.85 0 7.52 0 8.41.17 1.84.27 3.77 2.16 3.9 5.27a45.45 45.45 0 0 1 -.07 5.28 3.2 3.2 0 0 1 -.84 1.72 6.71 6.71 0 0 1 1.1 3.88v.68c.05 2.53.11 5.34-1.22 6.74a7.72 7.72 0 0 1 .53 3.1c0 2 0 4.28-.09 5.2a3.84 3.84 0 0 1 -.64 1.85 4.61 4.61 0 0 1 .79 2.47c0 .05.27 5.76 0 6.58s-1.05 2.33-3.74 2.55c-.61 0-1.88.08-3.87.08-2.61 0-5.76 0-7.11-.06h-.65a2.53 2.53 0 0 1 -1.55-.57c-1 1-2.66 1-5.06 1h-3.54a31.83 31.83 0 0 1 -4.85-.26 3.35 3.35 0 0 1 -1.49-.68 4.8 4.8 0 0 1 -2.89 1h-2.62c-.07 0-6.33 0-7.2-.14a3.36 3.36 0 0 1 -2.06-1.21 6.53 6.53 0 0 1 -4.27 1.35z" fill="#fff"/><path d="m14.11 42.59c-.85-.13-6.24-.06-9.55 0s-2.56 5.75-2.51 7.35c.08 2.2 1.47 2.87 2.27 2.87s6.49.31 8.08.25 2.51-.31 3.18-1 .61-2.76.68-5.85-1.26-3.5-2.15-3.62zm-.52 7.5a61.81 61.81 0 0 1 -9.23 0c-.32-.23-.55-4.69.37-5.19 1.16-.64 8.63-.18 8.86 0a21.46 21.46 0 0 1 0 5.19zm15.41-6.58c-1.53-.07-6.33-.25-8.91-.13s-2.6 1.29-2.6 2.54c0 0-.06 2.42 0 4.26s1 2.66 1.59 2.76 7.5.15 9.46.09a2.39 2.39 0 0 0 2.46-1.75 41.32 41.32 0 0 0 0-5.14c0-1.56-.45-2.57-2-2.63zm.3 6.37a9.56 9.56 0 0 0 -2-1.72c-.32 0-.44.28-.39.53a16.44 16.44 0 0 0 1.83 1.93h-1.14c-.21-.44-2.3-2.95-2.64-2.95s-.35.23-.35.57a13.74 13.74 0 0 0 2 2.39c-2.83 0-7 0-7.14-.2a22.35 22.35 0 0 1 .06-5.12c.2-.19 9.46-.06 9.74.06s.15 3.13.05 4.51zm-10.5-7.42c.55 0 5 .13 7.65.1s3.61-.06 4.16-.8.39-1.76.39-4.19-.12-3.89-1.25-4.32-9.64-.25-10.83-.25-1.71.82-1.75 2.48c0 0 0 3.27-.06 4.47a2.79 2.79 0 0 0 1.69 2.51zm.06-7.71c.36-.18 10.13-.09 10.38 0a8.09 8.09 0 0 1 .15 2.18 3.6 3.6 0 0 0 -1.08-.93c-.34-.05-.48.34-.44.55a14.94 14.94 0 0 0 1.5 1.7c0 .69 0 1.33-.08 1.74a17.27 17.27 0 0 0 -2.45-2.59.53.53 0 0 0 -.62.48c0 .3 1.6 2 2.2 2.63h-1.48a7.75 7.75 0 0 0 -2-2 .45.45 0 0 0 -.44.43 10.13 10.13 0 0 0 1.13 1.55c-3 0-6.74-.09-6.83-.15s-.19-5.47.06-5.59zm-.8-3c.34.21 9.86.28 11 .15a2 2 0 0 0 1.81-1.25c0-.34.18-3.49.12-5.67s-.92-2.94-1.59-3.06-9.86-.06-11-.06a1.62 1.62 0 0 0 -1.68 1c-.13.37-.21 4.93-.16 6.09a4 4 0 0 0 1.5 2.83zm.34-8.21a86.53 86.53 0 0 1 10.44.1c.27.21.31 6 0 6.09s-10.2 0-10.5-.28-.22-5.69.06-5.88zm15.6 18.77c.4.09 8.73.22 9.86.12a1.52 1.52 0 0 0 1.45-1.43 56.49 56.49 0 0 0 .09-5.94c0-2.09-1.44-2.55-1.87-2.55s-7.59-.21-9.21 0a2.16 2.16 0 0 0 -1.93 2.21c-.06.43-.24 4.13-.15 5.2a3.65 3.65 0 0 0 1.76 2.39zm.25-8.26c.19-.22 9-.19 9.15.15a14.12 14.12 0 0 1 .09 2.36c-.38-.42-.83-.86-1-.85s-.35.16-.28.53a7.28 7.28 0 0 0 1.22 1.55c0 .5 0 1-.06 1.31a19.74 19.74 0 0 0 -1.91-2.38c-.21 0-.65.35-.62.51s1.4 1.79 2.05 2.59l-1.52.06a15.74 15.74 0 0 0 -2.16-2.54c-.21 0-.62.17-.51.49a20.15 20.15 0 0 0 1.59 2.07 54.66 54.66 0 0 1 -6.21-.1c-.43-.21-.08-5.51.12-5.75zm9.61 9.27a105.13 105.13 0 0 0 -10.56-.18c-.71.09-1 1.71-1 2.72 0 0-.16 2.64-.16 4.57s.86 2.26 1.29 2.35a33 33 0 0 0 5.08.25c2.73 0 6.22.18 6.68-.52s.52-3.06.43-5.7-.74-3.21-1.81-3.49zm-.32 6a2.66 2.66 0 0 1 -.14 1 1.67 1.67 0 0 1 -.44.07 21.65 21.65 0 0 0 -2.18-2.59c-.16-.07-.75.27-.75.46a20.8 20.8 0 0 0 1.65 2.19h-1.3a13.72 13.72 0 0 0 -1.8-2.3c-.16 0-.57.32-.55.57a12 12 0 0 0 1.21 1.75c-2.37 0-4.91 0-5-.25a23.59 23.59 0 0 1 -.24-5.46c.42-.29 9 0 9.28.18a10.37 10.37 0 0 1 .23 3.06 9.13 9.13 0 0 0 -1.33-1.39c-.3-.16-.46.39-.46.62a14.86 14.86 0 0 0 1.77 2.05zm16.06-6c-.62 0-8.58-.24-10.41-.09a2.41 2.41 0 0 0 -2.42 2.23s0 3.65.06 5 .86 2.14 1.22 2.14 9.59.15 11.46 0 2-1 2-1.23 0-4.07-.1-5.87-1.25-2.21-1.86-2.21zm.17 6.47a30.55 30.55 0 0 0 -2.27-2.61c-.14-.07-.6.39-.6.48s1.71 2 2.33 2.73c-.35 0-.89 0-1.57 0-.32-.57-1.67-2.56-1.77-2.62s-.55.16-.59.32a17.75 17.75 0 0 0 1.5 2.31h-1.4a24.1 24.1 0 0 0 -1.69-2.28c-.09 0-.62.36-.62.36s.72 1.19 1.17 1.91c-2.73 0-5.48-.12-5.59-.2a26.6 26.6 0 0 1 -.16-4.5.87.87 0 0 1 .62-.89c.51-.14 9.85.06 10.16.09s.31.83.34.92a31 31 0 0 1 .09 3.95zm-12-7.39c.7.22 9.18.22 11.08.28s2.42-.95 2.48-1.75.12-3 .09-5-.27-2.91-1.4-3-10.44-.37-11.7-.27a2.49 2.49 0 0 0 -2 2.08 43.11 43.11 0 0 0 0 4.81c.06 1.69.68 2.61 1.38 2.82zm.43-8.08c.22-.34 11-.09 11.23.31a16.2 16.2 0 0 1 .21 2.74 7.44 7.44 0 0 0 -1.32-1.26c-.16 0-.52.14-.48.35a19.79 19.79 0 0 0 1.81 1.84 9.8 9.8 0 0 1 -.16 1.7c-.69-.79-2.77-3-2.84-3s-.39.32-.35.48 1.59 1.86 2.3 2.65l-1.6.07a23.18 23.18 0 0 0 -2-2.14c-.09 0-.71 0-.71.29a10.31 10.31 0 0 0 1.71 1.86c-3.3 0-7.75-.1-7.92-.32s-.08-5.42.05-5.6zm12.02-12.4c-1-.06-10-.37-11.54-.24s-1.91 1.32-2.05 2.32a47.15 47.15 0 0 0 .27 6c.25 1.6 1.17 1.78 2.79 1.75s10.07.37 11.33-.06 1-4 1-6.28-.82-3.41-1.8-3.49zm-.14 4.8a7.25 7.25 0 0 0 -1.46-1.27c-.23 0-.34.25-.23.53a12.17 12.17 0 0 0 1.66 1.48c0 .51 0 1-.08 1.32a19.62 19.62 0 0 0 -2.36-2.5.49.49 0 0 0 -.37.39 31.75 31.75 0 0 0 2.4 2.76h-1.63a30.12 30.12 0 0 0 -2.33-2.85 1.47 1.47 0 0 0 -.62.48c0 .07 1.38 1.73 1.91 2.37-3.34 0-8.41 0-8.54-.12a32.73 32.73 0 0 1 0-5.94c.27-.3 11.45-.09 11.61.22a21.36 21.36 0 0 1 .04 3.13zm-12.6-5.9c.83.15 10.84.27 12.22.12a2.21 2.21 0 0 0 2.11-1.47 42.15 42.15 0 0 0 .06-5c-.09-2.23-1.37-3.3-2.23-3.43s-10.32-.17-11.33-.04-1.79 1.54-1.84 1.9c-.09.73-.06 4 0 5.57s.19 2.2 1.01 2.35zm.8-8.08c.44-.34 10.81 0 11.18.15s.6 4.77.32 5.72a18.52 18.52 0 0 0 -2.86-2.48c-.2 0-.53.2-.5.41a26.45 26.45 0 0 0 2.58 2.34c-.42 0-1 .05-1.68.07a21.11 21.11 0 0 0 -2.22-2.32c-.21-.16-.76.32-.76.46a21.75 21.75 0 0 0 1.84 1.91c-3.39 0-8-.12-8.18-.38a21.67 21.67 0 0 1 .28-5.88zm-42.7 33.12c-.21.12-.09 1.61-.09 1.61s.62.14.69 0a5.7 5.7 0 0 0 0-.8c0-.09.64-.09.85-.09s.14-.58.09-.67a4.07 4.07 0 0 0 -1.54-.05zm15.06-18.09c.07-.12-.09-2.18 0-2.27a13.39 13.39 0 0 1 1.93-.14s.12-.51 0-.71-1-.16-1.79-.12-1.06.19-1.1.39a18.8 18.8 0 0 0 0 2.8 1.37 1.37 0 0 0 .96.05zm29.53-11.32c.3-.3 0-1.56 0-1.72s1.47-.19 1.63-.28.05-.41 0-.6a5.13 5.13 0 0 0 -2.21 0 10.54 10.54 0 0 0 0 2.57.33.33 0 0 0 .58.03z" fill="#1d1d1b"/></svg>