<svg height="64" viewBox="0 0 64 64" width="64" xmlns="http://www.w3.org/2000/svg"><path d="m32 63.87c-3.83 0-17.73-11.09-17.85-11.2-1.18-1.13-1.37-3.56-.87-5.17a3.87 3.87 0 0 1 1.19-1.86 36.47 36.47 0 0 1 -3.43-2 77.08 77.08 0 0 1 -9.33-7.33 5.59 5.59 0 0 1 -1.71-3.83 3.69 3.69 0 0 1 1.14-2.64c.45-.44 1.63-1.42 3.68-3.12 1.68-1.39 3.65-3 5.17-4.34-9.58-7.38-9.58-7.82-9.58-8.88 0-1.54 1.15-2.25 3.67-3.79l1.72-1.07c.13-.08 12.48-7.64 14.14-7.64h.13c.52 0 1 .06 11.84 6.48 10.16-7.06 10.86-7.22 11.28-7.31a2.12 2.12 0 0 1 .44 0c2.15 0 16.6 9.07 17.31 9.69 2.79 2.45 1.8 4.9 1.24 5.83s-3.5 3.53-6.41 6c3.07 2.6 6.88 5.89 7.52 6.8 1.36 1.91.51 6.64-.45 8s-7.58 5.56-11.32 7.51h-.05a1.93 1.93 0 0 1 .68 1.46c0 5.08-.1 5.5-.2 5.8-.23.69-.35 1-9 6.63s-9.83 5.88-10.26 6a2.76 2.76 0 0 1 -.71.09z" fill="#fff"/><path d="m61.71 29.52c-.75-1.06-9-7.94-9-7.94s7.12-5.82 7.77-6.91.52-2.19-.85-3.39-15.24-9.38-16.03-9.21-11.6 7.67-11.6 7.67-11.51-6.82-12.06-6.85-9.94 5.44-13.11 7.39-4.48 2.64-4.48 3.22 10.65 8.77 10.65 8.77c-2.5 2.36-9.52 8-10.55 9s-.45 2.6.65 3.73a76.47 76.47 0 0 0 9 7.06c3.5 2.29 8.22 4.14 9.21 4.1s10.79-10.95 11.13-11 10.58 8.52 12 9 2 .27 6.23-2 10-6.06 10.65-6.92 1.15-4.65.39-5.72zm-17.9-24.92c.2 0 13.28 7.6 13.28 7.91s-8.28 7.36-8.69 7.29-14.93-8-15-8.18 10.2-7.05 10.41-7.02zm-37.63 8.73c0-.15 13.11-7.91 13.42-7.87s11.51 6.19 11.47 6.64-14 8.83-14.72 8.87-10-7.06-10.17-7.64zm13 29.85a44 44 0 0 1 -9.55-5.61c-4.11-3.18-5-4.76-4.66-5.44s9.8-8.36 10.24-8.43c0 0 12.74 6.71 13.69 7.23a3.19 3.19 0 0 1 1.51 2c-.06.19-10.88 10.25-11.22 10.25zm12-13.24c-.34-.07-11-6.41-11.16-6.61 0 0 14.11-8.49 14.38-8.49s12.29 6.4 11.71 6.64-14.59 8.52-14.94 8.46zm28.56 1.67c-.14.55-1.27 1.37-1.27 1.37a17.14 17.14 0 0 0 -1.88-2c-.21 0-1 .72-.79.85s1.78 1.68 1.57 1.89a10.07 10.07 0 0 1 -1.36.75s-2.4-2.43-2.54-2.43-.92.58-.82.68 2.81 2.33 2.57 2.4-1.27.86-1.44.75a30.7 30.7 0 0 0 -2.6-2.5c-.28 0-.82.45-.76.65s2.58 2.28 2.36 2.49a10.77 10.77 0 0 1 -1.44.75s-2.6-3-2.77-3-1 .68-.76.92a31.77 31.77 0 0 1 2.67 2.94 11.5 11.5 0 0 1 -1.16.62s-2.74-2.94-2.94-3-1.13.65-.9.82a27.88 27.88 0 0 1 3.05 2.88c-.13.1-1.23.68-1.23.68a45.1 45.1 0 0 0 -3.56-3.69c-.27 0-.79.78-.79.78s3.46 3.32 3.29 3.53a1.24 1.24 0 0 1 -.55.31l-11.91-9.16c-.24-.18-.89-.62-.69-.89s15.91-9.08 16.4-9 8.51 6.63 9.51 7.59.86 1.48.73 2.02zm-42.74-22.76c-.23 0-5.23 2.94-5.37 3.11s.44.89.79 1 5.2-3.08 5.3-3.28-.45-.83-.72-.83zm-3.7 19.92c-.41-.14-4.21 3.28-4.21 3.46s.76.86 1 .86 3.87-3.36 4-3.53-.38-.65-.79-.79zm35.7 16.23c-.76 0-4.49 1.92-4.8 1.88s-9.48-8.66-10.3-8.56-13.51 10.55-13.58 10.68-3.56-2.19-4-2.12c-1.72.27-1.58 3.7-.83 4.41s14.51 11.2 16.71 10.62 17.8-10.91 17.91-11.36.1-5.17.1-5.17a2.12 2.12 0 0 0 -1.21-.38zm-6.2 5.58a25.64 25.64 0 0 0 -2.16-2.12c-.17 0-.68.41-.54.58s2 1.78 1.88 2.09-.72.92-.86.79-3.65-3.92-3.99-3.92-.89.41-.79.51 4 3.9 3.87 4.11a3.22 3.22 0 0 1 -1.3.72c-.1-.07-4.52-4.62-4.65-4.62s-.83.44-.55.68 4.59 4.6 4.38 4.67-1.57 1-1.57 1-3.94-4.21-4.11-4.24-.93.75-.72.85 4.38 3.7 4.11 4a4.73 4.73 0 0 1 -1.41 1c-.1-.07-4.55-4.73-4.69-4.76s-.68.68-.65.78 4.49 4.18 4.28 4.42a.75.75 0 0 1 -.44.27s-9.42-4.79-11.23-6.47c-.29-.26 12-10.16 12.29-10.1s9.89 8.39 9.89 8.7-1.06 1.06-1.06 1.06z" fill="#1d1d1b"/></svg>