<svg height="64" viewBox="0 0 64 64" width="64" xmlns="http://www.w3.org/2000/svg"><path d="m14 64a9.17 9.17 0 0 1 -4.6-1.08 8.61 8.61 0 0 1 -4.95-6.57c-.21-1.14-1.06-6.89 2.25-7.82a16.7 16.7 0 0 1 2-.35 13.2 13.2 0 0 0 2.94-.61c.5-.69 1.5-2.48 1.1-12.53-.3-7.63-.66-13.53-.85-16.32-3.46-.14-5.52-.7-6.14-1.67-.21-.34-.54-.86-1.09-6.34-.58-5.89-.29-6.22.25-6.83.91-1 3.27-1.71 6-1.71a20.61 20.61 0 0 1 2.32.14 145.89 145.89 0 0 0 16.77 1.05c1.45 0 2.85 0 4.15-.09 8.49-.39 11-.9 12.16-1.3.64-.22 1.29-.5 1.92-.77a12.74 12.74 0 0 1 2.49-.91 11.82 11.82 0 0 1 2.38-.29 4.77 4.77 0 0 1 5.16 4.47c.33 3.1.68 14.08-.5 17.06a7 7 0 0 1 -6.26 4.39 4.78 4.78 0 0 1 -1.21-.15c-2.62-.68-4.94-3.86-5.47-6.4a21 21 0 0 1 -.33-2.37c-4.18.07-13.87.4-17.46.65a67.93 67.93 0 0 0 .21 8 26.76 26.76 0 0 0 4 .31 7.09 7.09 0 0 0 .86 0h.25c0-.11 0-.21 0-.32-.06-1.42-.17-4.37 1.72-5.87a5.94 5.94 0 0 1 3.75-1.15 8.85 8.85 0 0 1 2.84.46c3 1 2.83 4.94 2.76 6.82 0 1.34-.08 3.77-.1 6.12 0 2.57-.06 5-.12 6.06-.23 4.3-2.44 5.39-4.25 5.55h-.37c-2.47 0-5.12-2.15-5.88-2.81a2.64 2.64 0 0 1 -.64-.86h-1.06c-1.07 0-1.95 0-2.55.11-.11 1.9-.19 5.41-.06 7.16h1.18a86.12 86.12 0 0 1 9 .61c2.95.39 6 .78 7.68.79 0-2.27.17-6.11 2.08-8.58a6.91 6.91 0 0 1 5.52-3 6.31 6.31 0 0 1 2.08.35c2.37.78 4.45 3.32 3.68 6-.1.37-.26.85-.45 1.42a33.59 33.59 0 0 0 -2 9v1.5c-.09 3.4-.14 5.11-2.86 7a7.42 7.42 0 0 1 -4.41 1.4c-.41 0-.81 0-1.24 0l-.94-.05c-.52 0-1.23-.09-2.2-.21a92.62 92.62 0 0 0 -11-.68c-2.44 0-5 .1-7.5.29-3.21.25-5.64.5-7.6.69-2.41.08-4.05.24-5.41.24z" fill="#fff"/><path d="m55.31 39.12c-1.3-.44-3.4-.6-5.46 2.05s-1.56 8-1.72 8.85-4.11.43-9.83-.32-10.58-.49-11.44-.76-.38-9.93-.27-10.42 3.07-.65 5.18-.59 1.73 1 2.16 1.35 3 2.48 4.8 2.32 2.38-1.73 2.49-3.73.1-9.34.21-12.14-.21-4.48-1.46-4.92-3.45-.64-4.75.38-1 3.89-1 4.7-.43 1.78-2 1.94-5.72-.16-6.53-.59-.69-10.91-.45-11.24 20.84-1 21-.86 0 1.78.48 3.89 2.38 4.48 4.05 4.91a4.88 4.88 0 0 0 5.23-3.13c.92-2.32.76-12.58.38-16.14s-4.2-2.67-5.28-2.48-2.6 1.08-4.21 1.62-4.54 1-12.69 1.4a138 138 0 0 1 -21.2-.97c-3.95-.49-6.27.49-6.65.92s.65 10.25 1.07 10.84 6.16.81 6.32.81c0 0 .54 7.29 1 18.14s-.74 12.75-1.6 13.88-4.53 1.17-5.88 1.57-1.14 4.1-.87 5.6a6.74 6.74 0 0 0 4 5.19c3 1.56 4.64.7 16.46-.22s19 .54 21 .59 3.29.49 5.45-1 1.89-2.27 2-6.91 2-9.18 2.49-10.9-1.19-3.2-2.48-3.63zm-1.24 6.37c-.27 1.4-1.07 7.51-1.07 7.51s-.76-.7-1.14-.43-.92.7-.7 1a7.6 7.6 0 0 1 1.13 1.73c.11.43-.05 2.26-.21 2.1s-1.62-2.59-1.89-2.59-1.24.27-1.08.6 2.48 3 1.83 3.18a4.7 4.7 0 0 1 -2-.16 31.67 31.67 0 0 0 -2.22-3.19c-.27-.1-1.08.22-1 .44s2 2.69 1.72 2.69-2.37-.1-2.59-.43a15.19 15.19 0 0 0 -2-2.7c-.32-.05-1.19.11-1.13.44s1.76 2.32 1.39 2.32a8.57 8.57 0 0 1 -2.43-.17c-.22-.21-1.19-3.13-1.79-3.18a1.36 1.36 0 0 0 -1 .43s1.67 2.75 1.19 2.75-1.62-.1-1.62-.1-1.73-3.13-2-3.19-1.25.22-1.19.43a30.43 30.43 0 0 1 1.62 2.86 15.75 15.75 0 0 1 -2.32-.21c-.17-.11-1.68-3.08-2.06-3.13s-1 0-1 .48 1.4 2.86 1.24 2.86-2.05-.27-2.05-.27a21.92 21.92 0 0 0 -1.35-2.86c-.22-.1-1.3.11-1.24.33s1.51 2.48 1.13 2.48-1.78 0-1.78 0a39.44 39.44 0 0 0 -2.43-4.05c-.22 0-1.19.16-1.19.48s1.78 3.13 1.57 3.4-1.84.11-1.84.11-1.83-3.45-2.21-3.61-1.4.64-1.4.64 3 3.3 2.43 3.3h-2.63s-1.19-3.13-2-3.13-1 .59-.86.75 1.78 2.16 1.29 2.38a2.78 2.78 0 0 1 -1.73.1 26.22 26.22 0 0 0 -1.72-2.53c-.27-.11-1.14.16-1.14.32a21.14 21.14 0 0 1 1.14 2.59 10.58 10.58 0 0 1 -3.67-.05c-.6-.33-1.84-5.62-1.3-5.78s4.05.07 6.23-2.43 2.3-6.51 2-14.39-.46-17.33-1-20.46-1.3-3.41-1.73-3.57-4.1-.38-4.26-.7-1.51-4.1-1.01-4.37 4.81.38 13.93.81 17.6.48 22.19-.6 6.79-2.43 7.88-2.21a1.91 1.91 0 0 1 1.4 1.78c0 .49-.22 4.48-.22 4.48a40.7 40.7 0 0 0 -3.4-2.37c-.16 0-.7 1.35-.32 1.67a35.13 35.13 0 0 1 3.45 2.54 5 5 0 0 1 0 2.05c-.16 0-2.91-2.59-3.18-2.48s-.43 1.4-.11 1.62a30 30 0 0 1 3.38 2.86 4.82 4.82 0 0 1 -.16 1.18s-1.93-2.05-2.37-1.84-.81.76-.54 1 2.11 1.72 2 1.89a3.65 3.65 0 0 1 -2.38.32c-.59-.32-.65-6.1-1.94-7.4s-7.51-.81-14.31-.64-8.64-.17-10.69 1.18-1.94 14.09.06 16 5.88 2.06 8.69 2.06a4.14 4.14 0 0 0 4.32-2.92c.38-1.24-.11-4.21.86-4.54a1.51 1.51 0 0 1 1.46.05s.27 13.82-.22 14.2-1.13-3.2-3.61-3.59-8.64-.76-10.15.11-.86 5.18-.86 9.23-.71 7 .59 7.72 4.75.38 11 .92 12.42 1.83 13.77 1.13 1.08-2.92 1.08-3.51.27-5.18 1.51-6.53 2.37-1.62 2.86-1.24-.63 2.64-.9 4.05zm-42.22-37.69c-.43.27-.54 1.51 0 1.73a34.36 34.36 0 0 0 4.91.81c.38-.05.27-1.46 0-1.84s-4.63-.87-4.91-.7z" fill="#1d1d1b"/></svg>