<svg height="64" viewBox="0 0 64 64" width="64" xmlns="http://www.w3.org/2000/svg"><path d="m41.72 64c-8.08 0-9.32-1.45-9.79-2-1.71-2-3.5-15.67-2.44-18.3-.88.06-1.82.09-2.77.09-2.39 0-8.36-.23-12.44-2.36s-4.47-2.85-5.2-5.82c-.06-.25-3.33-17-1.95-20.81-2-2.11-.29-4.83.46-6l.09-.15c3.38-5.32 5.32-7.43 7.14-7.79a6.68 6.68 0 0 1 1.33-.15 3.41 3.41 0 0 1 2.76 1.29 11.34 11.34 0 0 1 5.76-1.82c1.92-.12 3.56-.18 5-.18 4.18 0 6.47.48 7.64 1.61a6.06 6.06 0 0 1 1.51 2.3c3.49.13 10.39.85 13.48 4.34 3.72 4.2 4 5.09 4.82 10.85a108.72 108.72 0 0 1 0 24.64c-1 8.69-3.44 12.4-5.43 15.39l-.46.69a8.64 8.64 0 0 1 -7.64 4.18c-.42 0-1.07 0-1.87 0z" fill="#fff"/><path d="m17.67 13.69c.74-.54 0-7.66 0-9.25s-.74-2-2.47-1.68-4.85 5.29-6 7.08-1.43 2.84-.69 3.61c1.34 1.38 8.42.79 9.16.24zm-2.92-7.42c.45.1.59 4.51.2 4.75s-3.76.4-4 0 3.36-4.85 3.8-4.75zm40.47 13.11c-.8-5.34-.9-5.93-4.36-9.84s-13.65-3.71-13.65-3.71a3.69 3.69 0 0 0 -1.21-2.83c-1.38-1.34-7.32-1.14-11.18-.89s-5.82 2.09-6.06 2.78 0 9.94 0 10.24-9.56-.13-9.76.3c-1.08 2 1.39 17.21 2 19.63s.65 2.77 4.24 4.65c4.28 2.24 11.94 2.48 16.24 1.83s5.1-3.66 5.1-3.66c1.68 3 8.46 1.93 8.46 1.93s.24.3-.15 3.32a28.87 28.87 0 0 1 -1.64 6.48c-.19.29-1.53-.1-2-.3s-.35-1.09 0-1.48.94-.35 1.28-.45a2.59 2.59 0 0 0 .7-2.87c-.45-1.58-1.14-3-2.63-3s-8.41 1.34-9.25 3 .94 14.89 2.13 16.28 8.13 1.33 10.01 1.21 4.16-.24 6.14-3.26 4.6-6.33 5.59-15.24a108.75 108.75 0 0 0 0-24.12zm-2.13 13.41a7.18 7.18 0 0 1 -.2 2.27c-.15-.1-2.52-2.72-2.72-2.72s-.59 1-.54 1.19 3.31 3.07 3.31 3.47-.3 1.44-.35 1.29a17.56 17.56 0 0 0 -2-2.18 1.06 1.06 0 0 0 -.5 1.09 23.52 23.52 0 0 0 2.38 2.92s-1.47 7.76-3.39 11.52-2.32 4-2.32 4a15.9 15.9 0 0 0 -1.54-2.37c-.19 0-.84.54-.79.74s1.83 2.52 1.73 2.82-.64.84-.79.69-1.68-2.87-2-2.92-.79.25-.69.55 1.73 2.57 1.58 2.72-.94 0-.94 0a22.45 22.45 0 0 0 -2.12-2.72c-.35-.15-.79-.25-.84.1s2.17 2.82 1.78 2.91-6.48-.79-6.93-1.18-2-11.18-1.48-11.83 6.48-1.92 6.77-1.48a5.57 5.57 0 0 1 .45 1.68s-2.62 1.24-2.77 1.83.15 2.87.79 3.42 5.49 2.12 6 1.63 1.73-5.39 2.07-9.15 0-5.89-.29-5.94-5 .84-6.58-1.19-2.77-5.54-3.12-5.78-1.48.24-1.48.24-2-4.2-2.48-4.3-1 .35-.74.74 2.48 4.15 2.48 4.15a6.68 6.68 0 0 1 0 2.52c-.29.84-.64 1-.64 1s-2.92-5.74-3.36-5.79-1 .35-.84.55 3.61 6.23 3.51 6.43-1.14.94-1.48.84-3.67-6.55-3.91-6.55-.84.64-.84.64 3.95 5.96 3.73 6.11a15.44 15.44 0 0 1 -2.28.29s-3.17-5.24-3.31-5.29-1 .25-.84.59 3.06 4.9 3.06 4.9h-2.69s-2.32-4.6-2.57-4.75-1 0-.89.2 2.52 4.7 2.27 4.65-1.68-.25-1.68-.25-2.22-4.35-2.37-4.4-.84-.15-.89.1 2.19 4.21 2.08 4.21-4.65-.64-6.39-2.72-1.88-5.28-2.42-8.86-1.48-8-1.14-8.46 9.45.39 9.6-.2.05-10.88.64-11.62 4.6-1.29 8-1.09 4.94.54 5.19 1.23.22 2.48 1.16 2.72 5-.85 10.39 1.53 6.48 5.47 6.72 10.1.35 8.16.35 8.16-1.83-2.32-2.13-2.32-.59 1-.29 1.33 2.47 3 2.57 3.17a4 4 0 0 1 0 1.14s-2.14-2.53-2.53-2.53-.39 1.49-.39 1.49a23.7 23.7 0 0 1 2.87 2.72zm-29.88-25.53a37.82 37.82 0 0 0 -.1 4.7 4 4 0 0 0 1 .25 30.75 30.75 0 0 0 0-4.8c-.01-.2-.75-.34-.9-.15zm21.52 13c-3.73.01-3.32 4.74-3.32 4.74.15.45.2.74 1 .69s4.95-.05 5.25-.29.83-5.23-2.93-5.18zm1.43 3.52a9.32 9.32 0 0 1 -3 .29c-.16-.07-.16-2.31 1.12-2.31s2.23 1.73 1.88 1.98zm-11.16 22.41a17.38 17.38 0 0 0 .45 4.06c.15.4.84.1 1-.1a16.3 16.3 0 0 0 -.5-4.06 1 1 0 0 0 -.95.1z" fill="#1d1d1b"/></svg>