<svg height="64" viewBox="0 0 64 64" width="64" xmlns="http://www.w3.org/2000/svg"><path d="m32.66 32.38v.16c-.21 3-.53 7.48-5.38 11.09a14.11 14.11 0 0 1 -8.48 2.79 14.92 14.92 0 0 1 -5.46-1c-3.53-1.42-6.92-5.42-8.07-9.61-1.07-3.87-.5-10.81 4.13-14.28 3.81-2.81 5.86-3.7 9.14-3.94h.4c2.81 0 7.28 2.1 10 6l.76 1.07a23 23 0 0 1 2.3 3.72l.83-.38a12 12 0 0 1 5.77-8.15 15.63 15.63 0 0 1 7.4-2.12 10.75 10.75 0 0 1 3.28.51c4.64 1.46 7 5.33 8.42 8.11 2 4 2.06 7.4.18 10.36-3.16 4.95-6.67 7.52-10.46 7.63h-1.16c-3.54 0-7.27-.58-10.6-4.77a13.36 13.36 0 0 1 -2.79-7z" fill="#fff"/><path d="m18.69 19.58c-2.71.2-4.43.84-8.1 3.56s-4.35 8.66-3.4 12.13 3.84 7.07 6.87 8.27a12.51 12.51 0 0 0 12-1.52c4.19-3.11 4.39-7 4.59-9.78s-.76-3.79-3.36-7.51-6.68-5.29-8.6-5.15zm8.74 11.58c-.16-.2-1.91-2.79-2.39-2.55s-.48.44-.28.64a25.37 25.37 0 0 1 2.43 3.43c0 .32-.12 1.2-.23 1s-1.88-3.76-2.44-3.88-.92 0-.6.4a27.2 27.2 0 0 1 2.64 4.32c0 .43-.36 1.43-.68 1.31s-1.76-3.51-2.4-3.75-1 .28-.76.56 2.72 4 2.56 4.27-.6.68-.72.48-2-4-2.48-4a.63.63 0 0 0 -.59 1c.32.43 2.55 3.71 2.55 3.91s-1 1.24-1.28.88-1.63-3.76-2.11-3.84-1.12.2-.92.36 2.16 3.6 2 3.84-.44.87-.84.59-2.12-3.87-2.48-3.91-.68 0-.68.24 2.6 4 2.28 4.15-1.2.64-1.56.24-1.87-3.85-2.23-3.85-1 .16-.84.52 2.19 3.38 1.79 3.48-1.15.32-1.39-.16-2.2-4-2.68-4.19-.84-.16-.84.24 2.56 3.87 2.16 3.79a25.65 25.65 0 0 1 -3.42-2.41 12.3 12.3 0 0 1 -3.16-7.15c0-2.87 2.56-7.38 5.71-8.7s5.51-1.72 7.07-1.32a21.2 21.2 0 0 1 5.38 3.9c1 1.2 1.39 2.48 1.11 2.2s-1.11-1.6-1.63-1.24-.44.56-.16.84a15.25 15.25 0 0 1 2.23 2.68c.2.52.04 1.88-.12 1.68zm-13.93-7c-1 0-3.11 2.15-3.67 3.63s-.6 2.87-.24 3a1.43 1.43 0 0 0 .76 0c.36-.12.56-1.19 1-3s2.31-2.52 2.71-2.8.44-.81-.56-.85zm42.36 3.11c-1.48-2.95-3.55-5.95-7.23-7.11s-7 .38-9.06 1.48a10.08 10.08 0 0 0 -4.71 6.59c-.2 1.87-.64 6.43 2.32 10.14s6.06 4.11 10.14 4 7.14-4.07 8.82-6.71 1.2-5.46-.28-8.41zm-1 3.63c-.32-.32-2.08-3.71-2.43-3.71s-1 .16-.64.52 2.63 4.07 2.59 4.55-.24 1.6-.52 1.28-2.15-4.27-2.47-4.27-.64.67-.48.95 2.47 4 2.35 4.24-.52.79-.75.71-2-3.55-2.44-3.51a.64.64 0 0 0 -.52.8 39.13 39.13 0 0 1 2 3.87c-.08.24-.8 1.24-1 1.12s-1.8-4-2.24-4.07-.76.16-.72.4 2 3.91 1.76 4.19-.8.68-1.24.36-1.71-3.87-2.07-4-1 .36-1 .51 2.12 3.84 1.68 3.84-1.4.32-1.84-.16-1.36-3.95-1.88-4-1 .39-.91.67 2 3.56 1.63 3.6-1.51.08-1.63-.2-1.48-3.36-2-3.44-.88.16-.72.32 1.16 2.52.8 2.4a11.74 11.74 0 0 1 -3.91-4.55c-1-2.36.52-7 1.83-8.75a8.63 8.63 0 0 1 3.4-2.71 10.39 10.39 0 0 1 4.83-.76c2.27.12 5.11 2.2 6 3.43s2.71 3.2 2.75 3.88.07 2.79-.25 2.47zm-11.78-7.48a6.45 6.45 0 0 0 -3.79 2.43 5.48 5.48 0 0 0 -1.36 3.79 1 1 0 0 0 1.12.28c.52-.12.6-2.71 1.16-3.47a12 12 0 0 1 3-2c.59-.31.43-.99-.13-1.03z" fill="#1d1d1b"/></svg>