<svg height="64" viewBox="0 0 64 64" width="64" xmlns="http://www.w3.org/2000/svg"><path d="m34.15 61.28c-1.09 0-2.2 0-3.31-.14-10.63-.89-16.76-6.67-21.67-12-5.8-6.32-8-13-6.91-20.9a26.42 26.42 0 0 1 11.59-18.72l1.46-1c4.33-3 8.42-5.76 18-5.81h.27c8.2 0 14.61 2.34 19.58 7.15 7.1 6.87 8.44 16.78 8.68 19.65.3 3.48.77 15.38-5.44 22.61-5 5.82-13.12 9.15-22.27 9.15z" fill="#fff"/><path d="m10.53 30.83c.54 0 6.11-.45 6.94-.69s.53-2.14.53-4.14.75-6.29.6-6.56a14.23 14.23 0 0 0 -4.49-.54c-2.16 1.11-4.88 8.2-5 9.76s.89 2.17 1.42 2.17zm2.47-5.93a16 16 0 0 1 2.12-3.24c.37-.28 1.87.08 1.87.08s-.12 7.31-.43 7.39-4.48.4-4.68.12.46-3.03 1.12-4.35zm29.57-6.62c.3.3 1.38.24 2 .12s2.43.21 3.17-.21.26-1.19-.5-2.19a15.93 15.93 0 0 0 -5-3.69c-2-1-3.17-.68-3.33-.33-.24.54.75 1.44 1.2 2s2.19 4.02 2.48 4.3zm3-1.37a3.72 3.72 0 0 1 -2.24.28 17.32 17.32 0 0 1 -1.55-3.11s3.94 2.59 3.86 2.83zm-25.57 27.42c-.36-.21-3.14 1.24-3.09 1.65s2.13 1.28 2.67 1.61a8.51 8.51 0 0 0 2.6 1c.33-.09.15-.3-.24-1a20 20 0 0 0 -1.94-3.26zm24.72-23.23c-1.14.23-.63 1.89-1 2.39-.06.09.24 5.93.81 6.71s5.69.6 6.29.45.84-.51.87-1.74-.39-6.11-1-7.37-4.83-.68-5.97-.44zm4.59 8c-.2.24-3.19.48-3.39.2a37.54 37.54 0 0 1 -.56-4.75c0-.43 3.31-.4 3.63-.16s.52 4.46.32 4.7zm-41.31-2.1c.09-.86-.66-1.16-1.14-.51s-.61 3.83-.26 6.51a23.77 23.77 0 0 0 2.79 7.22c.57.36.93-.12 1-.48s-1-1.74-2.13-4.94-.26-6.94-.26-7.8zm10 6.59c-.15-.21-2.21 0-3.23.06a24 24 0 0 1 -3.26 0c-.6-.06-2 .08-2.1.48-.18.63.39 2.81 1.32 4.91s2.06 3.44 3 3.56 1.77-1.19 3-1.73 2.31-.27 2.58-.69-1.09-6.39-1.24-6.6zm0 5.65a12.27 12.27 0 0 1 -3.79 1.56 29.78 29.78 0 0 1 -1.56-4.59c0-.45 4.23-1 4.35-.92s1.29 3.62 1.09 3.94zm5.28 4.14c-.3 1.23 3.62 6.92 3.92 7a12.62 12.62 0 0 0 2.82-.12c.27-.15.15-7.76-.33-8.24s-6.22.98-6.32 1.35zm5.72 5.83c-.44 0-.48.2-.8-.08a31.68 31.68 0 0 1 -2.31-3.39c-.08-.19 2.39-1.92 2.71-1.56s.79 5.03.4 5.03zm-9.49-32.28c.9 0 2.22-3.38 2.48-3.83s.36-1.2-.23-1.2-5.76 3.65-5.87 3.87c-.45.68 2.72 1.16 3.62 1.16zm-.06-2.09c.12 0-.16 1-.36.92a1 1 0 0 1 -.52-.24c-.4-.41.76-.68.88-.68zm2.6 18.71c-.32.63.27 4.76.72 5.15s6.41.39 7.4.12.84-4.55.27-5.21-8.15-.5-8.39-.06zm6.95 3.88c-.36 0-3.59.44-3.79.08a4 4 0 0 1 .16-1.95c.11-.29 3.59-.44 3.79 0s.15 1.87-.16 1.87zm-1.71-26.81c-1.37.92-3.62 6-3.62 6.61s.6.81 1.2 1a29 29 0 0 0 5.27.51c.54-.15.54-1.23.54-2.37s.54-5.44.24-5.8a4.69 4.69 0 0 0 -3.63.05zm2.14 5.65c0 .64 0 1.4-.32 1.36s-2.75 0-2.75-.36 1.47-4.11 3.35-4.83c.11-.04-.28 3.2-.28 3.83zm5.08 5.87c-.66.51-.54 7.67-.12 8.24s5.36.54 6.11-.06-.39-7.52-1-8.12-4.21-.66-4.99-.06zm4.06 7c-.32.16-2.15.28-2.35 0a30.81 30.81 0 0 1 0-4.71c.05-.34 1.31.08 1.55.12s1.12 4.45.8 4.62zm6.75 3.86c-.84 1.44-2.16 6.77-1.74 7.19s6.53 2 7.25 1.64 2.18-6.76 1.7-7.51-6.8-1.98-7.21-1.32zm3.91 7.51a40 40 0 0 1 -4.79-1.16 23.32 23.32 0 0 1 1.32-3.87c.2-.3 4.15.4 4.35 1s-.56 4.07-.88 4.07zm-6.7 2.25c-.21.21-1.37 3.15-1.79 4s-1.35 2.28-.18 2.34 2.63-.75 4.34-1.65 3.68-2.24 3.5-2.72-5.35-2.44-5.87-1.93zm-1 4.85c-.36-.2 1.07-2.63 1.19-2.83s1.88.36 1.88.68-2.67 2.39-3.03 2.19zm-11.53-17.2c.72-.57.66-7.61.39-8.48s-5.95-1.46-6.47-1.22c-1.68.77-1.89 9-1.59 9.43s6.97.86 7.67.27zm-4.8-6.67c0-.34 3.39-.32 3.83.08s.32 5.47-.12 5.59-3.79.36-3.95-.16.24-5.25.24-5.51zm34.67 6c-.42-5-2.51-13-8.08-18.39s-12.34-6.67-18.45-6.63c-10 .06-13.34 3.11-18.34 6.46a24.32 24.32 0 0 0 -10.76 17.31c-1.14 8.32 1.76 14.19 6.41 19.28s10.35 10.54 20.35 11.38 18.74-2.33 23.89-8.32 5.4-16.17 4.98-21.14zm-1.62.54c-.42-.3-4.34-6-4.64-6s-.63.84-.45.93 4.88 5.9 5 6.22a4.87 4.87 0 0 1 -.16 1.73c-.06-.24-3.89-5.39-4.25-5.39s-.54.63-.51.9 4.55 5.6 4.58 6a4.92 4.92 0 0 1 -.32 1.29s-3.39-4.23-3.69-4a.85.85 0 0 0 -.2 1.04c.21.42 3.51 4 3.57 4.25s-.24 1.71-.48 1.38a25.33 25.33 0 0 0 -2.43-3.2.6.6 0 0 0 -.36 1c.42.65 2.46 3.23 2.49 3.5a5.13 5.13 0 0 1 -.63 1.79c-.09-.08-1.86-2.57-2.16-2.54s-.78.33-.57.66 2.28 2.63 2.28 2.87-.18 1.74-.54 1.53-2-3-2.19-3-1.07.39-.8.83 2.33 2.91 2.33 3.09-.3 1.26-.6 1-1.88-3-2.24-3-1.05.81-.57 1.14a15.4 15.4 0 0 1 2.12 2.84c0 .18-.74 1.17-.83 1.08s-1.92-3.11-2.25-3.17-1 .36-.84.66 2.46 3.11 2.34 3.38-.42.81-.75.48a33 33 0 0 0 -2.07-2.76c-.3-.09-.84.51-.6.87s2.1 2.61 2 2.82-.66.63-.87.51-1.91-3-2.18-2.91-.81.09-.54.72 2.15 2.64 1.94 2.91-.74 1-1.1.77-2-3.17-2.22-3.2-1.08.45-.78.9 2.07 2.69 2 2.93-.6 1-.9.66-2.19-3.5-2.58-3.47-.89.24-.71.72 2.57 3.08 2.24 3.26-1 .39-1.08.24-2.39-3-2.87-3-1.08.27-.84.47a19.19 19.19 0 0 1 2.28 2.82c-.15.09-1.38.42-1.53.21s-1.68-2.91-2.1-2.91-.86.3-.75.54 1.56 2.31 1.47 2.37-1.17.15-1.41-.12-1-2-1.4-2-1.08.27-.78.6a8.2 8.2 0 0 1 .88 1.68c0 .09-.87.48-1.17.24s-1.14-1.86-1.53-1.8-1 .21-.72.6.78 1.23.66 1.38-8.5.12-12-1.56a32.62 32.62 0 0 1 -9.24-6.68 32 32 0 0 1 -5-7.38 20.49 20.49 0 0 1 -1.61-9.22 19.77 19.77 0 0 1 2.61-10.22 36.78 36.78 0 0 1 9.61-10 30.78 30.78 0 0 1 9.85-3.84 32.63 32.63 0 0 1 7.07-.63 24.11 24.11 0 0 1 14.73 4.38c3.65 2.69 2.7 3.47 2.76 3.65s2.69 3.29 3 3.71.78 1.92.6 1.68-2.46-3.3-3-3.06-.83.3-.35.66a50.33 50.33 0 0 1 5.09 6.29c.29.84.53 3.11.35 2.82s-4.07-6.17-4.55-6-.71.06-.54.72 5.63 6.52 5.63 7 .42 2.59 0 2.29zm-18 4.37c-.3-.9-5.27-1.33-5.63-1-.54.51-1 5-.51 5.33a15 15 0 0 0 5.06.39c.64-.28 1.39-3.87 1.09-4.77zm-2.49 3.11a4.55 4.55 0 0 1 -2.43 0 7.77 7.77 0 0 1 .08-2.35c0-.33 2.19.12 2.47.48a2.39 2.39 0 0 1 -.11 1.82zm-.51-18.59c.57 0 1.5.21 1.59-.36a11.38 11.38 0 0 0 -1.7-5.15c-1.26-2-2.46-3.38-2.85-3.11s-.51.71-.45 1.37.06 6.14.36 6.65 2.5.52 3.06.55zm-1.8-4.84a12.92 12.92 0 0 1 1.08 3.43c-.2.08-.8.12-.92-.08a17.92 17.92 0 0 1 -.15-3.4zm-1.06 27.72c-.24.45-.33 8.15-.3 8.57s1.17.54 1.74.39.6-.54 1.2-2.07 2.45-5.9 2-6.47-4.44-.79-4.64-.42zm1 7.4a56.4 56.4 0 0 1 .2-5.83 2.66 2.66 0 0 1 2 .36 44.45 44.45 0 0 1 -2.17 5.47z" fill="#1d1d1b"/></svg>