<svg height="64" viewBox="0 0 64 64" width="64" xmlns="http://www.w3.org/2000/svg"><path d="m12.25 64a7.78 7.78 0 0 1 -6.48-3.71c-2.45-3.62-2.77-6.61-2.68-11.54.05-2.13.12-9.57.19-17.44.11-13.49.2-22.41.3-23.5.42-4.92 2.89-7.76 6.67-7.81h.37c3.38 0 4.48.68 9.1 3.56l3.25 2c3.55 2.16 10.44 6 17.1 9.7 9.66 5.38 15.63 8.74 17.17 9.9a8.93 8.93 0 0 1 3.43 9.56c-.67 3.13-3.67 4.86-9.67 8.28-.8.45-1.65.95-2.57 1.49-7.25 4.23-28.79 16.66-32 18.35a9 9 0 0 1 -4.18 1.16z" fill="#fff"/><path d="m10.67 18.17c.27-.31-.31-5.78-.31-5.78s-.61-.48-.71-.09-.05 5.78 0 6 .75.18 1.02-.13zm7 34.16c-.16-.06-.69.54-.69.54a12.67 12.67 0 0 0 1.51 1.51c.09 0 .4-.25.49-.47s-1.17-1.51-1.33-1.58zm1.45-2.17c-.16-.07-.69.53-.69.53a27.51 27.51 0 0 0 2.22 2.31c.09 0 .4-.24.49-.46a11.34 11.34 0 0 0 -2.04-2.38zm-10.18-2.27c-.16-.07-.69.53-.69.53 0 .16 2.55 2.91 2.64 3s.4-.25.49-.47a17.55 17.55 0 0 0 -2.44-3.06zm2.29-1.69c-.16-.07-.69.53-.69.53 0 .16 3 3.51 3 3.56s.4-.25.49-.47a25.13 25.13 0 0 0 -2.8-3.62zm2.31-.91c-.16-.07-.69.53-.69.53a34.23 34.23 0 0 0 2.4 2.67c.09 0 .4-.25.49-.47a14.32 14.32 0 0 0 -2.2-2.73zm2.33-1.43c-.15-.06-.69.54-.69.54a17.42 17.42 0 0 0 1.82 1.84c.09 0 .4-.24.49-.46s-1.49-1.85-1.62-1.92zm2.13-1.13c-.15-.07-.69.53-.69.53a14.34 14.34 0 0 0 1.63 1.67c.09 0 .4-.24.49-.46s-1.29-1.67-1.43-1.74zm11.78-1.2c-.15-.07-.68.53-.68.53 0 .16 3.53 3.78 3.62 3.83s.38-.18.47-.4a32.59 32.59 0 0 0 -3.43-3.96zm8.52-2.36a9.66 9.66 0 0 0 .87-.75c0-.16-.4-.47-.47-.47s-.37.27-.9.68l-1-1.1a11.86 11.86 0 0 0 1-1c0-.15-.4-.46-.47-.46s-.46.36-1.09.88c-.52-.54-.89-.91-.93-.93s-.69.54-.69.54a12.92 12.92 0 0 0 .9 1l-1.52 1.24c-.37-.39-.64-.65-.67-.67s-.69.53-.69.53a6.27 6.27 0 0 0 .64.73l-.91.76c-.43-.46-.74-.78-.78-.8s-.69.54-.69.54.32.38.75.86l-.59.49a2.21 2.21 0 0 0 .49.62 7.82 7.82 0 0 0 .66-.52l.85.9-1 .78a2.26 2.26 0 0 0 .51.62s.44-.31 1.07-.8c.75.78 1.36 1.41 1.4 1.42s.38-.17.46-.4a7.51 7.51 0 0 0 -1.19-1.54l1-.81 1.11 1.12-.79.63a1.69 1.69 0 0 0 .42.54s.38-.27.89-.66l.09.08c.09 0 .38-.18.47-.4a.42.42 0 0 0 0-.09l1.71-1.35c.36.37.61.61.63.62s.38-.18.47-.4a3 3 0 0 0 -.52-.7 7.48 7.48 0 0 0 1-.84c0-.15-.4-.46-.47-.46s-.42.31-1 .75c-.32-.35-.65-.76-1.04-1.18zm-4.47 2.52-.83-.94.93-.77c.28.3.59.62.91.94zm.78-2.31 1.46-1.24 1 1-1.55 1.19zm2.5 2.77c-.27-.33-.63-.74-1-1.18l1.54-1.24 1.12 1.12c-.59.42-1.17.89-1.68 1.3zm-15.88 7.05c-.16-.07-.69.53-.69.53a39.77 39.77 0 0 0 3 2.67c.09 0 .38-.18.47-.4a19 19 0 0 0 -2.78-2.8zm9.71-3.93c.09-.16-.49-.58-.58-.58l-.29.21-.76-.75.21-.17c.11-.14-.44-.56-.56-.56l-.24.18c-.34-.32-.58-.54-.62-.56s-.69.54-.69.54a4.56 4.56 0 0 0 .58.6c-.42.33-.93.76-1.5 1.22a8.69 8.69 0 0 0 -.77-.69c-.16-.07-.69.53-.69.53a6.88 6.88 0 0 0 .74.75l-1.38 1.15a9.54 9.54 0 0 0 -.85-.76c-.15-.07-.69.53-.69.53a6.77 6.77 0 0 0 .82.82c-1 .83-1.72 1.45-1.73 1.47-.09.2.24.4.33.44s.85-.6 1.92-1.43l.86.77-.26.24a.87.87 0 0 0 .35.56 1.94 1.94 0 0 0 .47-.3l.73.63c.09 0 .38-.18.47-.4 0-.06-.21-.34-.55-.71l1.53-1.18c.41.36.7.61.73.62s.38-.17.47-.4c0-.06-.21-.34-.56-.72l1.57-1.32c.47.42.83.73.86.75s.38-.18.47-.4a3.17 3.17 0 0 0 -.7-.87zm-5.23 3.16c-.25-.26-.53-.53-.8-.79.47-.36 1-.74 1.43-1.12l.81.73zm2.12-1.73-.76-.7 1.52-1.22.79.72zm-10.56-36.93a9.13 9.13 0 0 0 1.2-1.32c.05-.11-.2-.31-.31-.31a10.2 10.2 0 0 0 -1.4 1.11c-.07.16.45.49.51.52zm2.11 1.91a19.82 19.82 0 0 0 1.76-1.87c0-.11-.2-.31-.31-.31a19.62 19.62 0 0 0 -2 1.67c-.02.15.49.49.55.51zm1.83 1.15a17.51 17.51 0 0 0 1.69-1.66c0-.11-.4-.51-.52-.51a17.56 17.56 0 0 0 -1.68 1.66c-.07.16.44.49.51.51zm.84 2.38c.07 0 2.49-2.62 2.54-2.73s-.47-.42-.58-.42-2.44 2.57-2.47 2.64.46.49.51.51zm2.11 1.54c.07 0 2.85-3.07 2.89-3.18s-.46-.42-.58-.42-2.79 3-2.82 3.08.45.49.51.52zm1.76 1.31c.07 0 2.6-2.85 2.64-3s-.46-.42-.57-.42-2.51 2.79-2.54 2.87.4.49.47.55zm1.87 1.53c.06 0 3.35-3 3.4-3.11s-.6-.6-.71-.6-3.15 3.17-3.18 3.24.42.45.49.47zm2.11 1.76c.06 0 3.13-3.27 3.18-3.38s-.6-.6-.71-.6-2.93 3.44-3 3.51.46.45.53.47zm2.22 1.8c.07 0 3.74-3.63 3.78-3.74s-.6-.6-.71-.6-3.53 3.8-3.56 3.87.42.45.49.47zm1.11 2.24c.07 0 4.74-4.51 4.78-4.62s-.6-.6-.71-.6-4.53 4.68-4.56 4.76.43.44.49.46zm2.29 1.61c.07 0 4.74-4.51 4.78-4.62s-.6-.6-.71-.6-4.53 4.63-4.59 4.7.46.45.52.52zm1.14 1.84c.06 0 6.13-4.91 6.18-5s-.61-.6-.72-.6-5.86 5.06-5.89 5.13.36.4.43.42zm19.4-2.09c-2.84-2.22-26.32-14.75-34.06-19.52s-8-5.33-11.73-5.29-4.55 3.87-4.76 6.06c-.17 1.9-.35 35.78-.51 40.8s.32 7.38 2.36 10.4 5.07 3.6 8.18 2 24.54-14 31.92-18.32 10.72-5.91 11.29-8.53a7 7 0 0 0 -2.69-7.65zm-45.66-22.75c0-.08 2.58-.75 7.32 2.43s24.54 15 26.16 15.94 2 1.08 1.91 1.15-8.67 7.27-8.79 7.23-23.24-23.27-24.57-24.56-2.16-2-2.03-2.19zm-3.06 49c-.45-2-.09-16-.23-22.61s.18-15.78.14-18.76.35-7.29 1.38-6.93c.18.06 27.37 27.07 27.25 27.3s-26.45 24-26.88 24.18-1.22-1.29-1.66-3.25zm13.53 1.43a41.71 41.71 0 0 1 -8.8 3.29c-.33 0-1.09-1.11-.91-1.25 0 0 19.69-17.47 21.43-19.23s4.42-4.11 4.67-3.89 6.71 6.61 6.6 6.85-18.61 11.96-22.99 14.16zm34.35-21.35c-.85 1.05-9.38 6.18-9.47 6.14s-7-6.54-7.21-7.09c0 0 8.92-7.72 9.05-7.72s5.47 2.21 7.16 3.94a3.48 3.48 0 0 1 .47 4.73zm-13.22-1.24c-.16-.05-.6.42-.6.42.07.29 3.93 4.63 4 4.67s.53-.24.57-.42a50.57 50.57 0 0 0 -3.97-4.67zm2.29-2c-.16-.05-.6.42-.6.42.07.29 4.36 5.78 4.47 5.82s.53-.24.58-.42-4.3-5.78-4.46-5.82zm2-1.14c-.16 0-.6.43-.6.43.06.29 4.64 5.42 4.75 5.47s.54-.25.58-.43-4.63-5.42-4.78-5.47zm2.49-.95c-.16-.05-.6.42-.6.42.06.29 4.15 5.29 4.26 5.34s.54-.25.58-.43a65.16 65.16 0 0 0 -4.29-5.33zm3.44.13c-.15 0-.6.42-.6.42a15.2 15.2 0 0 0 1.87 2.27c.11.05.53-.24.58-.42a12.1 12.1 0 0 0 -1.9-2.27z" fill="#1d1d1b"/></svg>