<svg height="64" viewBox="0 0 64 64" width="64" xmlns="http://www.w3.org/2000/svg"><path d="m32.91 64c-6.24 0-12.13 0-14.64 0-8.06-.12-12.27-.71-14.27-2-2.38-1.68-3.62-5.55-3.68-11.54 0-5.18 1.21-31.64 1.56-35.9.26-3.26.8-10 8.42-11 2-.24 7.18-.37 15.31-.37 7.51 0 15.52.11 18.33.15a9.54 9.54 0 0 1 7.78-3.34 16.15 16.15 0 0 1 2.87.27 9.61 9.61 0 0 1 6.83 4.73 13.37 13.37 0 0 1 1.1 10.21c-1.13 3.23-4.73 6.49-10.22 6.49a14.16 14.16 0 0 1 -2.23-.18c-4.94-.77-7.92-4.68-9.12-6.62-1.84 0-5.75-.07-10.11-.07-3.53 0-6.65 0-9.27.09-4.95.1-7.7.4-8.18.88a2.65 2.65 0 0 0 -.11.52c-.28 1.84-.57 25.49-.28 30 .19 3.52 1 5.18 1.37 5.69 1.68.28 8.37.28 12 .29h5.11 2.18a9.7 9.7 0 0 1 -3.53-4 70.43 70.43 0 0 1 -7.75-.58c-4.11-.63-5.74-2.17-6.23-5.88a74.75 74.75 0 0 1 .22-12.74c.48-2.3 3.09-5 8.87-5 2 0 7-.06 12.36-.14 6.08-.08 12.38-.16 15.28-.16h1.49c5.69.26 8.77 2.83 9.16 7.64.34 4.31.11 25.38-1.26 28.13-1.54 3.08-5.58 3.8-9.72 4.12-2.65.31-12.14.31-19.64.31z" fill="#fff"/><path d="m61.61 31.66c-.44-5.42-5.14-5.76-7.31-5.86s-24.21.29-29 .29-6.68 2-7 3.44a74.93 74.93 0 0 0 -.19 12.1c.34 2.61 1.11 3.68 4.6 4.21a78.29 78.29 0 0 0 8.76.58 7.89 7.89 0 0 0 4.06 4.7c3.1 1.31 9.1.39 11-1.21s3.2-5 2.47-9.1-3.9-6.81-9.32-6.44a9.11 9.11 0 0 0 -7.41 5.13c-.14.1-6.24-.29-6.58-.39s-.29-5.22.09-5.76 26.82-.72 27.22-.63-.24 18.64-.34 19.41-.68 1.51-2.13 1.7-14.62.53-19.12.43-17.14.15-18.11-.53-2.04-2.95-2.3-7.31.05-28.17.34-30.4 1.21-2.9 10.17-3.09 20.57 0 20.57 0 2.71 5.76 8.28 6.63 9.29-2.13 10.31-5 .77-11-6.44-12.34-9.23 3.11-9.23 3.11-28.89-.49-34.41.19-6.39 5-6.73 9.2-1.65 30.54-1.6 35.72 1 8.67 2.86 9.92 7.35 1.64 13.16 1.64 29.77.15 34.13-.19 7.16-1.12 8.13-3 1.46-21.73 1.07-27.15zm-3.49 13.17c0 4.37 0 7.52-.09 9.65-.28-.41-.63-.87-.78-.89s-.63.34-.7.43a13.47 13.47 0 0 0 1.45 1.92 7.11 7.11 0 0 1 -.3 1.72 11.87 11.87 0 0 0 -1.7-2.33c-.19 0-.7.51-.63.65s1.12 1.76 1.54 2.41a4.66 4.66 0 0 1 -.76.27 11.05 11.05 0 0 0 -1.72-2.19c-.22-.12-.68.34-.66.55a15.56 15.56 0 0 0 1.23 1.87c-.4.06-.85.12-1.38.16a12.26 12.26 0 0 0 -1-1.61c-.19-.22-.94.31-1 .38a9.17 9.17 0 0 0 .79 1.33c-1.16.07-2.57.12-4.28.15-6.34.1-29.53-.29-35.09-.44s-7.12-1.55-7.84-3.63-.63-5.71-.78-8.95 1.36-33.16 1.89-35 2.69-3.92 6.16-4.21c2.86-.24 33.31 0 33.6-.24s4.64-5 9.58-2.42 4.31 8.23.49 10.94-9-.1-10.27-2.38-.87-2.51-1.59-2.75-28.47-.83-31.13-.73-5.71 2.37-5.81 7.84-.63 32.72-.14 34.61a5.17 5.17 0 0 0 3.72 3.68c1.5.24 22.95.58 30.55.34s10.53-.68 11.53-1.21 1.4-1.94 1.6-3.29.24-17.24 0-18.83-.54-2.42-2.47-2.52-26.14-.34-27.5.1-1.16 4.5-1.06 6.63-.2 3.77 1.26 3.87 9 .34 9.24.15 1.21-5.23 7.94-4.41 4.89 8.86 3.39 10.26-5.62 2.91-8.62.83-3.14-3.78-3.63-3.83-10.16-.29-11-.38-1.64-1.12-1.93-3.49-.2-9.25.39-10.12a3.44 3.44 0 0 1 2.9-1.79c1.6-.1 31.32-.92 33.35 0s1.31 8.13 1.26 16.9zm-20.38.09c2.37 1.41 5.66-.05 6-2.61a3.87 3.87 0 0 0 -4-4.31c-4.52.24-4.37 5.52-2 6.92zm2.37-4c1.66-.34 1.79 1.46 1.36 2.23a1.73 1.73 0 0 1 -2.76-.19c-.48-1.09.48-1.86 1.4-2.06zm9-28.55c1.21 1.74 6.48 1.79 6.92-2.18s-3.31-3.82-4.94-3.34c-3.18.9-3.23 3.75-2.02 5.5zm3.73-3.1c1-.29 1.64.29 1.45 1.11s-2 1.94-2.71 1.36-.09-2.11 1.22-2.49zm-5.27-1.43c.34.15.82-.43 1.4-1a4 4 0 0 1 1.26-.72.7.7 0 0 0 .19-.58c0-.24-.19-.39-1.16-.1a5.31 5.31 0 0 0 -1.93 1.36.75.75 0 0 0 .24 1.04zm-40.74 45.82c-.12-.19-.93.24-.92.36a4.43 4.43 0 0 0 1.77 2.83c.22 0 .82-.12.8-.26s-.22-.34-.82-1.14a6.37 6.37 0 0 1 -.83-1.79z" fill="#1d1d1b"/></svg>