<svg height="64" viewBox="0 0 64 64" width="64" xmlns="http://www.w3.org/2000/svg"><path d="m33.51 64c-8 0-16-.12-19.2-.29-8.72-.46-11.16-8.93-11.97-11.71a31.87 31.87 0 0 1 -1.23-10.6c0-.56 0-1.15 0-1.77 0-4.35.68-27.39.71-28.37 0-.08 0-.23 0-.4-.09-2.44-.36-9.86 11.18-10.54 3.7-.21 8.56-.32 14.43-.32 7.74 0 16 .19 21.14.37 8.35.3 11.84 3.42 12.88 11.52.82 6.46 2.14 33.83 1 39.36l-.17.82c-.95 4.77-2.14 10.7-9.44 11.47-3.94.46-14.84.46-19.33.46z" fill="#fff"/><path d="m59.52 12.13c-.87-6.82-3.27-9.54-11-9.82s-25-.65-35.4-.05-9.35 7.09-9.35 9.05c0 0-.71 23.95-.71 28.32s-.27 6.92 1.15 11.83 4 10 10.2 10.31 32 .5 38.24-.16 6.87-5.67 7.91-10.75-.16-31.86-1.04-38.73zm-1.42 17.13a10.17 10.17 0 0 1 .06 1.74s-2.84-2.84-3.22-2.46a1.46 1.46 0 0 0 -.22 1.15s3.38 2.23 3.38 2.51-.1 1.52-.1 1.52a31.18 31.18 0 0 0 -2.84-2.18 1.49 1.49 0 0 0 -.33 1c.06.22 3.33 2.13 3.33 2.46v3s-2.78-2.78-3-2.84-.33 1.15-.33 1.15a38.62 38.62 0 0 1 3.17 3 17.72 17.72 0 0 1 .1 2.13s-2.83-2.73-3-2.73-.32 1.29-.32 1.29a36.8 36.8 0 0 1 3.11 2.89 13.34 13.34 0 0 1 .11 2.41 33.85 33.85 0 0 0 -3.06-2.3 2.61 2.61 0 0 0 .06 1.59 33.23 33.23 0 0 1 3.1 2.41c.06.27-.1 2.4-.1 2.4a32.25 32.25 0 0 0 -2.84-2.34c-.22 0-.33 1-.33 1s3.17 2.69 3.17 2.86a15.35 15.35 0 0 1 -.6 1.53s-2.9-2.9-3.11-3-.71.49-.71.65 3 3 2.83 3.22-.32.88-.54.88-2.84-2.51-3-2.51-.77.92-.77.92a23.1 23.1 0 0 1 2.57 2.57c-.17.11-1.37.65-1.37.65a28.45 28.45 0 0 0 -2.61-2.12c-.22 0-.71.7-.71.7l2 2a8.87 8.87 0 0 1 -1.59.38c-.22-.05-2.12-1.64-2.51-1.8s-1.41.33-1.41.33 2 1.63 1.69 1.8-12 .54-19 .43-16.58-.32-19-1.52-5.08-4.24-5.35-10.46.38-30.87.38-30.87c-.05-1.91-.11-7 1.69-8.68s5.46-2.45 12.22-2.51 24.11.28 29.24.44 8 1.91 8.56 4.75a130.11 130.11 0 0 1 1.1 14.67c-.17-.05-2.73-2.07-3-2.07s-.55 1.14-.33 1.25a24 24 0 0 1 3.33 2.62 14.71 14.71 0 0 1 .16 2.45s-2.83-2.89-3.05-2.78-.22 1.48-.22 1.48a35.73 35.73 0 0 1 3.21 2.94zm-4.85-9.71c0-4-.38-7.64-2.84-9.55s-20.07-1.3-25.53-1.2-10.75.2-12.38 1.59a4.07 4.07 0 0 0 -1.5 3.21c-.16 2.13-1.14 29.41-.71 33.66s2.13 5 5.84 5.08 26.89.6 30.71.38 4.8-1.64 5.79-4.31.57-24.82.62-28.86zm-2.18 28.2c-.66 1.64-1.48 3-4.69 3.22s-22.37 0-27-.16-5.83-1.09-5.83-1.09.16-21 .32-26.46-.21-9.82.55-10.26 6.38-.92 17.07-1 17 .22 18 .6 2.18 1.91 2.18 8.84.05 24.68-.6 26.31zm-5.73-34.47c-5 .76-3.76 5.62-2 6.76s6 1.31 6.44-2.13-1.68-5.05-4.44-4.63zm2.78 3.33c-.27 1.85-2 2.07-3 1.9s-3.44-3.16.54-4.2a2.05 2.05 0 0 1 2.46 2.3zm-19.2.21c-17.78 3.11-13.75 20.79-10.26 25.53s13.75 4.53 19.34 2.13 9.44-7.8 6.87-17.78-11.78-10.61-15.95-9.88zm11.35 24.18c-5.27 3.75-12.93 4.08-16.59 2.28s-7.25-5.84-6.43-12.49 5.12-11.73 11.75-12.44c3.74-.4 10.8 0 13.2 5.95s3.3 12.93-1.93 16.7zm-11.35-19c-8.46 2.12-8.67 7.25-8 12.71s10.2 6.65 15.22 4.47 6.7-5.67 5.34-10.86-7.62-7.56-12.56-6.32zm4 16.47c-4.92.53-8.42-.47-9.62-3.26s.44-7.8 6.55-9.33c3.75-.94 8.89.49 10.14 4.36s-2.18 7.69-7.09 8.24z" fill="#1d1d1b"/></svg>