<svg height="64" viewBox="0 0 64 64" width="64" xmlns="http://www.w3.org/2000/svg"><path d="m33.53 63a38 38 0 0 1 -11.35-1.86c-7.81-2.41-12.9-7.14-19.45-18.23-2.94-5-3.52-11.4-1.67-18.6a42.36 42.36 0 0 1 5.94-13.16c3.43-4.69 11.28-9.61 21.08-10 2.01-.15 3.43-.15 4.72-.15 7 0 12.14 1.09 19.47 6.85 8.8 6.91 10.73 17.54 11.52 22.07.91 5.08-.79 18.9-11.79 26.91a30.79 30.79 0 0 1 -18.47 6.17z" fill="#fff"/><path d="m61.88 30.27c-.78-4.36-2.6-14.46-10.81-20.9s-13.41-6.73-22.91-6.32c-9 .4-16.41 4.89-19.6 9.25s-10.41 19.07-4.16 29.62 11 15.08 18.36 17.38 17.57 3.58 28.05-4 11.85-20.67 11.07-25.03zm-2.15 1c-.45 6.9-5.14 18-14.32 22.72a28.84 28.84 0 0 1 -24.22 1.37 28.85 28.85 0 0 1 -15.49-13.51c-3.52-6.44-3.32-18 1-24.73s9.03-12.31 21.2-13.12c5.22-.3 13.21-.68 21.1 5.37s11.19 14.97 10.73 21.87zm-16.66-22.27a27.09 27.09 0 0 0 -19.45 0c-6.12 2.26-12.23 6.68-14.53 16.19s.26 14.71 5.55 20.7 12.76 8.16 20.79 7.38 12.41-4.65 16.84-12.27a22.92 22.92 0 0 0 2.3-17.28c-.57-2.83-4.04-12.03-11.5-14.72zm10.59 17c.56 2.82.26 13.5-4.82 18.84s-11.54 8.39-18.79 7.52-12.72-5.47-16.05-9.36-4.39-10.61-2.66-16.64 9-11.33 11.94-12.85c4.57-2.39 8.76-3.68 17.88-2.95s11.93 12.63 12.5 15.44zm-45-7.81c-.3 0-1.95 3.21-3.12 6.47s-.88 3.49-.61 3.6c.74.3.87-.78 1.13-1.82s1.34-3.43 2-5.69.94-2.55.59-2.55zm48.77 15.59c.61-.13.83-1.43 1.09-4.08a14.28 14.28 0 0 0 -.87-6.25c-.3-.3-1.11 0-1.26.26s.39 1.52.44 4.69a27.72 27.72 0 0 1 -.48 5c.04.43.48.51 1.08.38zm-24.21-17c-3.78 1.3-10.51 3.47-10.94 3.9s-1 13.72-1 13.72a4.81 4.81 0 0 0 -4.47 6.16 5.63 5.63 0 0 0 6.6 4c3.21-.65 4.21-3 4.81-4.91s.4-10.89.48-11.54 7.55-3.12 7.86-3.12.26 6.9.26 6.9a4.54 4.54 0 0 0 -5.82 3.11c-.39 2.08-.43 7.9 4.47 7.77s6.69-2.83 7.55-4.6.87-14.93.92-17.71-.35-4.52-1.52-5-5.42-.04-9.2 1.27zm8.2.34c.08 1.17 0 19.4-.31 19.27s-1-1.34-1.17-1.26-.82.48-.52.74a5.06 5.06 0 0 1 1.09 1.69c0 .22-.35 1.05-.57.92s-1.65-2.17-1.86-2-.78.18-.35.65 1.43 1.7 1.13 2-.7.56-.78.39a23.22 23.22 0 0 0 -1.87-2.78c-.17 0-.69.48-.52.78s1.26 1.78 1 1.83-.52.08-.61-.09a14 14 0 0 0 -1.74-2.26c-.26-.09-.73.39-.56.56s.91 1.56.69 1.56a2.27 2.27 0 0 1 -1.86-1.43c-.65-1.3-.31-3.9 1.17-4.56a5.7 5.7 0 0 1 3.73-.08c.61.17.65-.61.65-1s-.16-9.68-.16-10.05a10.41 10.41 0 0 0 -2-3.08c-.39-.13-1.13-.09-.69.39s2.21 2.77 1.78 2.77-1.57-.08-1.57-.08-1.35-2.43-1.7-2.3-.82.52-.47.82 1.47 1.35 1.12 1.43-1.12.65-1.25.44-1.18-1.74-1.7-1.74-.87.31-.65.52 1.48 1.65 1.17 1.7-1.08.26-1.08.26-1-1.65-1.22-1.65-1 .34-.73.65a16 16 0 0 1 .91 1.43s-4 .95-4 1.69 0 11.72-.13 12.59-1.79 3.32-4.12 3.16-3.64-.78-3.82-2.21a3.4 3.4 0 0 1 3.65-3.39c.87 0 1.13-.39 1.13-1.13s.52-12.41.91-12.76 10-4 13.15-4.51 4.64-1.1 4.73.07z" fill="#232021"/></svg>