<svg height="64" viewBox="0 0 64 64" width="64" xmlns="http://www.w3.org/2000/svg"><path d="m33.14 60.6c-.4 0-.81 0-1.21-.05-3.36-.3-3.27-4.06-3.22-5.87 0-.29 0-.57 0-.85 0-2.68-.3-3.23-1.16-3.42-.5-.1-1.38-.23-2.4-.38-4.36-.64-11.65-1.72-16.46-4.79-6.33-4.05-8.77-9.38-8.7-19s8.38-18.57 19.31-20.93a68.49 68.49 0 0 1 14.64-1.91 39.27 39.27 0 0 1 20.39 5.6c6.2 3.64 9.54 9 9.67 15.44.11 5.91-2.48 11.44-4 14.2-4.28 7.6-15.38 22-26.82 22z" fill="#fff"/><path d="m53.35 10.68c-12.85-7.54-24.2-5.5-33.64-3.47s-17.71 9.79-17.77 19.02 2.17 13.77 7.8 17.37 15.55 4.33 18.26 4.92 2.69 3.28 2.69 5.31-.37 4.63 1.45 4.79c11 1 22.36-14.16 26.16-20.92s7.9-19.47-4.95-27.02zm1.38 27.68s-.92-2.3-1.51-2.23-1.31.19-.79.85 1.51 1.84 1.38 2.1-1.05 1.24-1.24 1a21.84 21.84 0 0 0 -1.71-2.56c-.2 0-1.25.59-.85.92s1.9 2 1.77 2.36-1.12 1.18-1.38 1-1.7-3.34-2.16-3.28-.92.92-.92.92l2.1 3.15s-1.12 1.67-1.42 1.34-2-3.74-2.22-3.74a1.94 1.94 0 0 0 -1 .86c0 .19 2.42 3.41 2.29 3.6s-1.05 1.12-1.24 1-2.23-4-2.43-4-1.18.65-.79 1a19.41 19.41 0 0 1 2.3 3.94c-.13.2-1 1.18-1.38.85s-1.84-3.61-2.1-3.61-1.05.46-.72.86a37.14 37.14 0 0 1 1.64 3.54s-1.13 1.34-1.35 1.21-1.84-3.87-2.1-3.87-1 .39-.85.72 2.23 3.54 2.1 3.74-1.25 1-1.51 1-1.42-3.43-1.64-3.49-1 .46-.79.78 1.71 3.35 1.51 3.48-.92.85-1 .59-1.18-2.62-1.51-2.62-.78.13-.52.65 1.51 2.69 1.24 2.89-2.93 1.77-3.3 1.18.13-7.49-1.18-8.49c-1.59-1.27-13.9-2.49-18.56-5s-8.35-6-9.51-11.8 3.94-15.43 9.62-18.12a50.73 50.73 0 0 1 32.55-2.69c13.77 3.67 14.36 14.43 14.69 16.33s.46 7.41-5.51 13.64zm-29.73-28.36a40.49 40.49 0 0 0 -5.9 1.45 32.39 32.39 0 0 0 -6.29 3.08c-.45.34.13 1.24.78 1.11s3.41-1.83 5.55-2.75a44.39 44.39 0 0 1 5.86-1.68.65.65 0 0 0 0-1.21zm-11.52 18.78c-.85-.19.13-8.06 0-9.37s-3.78-1.17-4.26-.41-.46 13.51 0 14.82 6.49 1.05 7.93.85.86-3.93.86-4.91-3.68-.76-4.53-.98zm3.22 4.59c-.53.07-4.86.4-5 0s-.32-11.37-.12-12.06c.11-.39.72.06.72.65s-.18 7.87.37 8c0 0 4.09.27 4.16.66s.39 2.69-.13 2.75zm4.65-14.37c-1.7.32-1.64 14.29-.85 15.14s3.28.86 3.93.07.2-11.61.07-13.9-2.43-1.5-3.15-1.31zm2 14.29c-.52.33-.85.46-.91 0s-.13-12.2.32-13c.17-.29.73 0 .66.85s.49 11.77-.04 12.1zm12.14-14c-.53.2-.07 5.7-.2 6s-3.08-4.13-4.39-5.57-3.44-.83-3.48-.07c-.07 1.31.26 14.1.39 14.82s2.82.59 3.22.2-.2-5.84.26-6.17 3.15 3.22 4.39 4.79 3.15 2.1 4.07.66-.33-12.07-.53-14.1-3.22-.85-3.7-.64zm3.24 14.21c-.59.07-7.15-7.08-7.8-7.21s-.66 1.05-.73 2 .4 5.18.07 5.38-.72.26-.79-.07-.72-13-.26-13.12 2.1 2.37 2.1 2.37c.72.72 4.33 5.18 5.18 5.24s1.25-1.18 1.18-2.56-.39-3.73 0-3.8.85-.13.85.39.79 11.32.2 11.38zm7.34-4.06c-.19 0-.26-.66-.19-.92s2.55-.2 3-.39.12-2.63.12-3.28-1.7-.92-2.29-.92-.39-.2-.13-.66 5.18.46 6 .07.39-3.8.06-4.52-10.84-.5-11 .06c-.26.85-.06 15.15.66 15.8s10.43.2 11 .14.39-4.59.13-5-7.16-.38-7.36-.38zm5.64 4.2c-.46.06-7.8.52-8.13.13s-.26-13.32.2-13.64 7-.27 7.47.13.53 2 0 1.9-5.83-.39-6.09.13-.33 3.54.19 3.61 2.3-.07 2.3.26.39.79 0 .92-2.95 0-3 .26-.07 3.74.39 3.8 6.63-.06 6.76.33.37 2.1-.09 2.17z" fill="#1d1d1b"/></svg>