<svg height="64" viewBox="0 0 64 64" width="64" xmlns="http://www.w3.org/2000/svg"><path d="m21.11 61.6c-3.67 0-14.38 0-15.43-.23a7.36 7.36 0 0 1 -5.23-6.87c.03-3.02-.45-45.42-.45-45.85v-.15c0-5.16 2.94-6 4.71-6h2.17c3.77 0 11.39 0 18.66.09 6.6 0 12.92.08 15.76.08s5.93-.07 8.6-.13c2-.05 3.75-.09 5-.09a9.29 9.29 0 0 1 2.36.16 9.37 9.37 0 0 1 5.91 8.25c.26 3.39.54 22 .69 31.93 0 2.8.08 4.83.09 5.47.2 8.87-.26 9.63-.6 10.19a6.36 6.36 0 0 1 -4.81 3c-1 .07-5.43.08-13.24.08-5.52 0-11.77 0-16.52.05-2.54 0-5.16 0-7.67 0z" fill="#fff"/><path d="m62 48.25c-.06-2.84-.45-33-.77-37.29a7.52 7.52 0 0 0 -4.49-6.53c-.94-.26-8.63.13-15.45.13s-33.57-.23-36.54-.16-2.81 3.26-2.81 4.23c0 0 .48 42.82.45 45.89a5.5 5.5 0 0 0 3.61 4.94c.75.13 12.35.26 22.75.16s27.92 0 29.63-.13a4.36 4.36 0 0 0 3.3-2.1c.46-.74.4-6.3.32-9.14zm-6.59-1.42c0 .07 1.69 2 2.41 2.86v2.15s0 .33-.05.48a13.24 13.24 0 0 0 -2-2c-.22 0-.55.36-.55.58a28.11 28.11 0 0 0 2.42 2.8c-.09.54-.32.81-1.06 1a12.07 12.07 0 0 0 -2.71-2.7c-.45-.1-.65.48-.65.64a25.24 25.24 0 0 0 2.08 2.31c-.59 0-1.41.07-2.4.08-.28-.5-1.09-1.65-1.36-1.65s-.61.17-.61.46a4.88 4.88 0 0 0 .74 1.16c-5.14 0-13.48-.06-19.39.08-8.46.19-24.85.13-25.72.16a2.1 2.1 0 0 1 -2.33-1.94c-.23-1.59-.58-29.71-.45-33.39s-.29-12.91.68-13.41c.32-.17 3.91-.13 7.85-.19s37-.13 39.59-.13a21.42 21.42 0 0 1 4.36.13c.58.19 1.07 1.32 1 2.19 0 .47.19 12.24.37 23.4a12.4 12.4 0 0 0 -2.37-1.71c-.36 0-.39.45-.42.71a19.39 19.39 0 0 0 2.81 2.44v2.5a11.61 11.61 0 0 0 -2.27-1.61c-.19 0-.29.51-.26.71a29.63 29.63 0 0 0 2.55 2.24q0 1.32 0 2.58a15.35 15.35 0 0 0 -2.61-2.34c-.29 0-.23.36-.19.88s2 2.19 2.82 2.93q0 1.19 0 2.28a16 16 0 0 0 -2.24-2.11.86.86 0 0 0 -.32.81c.07.16 1.73 1.94 2.58 2.84v3.23a19.23 19.23 0 0 0 -2.12-1.9c-.11-.07-.23.35-.17.45zm-44.07-35.83c.26 0 .2-.94.07-1.16a15.58 15.58 0 0 0 -4.41.16c-.42.19-.45 6.37-.32 6.56a.61.61 0 0 0 1 .16c.22-.26-.07-5.43-.07-5.66s3.48-.06 3.73-.06zm38.43 32.73c-.33-.39-.17-24.24 0-24.92a30 30 0 0 1 2.1-3.88c.38-.64-.2-1.84-.81-1.87s-9.18-.13-9.66.19-8.53 17.42-8.76 17.61-11-16.8-11.15-16.8-8.56-.42-9.44-.26-1.38.91-1.26 1.29 4.21 5.27 4.21 5.37.71 24.3.58 24.46-2.36 2.2-3.65 3.46-.39 2.87.19 2.94 10.47.06 11.83 0 1.68-1.26 1.55-2.2-4.2-3.78-4.2-3.78.22-13.51.45-13.76.23-.07 2.1 3.32 6.15 13.45 6.69 14.45 1.84.84 2.39.71 6.88-18.71 7.07-18.65.13 13.48.13 13.48a48.81 48.81 0 0 0 -3.39 4.2 1.26 1.26 0 0 0 .61 1.58c.32 0 14.64.16 15.25.07s.91-1.36.74-2.36-3.25-4.27-3.57-4.65zm.9 5.68c-.29 0-11.47 0-11.63-.16a1.88 1.88 0 0 1 -.04-1.25c.13-.16 2.78-3.1 2.85-3.3s.06-19.9-.07-20.16-.81-.71-2 1.71-7.78 20.35-7.95 20.38-8.56-17.45-9.31-18.48-2.42-.94-2.55-.32-.55 18.35-.32 18.61 4.2 2.91 3.78 3.07a73.75 73.75 0 0 1 -9.27-.19c0-.23 3.19-3.27 3.19-3.53s-.61-25.33-.61-25.79-3.17-4.14-3-4.4a36.8 36.8 0 0 1 7.08.1c.48.26 11 17.58 11.5 17.77a1 1 0 0 0 1.36-.74c.19-.73 8.52-17.41 9.07-17.73s7.25-.16 7.31 0-2 2.23-2.14 2.61-.09 26.5.07 26.79 3.42 4.2 3.33 4.6-.32.41-.65.41z" fill="#1d1d1b"/></svg>