<svg height="64" viewBox="0 0 64 64" width="64" xmlns="http://www.w3.org/2000/svg"><path d="m9.36 55.82c-1.77-.11-7.64-.64-8.72-2.82a4.46 4.46 0 0 1 .18-4.93c1-1.34 10.35-7.26 12.35-7.82.8-.22 1.15-.34 1.3-.4a19.72 19.72 0 0 1 2.71-2.11 84 84 0 0 0 6.69-5.2 9.26 9.26 0 0 0 1-1.23 10.64 10.64 0 0 1 -1-3.06c0-.59-.08-1.41-.11-2-2.92-3-7.27-7.43-7.92-8-2-1.71-2.06-5.67-2.06-6.12 0-2.43 2.6-4 4.38-4a2.73 2.73 0 0 1 .59.07c1.74.39 7.39 6.71 7.71 7.18.16.22.51.63 1 1.13a3.75 3.75 0 0 1 .24-.44c1.4-2.15 6.33-4 8.16-4 2.12 0 5.39 1.94 6.19 4.2a4.84 4.84 0 0 1 .24 1.59 13.2 13.2 0 0 1 1.5-.26 36.18 36.18 0 0 0 5.81-1.52s4.4-1.83 6.4-1.83a2.87 2.87 0 0 1 1 .15 3.28 3.28 0 0 1 1.83 2.42c0 .13.85 3.3-.37 4.73-.49.58-1.33 1-4.41 2.41-.89.4-1.74.79-2.18 1s-1 .55-1.46.83c-1.41.8-2.1 1.21-2.91 1.21a11.89 11.89 0 0 0 -2.2.26 25.31 25.31 0 0 1 -4.94 2l-.59.17a21.87 21.87 0 0 0 -1 3c1.55.89 5.39 2.83 8.08 4.19 2 1 3.85 1.94 5.14 2.62 2.17 1.15 3.43 1.94 4.26 2.46a8.35 8.35 0 0 0 1 .57c.18 0 .42.08.69.13a10.69 10.69 0 0 1 4 1.28 4.37 4.37 0 0 1 2.1 2.72 3.06 3.06 0 0 1 -.46 2.31l-.11.2a6.66 6.66 0 0 1 -5.32 3.55 10.09 10.09 0 0 1 -1.35.09 15.23 15.23 0 0 1 -7.22-2.05 32.69 32.69 0 0 1 -3.67-2.43c-1.62-.34-7.18-1.52-9.51-2.3-.48-.15-.95-.32-1.4-.47a17.15 17.15 0 0 0 -3.76-1.05 57.35 57.35 0 0 0 -5.3 3c-1.92 1.14-3.58 2.12-4.51 2.56a19.2 19.2 0 0 1 -4 1.18 12.16 12.16 0 0 0 -2.12.55 13.35 13.35 0 0 0 -1.6 1.57c-1.51 1.44-2.71 2.72-4.19 2.72z" fill="#fff"/><path d="m60.78 45.32c-1.23-.8-3.19-.94-4.06-1.16s-1.67-1.09-5.66-3.16-13.57-6.78-14.22-7.5 1.38-5.37 1.45-5.59.29-.15 1.52-.51a22.56 22.56 0 0 0 4.43-1.74c.51-.44 2.83-.58 3.26-.58a23 23 0 0 0 3.41-1.82c1.38-.72 5.59-2.46 6-3s.14-3.77-.66-4.06-4.79 1.16-6 1.67a35.94 35.94 0 0 1 -6.25 1.69 37.63 37.63 0 0 0 -4.36 1s1.09-2.18.59-3.63-3-2.9-4.36-2.9-5.59 1.67-6.53 3.12.15 4.28.15 4.28-3.78-3.77-4.57-4.93-5.92-6.22-6.59-6.37-2.61.65-2.61 2 .37 3.78 1.38 4.65 8.56 8.63 8.56 8.63.08 1.67.15 2.69a13.17 13.17 0 0 0 1.19 3.22 6.8 6.8 0 0 1 -1.67 2.54c-1.45 1.59-9.07 6.89-9.36 7.25s-.43.51-2.25 1-10.72 6.26-11.35 7.13a2.63 2.63 0 0 0 0 2.9c.51 1 6 1.67 7.11 1.75s3.52-3.49 4.86-4.14 4.14-.75 6.17-1.75 9-5.44 10.23-5.66 3.56.72 6.17 1.59 9.72 2.33 9.72 2.33a33 33 0 0 0 3.78 2.54 12.77 12.77 0 0 0 7.4 1.74 5 5 0 0 0 4.06-2.91c.44-.63.13-1.51-1.09-2.31zm-30.55-26.7c.44-2.32 4.43-3.55 6-3.12s3.12 1.89 1 3.85-2.9 2.39-4.42 2.1c-.75-.15-3.01-.51-2.58-2.83zm29 29.24a31.14 31.14 0 0 1 -5.08-.65 49.53 49.53 0 0 1 -7.91-3.34 70.38 70.38 0 0 0 -7.24-2.54c-.58-.22-5.15-.51-5.58-.87a4.87 4.87 0 0 0 -2.4-1c-.8 0-6 2.68-7.47 3.62a30.87 30.87 0 0 1 -7.11 3.12c-2.54.73-5.15 1.67-5.88 2.33s.01 1.07-1.56 1.47-4.86.43-5.22.14-.29-.43.73-1 6.6-4.43 7.9-5.16a44.48 44.48 0 0 1 4.29-1.88c.21-.07 6.16-4.72 7-5.44a50.39 50.39 0 0 0 4.72-5c.44-.73.15-.73.07-1.23a37.52 37.52 0 0 1 -.79-3.7c0-.8.21-1.31 0-1.67s-8.64-10.72-9.7-11.88c0 0-.94-1.52-.36-1.89a.89.89 0 0 1 1.09.22s10.78 11.61 11.07 11.68 2-.29 2.18-.22a15.24 15.24 0 0 0 4.2.08c.88-.29 3.49-1.24 5.59-2s11.39-3.05 12.05-3.05h1.74s-.29 1.45-.73 1.59-6.89 2.41-8.56 3.24a41.94 41.94 0 0 1 -6.75 2.39c-1 .15-1.45.15-1.67.44a6.22 6.22 0 0 1 -.87.8s-.72-1.45-1.16-1.24-.94.37-.58.66a16.47 16.47 0 0 1 1.38 1.67s-.29 1.16-.51 1.08a14.58 14.58 0 0 1 -1.52-1.37s-.87.58-.51.72a10.17 10.17 0 0 1 1.52 1.6l-.43 1a10.26 10.26 0 0 0 -1.6-.94c-.22 0-.22 1-.22 1l1.46 1.36a4.66 4.66 0 0 0 2.32 3.85c2.25 1.15 15.87 7.73 17.7 8.75a14.57 14.57 0 0 0 3.05 1.4c.36.07 1.74.21 2 .65s-.26 1.14-.62 1.21z" fill="#232021"/></svg>