<svg height="64" viewBox="0 0 64 64" width="64" xmlns="http://www.w3.org/2000/svg"><path d="m58.57 55.61c-54.4-.88-55-1.35-55.68-1.84a2.09 2.09 0 0 1 -.22-.2c-2.38-2.44-2.45-3.34-2.48-3.77-.07-.83.2-5.31.3-6.1.22-1.81 2.8-6.55 9.08-8.28-5.71-.42-9.16-3.59-9.57-8.93-.38-5.55 1.84-11.9 9.23-13.09a10 10 0 0 1 1.77-.14 10.65 10.65 0 0 1 7.61 3.18 11 11 0 0 1 1.14 1.41 11.53 11.53 0 0 1 1.35-3.12 10.47 10.47 0 0 1 6.77-4.66 12.25 12.25 0 0 1 2.57-.27 9.86 9.86 0 0 1 7.16 2.79 9.87 9.87 0 0 1 2.66 6.35 10.43 10.43 0 0 1 6.74-9.82 9 9 0 0 1 3.59-.73 10 10 0 0 1 7.19 3.14 9.78 9.78 0 0 1 2.67 7.33c-.32 5.31-2.45 9.43-5.64 11.14a9.67 9.67 0 0 1 8.59 7.8c.93 4.21.67 12.61 0 14.21-.61 1.42-2.67 2.72-3.85 3.36a1.92 1.92 0 0 1 -.93.24z" fill="#fff"/><path d="m61.5 38.22c-.92-4.17-4.41-7.22-11.5-6.22s-7.84 8.28-7.84 8.28-.44-5.52-9.3-5.71-10.22 7.07-10.22 7.07-1.97-5.64-9.91-4.82-10.22 6.34-10.32 7.12-.34 5.06-.29 5.71 1.94 2.57 1.94 2.57c.77.58 54.54 1.45 54.54 1.45s2.56-1.4 3-2.42.82-8.86-.1-13.03zm-39.13 11.48s-18.07-.58-18.31-.82c0 0 .1-4.85.29-5.33s3.87-5.14 9.1-5.33 8.77 5.33 9 6.25a45.11 45.11 0 0 1 -.08 5.23zm18.89.39c-.34.19-17.2-.2-17.49-.39s.24-7.56.39-8.53 2.57-5.9 9.1-5.27 8.14 5.61 8.14 6 .2 7.99-.14 8.19zm18.26-.92a5.09 5.09 0 0 1 -.05 1.21 3.49 3.49 0 0 1 -1.7 0c0-.15-4.94-6.06-5.08-6.06s-.54.34-.49.58 4.36 5.33 4.36 5.33h-2.27s-3.3-4-3.69-4.07-1 .88-1 .88a39.26 39.26 0 0 1 3.19 3.29 12.51 12.51 0 0 1 -2.37 0 27 27 0 0 0 -2.08-1.89c-.25 0-1 .44-.83.68s1.17 1.26 1.17 1.26-4.75-.29-5-.63 0-8.43.34-9.93 2.51-6.2 7.65-6.64 7 2.52 7.26 3.44a6.69 6.69 0 0 1 .29 1.79s-1.69-1.59-1.93-1.55-.73 1-.54 1.26 2.47 2 2.47 2.33a28.41 28.41 0 0 1 .2 3.1c-.15-.1-3.34-4.31-3.59-4.31s-.87.77-.72 1 4.21 4.7 4.31 5a24 24 0 0 1 .05 2.47s-4.8-5.71-4.99-5.71-1 .87-.87 1 5.91 5.88 5.91 6.17zm-48.92-15.65c5.66 0 8.81-2.86 9-9.15a8.59 8.59 0 0 0 -10-9.06c-6.6 1.07-7.91 6.83-7.6 11.04s2.93 7.12 8.6 7.17zm-5.23-13.37c3.05-3.82 3.19-3 5.08-3.39 2.64-.54 6 1.31 6.78 3.83a12.5 12.5 0 0 1 .05 5.62 16.18 16.18 0 0 0 -1.94-2.37c-.24 0-1.16.09-1 .53s2.61 3.05 2.42 3.63a3.15 3.15 0 0 1 -.82 1.11 34.19 34.19 0 0 0 -2.18-2.66c-.2-.05-1 .39-.92.63s2.27 2.71 2 3-1.26.68-1.36.54-1.77-2.62-2.25-2.72-.87.34-.83.54 1.6 2.27 1.36 2.37-3.49.53-5.47-1a6.92 6.92 0 0 1 -.92-9.66zm24.7 10.22c3.49-.53 8.09-2 8.28-9.88s-5.9-9.44-10.07-8.49c-6.4 1.4-7.75 7.8-6.78 11.87s5.08 7.04 8.57 6.5zm-1.75-17c1.77-.7 6.45 0 7.61 3a12.07 12.07 0 0 1 .14 6.63 21.89 21.89 0 0 0 -2.32-2.47c-.24 0-.73 1.26-.73 1.26s2.38 1.85 2.23 2.21a11.89 11.89 0 0 1 -1.65 1.6 23.31 23.31 0 0 0 -2.27-2.81c-.24 0-.83.63-.83.63s2.52 2.81 2.18 3.1a6 6 0 0 1 -1.4.63 31.29 31.29 0 0 0 -2.23-3.34c-.24-.05-1.11.05-1 .43s1.79 3 1.65 3.05a6.88 6.88 0 0 1 -5-2.18c-1.61-2.05-4.42-8.59 3.62-11.79zm23.93 15.6c3.15-.58 5.91-4.21 6.25-10.17a7.91 7.91 0 0 0 -10.75-7.9c-6.3 2.67-6.3 8.87-4.65 13.32s6 5.28 9.15 4.7zm-4.25-15.97c2.37-1.72 5.91-.15 7 .72s2.13 5.14 2.13 5.14a8.48 8.48 0 0 0 -1.13-.79c-.14 0-.48.49-.29.68s1.07.48 1 1-.2 1.16-.34 1.06-2.13-2.16-2.37-2.11-.63.78-.63.78 2.56 2.47 2.47 2.9-1 1.55-1.12 1.46a37.71 37.71 0 0 0 -3.24-3.06c-.29 0-.87.54-.73.88s3.29 2.66 3 2.95-.83.78-1 .53-2.23-2.47-2.57-2.47-1.16.58-.87.92 2.08 1.84 1.79 2-2.08.39-4.16-1.5-4.67-6.94 1.06-11.09zm-40.55 12.05a16.26 16.26 0 0 0 .43-2.28c.25-1 1.65-1.65 1.89-1.79s-.14-.78-.58-1-.87.1-2.32 2.08-.78 2.94-.78 2.94c.1.29 1.17.19 1.36.05zm18.69-4.46c.39-.15.1-1.26.54-2.18a8.25 8.25 0 0 1 1.4-1.89s-.24-.53-.43-.63-1 .15-2 1.6-.8 2.51-.68 2.66a1.34 1.34 0 0 0 1.17.44zm21.7-3.44a6.1 6.1 0 0 1 1.75-2.32c.29-.25-.1-.63-.44-.63s-1 .09-2 1.5a6.07 6.07 0 0 0 -1.07 3.05.9.9 0 0 0 1 .58c.38-.05.42-1.11.76-2.18z" fill="#1d1d1b"/></svg>