<svg height="64" viewBox="0 0 64 64" width="64" xmlns="http://www.w3.org/2000/svg"><path d="m32.88 64c-2.7 0-6.66-1.45-10.23-8.37l-.5-1c-2.81-5.4-9.37-18.1-11.45-23.53s-2.87-9.85-.61-15.72c1.56-4.04 5.69-14.78 21.84-15.38h.94c8.13 0 14.5 4 18.43 11.58 4.52 8.71 5.2 17.44 2 26-3 8.06-9.28 20-12 22.78a10.32 10.32 0 0 1 -8.42 3.64z" fill="#fff"/><path d="m49.58 12.47c-4.18-8.04-10.58-10.77-17.58-10.47-14.23.51-18.2 9.17-20.1 14.12s-1.55 8.66.62 14.33 9.38 19.55 11.85 24.29 5.47 7.32 8.51 7.32 4.74-.67 7.06-3.09 8.45-13.87 11.55-22.12 2.26-16.34-1.91-24.38zm-.77 12.42c-.42-.05-.62 1-.57 1.24s3.09 3.82 3.09 4.23-.15 2.37-.36 2.16-2.89-3.6-3.09-3.6-.62.56-.47 1 3.05 3.81 3.05 4.33-.52 3-.83 2.68-2.63-4.2-3.09-4.1-.57.88-.52 1.09 3.2 4 3.1 4.53a9.42 9.42 0 0 1 -.52 1.55s-2.94-4.18-3.25-4.18-.72.83-.62 1 3.1 3.92 3 4.33a18.21 18.21 0 0 1 -.88 1.85s-2.58-4.23-3-4.33-.93.77-.78.88 3.2 4.17 3.05 4.48-1.12 1.74-1.12 1.74-3-4-3.19-4-1 .88-1 .88 3.19 3.81 3.09 4.28-.88 2-1.13 1.8-3.1-4.28-3.41-4.28-1 .67-.92 1 3.45 4.74 3.4 5a18.15 18.15 0 0 1 -1.14 1.91s-2.83-4.59-3.14-4.59-.93.72-.82.88a53 53 0 0 1 3.26 4.85c0 .31-1.13 1.29-1.13 1.29s-3-4.22-3.25-4.28-.72.67-.67.93 3.2 3.76 2.94 4.28a3.3 3.3 0 0 1 -1.24 1.13c-.15.06-2.47-4.22-3-4.27s-1.08.41-.87.77 3.09 4.28 2.78 4.64-1.5.26-1.5.26a35.7 35.7 0 0 0 -2.57-3.77c-.31-.1-1 .31-.93.47a32.13 32.13 0 0 1 2.06 3.55c-.15.06-3 0-6-4.64s-11.08-19.17-13-25a19.48 19.48 0 0 1 1.58-16.18c2.8-5.21 10.2-9.13 16.85-9.18 4.28 0 9.08.36 14.13 6.24s5.62 13.35 5.46 13.35-1.49-2.17-1.8-2.17a.84.84 0 0 0 -.62 1c.15.42 2.32 3.3 2.42 3.77a12.19 12.19 0 0 1 0 3.09c-.2-.07-2.42-3.78-2.83-3.89zm-29.64-13.55a14.57 14.57 0 0 0 -4.08 7.73s.57.41.93.31.1-.47 1-2.73a16.4 16.4 0 0 1 2.84-4.39s-.37-1.26-.69-.92zm12.11-.78c-1.39.16-1.24 1.6-1 2.27s-.05 4.9-3.3 5.67-5.19-1.65-5.34-1.5c-2.89 2-2.16 8.81 1.08 13.66s10.88 5.42 15.72 2.74 7.94-8.3 4.85-15.77-10.62-7.22-12.01-7.07zm10.77 12.79c-.51 7.63-5.46 10.1-10.25 9.9a8.7 8.7 0 0 1 -7.69-5.52c-.87-1.86-.77-5.83-.1-6.13a8.42 8.42 0 0 0 6.81-1.71c3.18-2.68 3.18-5.51 3.76-5.72a8.43 8.43 0 0 1 7.47 9.18z" fill="#1d1d1b"/></svg>