<svg height="64" viewBox="0 0 64 64" width="64" xmlns="http://www.w3.org/2000/svg"><path d="m23.05 64c-10.16 0-11.05-1.24-11.41-1.71s-.6-.8-1.24-18.88c-.29-8.41-.58-18.49-.51-20.74s.78-13 8.55-19c3.02-2.33 7.74-3.67 12.94-3.67 6 0 11.47 1.69 14.67 4.52 5.58 4.93 9.68 9.69 7.46 22-2.11 11.66-4.93 13.61-9.36 15.83a22.52 22.52 0 0 1 -9.53 2.23c-.4 0-.73 0-1 0a8.84 8.84 0 0 1 -1.78-.29c0 12.21-.07 15.73-.3 16.59-.71 2.64-1.9 2.82-4.33 2.95l-1.46.09c-.75.08-1.63.08-2.7.08z" fill="#fff"/><path d="m44.76 6c-5.54-4.93-18.95-5.57-25.13-.8s-7.63 13.34-7.8 17.53 1.05 38 1.37 38.42c.47.64 8.81 1.09 12.42.84s3.61.06 4.06-1.61.07-34.36.26-37.78 3.09-5.22 5-4.77 2.71 3.22 1.55 5.48-4.38 1.93-4.71 1.93-1.09 2.13-1 2.78.52 13 .71 13.66 1 .84 2.39 1a20 20 0 0 0 9.47-2c3.87-1.93 6.32-3.35 8.32-14.44s-1.36-15.37-6.91-20.24zm1.44 13.51a29.17 29.17 0 0 1 2.93 3.69 11 11 0 0 1 -.22 3 34.85 34.85 0 0 0 -3.09-4.12c-.26 0-.78.81-.52 1.11s3.27 4.21 3.27 4.34a10.59 10.59 0 0 1 -.78 2.28c-.08-.17-2.36-4.81-2.7-4.81s-.43.3-.43.64 2.83 5 2.75 5.16-.6 1.8-.6 1.8-2.81-4.76-3.06-4.76-.9.48-.68.74a56.35 56.35 0 0 1 3.13 5.15c-.08.17-1 1.68-1.2 1.55s-2.58-5.28-2.92-5.28-.73.39-.6.61 3.13 5.37 2.7 5.58-1.2.82-1.37.65-2.41-4.57-2.81-4.7-.81.65-.56 1 2.93 4.38 2.5 4.55-1.59.86-1.77.78-2.39-4.31-2.82-4.47-1 .69-.73 1 3.18 3.61 2.75 3.83a6.58 6.58 0 0 1 -2.36.51c-.26-.13-1.81-3.61-2.15-3.82s-.82.43-.69.64 1.85 3.1 1.38 3.14a11 11 0 0 1 -3-.13c-.08-.22-.43-12.33-.21-12.42s5.07-.52 5.58-4-.25-5.24-2.45-6.14-6.66-.95-8.16 3.44-.17 20.41-.13 21.53.09 1.59.09 1.59a33.51 33.51 0 0 0 -2.5-3.4c-.21 0-.51 1-.34 1.2a48.27 48.27 0 0 1 3.05 4.56c0 .3 0 4.9-.09 4.9s-4.05-8.43-4.31-8.36-.43 1-.17 1.59 4.64 8.42 4.6 8.72a16 16 0 0 1 -.26 2.45c-.13 0-4.64-9.5-5-9.37s-.65.61-.52.82 5.76 10 5.76 10.31a13.63 13.63 0 0 1 -.15 2.41c-.13.05-.6.13-.65 0s-5.07-9.67-5.5-9.54-.81.43-.6.73 5.24 8.81 4.94 8.81-.94.17-1.11 0-4-6.7-4.34-6.62-.82.69-.43 1.08 4.17 5.54 3.86 5.54a12.3 12.3 0 0 1 -2.19 0c-.17-.13-2.45-4.34-2.7-4.34s-1.16.56-.61 1.12a18 18 0 0 1 2.37 3.22c-.22 0-.56.35-.91 0s-2.32-2.83-2.32-2.83-1.16.64-.77 1.07 1.93 1.59 1.59 1.59-3.39.39-3.61.13c0 0-.69-28.1-.82-32.62s.31-12 3.57-16.07 7.82-8.21 17.19-6.27 11.7 4.89 13.32 8.46 1.33 4 1.21 3.95-1.72-1.84-1.94-1.67-.43.73-.21.94 2.49 2.28 2.62 2.8a10.42 10.42 0 0 1 -.17 3.26c-.18-.17-2.32-3.44-2.54-3.35a1.45 1.45 0 0 0 -.39 1.12zm-25.45-9c-.58-.13-2.58.8-4.28 4.22a11.27 11.27 0 0 0 -1 7.09c.22.48 1.06.1 1.38-.06s.36-4.06 1-6.74a6.31 6.31 0 0 1 3.15-3.89c.17-.07.33-.45-.25-.58z" fill="#232021"/></svg>