<svg height="64" viewBox="0 0 64 64" width="64" xmlns="http://www.w3.org/2000/svg"><path d="m30.66 60.4c-9.35 0-17.36-2.85-22-7.83l-1.54-1.69c-4.59-4.88-7.12-7.59-7.12-13.83 0-4.33.06-13.57.1-19.05 0-2.2 0-3.75 0-4 0-4.47 2.88-9.46 11-10 2.46-.18 7-.27 13.51-.27 9.12 0 20 .17 25.8.27l4.06.06c3.24 0 8.39 3.23 9.15 10.15.59 5.36.48 26.55-.53 29.66s-12.16 14-24.6 16a48.78 48.78 0 0 1 -7.85.64z" fill="#fff"/><path d="m61.71 14.3c-.63-5.77-4.71-8.43-7.22-8.43s-34.55-.7-43.23-.07-9.19 6.53-9.19 8.12c0 1-.13 17-.13 23.13s2.66 8.24 8.18 14.2 16.41 8.49 28.08 6.59 22.24-12.17 23.07-14.7 1.08-23.08.44-28.84zm-2.71 15.4a23 23 0 0 0 -3-2.31c-.31 0-.31.44-.31.6s2.41 2 3.31 2.69c0 1.31-.06 2.58-.12 3.76-.89-.72-3.16-2.62-3.29-2.62s-.35.26-.31.64 2.43 2.16 3.55 3c-.06 1.06-.14 2-.24 2.87a40 40 0 0 0 -3.59-3.28c-.22 0-.54.29-.63.58s2.8 2.9 4 4c-.08.42-.16.8-.25 1.1a6 6 0 0 1 -.37.89c-1.18-1.26-4.56-4.6-4.64-4.6a.61.61 0 0 0 -.47.57c-.06.36 3.35 3.54 4.64 4.83a12.73 12.73 0 0 1 -1.47 1.79 44.74 44.74 0 0 0 -4.31-4.34.55.55 0 0 0 -.67.48 57.63 57.63 0 0 0 4.24 4.59c-.48.45-1 .91-1.59 1.36a33.08 33.08 0 0 0 -4.23-3.73c-.29 0-.42.25-.48.57s3.08 2.94 4 3.71c-.71.53-1.48 1.06-2.28 1.57a39.66 39.66 0 0 0 -3.68-3.89 1 1 0 0 0 -.69.41c0 .08 2.62 3 3.56 4-.47.29-.95.57-1.45.85a23.73 23.73 0 0 0 -3.82-3.84c-.29 0-.7.06-.76.47s2.49 2.8 3.63 3.89c-.77.41-1.56.82-2.37 1.2a39.68 39.68 0 0 0 -3.83-3.69c-.16 0-.64.25-.64.5a44.89 44.89 0 0 0 3.36 3.68c-.49.22-1 .44-1.48.64-.29.13-.59.23-.89.35-.78-1-3.14-3.63-3.3-3.74s-.66.13-.79.48 2.11 2.76 2.93 3.66q-1.11.36-2.25.63a16.32 16.32 0 0 0 -3.25-3.12c-.31 0-.35.25-.35.57a20.45 20.45 0 0 0 2.47 2.78 32.8 32.8 0 0 1 -20.31-2.81c-8.43-4.12-11.91-11-12.3-14.77s-.28-22.75-.12-23.77 3.17-4.9 8.56-5.39 37.28-.12 39.67-.06 6.09 1.08 6.34 7.48c.1 2.47.21 6.28.23 10.26a11.27 11.27 0 0 0 -2.26-1.67c-.28 0-.47.35-.5.63a18.33 18.33 0 0 0 2.8 2.51zm-49-19.18a2.8 2.8 0 0 0 -2.63 2.32c-.13.47-.07 4.94-.07 4.94.07.26 1.05.38 1.14.16s-.47-4.09.73-5.51 4-.83 4-.83a4 4 0 0 0 0-.89c-.11-.34-1.17-.31-3.17-.19zm33.85 8.66c-1.12.73-11.85 11.56-12.75 11.53s-4.44-4.4-7.2-7.51-5.16-5.67-8.08-4.2-2.65 5.34-1.74 6.34c.66.73 11.15 12.8 13.12 14.32s3.9 2.09 5.74 1 13.59-11.86 15.37-14 2-4.66.41-6.31-3.84-1.9-4.91-1.17zm-5.31 14.26c-2.88 2.85-6.11 6-7.73 5.89s-14.51-14.04-14.81-15.11c-.18-.62 1.84-2.32 2.76-2.22s10.72 11.76 11.32 12.17 1.24.54 2.79-1 11.73-10.51 12.58-11.05a1.59 1.59 0 0 1 2.38 1.62c-.13 1.71-6.4 6.85-9.29 9.7z" fill="#1d1d1b"/></svg>