<svg height="64" viewBox="0 0 64 64" width="64" xmlns="http://www.w3.org/2000/svg"><path d="m21.44 64a12.68 12.68 0 0 1 -8.16-2.72l-.23-.15a6.76 6.76 0 0 1 -2.8-4.41 6.88 6.88 0 0 1 1-5.16 9.61 9.61 0 0 1 2.38-2.3c-.17-.15-.33-.31-.48-.46a5.3 5.3 0 0 1 -1.32.16 6.46 6.46 0 0 1 -2.62-.59c-4-1.79-4.1-5.61-3.84-8.32a37.61 37.61 0 0 1 2.55-10.11 23.24 23.24 0 0 1 2.6-4.52c-.3-2.21-.73-8 1.86-12.4 3.21-5.47 7-10.57 18.38-12.74a15.38 15.38 0 0 1 2.93-.28c10.76 0 17.31 11.27 18.02 14.15.55 2.26 1.57 7.35 1.93 9.13a18 18 0 0 1 5 11.31c.33 6-.38 8.45-2.79 9.73a6.72 6.72 0 0 1 -3 1 10 10 0 0 1 -.74 2.44 7.59 7.59 0 0 1 2.89 4.13c1.08 3.67-.48 7-4.29 9a16.27 16.27 0 0 1 -7.63 1.9 15.41 15.41 0 0 1 -2.46-.2 16.11 16.11 0 0 1 -4.76-1.51 23.45 23.45 0 0 1 -2.79.21 8.66 8.66 0 0 1 -1.07-.02 27 27 0 0 1 -9.4 2.73z" fill="#fff"/><path d="m56.69 34.7a16 16 0 0 0 -4.88-10.42s-1.37-7-2-9.65-7.81-14.48-18.67-12.39-14.14 6.9-17.04 11.76-1.49 11.91-1.49 11.91a22.41 22.41 0 0 0 -2.86 4.77 36.19 36.19 0 0 0 -2.44 9.53c-.3 3.16.3 5.24 2.68 6.31s3.69-.23 3.69-.23c.6 1.25 3.46 3.21 3.46 3.21a11.43 11.43 0 0 0 -4.29 3.16 5.17 5.17 0 0 0 1.31 6.79c2.2 1.55 3.84 2.77 8.34 2.55a26 26 0 0 0 9.23-2.8c1.13.42 4.53-.12 4.53-.12a13.72 13.72 0 0 0 4.74 1.59 14.16 14.16 0 0 0 8.82-1.49c2.62-1.43 4.23-3.69 3.34-6.73a5.56 5.56 0 0 0 -3.64-3.75s.12-.3.84-1.73a12.94 12.94 0 0 0 .83-4l1.37.42c.6.18 1.43-.24 2.44-.78s2.05-1.42 1.69-7.91zm-6.08 16.38c.66.83.6 3.75.12 3.69s-2.38-4.11-2.62-4.77c-.11-.24 1.89.25 2.5 1.08zm4.71-13.58c-.48-.72-5.66-10.25-6.2-10.19s-.77.24-.41.6 6.67 11 6.67 11a5.26 5.26 0 0 1 -1.07 1.79 2.55 2.55 0 0 1 -1.19.53s-4.95-8.28-5.25-8.28a.86.86 0 0 0 -.53 1.19c.3.6 5 7 4.58 7.09s-1.84-1.67-2.26-1.49a1.59 1.59 0 0 0 -.65.54s-2.09-4.41-2.57-4.41-.71.24-.59.42 2.92 5.18 2.92 5.18.06 2.44-.24 2.26-2.56-5.36-3-5.36-.71.84-.54 1.08 3.12 5.55 3.12 5.55-.36 2.21-.59 1.91-3.16-5.06-3.16-5.06-.48 1-.24 1.31 3 4.76 3 4.76l-.24.42-.83-.18 4.33 7.84s-.54.66-.78.48-6.43-10.58-6.67-10.58-.36.65-.36.65l6.26 10.31s-1 1-1.25.53-6-9.59-6.2-9.59-1.07.24-.77.54 6 9.41 6 9.41-1.13.72-1.66.24-4.95-8.34-5.18-8.34-.71.54-.71.54 4.94 8 4.7 8-1.78-.3-1.78-.3-4.29-7.21-4.59-7.27-.89-.06-.71.18 4.22 7 4.22 7a1.12 1.12 0 0 1 -1.25-.18c-.53-.53-3.75-6.31-4-6.31s-.89.06-.59.59 3.46 5.1 3.1 5.1a3.9 3.9 0 0 1 -1.84-.6c-.42-.36-2.44-4-2.74-4s-1.13.24-.66.78a7.34 7.34 0 0 1 1.31 2.38c-.18 0-.47.36-.77-.06s-1.25-2-1.55-2-1.13.06-.71.54a11.71 11.71 0 0 1 1 1.67 15.39 15.39 0 0 0 -2.5.53c-1.37.42-4.53 2.68-8.94 2.86s-6.19-1.67-6.85-3.15.78-3.82 1.91-4.53a4.23 4.23 0 0 1 3.09-.6c.66.18.9.3 1.2.18a.46.46 0 0 0 .11-.83 21.61 21.61 0 0 1 -4.05-4.35c-.95-1.67-.95-4.47-2.14-4.11-.31.09-1.55 2.38-2.26 2.44s-2.27.66-2.86-1.31-.3-5.48 1.31-9.53a68.57 68.57 0 0 1 3.57-7.51s-1-6.07.78-9.71 4.59-8.09 8.43-10.04 11.65-4.11 17.9-.54a18 18 0 0 1 7.93 10.37s-.9-1.14-1.31-.78-.24.66-.06.72a11.57 11.57 0 0 1 2 3.15c.24.9.42 1.91.42 1.91s-2.09-3-2.38-2.74-.64.86-.5.86 3.16 3.76 3.16 3.76l.12 2s-2.62-3.57-2.74-3.39a1.45 1.45 0 0 0 .06 1.31c.29.35 2.08 2.8 2.5 2.92a3.41 3.41 0 0 1 2.92 2c1.07 2 1.49 4.17 1.13 3.93s-2.44-5.3-3.1-5.18-.18.95-.18.95l3.87 6.38s1.06 4.53.58 3.82zm-7.68-7.67a10.32 10.32 0 0 0 1 2.17c.44.71 4.15 7.25 4.29 7.39s.57.13.61-.08a23 23 0 0 0 -1.41-2.61c-.73-1.42-3.78-6.94-3.89-7.08s-.6.04-.6.21zm-8.58-2.52c-.32-.2-1.15.78-1.61.72s-1.2-1.09-1.57-1.07c-1.09.06-.65 1-.3 1.37s2.21 1.11 3 .49.8-1.31.48-1.51zm-3.3-11.53a5.7 5.7 0 0 0 -2.9 4.22 7.94 7.94 0 0 0 1.39 5.26 3.73 3.73 0 0 0 3.86 1.15c.89-.2 2.12-1.57 2.54-3.73s.33-4.87-.72-6a3.45 3.45 0 0 0 -4.17-.9zm2.54 9.22a2.1 2.1 0 0 1 -2.92-.34c-1-1-1.35-3.09-1-5a3.37 3.37 0 0 1 1.86-2.66c1.22-.73 3 .39 3.25 2.1s-.23 5.25-1.19 5.9zm-10.44-9a4.9 4.9 0 0 0 -3.61 2.85 8.26 8.26 0 0 0 -.48 5.47 5.17 5.17 0 0 0 2.9 3.13 3.46 3.46 0 0 0 3.69-1c1-1.39 1.35-4.94 1-7.35a3.3 3.3 0 0 0 -3.5-3.18zm1.35 9.63a2.18 2.18 0 0 1 -2.9.21 5.25 5.25 0 0 1 -1.57-3.35 7.83 7.83 0 0 1 1.07-3.77 3.21 3.21 0 0 1 2.11-1.49 2.59 2.59 0 0 1 2.34 2.6c.04 2-.26 4.96-1.05 5.72zm-1.07-5.48a1.66 1.66 0 0 0 -1.29 1.58c.08.52.59 1.65 1.43 1.41s1.74-1 1.51-1.82a1.42 1.42 0 0 0 -1.65-1.25zm8.59-.4c-1.9.16-1.72 1.27-1.8 2.08s.49.94.87.78.18-1.17.7-1.43 1 .55 1.29.75 1-.22.77-.63-.88-1.71-1.83-1.63zm-14.17-9c-.46 0-2.15 1.18-3.5 3.14a14 14 0 0 0 -2.14 6.1c-.12 1.49.47 1.74.67 1.86s.56.2.7 0a36.83 36.83 0 0 1 1.15-5.64c1-3.35 3.42-3.93 3.77-4.56s-.21-.96-.65-.98zm16.08-1.23c.54.24 1.39.12 1.49-.34s-.91-2.24-4-2.4-4 1.13-4.11 1.39.18 1.11.77.94 1-1 2.66-1.06 2.66 1.23 3.19 1.47zm-24.44 23.17c-.35 0-2.54 1.92-3.21 4.11a12.18 12.18 0 0 0 -.38 4.81.73.73 0 0 0 1 0c.24-.31.08-2.2.61-4a10.36 10.36 0 0 1 2.16-3.62c.62-.99.18-1.26-.18-1.3z" fill="#1d1d1b"/></svg>