<svg height="64" viewBox="0 0 64 64" width="64" xmlns="http://www.w3.org/2000/svg"><path d="m28.7 57.52a5.29 5.29 0 0 1 -3.94-1.9l-.15-.15a7.22 7.22 0 0 1 -1.61-2.47v-.09a9.84 9.84 0 0 1 -2.7.74 24.46 24.46 0 0 1 -2.64.15c-5.28 0-9.48-1.9-12.16-5.49-3.78-5-7.53-11.24-4.23-21 1.53-4.54 5.13-10 13.58-10.62a20.69 20.69 0 0 1 11.47-8.69 31.88 31.88 0 0 1 8.88-1.52 21.31 21.31 0 0 1 7.95 1.65 12.4 12.4 0 0 1 5.8 4 14.63 14.63 0 0 1 11.37 7c4.4 7.51 4.83 13.68 1.41 20-3.07 5.66-6.85 8.81-11.21 9.38a21.05 21.05 0 0 1 -2.52.09c-.6 0-1.11 0-1.52-.07a12.06 12.06 0 0 1 -5.86 3.35 16.38 16.38 0 0 1 -2.93.27 13.75 13.75 0 0 1 -1.72-.1c-1.71 2.17-4.27 5-6.26 5.37a6.42 6.42 0 0 1 -1.01.1z" fill="#fff"/><path d="m58.65 20.05c-3.65-6.21-10.82-6.05-10.82-6.05s-.88-2.34-5.36-4-8-2.3-15.61-.09a18.72 18.72 0 0 0 -10.86 8.68c-3.19.08-10 .84-12.9 9.35s0 13.92 4 19.19 10.64 4.84 13 4.57a10.38 10.38 0 0 0 4.57-2s.13 2.4.22 2.66a5.29 5.29 0 0 0 1.11 1.73 3.43 3.43 0 0 0 3.41 1.42c1.91-.35 5.81-5.58 5.81-5.58a11.63 11.63 0 0 0 5.1 0c3.05-.58 5.49-3.5 5.49-3.5a13.83 13.83 0 0 0 4.48 0c2.75-.35 6.38-2.17 9.75-8.38s2.24-11.8-1.39-18zm.46 10.32a12.23 12.23 0 0 1 -.37 2.52c-.93-1.18-3.45-3.89-3.74-3.89a.66.66 0 0 0 -.59.56c0 .13 3.19 3.38 4.08 4.29a11.72 11.72 0 0 1 -.75 1.73c-.88-1-3.62-3.95-3.74-3.95a1.08 1.08 0 0 0 -.65.45c0 .14 2.91 3.22 3.93 4.28a12 12 0 0 1 -1.49 1.87 47.45 47.45 0 0 0 -3.79-4.35c-.12 0-.59.26-.59.56a54.2 54.2 0 0 0 3.61 4.48c-.41.37-.82.71-1.24 1a31.6 31.6 0 0 0 -3.35-3.79.63.63 0 0 0 -.5.48 41.84 41.84 0 0 0 3 3.9c-.37.25-.73.48-1.08.68a19.71 19.71 0 0 0 -3.24-3.4c-.3-.09-1 .18-1.06.41a33.91 33.91 0 0 0 3.34 3.51 9.63 9.63 0 0 1 -2 .74 33.35 33.35 0 0 0 -3.01-3.45c-.21-.06-.65.53-.65.65s1.88 2.16 2.62 3a7.32 7.32 0 0 1 -1 0c-.51 0-.94-.11-1.3-.17a31.24 31.24 0 0 0 -2.26-3c-.18-.08-.74.39-.74.6a24.47 24.47 0 0 0 1.88 2.43c-.14.16-.46.75-1 1.44-.6-.84-2-2.54-2.31-2.52s-.38.27-.38.51a25.2 25.2 0 0 0 2.11 2.64 6.51 6.51 0 0 1 -1.65 1.18 12.65 12.65 0 0 0 -2.2-2.61c-.39-.24-.59.24-.57.53a18.66 18.66 0 0 0 1.8 2.45 6.26 6.26 0 0 1 -1.2.2c-3.64.17-5-.63-5.41-.23s-3.81 4.35-4.92 5-2 .58-2.13.27.18-5.23-.22-5.59a1.55 1.55 0 0 0 -1.55-.22c-.4.22-6.3 4.92-13.08 1.11s-7.72-8.93-7.38-15.18 6.39-10 8.07-10.56a16.71 16.71 0 0 1 4.75-.57c.48 0 1.06-1.6 2.26-3.28s5.58-5.32 11.88-6.21 9 .36 11.48 1.6a14.27 14.27 0 0 1 4.52 4.12s9 .18 11.17 8.38a22.31 22.31 0 0 0 -2.57-2.12c-.24 0-.47.38-.44.68a32.89 32.89 0 0 0 3.38 3.14 19.31 19.31 0 0 1 .28 2.5 35.16 35.16 0 0 0 -3.4-3c-.2 0-.38.35-.44.53a52.7 52.7 0 0 0 3.83 3.67zm-47.33-3.82a6.12 6.12 0 0 0 -2.34 5.76c.09.21 1 .56 1.18.33s-.23-2.28 1.75-4.76 3.75-2.39 3.75-2.39.27-.51.09-.71-1.45-.62-4.43 1.77z" fill="#1d1d1b"/></svg>