<svg height="64" viewBox="0 0 64 64" width="64" xmlns="http://www.w3.org/2000/svg"><path d="m46.56 56.87a11 11 0 0 1 -3.26-.49c-3.34-1-5.63-2.68-7-5a17 17 0 0 1 -1.3-2.88 35.81 35.81 0 0 0 -5.53-3 26.56 26.56 0 0 0 -4.47-1.5l-.27.08a16.34 16.34 0 0 1 -5.17.9 13.79 13.79 0 0 1 -1.82-.12c-4.89-.64-8.13-3.06-9.91-7.39-2.16-5.17 1.6-10.25 2.84-11.91 2.75-3.72 6.2-4.23 9.21-4.23a8.74 8.74 0 0 1 5.12 1.73l8.41-4a9.46 9.46 0 0 1 1.81-6.82c2.31-3.24 5.78-4.89 10.44-5.1h.48c2.78 0 6.64 1.14 9.2 6.55 2.66 5.66.14 9.31-1.9 12.31a10.53 10.53 0 0 1 -8.71 4.63 12.27 12.27 0 0 1 -4.94-1.55c-3.11 1.43-7.39 3.42-7.95 3.71a8.85 8.85 0 0 0 -1.16.83c1 .64 2.61 1.61 4.41 2.6 1.19.65 2 1.09 2.63 1.38 1.22-1 3.44-2.17 7.24-2.17h.41c6.81.14 10.56 5.29 11.22 7.61s.07 6.62-1.76 9.72c-1.48 2.51-4.73 4.13-8.27 4.13z" fill="#fff"/><path d="m54.67 43.57c-.48-1.67-3.65-6-9.34-6.16s-7.13 2.59-7.13 2.59a33.07 33.07 0 0 1 -4.07-2c-3.17-1.73-5.69-3.41-5.69-3.41a7.3 7.3 0 0 1 .24-1.79 10.07 10.07 0 0 1 2.22-1.8c.89-.48 9-4.19 9-4.19s3 1.79 4.85 1.79a8.52 8.52 0 0 0 7.07-3.77c2.18-3.11 3.81-5.83 1.71-10.3s-5.09-5.53-7.78-5.39-6.41.78-8.93 4.25a7.3 7.3 0 0 0 -1.13 6.77l-11 5.27a7.07 7.07 0 0 0 -4.79-2.1c-2.88 0-5.43.48-7.61 3.42-1.2 1.61-4.31 5.87-2.63 9.94s4.67 5.69 8.32 6.17 6.35-.9 6.89-.9a21.27 21.27 0 0 1 5.39 1.67 39.18 39.18 0 0 1 6.46 3.6 15.68 15.68 0 0 0 1.28 3.11c.84 1.44 2.4 3 5.87 4.13s7.67-.12 9.22-2.75 2.06-6.47 1.58-8.15zm-1.22 3.24c-.32-.24-4.83-4.59-5.27-4.67s-.84.4-.6.72 5.51 4.23 5.59 4.71-.16 2.15-.72 1.71-4.75-5-5.19-4.83a.69.69 0 0 0 0 1.28 31.1 31.1 0 0 1 4.52 4.07c0 .32-1 1.32-1.2 1s-3.24-3.87-3.72-3.95-1 .36-.67.64a43 43 0 0 1 3.55 3.75c0 .2-.64.68-1 .28s-3.47-3.87-3.74-3.87-1 .51-.32 1 3.83 3.12 3.27 3.24-1.63.52-2 0-2.52-3.12-3-3.16-1.16.44-.84.76 2.44 1.88 2 2a3 3 0 0 1 -2.28-.88 7.2 7.2 0 0 1 -2.47-3.39 7.93 7.93 0 0 0 -.88-2.68c-.24-.16-11.82-5.15-12.69-5.75s-1.64-.68-2-.32a8.91 8.91 0 0 1 -7.51.8c-4.15-1.27-4.71-3.4-4.83-6.27a8.51 8.51 0 0 1 5.27-8.14 8.36 8.36 0 0 1 4.55-.12c1 .44 2.44 2.72 3.12 2.72s1.68-1.32 5-3 7.62-3.23 7.74-3.59.32-.52.08-.84a5 5 0 0 1 -.08-4.39 8.2 8.2 0 0 1 5.87-4.96 9.15 9.15 0 0 1 7.06 1.32 9.49 9.49 0 0 1 2.94 4.35 7.25 7.25 0 0 1 -.12 3.87c-.36.72-.44.92-.68.72s-3.51-2.72-3.91-2.64-.64.48-.32.76 3.92 2.64 3.8 3-.52 1.55-.88 1.27-3.59-3.51-3.95-3.33-.35.6-.12 1 3.72 2.75 3.56 2.87-.84.8-1.08.52a26.33 26.33 0 0 0 -3.51-2.75c-.24 0-.92.56-.48.92s2.71 2 2.59 2.15-1.83.76-2.15.32-1.84-1.8-2.24-1.64-.48.36-.28.68 1.32 1 .84 1.08a2.11 2.11 0 0 1 -1.52-.2 12.16 12.16 0 0 0 -2.35-1.6c-.44-.08-11.22 5.31-12.14 5.87a2.25 2.25 0 0 0 -1 2c0 .32.16 1.79.16 2.23a7.57 7.57 0 0 0 -.08 1.55 30.63 30.63 0 0 0 5.43 3.43c2.88 1.56 5.39 2.92 6 2.88s1.28-1.44 2.2-2a10.52 10.52 0 0 1 6.78-.36 8.61 8.61 0 0 1 4.59 3.2s-2.51-2-2.91-2a.56.56 0 0 0 -.16 1 37.49 37.49 0 0 1 3.93 2.9 2 2 0 0 1 .68 1.16c.01.32.09 1.84-.23 1.6zm-36.57-20.32c-.36-.16-1.19.08-2.47 1.12a5 5 0 0 0 -1.56 3.75c0 .92.27 2.9.68 3.19.8.56.84-.64.8-1.08a11 11 0 0 1 0-3.07 7.47 7.47 0 0 1 2.39-2.79c.56-.32.52-.96.16-1.12zm22.56-7.67c.52-.48-.08-1.59.32-2.83s2.43-2.6 3.35-2.88.6-.76.08-.95-2.83.83-4.11 2.71-1.16 3.75-.88 4 .72.43 1.24-.05zm12.42.64c.67.36.79 0 .75-.4s-3.27-3.58-3.71-3.23-.52.68-.28 1a20.85 20.85 0 0 0 3.24 2.63zm.51-2.95c.52.24.28-.36.16-.68s-2.72-2.67-3.15-2.24a1.28 1.28 0 0 0 -.2 1 20.77 20.77 0 0 0 3.19 1.92z" fill="#1d1d1b"/></svg>