<svg height="64" viewBox="0 0 64 64" width="64" xmlns="http://www.w3.org/2000/svg"><path d="m28 64c-9.2-.06-16.21-8.71-18.85-12l-.52-.65a35.8 35.8 0 0 1 -3.07-4.35c-.18-.3-.34-.56-.48-.77a5.2 5.2 0 0 1 -.72-4.36 3.41 3.41 0 0 1 2.28-2.17h.13c-2.84-3.2-4.4-5.26-4.67-6.13-.65-2.17.98-4.57 2.59-5.57a4.72 4.72 0 0 1 1.12-4.37 5.12 5.12 0 0 1 3.8-1.8 5.66 5.66 0 0 1 .6 0 3.76 3.76 0 0 1 1.55-2 4.28 4.28 0 0 1 2.4-.71 5.46 5.46 0 0 1 .83.07 3.56 3.56 0 0 1 2.12-1.46 5 5 0 0 1 1.31-.18 4.45 4.45 0 0 1 1.14.14 10.77 10.77 0 0 1 .5-4.25 19.47 19.47 0 0 1 15.65-13.17 16.66 16.66 0 0 1 2.94-.27c7.14 0 11.23 5 12.77 6.94l2.25 2.73c6.78 8.23 6.78 8.33 6.78 9.26a3.21 3.21 0 0 1 -1.45 2.49c1.46 2.09 2.75 4.19 2.93 5.24a5.13 5.13 0 0 1 -1.36 4.73 2.92 2.92 0 0 1 -.37.34 5.28 5.28 0 0 1 .09 2.2 5.92 5.92 0 0 1 -2.89 4.46 6.78 6.78 0 0 1 -.84.35 4.47 4.47 0 0 1 -2.84 3 7.68 7.68 0 0 1 -2.83.62h-.06a4.12 4.12 0 0 1 -3 1.26 5.8 5.8 0 0 1 -.91-.08 6.1 6.1 0 0 1 -1.13-.32 13.82 13.82 0 0 1 -.79 7.47c-2.46 5.71-6.83 13.31-16.84 13.31z" fill="#fff"/><path d="m60 27c-.21-1.31-4.29-6.8-4.29-6.8a4.62 4.62 0 0 0 1.36 0 1.7 1.7 0 0 0 1.41-1.25c0-.44-6.25-7.89-8.59-10.77s-6.48-7.29-13.87-6a17.5 17.5 0 0 0 -14.14 12c-2 5.93 3.1 12.19 6.52 16.32s3.6 4.75 6.12 10.35 1 10.6-2.44 13.21-8 2.13-9.9.82-7.13-6.88-7.13-6.88a19.62 19.62 0 0 0 3.48 2.12 2.22 2.22 0 0 0 2.56-1.63c.71-1.68-1.36-3.15-1.36-3.15s2.45.6 3.48-.11a1.9 1.9 0 0 0 .65-2.34c-.16-.71-10.33-10.93-10.6-11.15a.49.49 0 0 1 .27-.82c.38 0 8.16 8.82 10.33 10.56s3 1.68 4.14.7a2.84 2.84 0 0 0 .49-3.59 26.55 26.55 0 0 0 -3.38-3.91s2.67 2.06 3.65 2.17 1.36-1.79 1.3-2.55-7.83-8.43-8.43-9.52.33-2.07.44-2.29-2-2.23-2-2.23a2.48 2.48 0 0 0 -2.5-.54 1.81 1.81 0 0 0 -1.25 2.17s-2-1.35-3.54-.32-.67 3.43-.67 3.43a2.6 2.6 0 0 0 -1-.82 3 3 0 0 0 -3.89.82c-1.63 1.74 0 4.35 0 4.35a2.45 2.45 0 0 0 -1.3.21c-.92.3-2.34 2.15-1.92 3.44s6.85 8.27 6.85 8.27a9.84 9.84 0 0 0 -3.59.32c-1.74.55-1.11 2.77-.54 3.59a40.75 40.75 0 0 0 3.48 5c1.91 2.31 8.88 11.82 17.85 11.88s12.89-6.85 15.12-12.13-.38-11.2-2.45-14.47-9.35-9.13-11.72-12.24.16-10.33 4-13 6.25-2.4 10.22-.77 6.36 5.28 6 5.82c0 0-1.31-.7-1.91-.49s-.59 2-.54 3 1.09 2.33.71 1.95a3.24 3.24 0 0 0 -2.48-.73c-1.58 0-1.74 2.78-1.74 2.78l-.81-.22a2.34 2.34 0 0 0 -1.91.11c-.49.38-1 2.88-1 2.88a7.6 7.6 0 0 0 -2.67-.43c-.87.16-1.19 2.12-.27 3.1s7.62 9 8.16 9.62-1 .66-1.52.76-.28.71-.11 1a7.45 7.45 0 0 0 4.13 3 2.18 2.18 0 0 0 2.67-1.41s.92.59 3.1-.28a2.42 2.42 0 0 0 1.74-2.72 7.2 7.2 0 0 0 1.79-.54 4 4 0 0 0 1.85-3 3.45 3.45 0 0 0 -.71-2.72 2.91 2.91 0 0 0 1.52-.93 3.23 3.23 0 0 0 .78-3zm-4 1.85c-.92.05-1.57-.22-1.74-.11a2 2 0 0 0 -.11 1.36c.17.22 1.85 2.39 1.25 3.64a1.69 1.69 0 0 1 -2.33.93c-.55-.33-1-.82-1.2-.76s-.71.49-.38.76 1.2 1.52.6 2.23-1.25 1.47-2.45.76-1.2-.76-1.52-.65a.58.58 0 0 0 -.38.65 1.24 1.24 0 0 1 -.74 1.66c-1.19.49-2.72-.7-2.72-.7s2.83-.55 2.18-1.91-9.54-10.71-9.33-11.09.22-.71.77-.49a12.86 12.86 0 0 1 2 .92c.11.17 7.94 9.2 8.54 9.36s2.17-.38 1.68-1.69-9-9.73-9-10.33a.93.93 0 0 1 1.25-.87c.65.22 8.43 9.52 9 9.79s2.72-.76 2-2.34-8.21-9.41-8-9.68a1.07 1.07 0 0 1 1.25-.11c.28.27 6.69 7.18 7.4 7.5s2.23-.21 2-1.25-8.15-9.35-7.72-9.95 1.2-.33 1.58-.33 1-.7 1.14-1.08a1.78 1.78 0 0 0 -.16-1.2 17.28 17.28 0 0 0 -8.76-7c-5.78-1.87-9.53-.13-12.91 3.19s-4.19 10.55-1.9 13.6 11 10.55 13 14.47 2.07 12.56-3.37 16.87-11.1 6.69-17.57 1.41-11.53-12.63-11.48-13.6c0-.55 1-.87 2.18-.66s3.26 1.42 3.75 1.36.6-.49.49-.65-8.59-8.7-8.92-9.46.54-3.1 1.69-2.72 2.55 2 3 1.68a.81.81 0 0 0 .33-1c-.11-.16-2.72-2.07-2.67-3.75s.76-2.45 1.91-2.29 2.93 1.63 3.26 1.52 1-.48.87-.65-1.52-2.66-.6-3.59 2-.38 3 .44 1.8 1.57 2 1.47.7-.66.59-.87-1.75-1.78-1.03-2.64 2.55.93 2.55.93a2.54 2.54 0 0 0 -.11 3.32c1.42 1.63 6.69 7 6.64 7.39s-.11.49-.33.49-8.59-8.26-9.73-8.64-2.18 1.19-1.47 2 8.43 8.43 10.33 10.33 2.4 3 1.47 3.7-1.14.82-2.93-.92-10.28-11.15-11.59-11.75-1.74-.33-2.18.38.6 2.5 1.91 3.81 10.28 10.71 10.17 11-.44 1-.87.54-10.39-9.58-11.42-10.02a1.52 1.52 0 0 0 -2.07.87c-.16.6.49 1.41 2.28 3.21s9.31 8.32 9.47 9.52.32 1.63-.16 1.63-5.06-4.13-6.37-4.24-2.23.76-2 1.46 8.1 8.44 10.61 10.12 8.43 1.25 11.36-1.79 6.48-5.61 4.84-11.64-4.35-8.87-8.81-13.87-7.88-10.61-5.6-15.61 6.29-9.52 14.68-9.85 18.27 14.42 18.11 14.69-2.12.6-4-.11-1.74-.55-2-.38-.1.54.11.71 7 8 7 9a1.55 1.55 0 0 1 -1.55 1.55z" fill="#1d1d1b"/></svg>