<svg height="64" viewBox="0 0 64 64" width="64" xmlns="http://www.w3.org/2000/svg"><path d="m44.82 59.71a13 13 0 0 1 -5.32-1.08c-1.12.11-3.73.34-6.53.34-3.61 0-6.19-.36-7.91-1.11a29.66 29.66 0 0 1 -11.22-8.38c-2.21-2.94-4.98-8.18-5.84-16.48a14.84 14.84 0 0 1 -4.3-7.26 15.25 15.25 0 0 1 2-11.83 18.16 18.16 0 0 1 16-9.57 16.18 16.18 0 0 1 8.42 2.29 14.72 14.72 0 0 1 3 2.54c2.69.18 11 1.11 15.85 5.7s7.08 8.13 8.03 12.33a25.23 25.23 0 0 1 .65 5.13c.83 1.51 2.56 4.8 2.84 6.43a17.54 17.54 0 0 1 -1.66 11.12c-2.57 5.25-5.78 8.36-9.51 9.25a19.36 19.36 0 0 1 -4.5.58z" fill="#fff"/><path d="m58.52 39.1c-.28-1.64-2.88-6.27-2.88-6.27a20.53 20.53 0 0 0 -.6-5.19c-.71-3.19-2.43-6.54-7.5-11.37s-15.17-5.19-15.33-5.19a20.22 20.22 0 0 0 -3.21-2.8 14.82 14.82 0 0 0 -11.8-1.36 16.3 16.3 0 0 0 -9.78 8 13.4 13.4 0 0 0 -1.8 10.34 12.57 12.57 0 0 0 4.27 6.74c.72 8.15 3.28 13.3 5.55 16.33a27.7 27.7 0 0 0 10.42 7.67c3.95 1.71 14 .56 14 .56 2.88 1.39 5.83 1.35 9 .6s5.94-3.61 8.14-8.16a15.67 15.67 0 0 0 1.52-9.9zm-2 1.88c-.12-.16-7-8.19-7.34-8.07s-.44.64-.24.8 7.5 7.83 7.54 8.07a7.43 7.43 0 0 1 -.16 2c-.12-.08-7.14-7.7-7.34-7.62a.62.62 0 0 0 -.28.79c.16.36 7.5 7.31 7.46 7.67s-.64 2.51-1 2.32-7-8.15-7.26-8a.58.58 0 0 0 -.16.92c.36.36 7.22 7.42 7.22 7.62s-1 2.08-1.19 1.88-7.39-8.62-7.75-8.54a.54.54 0 0 0 -.28.8c.16.24 7.71 8 7.59 8.14s-1.33 1.32-1.64 1.16-7-8.19-7.19-8.11-.63.84-.47 1 7.22 7.31 7.1 7.51-1.64 1.39-1.84 1.23-7.14-7.5-7.26-7.46-.56.52-.36.76 7.15 6.86 6.91 7.1a5.56 5.56 0 0 1 -2.12.72c-.24-.08-5.47-5.91-5.91-5.91s-.72.56-.4.8 5.35 5.31 5 5.35a10.31 10.31 0 0 1 -2.51-.2c-.32-.16-4.23-5.31-4.63-5.27s-.76.52-.36.88 3.67 4.15 3.31 4.11-1.52-.76-1.72-.76h-.87s-3.44-3.83-3.68-3.83-.87.32-.68.48 3.28 3.23 3.08 3.47a2.52 2.52 0 0 1 -1.76.24c-.16-.2-3.07-3.47-3.47-3.35s-.92.28-.6.56 3.14 2.91 2.74 2.95a3.39 3.39 0 0 1 -1.47-.12c-.24-.16-3.16-2.35-3.79-2.39s-1.08.4-.68.6 2.63 1.59 2.19 1.71a23.8 23.8 0 0 1 -6.62-1.59 19.8 19.8 0 0 1 -7.75-5.79 19.91 19.91 0 0 1 -3.88-8.55c-.44-2.63-.84-5.66-.84-5.66s-3.42-2.92-4.26-5.67a12.72 12.72 0 0 1 1.55-10.22c2.24-3.68 6.47-7.31 9.63-7.91s9.34.4 11.37 2.2a26.06 26.06 0 0 1 2.48 2.39s10.3 1 13.77 4a32.93 32.93 0 0 1 3.71 3.43s-1.23-.92-1.39-.72-.28.68.64 1.6 1.23 1.71 1.59 1.59.12-.87.12-.87 2.48 3.07 2.76 4.35c0 0-4-4.11-4.23-3.88s0 1.2.31 1.48 4.36 3.75 4.48 3.95a11 11 0 0 1 .52 2.52c-.24-.56-5.23-5.07-5.47-4.91a.63.63 0 0 0 -.2.84c.2.28 5.75 4.87 5.79 5.07s-.08 2.43.19 2.75a9.18 9.18 0 0 1 1 1.76c-.16-.2-6.74-6.79-7.06-6.75s-.48.44-.32.6 7.82 7 7.86 7.19a20 20 0 0 1 .6 2.71c.08 1.2.04 2.24-.08 2.1zm-43.07-25.87a9.51 9.51 0 0 0 -4 4.15c-1.08 2.12-1 5-.64 5.23.6.44 1.12-.16 1.08-.84a9.33 9.33 0 0 1 .88-4.31 10.27 10.27 0 0 1 3.79-3.47c.8-.4 1-.68.72-1s-.72-.24-1.83.24zm5.46 7.94a6.81 6.81 0 0 0 -1.75 3.95 3.8 3.8 0 0 0 1 2.92.73.73 0 0 0 .95-.52c.08-.4-.52-1.28-.63-2.12s.79-2.07 1.19-3-.04-1.79-.76-1.23zm22.2-6c-.4.08-.68.4-.56.72a13.25 13.25 0 0 0 2.76 2c1.51 1 1.83 3.51 2 4s.6.28.92 0 .08-.84-1.08-3.43a5.49 5.49 0 0 0 -4.04-3.34zm-1.52 3.76c-3.51-2.12-8.23-1.89-10.7-1.56-3.23.44-6.38 2.28-7.42 5.75s1.2 6.31 2.55 7.42 6.27 2.52 8.19 3.2 2.71 2.43 2.23 3.47-1.39 1.2-3.91.88-5.53-3.3-7.86-3.7-2.88 2.19-2.6 4 2.16 4.07 5.51 5.43 7.75 1 10.66 0a8.05 8.05 0 0 0 5.95-6.55c.72-3.75 0-5-2.44-6.59s-8.5-2.51-10.18-3.07a2.09 2.09 0 0 1 -.79-3.35c.75-.68 3.75-1.72 4.91-1.32s4.31 3.31 5.78 3.87 2.92-1.12 3.32-2.23.32-3.57-3.2-5.68zm2 5.83c-.4.95-1.52 1.75-3.35.27s-2.92-3.59-5.71-3.31-4.59 1.48-5.11 2.56-.4 3.51 1.43 4.35 7 1.79 9.39 2.91 3.71 1.68 2.67 5.27-2.47 5.51-6 6.31-6.9.64-8.86-.24-3.43-2.6-3.59-3.59-.16-2.64 1.67-1.68 3.52 2.79 7.15 2.63 5.23-1.27 4.75-3.51a4.88 4.88 0 0 0 -3.43-4.19c-2.24-.92-5.95-2-7.47-3.51s-1.32-4.79-.24-6.15 2.92-3.08 7.71-3a15.85 15.85 0 0 1 7.22 1.6c2.41 1.37 2.18 2.29 1.77 3.25z" fill="#1d1d1b"/></svg>