<svg height="64" viewBox="0 0 64 64" width="64" xmlns="http://www.w3.org/2000/svg"><path d="m24.5 60.76a13.17 13.17 0 0 1 -7.82-2.47c-3.27-2.44-3.57-4-3.86-6.76 0-.28-.06-.58-.1-.89-.28-2.31-.48-6.45-.57-8.42-1.9-1.14-6-3.6-7.12-4.5a7.31 7.31 0 0 1 -2.42-5.21 6.93 6.93 0 0 1 2.22-5.43 2.43 2.43 0 0 1 1.67-.64 3.34 3.34 0 0 1 .89.14c-.16-5.58-.39-15.23-.39-16.33.14-3.58 2.33-5.58 6.67-6.09a41.41 41.41 0 0 1 4.83-.24h2.95l2.75.08c1.37 0 2.44 0 3.35-.13 3.53-.37 7.29-.53 9.44-.53h1.56s1 0 1.53 0c1.4 0 2.85-.09 3.66-.17h.43c1.3 0 9.43.93 11.17 2.18s2.93 4 2.86 7.29c0 2.27.15 10.25.25 14a4.23 4.23 0 0 1 2.44 2.36c1.54 3.28-.77 6.24-2.15 8a16.15 16.15 0 0 1 -3.88 3.42l-.66.45a5.71 5.71 0 0 1 -1 .65c.06.59.16 1.4.25 2.1a46.23 46.23 0 0 1 .55 7.2c-.25 2.82-1.64 5-4.79 7.34a11.28 11.28 0 0 1 -7.21 2.37c-.44 0-.86 0-1.25 0h-.45c-1.5 0-5-.15-6.49-4.18a8.7 8.7 0 0 1 -.28-1 7.56 7.56 0 0 1 -5.16 5 13.65 13.65 0 0 1 -3.87.41z" fill="#fff"/><path d="m59.08 29.86c-1-2-2.58-1.2-2.58-1.2s-.36-12.93-.3-16-1-4.85-2-5.63-8.96-1.9-10.27-1.78a40.61 40.61 0 0 1 -5.51.12 85 85 0 0 0 -10.66.48c-4.07.41-9.28-.24-13.84.29s-4.85 2.76-4.92 4.2.48 19.88.48 19.88-2.64-2.28-3.28-1.68a5.31 5.31 0 0 0 .06 7.61c1.38 1.07 7.84 4.91 7.84 4.91s.24 6.34.6 9.34.12 4 3.18 6.29a11.58 11.58 0 0 0 9.88 1.61c2.75-.84 3.83-2.87 4.31-5.39a81.11 81.11 0 0 0 .54-9.16 5.82 5.82 0 0 0 2.39.72s-.24 8.68.66 11.14 2.7 2.81 4.67 2.87 4.67.36 7.67-1.91 3.83-4 4-5.93-1-9.4-.9-10 1-.66 1.86-1.32a18.35 18.35 0 0 0 4.19-3.53c1.51-1.92 2.85-3.9 1.93-5.93zm-48.36-20.75c.66-1 1.44-1.62 5.27-1.74s7.9.33 11 0 6.44-1 8.44-.87 6.56.3 8.86.27 7.79.51 9 1.41 1.71 2.82 1.71 5.6.27 9.28.33 11.68.15 3.44 0 3.71-1.94 1.89-2 1.71-.99-13.24-1.33-15.51-.57-4.46-2.84-4.85a100.26 100.26 0 0 0 -14.29-.39c-6.31.15-12.3.42-15.51.69s-5.63.53-6.16 2.27.06 7 .06 11.5.41 7.72.18 7.81a12.8 12.8 0 0 1 -2.58-1.55c-.21-.18-.24-12-.39-13.69s-.41-7.09.25-8.05zm23.8 28.74a16.14 16.14 0 0 0 -2.52-1.64c-2.09-1.21-2.54-1.21-3.37-1.11s-4.76.06-7.4-.09a14.08 14.08 0 0 1 -5.39-1.59s.39-13.89.6-15.63 1-3.5 2.25-3.89 9.82-1.44 12.69-1.68 12.19-.75 14.31-.75 4 .09 4.61 1.2 1 6 1.23 10.69.33 8.17.24 8.38a16.75 16.75 0 0 1 -6 2.64 21.62 21.62 0 0 1 -6.67 0 10.16 10.16 0 0 0 -3.66-.12 1.67 1.67 0 0 0 -1 1.17c-.04.48.08 2.42.08 2.42zm-3.35 3.81c-1.71-1.08-1.74-1.35-2-1.17s-.5.42-.41.57a3.61 3.61 0 0 1 .21.54s-.93-.93-1.23-.84-.57.39-.51.51a24.33 24.33 0 0 0 1.77 1.85 1.88 1.88 0 0 1 .56.81 3.07 3.07 0 0 1 -.19 1.07c-.06-.09-2.24-3.24-2.66-3.24a.61.61 0 0 0 -.63.63c.06.24 3.47 4.05 3.5 4.29s.12 1.67-.06 1.55-3.23-4.37-3.68-4.37a.59.59 0 0 0 -.54.69c.06.18 4 4.76 4.13 5s.24 1.65 0 1.44-3.74-4.79-4-4.67-.66 1-.45 1.25 4.34 4.4 4.37 4.55-.33 2-.47 1.83-3.88-5.11-4.09-5.05-.51 1-.36 1.17 3.57 4.31 3.57 4.58-.24.6-.42.36-3.48-4-3.63-3.95-.65.48-.53.72 3.29 3.53 3.26 3.71-.15.33-.39.21-3.38-3.33-3.5-3.3-.75.51-.6.75 3.2 2.67 2.81 2.85-1.43.24-1.55 0a11 11 0 0 0 -2.07-2.31c-.3 0-.9.21-.75.45s1.44 1.59 1.29 1.65a10.92 10.92 0 0 1 -3.68-1.74 6.36 6.36 0 0 1 -2.24-5.05 71.5 71.5 0 0 1 .81-7.81c.24-1.56.15-1.8-.33-2.07s-4.38-2.12-6.66-3.63a10.19 10.19 0 0 1 -3.53-3.36 4.14 4.14 0 0 1 .18-2.48c.13-.08 3.83 2.93 5.72 3.8s5.27 2.4 7.24 2.64a53.4 53.4 0 0 0 7.58.39 9.45 9.45 0 0 1 3.35 0c.39.2 2.37 2.72 5 2.87s5.69-1 6.23-1.05.9.36.66 1.11a5.69 5.69 0 0 1 -4.55 3.08c-2.79.36-4.82.24-6.53-.83zm26.2-9a14.69 14.69 0 0 1 -5.15 5 17.41 17.41 0 0 1 -3.65 1.71c-.42.06-.66.06-.75.27a12.69 12.69 0 0 0 .09 2s-.9-1.14-1.17-.9-.3.42-.15.66 1.56 2 1.56 2.15.27 1.53.15 1.47-1.38-2-1.68-2-.51.87-.39 1.17 2 2.37 2 2.72a11.52 11.52 0 0 1 .06 2.43c-.15-.18-2.31-3.77-2.64-3.44s-.54.57-.36.84a36.86 36.86 0 0 1 2.82 4c.09.51-.57 1.28-.78 1.14s-2.19-3.66-2.55-3.78-.86.42-.65.6a42.39 42.39 0 0 1 2.45 4c0 .18-.72 1.08-.87.84s-2.12-4-2.51-4.07-.66.54-.66.81 2.46 3.59 2.25 3.72-.71.48-.92.21-1.77-3-2.25-3-1 .42-.81.57 2.52 2.81 2.19 2.84a5.79 5.79 0 0 1 -1.89.06c-.24-.18-1.71-2.79-2-2.81s-.81.23-.75.5 1.31 2 1.07 2.13a6 6 0 0 1 -2.33-.66c-.54-.27-.78-.6-1-3.11s-.1-6.11-.1-6.11a8.63 8.63 0 0 0 4.55-.9c1.89-1.14 3.27-3.65 3.24-4.64a2 2 0 0 0 -1.56-1.83 15.28 15.28 0 0 0 -3.23.51c-.75.12-2.37.66-3.21.39a8.3 8.3 0 0 1 .21-2.93 34.46 34.46 0 0 0 6.17.69c2.66-.12 6.14-.54 8.71-2.1s5.75-4 6.23-4 1.55.89.26 2.86zm-36.62 4.86c-1.23-.3-2.95-1.27-3.35-1-.84.65-.18 1.13.66 1.4a26.79 26.79 0 0 0 4 .57c.39 0 .87-.33.66-.54s-.72-.13-1.97-.43zm-9.67-25.45a1.88 1.88 0 0 0 .72 1.65c.15.09.39.18.6-.27s-.27-2.75.09-3.26 2.66-.3 3.11-.39.27-.45-.06-.84-1.8-.42-3.35 0-1.05 2.3-1.11 3.11zm16.65 7.43a7 7 0 0 0 -6.38-.21c-3 1.41-4 5.09-3.44 7.51a7.62 7.62 0 0 0 4.58 5.54c2.66 1.29 5 1.2 7-.54s2.25-5.12 1.8-7.33a7.13 7.13 0 0 0 -3.56-4.97zm1.37 6.32c-.38 2.84-2.18 4.46-4.37 4.61a5.93 5.93 0 0 1 -4.82-2.25c-1.11-1.18-1.37-4.85 1.09-7.06a5 5 0 0 1 5.18-1c2.12.82 3.31 2.88 2.92 5.7zm12.76 7.12c3.53-.39 5.06-1.73 6.29-4.46a6.32 6.32 0 0 0 -.15-6.23c-.87-1.34-2.82-4.19-6.74-4.16s-5.12 1.05-6.65 2.55c-1.28 1.25-2 3.32-1.82 4.13a10.18 10.18 0 0 0 2.42 5.42c2.07 2.33 3.12 3.14 6.65 2.75zm-6.62-11.14c1-1 2.88-2.57 5.09-2.51a6.8 6.8 0 0 1 5.15 2.51 5.41 5.41 0 0 1 .45 5.2 5.87 5.87 0 0 1 -5.78 3.66c-3.23-.06-4.43-1.92-5.45-4.26a4.16 4.16 0 0 1 .54-4.6zm-13.24-.33c-1 .18-1.95 1.83-2.28 2.52a1.38 1.38 0 0 0 .28 1.62c.69.42.87-1.32 1.23-1.86s1.44-1.17 1.68-1.53.15-.93-.91-.75zm15.21 3.45a3.24 3.24 0 0 1 1.35-2.19c.83-.6.68-1.11 0-1.2a2.42 2.42 0 0 0 -2.07 1.53c-.93 1.83-.54 2.85 0 2.91s.79-.54.76-1.05zm12.36-15.68c.44.08 2.12.18 2.46.24s.66 1.22.8 1.67.94.42 1.18.16.18-1.53-1-2.55a5.13 5.13 0 0 0 -3.95-.7c-.3.34.08 1.1.51 1.18z" fill="#1d1d1b"/></svg>