<svg height="64" viewBox="0 0 64 64" width="64" xmlns="http://www.w3.org/2000/svg"><path d="m37.17 61.58c-5.28 0-8.45-.32-11.11-2a22.43 22.43 0 0 1 -3.13-2.58 21 21 0 0 1 -5.43 1.05 5.33 5.33 0 0 1 -.71 0 8.5 8.5 0 0 1 -5.22-2.76 10.4 10.4 0 0 1 -5.46-2.43c-2.46-2.26-3-4.66-2.46-6a2.8 2.8 0 0 1 1.56-1.45 8.23 8.23 0 0 0 2.6-1.94c2.15-2.27 4.63-6.08 4.92-7.54 0 0 .18-1 .21-1.1a6.92 6.92 0 0 1 -2.77-3 4.55 4.55 0 0 1 -.06-4.09 3.62 3.62 0 0 1 2.63-1.79 4.64 4.64 0 0 1 .85-.07 9.68 9.68 0 0 1 2.23.32 49.65 49.65 0 0 1 .74-6.67c.8-3.84 2.26-8.73 6.56-12.45a20.31 20.31 0 0 1 13.31-4.66 23.34 23.34 0 0 1 2.76.16c5.16.58 8.81 4.15 10.81 10.62 1.22 4 2.61 10.38 2.56 12.69v.11a12.87 12.87 0 0 1 1.73-.14 3.68 3.68 0 0 1 2 .47c1.71 1.11 2.28 4.67 1.46 6.75a10 10 0 0 1 -2.55 3.63c-.11.1-.23.19-.35.28a16.21 16.21 0 0 0 1.57 4.34 23 23 0 0 0 2.58 3.14 6 6 0 0 1 1.23 1.53 3.5 3.5 0 0 1 -.6 3.82 18.63 18.63 0 0 1 -1.69 1.46c.47 1.22.76 2.06.4 3s-1.72 2.55-6.67 3.08c-2.32.25-3.89.34-4.8.36a14.38 14.38 0 0 1 -9.7 3.86z" fill="#fff"/><path d="m58.17 48.48a1.52 1.52 0 0 0 .23-1.64c-.19-.44-2.31-2.31-3.67-4.43s-2.15-6.47-2.15-6.47a5.15 5.15 0 0 0 1.27-.71 8 8 0 0 0 2-2.88c.56-1.44 0-3.87-.72-4.35s-3.83.28-4.35.16-.32-.48-.28-2.32-1.16-7.78-2.48-12-3.75-8.68-9.02-9.27-10.74.67-14.53 3.95-5.15 7.66-5.91 11.34-.68 8.26-.92 8.62-3-.92-4.51-.64-1.75 1.6-1.13 3.16 2.67 2.44 2.91 2.72.16.48-.24 2.55-3.27 6.27-5.43 8.55-3.59 2.35-3.75 2.75-.08 2 2 3.83a9 9 0 0 0 5.15 2 6.54 6.54 0 0 0 4.36 2.66c2.15.24 6.46-1.31 6.46-1.31a21.62 21.62 0 0 0 3.68 3.11c2 1.32 4.47 1.72 10 1.72a12.41 12.41 0 0 0 8.86-3.87 47.32 47.32 0 0 0 5.43-.36c3.71-.4 4.87-1.44 5-1.84s-1.08-2.84-.88-2.95a26.81 26.81 0 0 0 2.62-2.08zm-9.51-7.43c.36.44 5.83 5.91 6.11 6.39s.52.88.4 1-1.4 1.16-1.76.84-5.41-6.19-5.74-6.43-.6-.56-.84-.32-.48.56-.28.68 6.27 6.15 6.27 6.31-.68.12-.52.56.72 2 .56 2.11-4.24-5.07-5.35-6-1.44-1.11-1.72-.91-.88.39-.36.67a39.32 39.32 0 0 1 4.57 4.41c1.44 1.63 2 1.87 1.64 2s-1.08.4-1.28.16-5.59-5.51-6-5.83-.44-.36-.84-.16-.71.4-.16.8 6.47 5.35 6.07 5.35-2.27.28-2.75-.08-3.84-4.6-4.44-4.68-1.32-.08-1 .36 4.27 4 3.79 4.07-1.52 0-1.52 0-2.79-3.67-3-3.55-.6.44-.32.76 2.81 3.11 2.81 3.27-.75 1.12-1 .64a8.68 8.68 0 0 0 -2.92-2.28c-.44 0-.52.36 0 .76s2.52 1.92 2.24 2.08-1.16.76-1.32.68-2.15-2.32-2.55-2.32-1.12.16-.72.44 2.67 2.24 2.19 2.36-1.07.44-1.27.32-1.72-2.24-2.12-2.16-1.08.56-.68.84 1.64 1.6 1.12 1.63a20.31 20.31 0 0 1 -7.87-1.35c-3-1.4-4.67-2.6-5.35-2.76s-3.31.8-5.5.8-2.44.2-2.72-.16-.72-2.83-1.4-2.87-4.15.44-6.3-1.92c-.19-.21 4.07-1.56 6.26-5.63s4-7.22 3.24-8.26-2.36-1.72-2.8-2.8-1.16-1.87.16-1.87 3.71.8 4.39.76.84-.68.84-1.76.12-7.39 1.4-11a15.83 15.83 0 0 1 7.19-9.06 19.3 19.3 0 0 1 11.17-2.3 11.8 11.8 0 0 1 5.87 3c.48.48.68.88.48.76s-1.92-1.8-2.23-1.4-.52 1 .35 1.4a15.62 15.62 0 0 1 3.2 2.6c.08.24 1 2 .56 1.76s-3.32-3.09-3.64-2.76-.35.68 0 1 3.73 2.87 3.84 3.1 1.19 2.76.88 2.36-3.84-3.31-4.2-3.11-.76.44-.12.75a38.49 38.49 0 0 1 4.79 4c.16.36.84 2.87.48 2.59s-3.94-3.43-4.07-3.35-.32.48-.08.6a40.43 40.43 0 0 1 4.35 3.91c0 .32.56 2.2.12 2s-4-3.84-4.35-3.6a1 1 0 0 0 0 1.24 53.32 53.32 0 0 1 4.51 3.51c0 .2.2 2.12 0 2s-4-3.07-4.23-2.95-.2.75 0 1a41.16 41.16 0 0 0 4.47 3 5.12 5.12 0 0 0 2.4.28 7.26 7.26 0 0 1 2.47-.16c.24.12-.16 1.63-.84 2.79a4.12 4.12 0 0 1 -2.07 1.72c-.52.28-.84.64-.84.8a3.09 3.09 0 0 0 0 .4s-2.24-2.64-2.72-2.48-.71.88-.55 1 3.31 2.47 3.55 3.07 1.64 3.91 1.24 3.53-4.16-4.26-4.3-4.1-.44 1-.2 1.2 5.19 4.75 5.31 4.91a22 22 0 0 0 2.43 3.52c.8.67 1.6 1.23 1.56 1.35s-.88 1.2-1 1-4.87-5.47-5.83-6.43-1.52-1.59-2-1.39.03.55.39.99zm-31.33-4c-.36.12-1 1.28-1.8 3.16s-2.48 3.07-2.64 3.59c-.24.8.08.84.52.84s1.16-.72 2-1.92a29.13 29.13 0 0 0 2.43-4.27c.76-1.59-.16-1.51-.51-1.39zm10.45-26.34c-1.19.32-4.59 3.44-5.34 5.23s-1.44 5.06-1.08 5.71a.82.82 0 0 0 1.15.2c.4-.2.08-2.39.88-5s3.8-4.22 4.61-4.85 1-1.61-.22-1.29z" fill="#1d1d1b"/></svg>