<svg height="64" viewBox="0 0 64 64" width="64" xmlns="http://www.w3.org/2000/svg"><path d="m8.84 50.16a4.47 4.47 0 0 1 -2.84-.96 13 13 0 0 1 -3.74-5.76c-.33-1.47-.64-8 2-10.19a7 7 0 0 1 4.2-1.62h.28a4.83 4.83 0 0 1 1.17.11l.22-.19a10 10 0 0 1 .09-3.29 7.28 7.28 0 0 1 4.28-4.66 3.62 3.62 0 0 1 2.48.06 5.76 5.76 0 0 1 0-.72c.52-2.43 6.23-2.62 6.29-2.62a2.6 2.6 0 0 1 1.32.31 8.79 8.79 0 0 1 1.27 1 2.88 2.88 0 0 1 1.36-.38 2.45 2.45 0 0 1 .89.19l.72.32a8 8 0 0 1 2.27-5.3 14.35 14.35 0 0 1 8.64-2.61h1a17.36 17.36 0 0 1 9.79 3.66 9 9 0 0 1 2.86 6.29v1.43a11.69 11.69 0 0 1 3.77 1.94 9.8 9.8 0 0 1 2.61 3.59c.13.3.21.5.27.62a6.73 6.73 0 0 1 1.59 3.15c.21 1.22.75 5.46-1.24 8.59s-4.4 5-7 5.67a40.68 40.68 0 0 1 -9.45 1h-.28c-2.14 0-4-.1-5.6-.2-1.06-.06-2.06-.12-3.06-.14a18.53 18.53 0 0 1 -3.25-.24 4.89 4.89 0 0 1 -2.13.28 13.17 13.17 0 0 1 -3.13-.24c-.44.26-1.16.33-4.72.33a4.24 4.24 0 0 1 -1.05-.07 3.47 3.47 0 0 1 -1.39-1c-.51.91-1.18 1.31-5.22 1.31a5.19 5.19 0 0 1 -1.49-.12 3.28 3.28 0 0 1 -1.25-.78 1.69 1.69 0 0 1 -1.15 1 4.37 4.37 0 0 1 -1.38.24z" fill="#fff"/><path d="m59.76 34.89a4.89 4.89 0 0 0 -1.27-2.33 7.9 7.9 0 0 1 -.47-1 7.79 7.79 0 0 0 -2.11-2.88c-1.19-1.09-4.73-2-4.73-2a.72.72 0 0 0 .24-.4 13.62 13.62 0 0 0 .06-2.4 6.9 6.9 0 0 0 -2.12-4.76 15.53 15.53 0 0 0 -8.64-3.22 12.8 12.8 0 0 0 -8.25 2.1 6.36 6.36 0 0 0 -1.56 4.27c0 2 .54 7.62.65 10.57s0 7.63-.11 10.09.23 4 .47 4.2.59.29 3.2.35 5.27.36 8.88.34a38.84 38.84 0 0 0 9-.94c2.27-.57 4.31-2.43 5.82-4.81s1.18-5.88.94-7.18zm-2.51 3.58c-.12-.12-2-4.66-2.19-4.81s-1.15.06-1 .35 2.74 5 2.75 5.31-.48 1.25-.58 1.08-3.4-6.78-3.61-7.18-.57-.53-.78-.42-.16.39-.1.49 3.35 6.6 3.53 7a2 2 0 0 1 .31 1c-.06.19-1.49.75-1.7.51s-3.73-8.86-4-9a1 1 0 0 0 -.82.31c0 .11 4.32 8.44 4.25 8.62a8.23 8.23 0 0 1 -3 .48 26.82 26.82 0 0 1 -1.55-4.16c-.51-1.77-1.65-4.72-2.25-4.76a.44.44 0 0 0 -.48.64 20.36 20.36 0 0 1 1.97 4.15c.73 2.25 1.5 3.89 1.54 4.12s-.13.27-.33.33-1.09.34-1.5-.08-2.23-5.07-3-6.78-.91-2.11-1.35-2.07-.64.21-.54.71 2.58 5.13 3 6a7.81 7.81 0 0 1 .82 2.26 1.7 1.7 0 0 1 -1.23.16c-.22-.12-3.24-6.39-3.63-7s-.57-.77-1-.44.09.82.51 1.57 2.71 5.14 2.89 5.49.19.66 0 .64-1.35.17-1.49 0-2.69-6.35-2.89-6.42-.68.22-.64.66 1.68 3.8 2.11 4.71.62 1.14.5 1.19-1 .18-1.22-.14-2.69-5.67-2.83-5.79-.73 0-.59.61 2.87 5.19 2.78 5.3a7.11 7.11 0 0 1 -2 0c-.15-.06-1.62-3.58-1.9-3.59s-.77.43-.72.55 1.78 3.06 1.56 3.06a7.52 7.52 0 0 1 -1.28-.13c-.06-.06-1-2.11-1.21-2.11s-.68.45-.62.7.87 1.47.74 1.56a4.11 4.11 0 0 1 -1.59 0c0-.12-.15-8.19-.18-11.2s-.65-7.68-.6-9.16a4.78 4.78 0 0 1 .58-2.62c.69-1.09 1.34-2 4.32-2.56a16.49 16.49 0 0 1 8.44.55c2.09.88 4 1.93 4.31 3.86s.49 3.13.21 4-.67 1.46-.43 1.73a1.14 1.14 0 0 0 .94.31c.15-.07.36-.49 2.17.31s3.28 1.56 4.06 3.13a6.21 6.21 0 0 1 .81 2.14c0 .2 0 1.37-.05 1.19s-.6-1.32-.85-1.26-.77.42-.65.54a21.22 21.22 0 0 1 1.56 3c0 .31-.16 1.48-.28 1.36zm-48.7-4.84a5.17 5.17 0 0 0 -3 1.16c-1.61 1.36-1.69 6.58-1.33 8.21a11.45 11.45 0 0 0 3.05 4.64 2.66 2.66 0 0 0 2.34.4c.37-.13.45-12.22.36-13.35s-.36-1.04-1.42-1.06zm-.42 11.37c-.11.08-.72-.36-1.41-1a5.52 5.52 0 0 1 -1.45-3.11 12.47 12.47 0 0 1 .31-3.89 4.67 4.67 0 0 1 2.2-2.61c.19-.06.27 1.74.24 2.8s.21 7.75.11 7.81zm7-19.5a5.42 5.42 0 0 0 -3 3.24 11.87 11.87 0 0 0 .08 3.6c0 .22-1.09.81-1.09 1.06s.09 1.3.21 4.51.06 7.68.19 8a6 6 0 0 0 1.63 1.84c.38.1 4.28 0 4.43-.26s-.09-19.28-.16-20.28a1.86 1.86 0 0 0 -2.24-1.7zm.09 19.55a5.91 5.91 0 0 1 -2.22.25c-.19-.15-.27-6-.37-8.06s-.33-3.43-.29-3.64.27-.37.71-.31 1-.12.81-.52a4.71 4.71 0 0 1 -.59-2.68c.14-1.5 1.72-3.06 1.92-2.88s.07 6.87.1 8.27.05 9.44-.02 9.58zm15.55-9.64c0-2-.25-9.85-.34-10.3s-2.73-1.71-3.07-1.86-1.41.79-1.72.67-1.5-1.27-2-1.55-4.61.73-4.66 1-.06 6.35 0 8.46-.12 12.64 0 12.94a21.6 21.6 0 0 0 2.27 2.83c.18 0 4.25 0 4.33-.09s0-19.67 0-19.67a.11.11 0 0 1 .2 0c.12.15.27 6.39.28 7.7s-.06 9.26.06 9.46a15 15 0 0 0 .94 2.35 14.12 14.12 0 0 0 3.88.1c.18-.16 0-1.2 0-2.21s-.1-7.85-.12-9.82zm-7.77 8.59a10.18 10.18 0 0 1 -2.76 0c-.19-.14-.18-19.19-.15-19.54a5.72 5.72 0 0 1 2.76-.57c.29.21.32 19.95.15 20.11zm6 .6a6.2 6.2 0 0 1 -1.77 0c-.09-.09 0-9.87-.07-12.7s-.48-6.85-.42-7a1.48 1.48 0 0 1 1.87 1.42c0 1.51.47 10.21.45 13.26s.07 4.91.01 4.98zm13.1-25.9c-1.56-.48-4 .34-4.78.66s-1.29.62-1.29.9c0 .92.8.58 1.45.46a8.84 8.84 0 0 1 4.36-.74 5.07 5.07 0 0 1 3.43 2.2.67.67 0 0 0 1.06-.26c.12-.4-.2-.9-.82-1.52a8.86 8.86 0 0 0 -3.34-1.74zm10.51 11c-.87-.34-1.13.76-.93.9a3.31 3.31 0 0 1 1.13.56c.56.48.86 1.14 1.22 1.38a.74.74 0 0 0 1.17-.54c.04-.48-1.64-2-2.52-2.32z" fill="#1d1d1b"/></svg>