<svg height="64" viewBox="0 0 64 64" width="64" xmlns="http://www.w3.org/2000/svg"><path d="m19.15 38.93a4.14 4.14 0 0 1 -2.31-2.83s-.39-3.67.82-5.06a2.21 2.21 0 0 1 1.68-.78 2.93 2.93 0 0 1 .41 0l1.69.13a3.06 3.06 0 0 1 -.82-.79 10.87 10.87 0 0 1 -1.54-3.15c-.1-.57.05-4.24 1.24-5.65a2.32 2.32 0 0 1 2.7-.68c.4.14 2.35.7 4.23 1.24s3.75 1.11 5.75 1.7c-1.13-.75-2.12-1.4-2.82-1.81-1.07-.63-1.86-1.07-2.45-1.4-1.44-.79-2.32-1.29-2.62-2.47-.06-.13-.15-.3-.25-.48-.6-1.13-1.35-2.54-.71-3.9.35-.74 3.07-4.15 4.64-4.62a2.18 2.18 0 0 1 .57-.08c1.14 0 5.5 2.94 8.11 4.78-.46-.57-.83-1-1-1.22-1.37-1.49-1.69-2-1.88-2.85s0-4.81.73-5.76c.48-.64 2.2-2.74 4.22-2.74a2.76 2.76 0 0 1 1.27.3c.54.27 1.16.58 7.14 9 2.28 3.22 5.72 8.19 6.13 9a3.85 3.85 0 0 1 -.71 4.73 12.29 12.29 0 0 1 -3.47 1.46 9.38 9.38 0 0 1 -2.22 3.63 6.8 6.8 0 0 1 -1.19 1.07 5.2 5.2 0 0 1 -.2 2.88 7.59 7.59 0 0 1 -1.49 2.28 8.94 8.94 0 0 1 .11 3.25 2.74 2.74 0 0 1 -1.11 1.89 3.89 3.89 0 0 1 -2.31.47l.86.28a2.91 2.91 0 0 1 1.63.49 2.27 2.27 0 0 1 .9-.3c.11 0 2.81-.34 4.59-.34a4.37 4.37 0 0 1 2.1.36c.89.48 3.44 2.9 3.84 4.09s.46 11.08.46 11.17c0 2.32 0 5.49-3.5 6.23-1 .22-3.92.27-10.79.33-5.31 0-11.33.11-15.5.35-4.49.26-7.25.37-9.21.37-2.63 0-3.94-.2-4.84-.71-2-1.13-2.37-2.89-2.86-6.63-.46-3.54-.8-6.9-1-9.71-.26-4.2.3-5.45.94-6.16a2.47 2.47 0 0 1 1.71-.84h.28c.42 0 1.13-.09 1.9-.09 2.67 0 4 .76 4.73 1.64a.93.93 0 0 1 .16-.18 3.08 3.08 0 0 1 2.38-.69z" fill="#fff"/><path d="m53.51 45.67a12.48 12.48 0 0 0 -2.88-3c-.67-.36-4.77.11-5.51.2-.31 0-.11 1.44 0 2.87s.76 6.07.4 7.07-1.19.92-4.55.84-11.53 0-16.56-.2-6.83-.28-7.11-.52-.76-8-.88-10.1-4.67-1.43-5.42-1.39-.92 2.28-.76 4.87.48 5.91 1 9.58.76 4.55 1.76 5.11 4.59.56 12.93.08 24.12-.24 26-.64 1.92-1.91 1.92-4.27-.18-10.02-.34-10.5zm-3.12 7.87c-.12 3.79.16 4.59-.39 4.63s-10.9.32-19.49.12-14-.12-15-.12-1.83.4-2.23 0-1.32-5.23-1.6-8.3-.44-6.59 0-7c.13-.15 2.84-1 3.47.64s.76 8.82.76 9.62.84 1.12 1.68 1.16 7.78.52 15.41.6 12.25.12 12.81 0 1.36-.44 1.32-2.56-.88-8-.72-8.18 3-.56 3.32-.08a43 43 0 0 1 .66 9.47zm-29.54-.8c.28.16.44 0 2.92.12s12.73.2 15.23.14 4-.08 4.27-.64a8.66 8.66 0 0 0 -.12-3.47c-.2-1-1.88-.72-5.07-.8s-18.23-.09-18.23-.09c-.43.08-.39 2.83-.35 3.19s1.07 1.39 1.35 1.55zm0-3.67c0-.24 11.22-.08 15.37-.08s5.63 0 5.67.28.2 2.15 0 2.19-6.35 0-12.13-.24-8.39.08-8.71-.16-.16-1.75-.16-1.99zm4.23-2.24c3.28.24 13.82.56 15.57.48s2.12-.32 2.4-.56.48-3.39-.05-3.75-.84-.12-1.76-.12-6.42 0-12.85-.36-8.82-.48-9-.28a6.34 6.34 0 0 0 0 3.19c.31.92.59.44 1.35.92s1.11.24 4.38.48zm-4.91-3.67c.18-.15 14.26.52 17 .68s4.23 0 4.35.32.32 1.31-.32 1.31-10.7-.51-14.85-.63-5.95.08-6.11-.12-.24-1.36-.03-1.56zm-.12-6c.52.28 6.87.76 12.9 1s9.22.52 9.7.2.4-3-.08-3.63-8.46-1-13.49-1.56-9.44-.82-9.74-.88c-.64-.12-.64 3-.56 3.55s.79 1.05 1.31 1.33zm.4-3.91c.21-.11 8.79 1 12.38 1.36s8.34.63 8.38.91.28.92-.12 1-8.38-.4-12.05-.6-8.55-.44-8.63-.68a5.24 5.24 0 0 1 .08-1.98zm1.76-4.79c.4.56 1 .56 3.95 1.08s15.85 4 16.41 4.27 1.52-1.24 1.84-2a4.55 4.55 0 0 0 0-2.43c-.12-.72-.68-.92-6.07-2.64s-15.71-4.55-16.09-4.74c-.88-.44-1.28 3.67-1.2 4.15a9.2 9.2 0 0 0 1.2 2.32zm.6-5.35c.09-.08 6.43 1.55 10.54 2.91a88.06 88.06 0 0 1 9.65 3.65c.12.23.28 1.75-.76 1.51s-12.77-3.39-15.69-4.07-3.67-.4-3.91-.92a5.59 5.59 0 0 1 .21-3.07zm8.38-3.6c3.32 2 12.34 8.47 12.86 8.79s1.31-.12 2.11-1 2.12-2.74 1.84-3.3-7.31-6-9.7-7.95a72.25 72.25 0 0 0 -8.9-5.75c-.68.2-3.08 2.88-3.4 3.56s1 2.43 1.08 3 .84.71 4.15 2.66zm-1.59-7.73c.23-.1 5.94 3.79 10.38 7.23s6.26 4.87 6.18 5.23-.44 1.79-1.43 1.31-14.86-10.46-15.49-10.86-1.28-.83-1.28-1a7 7 0 0 1 1.64-1.91zm8.4-1.28c1.44 1.56 9.94 12.7 10.3 12.82a12.66 12.66 0 0 0 3.79-1.32 1.86 1.86 0 0 0 .24-2.28c-.54-1.01-11.33-16.58-12.39-17.12s-2.82 1.61-3 1.85a16.71 16.71 0 0 0 -.42 4c.12.38 0 .55 1.48 2.05zm1.3-6.42c.56.15 11.57 15.05 11.37 15.6s-.44 1.56-1 .72-11.61-15.29-11.67-15.4.74-1.08 1.3-.92zm-27.19 40.72c-.08.24.32 3.91.4 4.39s.72.2 1 0 0-3.32 0-3.64.95-.63.8-.87-1.99-.5-2.2.12zm36.17 9.86a11.68 11.68 0 0 0 -.08 1.67c0 .2-3.11 0-3.31.2a.9.9 0 0 0 .23 1.08 16.75 16.75 0 0 0 4.2-.12c.6-.2.28-1.64.24-2.51s-1.16-.52-1.28-.32z" fill="#1d1d1b"/></svg>