<svg height="64" viewBox="0 0 64 64" width="64" xmlns="http://www.w3.org/2000/svg"><path d="m32.11 64a35.28 35.28 0 0 1 -23.52-9.26 25.35 25.35 0 0 1 -7.19-13c-.28-1.73-.76-6 .76-8a2.79 2.79 0 0 1 1.9-1.12h.23a10.88 10.88 0 0 1 -1.75-1.1c-1.69-1.64-.14-11.69 3.94-17.2 5.27-7.12 11.31-11.41 18.99-13.48a24.76 24.76 0 0 1 6.53-.84 31.18 31.18 0 0 1 19.19 6.77c6.65 5.56 11 15.17 11.53 20 .64 5.44-.29 16.12-5.46 23.23-5.64 7.72-10.61 13.25-23.26 14-.65 0-1.29 0-1.91 0z" fill="#fff"/><path d="m60.8 27c-.54-4.66-4.8-13.73-10.8-18.74s-15.89-7.76-24-5.55-13.59 6.86-18 12.76-4.36 14.41-4.11 14.65c1 1 14.33 7.15 15.22 7.28s.48-.29 2.84-1.34 2.46-.09 3.2-.32 5.74-7.4 5.9-8.23-.51-3.13-.54-6.39a7.88 7.88 0 0 1 7.18-7.75c4.91-.7 8.71 1.69 10.15 4.28s2.43 7.88.32 11.23-6.8 2.3-7.28 2.39-9.13 9.26-9.19 9.61a8.51 8.51 0 0 1 -1.85 4.47c-1.69 2.14-4.79 3.67-9.23 1.76s-4-7.22-4.05-7.6-11.14-5.08-12.29-4.95-1.56 3.1-1 6.86a23.64 23.64 0 0 0 6.65 11.91 32.94 32.94 0 0 0 24 8.68c12.2-.67 16.73-6.26 21.77-13.18s5.65-17.24 5.11-21.83zm-9.13 16.69c-3.8 5.46-7.53 10.15-14.67 11.46s-14.21-.07-18-2-7.9-4.8-10.2-8.41-2.87-7.5-2.52-7.53 8.3 3 8.4 3.32.22 6.48 4.94 8.62 8.85 1.21 11.4-1.92a11.83 11.83 0 0 0 2.81-5.52s7.63-8.11 7.85-8.11 6.67.61 9.06-4.46.32-10.31-1.3-12.9-7.31-6.61-14-5.39a11.33 11.33 0 0 0 -9.29 11.07c.16 3.7.76 4.95.76 4.95l-3.57 5.07a5.63 5.63 0 0 0 -2.65.58 6.49 6.49 0 0 0 -1.88 1.34s-10.07-4.09-12.05-5.94c-.26-.24.13-8.39 4.09-12.57s9-8.3 14.71-10.06 15.83-1.18 22.53 4 8.94 14.65 9 17.62-1.62 11.32-5.42 16.78zm-31.85-30.93c-.32-.13-3.36.77-6.26 3.51a9.28 9.28 0 0 0 -3 6.35 2.11 2.11 0 0 0 1.59.29c.29-.16.13-2.17 2.46-5.17a12.54 12.54 0 0 1 5.59-4c.13-.08-.07-.85-.38-.98zm2.77 29.61a12.65 12.65 0 0 1 -2.95-.44c-.93 0-.82 2.79 2.33 4.26a5.29 5.29 0 0 0 7.27-3.73c.81-3.12-1.2-4.88-3.56-5.23s-3.09 1.23-3.09 1.44.9.62 1.6 1.41-.41 2.23-1.6 2.29zm2.52-2.71c-.52-.56-1.08-1-.61-1.18s3.62-.06 3.44 2.62-1.9 3.64-4.08 3.84-2.82-1.51-2.5-1.63 2 .69 3.28-.39a2.37 2.37 0 0 0 .47-3.26zm16.57-9.95c3.48-1.31 7-4.05 5.46-9.29s-5.84-5.65-8.49-5.17c-6.39 1.15-8 6.51-6.67 10.15s6.22 5.6 9.7 4.31zm-2.27-12.83c2.15-.29 5.17.06 5.68 3.64a6 6 0 0 1 -5.29 7.21c-4 .67-5.75-2.27-6-4.63s2.01-5.74 5.61-6.22zm-1.31 9c3.64 1.34 5.59-1.92 5.56-3.93a3.36 3.36 0 0 0 -4-3.16c-5.16.67-5.19 5.72-1.56 7.06zm2.53-4.66a1.19 1.19 0 0 1 1.4.48 1.91 1.91 0 0 1 -.7 2.42c-1.31 1.15-2.27.64-2.46.42a2.37 2.37 0 0 1 1.76-3.35zm-10.06 31c-.22-.07-1.18.7-1.18.7a16.62 16.62 0 0 0 2.81 2.33c.13 0 .7-.45.73-.64a13.31 13.31 0 0 0 -2.36-2.46zm3-1c-.35-.22-1.2.61-1.21.76 0 .36 2.39 2.21 2.65 2.27s.67-.32.83-.51-1.92-2.36-2.27-2.58zm1.5-2.08c-.16-.06-1.15.83-1.15.83.07.2 3.26 3.13 3.35 3.2a1.29 1.29 0 0 0 .83-.55 26.15 26.15 0 0 0 -3.03-3.54zm2.17-2.14c-.22-.07-1 .8-1 .95.07.42 5.11 4.06 5.2 4.12s.67-.45.74-.64a50.31 50.31 0 0 0 -4.94-4.43zm2.17-2.27c-.19 0-1.07.81-.95.93s5.26 3.83 5.42 3.86a.83.83 0 0 0 .64-.45 45.53 45.53 0 0 0 -5.11-4.39zm2.75-2.08c-.26-.09-1 .73-1 .9s4.56 3.76 4.66 3.8.61-.45.64-.67a40.6 40.6 0 0 0 -4.3-4.08zm2.07-2.33c-.25-.06-1.19.81-1.11 1a44.88 44.88 0 0 0 5.29 4.09c.2 0 .55-.51.61-.77a39.85 39.85 0 0 0 -4.79-4.37zm2.68-2.68c-.22-.09-1.34.75-1.11 1.06s4.31 3.3 4.31 3.3.57-.58.51-.8a43.33 43.33 0 0 0 -3.71-3.61zm2.68-2.1c-.44-.13-1.11.68-1 .86a19.86 19.86 0 0 0 3.71 2.46c.22 0 .44-.45.47-.8s-2.77-2.45-3.18-2.57zm1.95-1.79c-.22 0-.75.54-.73.7a8.64 8.64 0 0 0 2.49 1.69c.22 0 .54-.6.51-.79a9.28 9.28 0 0 0 -2.27-1.65zm3.46-1.61a9.11 9.11 0 0 0 -2-1.73c-.23-.06-.89.94-.83 1.06a12.16 12.16 0 0 0 2.53 1.53c.16 0 .35-.61.3-.86z" fill="#1d1d1b"/></svg>