<svg height="64" viewBox="0 0 64 64" width="64" xmlns="http://www.w3.org/2000/svg"><path d="m31.61 64a33.65 33.65 0 0 1 -22.46-8.92 28 28 0 0 1 -9-19.73 39.66 39.66 0 0 1 4.63-20.61c5.78-10.81 16.63-12.93 21.85-13.95.69-.14 1.28-.25 1.74-.36a17.28 17.28 0 0 1 4.15-.43 39.13 39.13 0 0 1 15.48 3.47c6.41 2.95 10.91 7.44 13 13 6.14 16.3 2.46 31.56-9.85 40.81a32.48 32.48 0 0 1 -19.54 6.72z" fill="#fff"/><path d="m59.21 17.14c-5.14-13.65-24.53-16.32-30.37-14.84-3.76 1-16.22 1.88-22.35 13.36s-7 28.09 3.95 38 26.81 11.66 39.56 2.06 14.35-24.93 9.21-38.58zm-.21 19.12c-.08.22-1 2.37-1 2.37s-4.6-5.86-4.82-5.86-.52.89-.37 1.11 4.74 5.87 4.74 5.87l-1.26 2.07s-4-5.41-4.3-5.49-.89.45-.67.67 4.45 5.42 4.23 5.86a15.37 15.37 0 0 1 -1.85 1.93s-3.42-5-3.64-5.12-1 .67-.81 1.11 3.56 5 3.33 5.35-1.85 2-1.85 2a51.33 51.33 0 0 0 -3-4.75c-.3-.07-1.12.89-.89 1s3.34 4.45 3.19 4.75a14 14 0 0 1 -1.86 1.48l-2.74-4.23-1 1s2.45 3.93 2.37 4.3-2.15 1.48-2.15 1.48l-2.45-4.3s-1 .52-1 .74 2.45 4.45 2.45 4.45l-1.85.82s-2.23-4.45-2.45-4.53-1-.14-.89.45 2 4.67 2 4.67l-1.85.6s-2-4.08-2.23-4.23-1.18.22-1 .44 2.23 4.45 1.93 4.53-2.59.3-2.59.3a39.33 39.33 0 0 0 -1.93-4c-.23-.07-1 .15-.89.52s1.41 3.63 1.41 3.63h-2a32.11 32.11 0 0 0 -1.63-3c-.3-.29-1.26.22-1 .45s1.34 2.74 1.12 2.82a25.69 25.69 0 0 1 -17.66-6.24c-8.16-7-9.42-17.73-8.31-24.18s6.05-17.62 15.99-21.1c3.5-1.23 9.86-4.3 20.1-1.78a27.5 27.5 0 0 1 16.32 11.27 19.28 19.28 0 0 1 1.56 4.08s-3.41-4.38-3.93-4.46-.82.75-.59 1.12 4.52 4.6 4.82 5.12a27.45 27.45 0 0 1 .9 3.65s-3.86-5-4.3-5.12-.75.74-.6 1 5 5.56 5.12 5.86.45 3.34.45 3.34-4.68-5.57-5-5.64-.52 1-.52 1 5.12 5.64 5.19 5.93.15 3.19.15 3.19-4.9-5.93-5.27-5.93-.44 1.26-.44 1.26 5.28 6.11 5.22 6.37zm-43.49-21.44a14.68 14.68 0 0 1 6.09-4.75s-.45-1-.74-1-3 .89-6.24 4.38-4.09 6-3.93 6.45a1.43 1.43 0 0 0 1.49.6c.44-.27.74-2.2 3.33-5.68zm27 2.15c-1.71.15-24.93 10.76-28 12.61s-2.45 3.86-1.71 4.9 8 2.82 8 2.82c.51.37 4.67 9.05 5.34 9.12s5.19-6.16 5.64-6.3 2.74.81 4.3 1.33 5.12 2.08 6.38 1 3.47-16.45 3.99-20.81-2.22-4.82-3.93-4.64zm1.41 3.19a15.63 15.63 0 0 1 -1.34 1.58l-.19-1.28 1.33-1.34a4.25 4.25 0 0 1 .21 1.04zm-30 11.94c.36-1.34 3.49-2.37 6.9-4.22s21.44-9.58 22-9.65.15.59.15.59-21 17.07-21.37 17.07-8.39-1.26-7.72-3.79zm28-9.42c-.1.15-1.73 2-1.73 2a11.58 11.58 0 0 1 -.4-2.13s1.64-1.48 1.69-1.33.52 1.31.37 1.46zm-2.44 3.32-1.34 1.73-.94-3s1.54-1.38 1.58-1.24.7 2.51.7 2.51zm-6.93 2.62c.15-.1 1.24-1.24 1.34-1.09a32.4 32.4 0 0 1 1.38 4.25c-.1.2-1 1.29-1 1.29zm1.09 5.38-.94 1-1.93-4.9c.15-.15.94-.84.94-.84zm1.09-7.52c.2-.15 1.19-1.09 1.19-1.09l1.23 3.41-1.09 1.5zm-8.56 18.3s-3.71-7.81-3.66-8l1.73-1.19s3.17 7.57 3.07 7.91-1.14 1.29-1.14 1.29zm2-2.18s-3.12-7.51-3-7.81a4.68 4.68 0 0 1 1.14-1c.15 0 3 7.37 3 7.57a10.23 10.23 0 0 1 -1.11 1.25zm1.63-2.27c-.1-.2-2.77-7-2.62-7.22a4.11 4.11 0 0 1 .89-.74l2.38 7s-.52 1.17-.62.97zm1-3.07s-2-5.39-1.83-5.74a2.44 2.44 0 0 1 1-.79 31.68 31.68 0 0 1 2 5 15 15 0 0 1 -1.1 1.54zm10.2 3.89c-1 .52-8.9-2.52-8.9-2.81s12.35-17.29 12.79-17.74c.27-.26-2.89 20.04-3.89 20.55z" fill="#1d1d1b"/></svg>