<svg height="64" viewBox="0 0 64 64" width="64" xmlns="http://www.w3.org/2000/svg"><path d="m26.48 64a34.85 34.85 0 0 1 -9.63-1.48c-9.81-2.83-12.38-12-13.22-15-1.1-3.9-2-12.16 1.39-18.34a22.24 22.24 0 0 1 10-9.64 15.29 15.29 0 0 1 6-1.15 11.16 11.16 0 0 1 3.75.57 10.53 10.53 0 0 1 5.23 4.81c-.2-16.55-.19-19.34 0-19.93.39-1.68 2.57-3.61 5.2-3.8h1.52c2.44 0 6.66.19 8.07.37s2.36 1.54 3.33 3.11c1.06 1.72 2.38 3.85 4.57 4.84 1.76.78 3.16 1.28 4.31 1.64 2 .7 3.27 1.17 3.87 2.54s.78 12.48 0 14.19c-.5 1.07-1.87 2.85-5.39 2.85h-.33a25 25 0 0 1 -5.7-.76c.15 5.1.34 14.76-.27 17.53-.87 3.76-4.7 10.65-10.63 14.36a22.5 22.5 0 0 1 -12.07 3.29z" fill="#fff"/><path d="m59.07 13.35c-.45-1-2.68-1.21-7.22-3.26s-5.85-7.6-7.35-7.8a88.91 88.91 0 0 0 -9.21-.29 4.06 4.06 0 0 0 -3.45 2.31c-.2.83.19 24.67.25 32.66s-.57 9.4-4.54 9.59-6.39-1.28-5.49-6.39 4.47-4 5.37-4.73 1.4-8.82 1.21-9.85a8.32 8.32 0 0 0 -4.54-4.73 13.17 13.17 0 0 0 -8.25.51 20.24 20.24 0 0 0 -9.14 8.83c-2.94 5.27-2.36 12.8-1.21 16.85s3.71 11.25 11.89 13.61 14.89 1.66 20.14-1.6 8.95-9.65 9.71-13.1.13-20.08.13-20.08.71.26 1.86.83a17.74 17.74 0 0 0 5.94 1c2.18.07 3.39-.64 3.9-1.72s.45-11.61 0-12.64zm-2.28 2.55a4.9 4.9 0 0 0 -1.33-1.11c-.22 0-.32.39-.29.64a10.94 10.94 0 0 0 1.6 1.7c0 .5 0 1-.06 1.6a15.92 15.92 0 0 0 -2.43-2.88c-.29 0-.36.22-.42.57s2 2.64 2.79 3.5c0 .76-.08 1.5-.13 2.13a29.75 29.75 0 0 0 -2.82-4.05c-.22 0-.7.16-.73.35s2.49 3.94 3.39 5.28a1.67 1.67 0 0 1 -.1.38 1.94 1.94 0 0 1 -1 .14 50.32 50.32 0 0 0 -3.26-5.52c-.23-.07-.61 0-.71.19a55.72 55.72 0 0 0 2.71 5.18c-.33 0-.67-.08-1-.13a30.19 30.19 0 0 0 -3.08-5c-.32-.13-.64.22-.83.51s1.54 2.93 2.34 4.19a11 11 0 0 1 -2.38-.8c-2.23-1.16-3.32-3.46-4-3.58s-1.15.51-1.09 1.4 1.21 17.41.56 23.41a11.66 11.66 0 0 0 -1.78-1.76c-.19 0-.58.35-.51.57a27.17 27.17 0 0 0 2.12 2.31 13.77 13.77 0 0 1 -.53 2 14.82 14.82 0 0 0 -2.36-2.64c-.35-.1-.51.32-.58.67s1.87 2.36 2.53 3.06a15.65 15.65 0 0 1 -.72 1.49 33 33 0 0 0 -2.38-3c-.16-.13-.83.38-.83.47s2 2.58 2.67 3.39c-.24.37-.49.73-.76 1.08a26 26 0 0 0 -3-3.41.81.81 0 0 0 -.57.51 28.78 28.78 0 0 0 2.98 3.66c-.24.28-.5.56-.76.83a28.35 28.35 0 0 0 -2.9-3.69c-.25-.07-.7.25-.67.48s2.13 2.89 2.89 3.87q-.45.42-1 .81a19.82 19.82 0 0 0 -2.54-3.18c-.25-.06-.51.16-.67.45s1.68 2.56 2.33 3.39c-.33.22-.68.44-1 .66a26.09 26.09 0 0 0 -2.31-3.51c-.22-.13-.93.22-1 .48a33.09 33.09 0 0 0 2.43 3.51c-.44.23-.89.44-1.36.65a18.07 18.07 0 0 0 -2.05-2.94c-.19 0-.8 0-.9.35s1.36 2.09 2.06 3c-.5.18-1 .35-1.54.51a16.75 16.75 0 0 0 -1.81-2.55.69.69 0 0 0 -.7.6c0 .36.92 1.57 1.44 2.19l-.45.11c-9.14 2-19-4-21.61-8.82s-2.48-14.06.08-18.92 5.88-7.23 10.42-7.93c2.69-.42 4.79.39 5.11 1.15s.39 8.12.07 8.25a7.4 7.4 0 0 0 -6.08 5.85c-1.15 5.18.39 8.76 5.12 9.84s9.59-.45 10.23-5.05.25-35.8.19-36.63a2.36 2.36 0 0 1 1.72-2.37 51 51 0 0 1 8.46.21c.52.25 3.14 6.9 7.74 8.5s4.92 1.6 5.05 2.11a10.67 10.67 0 0 1 0 1.29zm-35.44 8.9c-.06-.39-1.72-.64-3.39.38a8.14 8.14 0 0 0 -3 3c0 .57.13.57.51.51s0-.26 2.24-1.86 2.94-1.15 3.26-1.28a.6.6 0 0 0 .38-.75z" fill="#1d1d1b"/></svg>