<svg height="64" viewBox="0 0 64 64" width="64" xmlns="http://www.w3.org/2000/svg"><path d="m22.53 64c-4.22 0-7.33 0-8.74-.12-5.12-.29-8.71-2.36-9.37-5.42-.27-1.26-.28-3.65-.26-8.12 0-4.3 0-9.65-.29-15.32l-.18-3c-1.1-18.46-.84-22.12 1.61-23.08a22.5 22.5 0 0 1 5.19-1.2c.68-2.81 3-6.32 8.65-6.41h.23c2.88 0 5.06.81 6.49 2.4a6.3 6.3 0 0 1 1.39 2.61h6.87 2.09c.72-2.81 3.1-6.22 8.94-6.3h.19a8.25 8.25 0 0 1 6.45 2.5 7.78 7.78 0 0 1 1.84 4c1.78.31 4.71 1.53 5.68 6.24 1.31 6.37 1.86 16.47 1.52 27.74v1.79c-.3 10.51-.42 14.45-6.49 18-5.88 3.44-13.56 3.54-21.69 3.64-3.55.05-7.06.05-10.12.05z" fill="#fff"/><path d="m57.41 13.15c-1.18-5.73-5.63-4.71-5.63-4.71s.71-6.6-6.61-6.5-7.27 6.3-7.27 6.3h-3.79c-2.91 0-8.6 0-8.6 0s.57-5.12-6.34-5-7 6.25-7 6.25a23.74 23.74 0 0 0 -6.17 1.26c-1.79.7-.72 15-.21 24.16.62 10.85 0 20.79.52 23.14s3.89 3.69 7.57 3.89c2.56.14 10.65.16 18.69.05s15.31-.2 20.73-3.38 5.23-6.24 5.58-18.17-.29-21.55-1.47-27.29zm-2.31 32.51c-1.07 6.09-3.83 8-6.09 9.17a11.78 11.78 0 0 1 -3.73 1.33s-1.23-1.39-1.44-1.33-1.12.2-1 .51.82.92.66 1a6.21 6.21 0 0 1 -1.28.1 23.77 23.77 0 0 0 -1.76-2.44c-.15 0-1.07.35-1.07.61s1.53 2.05 1.28 2.05-.77.31-.92 0-1.33-2-1.59-2-1 .16-1 .36 1.17 1.59 1 1.64a11.51 11.51 0 0 1 -1.49-.1 11.66 11.66 0 0 0 -1-1.54c-.15 0-1.13.05-1.13.31s1 1.64.82 1.64-6.75.25-13.41 0-10.8.41-12.13-.87-.87-9.47-1-12.7-.25-12.08-1-19.76-.82-10.64.75-11.1 6.19-.31 6.3-1.33c0-.21-.31-5.79 4.5-6s3.64 5 4.35 5.12 15.57.51 16-.05-.33-6.28 5.28-6.28 3.79 5.94 4.61 6.14 3.63-.71 4.3 1.18a14.45 14.45 0 0 1 .77 3.23s-3.54-1.95-3.79-1.74-.52 1.28-.11 1.53 3.84 1.69 3.9 1.95a15.64 15.64 0 0 1 .4 2.76c-.15-.05-4.6-3.33-4.76-3.33s-.41 1.33-.2 1.44 4.91 3.43 4.91 3.43l.21 1.69s-5.24-3.85-5.41-3.8-.41 1.48-.1 1.69 5.27 3.68 5.32 3.83 1.13 15.57.05 21.66zm-40.7-30c.31 0 .16-1.18 0-1.48s-3.57-.22-4 .2a16.17 16.17 0 0 0 .1 4.4 1.45 1.45 0 0 0 1.5-.2c.31-.36-.21-2.71-.16-3s2.26.03 2.56.03zm26 28.26c-.36.31 0 8.19.15 9s1.44 1 3.54.82 5.47-.72 6.7-3.12 1-6.61.57-7-10.22-.42-11 .25zm7.6 7.22c-2.77 1.38-4.3 1.59-4.51 1.18a42.49 42.49 0 0 1 -.41-6.5c.37-.37 7-.16 7.17.25s.5 3.69-2.25 5.07zm-2.71-27.7c-1.44-.36-2.82-5.53-11.22-5.42s-14.13 5.63-15.2 6.29-5 .6-5.17.62c-1.18.15-.82 2.3-.72 5.78s.91 17.66 1.02 20.29a3.29 3.29 0 0 0 2.82 3.48c1 .2 12.44.2 16.28.1s4.2-1.48 4.45-2.41 0-9 .31-9.57 6.25-.46 7.53-.46 5 0 6-1.18 0-15.82-.16-16.74-4.52-.42-5.95-.78zm4.55 14.8c-.2 2.2-.92 2.46-1.69 2.51s-9.94-.05-11.15.25-1 2-1 3.54.46 6.45 0 7.37-4.15 1.53-9.37 1.58-9.22.06-9.88-.71-1.13-7-1.28-10.8-.77-13.42-.31-13.88c.26-.25 3.48.21 4.76-.72s6.5-6.39 12-6.86 9.22 1.28 10.91 2.92 1.94 2.2 2.86 2.36 3.33 0 3.59.25a88.12 88.12 0 0 1 .55 12.19zm-9.73-15c-2.09-1.08-6.75-.77-6.75-.77-10.55 1-13.93 8.19-13.77 13.72s1.22 9.93 4.91 12.34 9.22 1.28 9.57 1-.07-6.99-.07-7.45-1-.26-3-.72-5.07-1.74-4.76-6 3.33-5.84 6.5-6.19 5.74 1.33 6.25 3 .2 6.35.41 6.71 6.7 0 7.16-.25.16-3.28 0-7.17-4.36-7.2-6.46-8.27zm5.12 13.46c-.2 0-3.37.26-3.37 0s.35-6.14-3.08-8.19-6.86-2.61-11.16.05a7.8 7.8 0 0 0 -2.2 11.37 8.17 8.17 0 0 0 7.12 3.53 15.39 15.39 0 0 1 -.1 4c-.21.15-5.12.72-7.89-2.2s-3.79-7.63-3.38-11.52 5.74-9.62 12-9.83 11.34 3.47 11.83 7.57.43 5.17.22 5.17zm-13.92-6c-.41.1-.15 2.56-.15 2.56a18.62 18.62 0 0 0 -3 .21c-.4.2-.35 3.32.36 4.45s4 3.23 6.81 1.95 3.38-4.1 2.46-7.07-6.08-2.24-6.49-2.14zm2 7c-1.9.25-3.18-.47-3.18-3.08 0-.46 2.25 0 2.31-.15s-.21-2.41 0-2.46 2.56-.25 2.76 2-.01 3.41-1.9 3.67zm-13.94-23.88c2.51 0 2.56-2.51 2.46-4.71s-.36-2.31-1.49-2.51-2.28-.12-2.71.72c-.77 1.48-.77 6.5 1.74 6.5zm.1-5.28a.7.7 0 0 1 1.13.36c0 .36.36 3.38-.67 3.48s-.71-3.58-.46-3.84zm24.78 4.15a3 3 0 0 0 2.82-1.59 8.16 8.16 0 0 0 0-5.17c-.57-.92-4.19-.27-4.51-.2-1.23.25-.92 3.79-.87 4.5a3.3 3.3 0 0 0 2.56 2.46zm0-5c.43-.37 1.59-.06 1.79.15s.41 3.33-.51 3.58-1.48-.87-1.48-1.79-.16-1.63.2-1.9z" fill="#1d1d1b"/></svg>