<svg height="64" viewBox="0 0 64 64" width="64" xmlns="http://www.w3.org/2000/svg"><path d="m31.45 64c-4.4-.11-21-13-21.16-13.15-2.92-2.43-4.14-5.09-4.19-9.18 0-3.17-.63-11.88-.88-14.49v-.4c-.36-3.68-.56-6.89.71-8.84.74-1.14 2.58-2.31 5.52-4.11l1.87-1.17 4.88-3.23c3.8-2.56 8.58-5.73 10.32-6.82l.87-.55c2.03-1.28 3.25-2.06 4.73-2.06a3.82 3.82 0 0 1 1.11.16c1.34.41 10.77 8.17 10.2 11.66a21.05 21.05 0 0 1 -3.12 7c2.75-2.7 6-5.3 7-5.67a5 5 0 0 1 1.7-.35 4 4 0 0 1 1.36.26l.21.07c1 .24 6 3.78 6.31 5.75.2 1.12.54 20.41-.36 25.76-.74 4.4-6.38 9.64-16.78 15.57l-.85.48c-4.41 2.47-5.9 3.31-8.9 3.31z" fill="#fff"/><path d="m57 19.19c-.16-.89-4.22-4.06-4.87-4.22a2.44 2.44 0 0 0 -2.11 0c-1.18.44-8.89 7.06-9.82 9.5s1.34 4.95 3 6 3.25 2.44 3.33 5a3.14 3.14 0 0 1 -4.26 3.12c-1.95-.73-1.67-3-1.67-4.95s-1.22-4.5-4.55-3.64-3.78 5-4 7.14.24 3.94-1.05 6-3.8 1.05-4.29-1.14 2.64-4.67 4.95-8.48.33-5.89-2.07-5.81-4.87 2.76-6 3.86-2.6 1.18-3.13.65-.32-1.34 1.06-2.23 6.09-2.52 7.26-3.45 1.59-1.95 1-3-4.06-.77-5.2-.69-1.58-.94-.58-1.35 2.15.25 4.67.57a13.2 13.2 0 0 0 8-.73c3.85-1.42 6.61-8 6.9-9.82s-7.68-9.13-8.9-9.52-2.4.53-5.12 2.23-13 8.61-15.22 10-6.07 3.61-6.82 4.77c-1 1.62-.61 5.48-.36 8s.85 11.35.85 14.64.85 5.52 3.49 7.71 16.97 12.65 20.01 12.7 4.06-.6 9.26-3.57 15-9.13 15.83-14.2.53-24.2.41-25.09zm-2 3c-.16-.08-3.33-2.43-3.49-2.23s-.32.77-.08.94a35.82 35.82 0 0 1 3.49 2.55 9.77 9.77 0 0 1 0 1.83 33.32 33.32 0 0 0 -3.73-2.6c-.08.12-.29.69-.08.85a44.16 44.16 0 0 1 3.73 2.68 9.79 9.79 0 0 1 -.08 1.67s-3.25-2.6-3.49-2.6-.28 1-.12 1.09a35 35 0 0 1 3.57 2.52c0 .16-.12 1.22-.12 1.22s-3.09-2.48-3.25-2.44-.08 1-.08 1a27.41 27.41 0 0 1 3.25 2.43c0 .29.16 1.67 0 1.71s-2.72-1.91-3.09-1.75-.32.94-.08 1.1 3 1.66 3.13 2a7 7 0 0 1 0 2c-.12 0-3-2.68-3.25-2.48s-.12 1.1-.12 1.1 3.25 2.51 3.33 2.72a16 16 0 0 1 0 1.91 41.47 41.47 0 0 0 -3.54-2.41c-.2 0-.08 1.1-.08 1.1a35.49 35.49 0 0 1 3.62 2.71c0 .25 0 1.83-.17 1.83s-3-3-3.53-2.8-.73.37-.4.73 3.77 2.76 3.73 3.09a3.91 3.91 0 0 1 -1.3 1.46c-.16 0-3.08-3.25-3.41-3.25s-.89.49-.69.69 3.57 3.21 3.45 3.29l-1 .69s-3.78-3.25-3.9-3.25-.57.77-.57.77 4 3 3.82 3.09-1.39 1.23-1.47 1.06a36.94 36.94 0 0 0 -3.58-3.16c-.2 0-.56.12-.52.44s3.69 3.13 3.45 3.33-1.34.89-1.34.89-3.21-3.24-3.57-3.2-.65.73-.65.73 3.61 2.68 3.41 3a3.78 3.78 0 0 1 -1.14.65s-3-3-3.09-3-.64.16-.56.36 3.2 3 3 3.21-1 1.1-1.34 1-2.72-3.46-2.96-3.46-1.06.41-.81.69a40 40 0 0 1 2.88 3.31c-.12.12-.73.94-1 .65s-3.24-3.41-3.41-3.45-.93.33-.77.57 3.61 3.21 3.41 3.37-1.66 1.14-1.66 1.14a39.64 39.64 0 0 0 -3.25-3.86c-.28 0-.93.2-.89.53s3.45 3.89 3.33 4a1.69 1.69 0 0 1 -.82.32c-.24 0-3.81-3.57-4.1-3.57a.85.85 0 0 0 -.65.49c0 .16 4.23 3.41 3.86 3.65a11.65 11.65 0 0 1 -1.38.65 57.11 57.11 0 0 0 -4.5-4.06c-.33 0-1.22.69-1 1s4.65 3.57 4.34 3.81-1.09.89-1.46.73-19.52-13.8-20.46-14.97-1-4.14-1.46-8.36-1.31-15.43-.69-16.37c.38-.53 23.47-15.54 24.52-15.34s6.45 5.88 6.54 6.41-2.56 7-5.77 8.2-6.66-.61-9.62-.24-4.14 1.54-4.38 3.29 1.62 2.76 3 2.92 3.05-.12 3.37.28.41.94-1.91 1.46-6.17.9-7.55 2.8-.77 3.82 1.87 5 5.28-1.18 6-1.83 3.12-2.8 3.81-2.35.69 3.16-2.19 6.37-4.06 7.06-.65 8.85 7-.45 7.39-3.21-.53-5.19.93-7.67 2.93-3 3.25-1.71-1.05 4.71 1.95 6.9 6.05 1.55 7.47-1 1.38-4.91.2-6.13-4.85-3.74-5.51-5.41-.53-2.39 1.18-4.14 6.78-6 7.43-5.88a20.65 20.65 0 0 1 4 2.84 6.17 6.17 0 0 1 -.03 2.51zm-31.17-7.91c.37 0 6.78-4.22 6.94-4.38s-.28-.65-.65-.94-7.12 4.11-7.18 4.39.53.89.89.93z" fill="#1d1d1b"/></svg>