<svg height="64" viewBox="0 0 64 64" width="64" xmlns="http://www.w3.org/2000/svg"><path d="m18.39 59.69c-2 0-2.52-.07-3.07-.41-1.19-.73-1.25-2.14-1.32-4.28h-1.81c-1.67 0-3.63.05-5.19.05-2.91 0-3.37 0-4-.5-1-.75-1-.75-.87-8.76.06-2.91.12-6.54.1-9.92.01-5.87-.23-13.44-.4-17.07-.05-1.27-.08-2.1-.08-2.3 0-.78 0-1.1 4.05-5.73s4.38-4.69 5.2-4.77c.58 0 17.23-1 26-1.32 6-.22 13.33-.37 17.54-.37 3.85 0 4.54 0 5.24 1 .42.59.46.65 1.33 12 .39 5.27.86 11.93 1 14.48.27 5.44.23 6.4-.32 7.32-.24.39-.27.44-4.73 4.4-2.76 2.45-6.2 5.5-7.85 7.1-4.13 4-5 4.56-6.1 4.56-.19 0-.46 0-1.92-.15-1.92-.16-5.37-.46-7-.5l-.3.39c-2.13 2.77-3.23 4-4.52 4.25s-7.98.53-10.98.53z" fill="#fff"/><path d="m60.08 31.91c-.24-4.79-1.75-25.19-1.95-25.47s-12.3-.08-21.08.24-25.43 1.32-25.87 1.32-7.43 8-7.43 8.5c0 .76.48 11.46.52 19.4s-.36 16.85-.04 17.1 11.3 0 11.62 0 0 4.23.52 4.55 11.46-.12 12.58-.36 3.87-4.35 4.27-4.63 9.42.6 9.86.6 1.63-1 4.71-4 12.01-10.66 12.21-11.06.32-1.4.08-6.19zm-8.06.6c-.28.48-6 7-7.51 9s-2.19 2.64-2.79 2.84-11.5-.2-12.14-.16a2.5 2.5 0 0 0 -1.71 1.19 53.63 53.63 0 0 1 -3.79 4.52c-.2 0-1-6.35-1.28-6.59s-2.6-.26-3.8-.31-3 .44-3.19.2-.48-13.61-.68-18.09-.48-8.7-.2-9.14c.17-.25 3.44-.48 6.23-.6s8.58-.32 17.13-.8 12.57-1.15 13-.67.92 13.61.92 15.84.09 2.26-.21 2.77zm-25.51-9.34c-1 .56-.8 10.42-.16 11s5.07.87 5.55.4.52-10.34-.08-11.3-4.82-.37-5.31-.1zm11.9 0c-.16.6-.08 10.66.08 11.3s4.35.67 4.91.16.52-10.54 0-11.26-4.86-.65-4.99-.16z" fill="#1d1d1b"/></svg>