<svg height="64" viewBox="0 0 64 64" width="64" xmlns="http://www.w3.org/2000/svg"><path d="m29.14 64c-5 0-11.65-.16-14.83-.94-.58-.15-1.12-.27-1.61-.38-3.57-.81-6.15-1.39-7.92-6.26s-2-9.4-2.14-15.9c-.15-6.23-.4-26.07-.4-27.79 0-5.62 2.85-9.42 8-10.69 5.83-1.43 14.19-1.84 24.96-2.04h4.46c9.68 0 16.19.79 18.78 4.71.86 1.29 3.48 5.29 3.31 29.79-.09 14.32-.86 21.59-2.56 24.3-2.1 3.38-6.51 4.2-16.19 4.79-4.1.26-9.14.41-13.81.41z" fill="#fff"/><path d="m56.82 5.78c-2.51-3.8-11-4-21.59-3.8s-18.92.57-24.5 1.94-6.55 5.66-6.55 8.81c0 1.54.24 21.35.4 27.74s.42 10.84 2.02 15.28 3.56 4.29 8.17 5.42 19.09 1 28.06.49 13.1-1.3 14.72-3.88 2.18-11.33 2.26-23.29-.48-24.91-2.99-28.71zm1 25.71-4.31-4s-.54 1.29-.32 1.51 4.42 3.82 4.52 4.25.06 3.18.06 3.18-4.05-4.15-4.21-4.09-.7 1.29-.27 1.67a57.07 57.07 0 0 1 4.37 4.2 24.63 24.63 0 0 1 .11 2.65 50.21 50.21 0 0 0 -3.83-3.67c-.27 0-.65.86-.54 1.19s4.21 3.82 4.21 4.2.27 3.77 0 3.4-4.24-5.1-4.61-4.98-.86 1.14-.86 1.14 5.28 5 5.39 5.6a8.47 8.47 0 0 1 -.53 3.26c-.21 0-5.76-5.83-6-5.83s-.87 1.19-.87 1.19 6.15 5.66 6.15 6.15-.28 1.49-.75 1.57-7-6.3-7-6.3-1 .75-.75 1.18 7 5.93 6.52 6.31-3.07.43-3.07.43-4.58-4.85-4.8-5-.92.7-.92.7 5 4.42 4.48 4.64-3 .7-3.29.43-3.5-3.94-3.93-4-1.35.59-1.19.86 3.76 3.61 3.42 3.67-3.89-.05-3.89-.05a32.94 32.94 0 0 0 -2.75-3.13c-.32-.1-1.29.22-1.18.7a14.38 14.38 0 0 0 2.16 2.43s-12.84.65-18.77.22-12.32-2.55-13.57-6.05-.92-25-1.08-30.51-.74-10.61 1.79-13.16c1.84-1.84 7.39-3 13.15-3.56a205.3 205.3 0 0 1 24.43-.21c5.76.43 9.86 1.45 10.51 4s1.72 14.5 1.72 14.5-2.8-2.91-3.29-2.53-.43.92-.27 1 3.56 3.24 3.62 3.4.05 2.86.05 2.86a37.59 37.59 0 0 0 -3.34-3.08c-.27 0-.54 1-.38 1.51s3.88 2.81 3.88 3.24zm-40.38-23c.49-.17 0-.81-.37-1.14s-6.31.38-7.71 1.46-1.2 5.41-1 5.55 1.4.49 1.72.16-.32-3.45.43-4.47 6.42-1.41 6.9-1.57zm13.7 5.44c-7.93.22-12.73 4.53-13.8 7.66a16.9 16.9 0 0 0 -.7 7c.26.65 9.54.43 9.91.32s-.1-2-.05-2.37 7.93-.65 8.41-.48.49 7.17.49 7.38-7.34.38-7.88.27-.16-2.48-.64-2.53-8.41.16-9 .37-.81 1.73.7 6.8 6 7.28 14.45 7 13.53-7.07 12.77-17.58-6.8-14.07-14.69-13.85zm8.51 27.49c-2.58 2-11.21 3.83-15.2.81s-4.66-7.5-4.45-7.66 6.14-.49 6.14-.06a24.73 24.73 0 0 0 .49 3.83c.16.11 10.73-.16 10.78-1s-.75-12.85-1.41-12.96-11 .48-11.16.75-.05 1.84-.21 1.94a18.87 18.87 0 0 1 -4.26.06c-.16-.13-.37-6.63 5.63-8.63s14.38-2.85 17.13 5.5-.92 15.42-3.51 17.41z" fill="#1d1d1b"/></svg>