<svg height="64" viewBox="0 0 64 64" width="64" xmlns="http://www.w3.org/2000/svg"><path d="m25.15 26.82c.06 1.2 0 3.57 0 5.85v2.72c2.37.13 6.71.36 9.27.39h2.08 1.37c0-3 0-8.91-.06-9.49v-4.18c-4.62.01-10.81-.11-12.81-.21zm-5.62-13.29a71.56 71.56 0 0 1 0-7.5 2.06 2.06 0 0 1 1.26-1.76c.45-.18.5-.2 6.91-.2 13.34 0 13.63.14 14.07.34a2 2 0 0 1 1.14 1.43c.09.16 1.09 13.45-.29 15.16l.8 2.35 16.47.06c2 0 4.08 2.13 4.11 5.58 0 .22-.18 24.78-.39 26a4.71 4.71 0 0 1 -4.82 4.25c-4.75.15-19.23.55-29 .64-3.77 0-7.82 0-11.5 0h-9.22-3.36a6 6 0 0 1 -5.27-5.67c-.08-2.87-.13-17.38-.13-21.76a46.16 46.16 0 0 0 -.31-6.26c0-.07 0-.14 0-.21-.06-1.51.77-3.69 2.8-3.84.69 0 12.09-.13 16.81-.15zm23.38 9.73" fill="#fff"/><path d="m62.06 29c0-2.56-1.51-3.66-2.17-3.66l-19.1-.15a1.67 1.67 0 0 0 -1 1c0 .23.08 11.26.08 11.39s-1.72.2-5.43.15-10.92-.49-11.1-.49.05-7.9-.08-10.31-.92-3-1.41-3-18.14.1-18.86.15-1 1.2-1 1.82a48.14 48.14 0 0 1 .31 6.55c0 4.58 0 18.89.13 21.7a4.19 4.19 0 0 0 3.2 3.85c.33 0 13.33.07 24.13 0s26.49-.56 29-.64a2.82 2.82 0 0 0 3-2.64c.07-.8.33-23.14.3-25.72zm-3.71 23.1c-.08.06-1.81.15-4.43.24-.67-.87-4.9-5.69-5-5.76s-1.2.69-1.36.89 3.57 3.92 4.58 4.94l-2.14.07c-.56-.79-3.74-4.25-3.83-4.29a2.64 2.64 0 0 0 -1 .66c0 .11 2.28 2.73 3.11 3.68l-2.17.07c-.6-.84-2.39-3.37-2.5-3.39a2.56 2.56 0 0 0 -1.07.67 33.31 33.31 0 0 0 1.93 2.77l-1.69.05a20.51 20.51 0 0 0 -1.91-2.52c-.2-.12-.89.52-.94.62a15.63 15.63 0 0 0 1.26 2l-3.36.1c-9.4.28-19.91.59-25.24.61s-6.68.21-6.75 0-.49-7.16-.7-13-.89-14-.74-14.2c0 0 16.66-.18 16.74 0s-.1 12 0 12.59 1.51 1.59 2.05 1.59 10.26-.28 14.05-.28 4.76.07 4.76-1.11-.08-11.46.05-11.51 16.92-.23 17.07.07-.57 24.34-.77 24.44zm-51.67-24.31a51.19 51.19 0 0 0 0 7.93 3.5 3.5 0 0 0 1.58-.15c.13-.18-.1-6.22-.07-6.3s2.38 0 2.58-.12.15-1 .15-1.28-4.07-.31-4.24-.08zm44.32 16.61c-.15 0-1 .78-.92.9s5.35 5.7 5.43 5.7.46-.23.51-.53a62 62 0 0 0 -5.02-6.07zm1.51-2.4c-.15 0-.83.76-.81.93s4.6 5.07 4.7 5.07.29-.59.29-.85a56.12 56.12 0 0 0 -4.18-5.15zm1.05-3.32c-.25-.08-.88.95-.84 1 .1.28 4.32 4.89 4.32 4.89a2.63 2.63 0 0 0 .21-.72 54.25 54.25 0 0 0 -3.69-5.18zm.69-3.43c-.2 0-.56.92-.53 1s3.84 4 3.84 4a3.33 3.33 0 0 0 .25-1 32.43 32.43 0 0 0 -3.56-4.01zm3.36 1.1a1.5 1.5 0 0 0 0-.85 16.18 16.18 0 0 0 -2.56-2.86c-.2 0-.46 1-.46 1a23.41 23.41 0 0 0 3.02 2.7zm-.49-4.45c.18 0 .21-.54.18-.82a3.23 3.23 0 0 0 -1.3-1.37c-.31 0-.75 1-.72 1.05a6.87 6.87 0 0 0 1.84 1.13zm-16-12.07c.48-.61.27-13.48-.1-13.65s-19.24-.18-19.48-.11-.07 13.14.51 13.58 18.56.79 19.04.17zm-17.67-11.54c.23-.2 16 0 16.14.34a58.22 58.22 0 0 1 -.44 7.88c-.21 0-15.74-.1-15.91-.34a50.48 50.48 0 0 1 .21-7.88zm2.63 5.71c.3-.1 0-4.3-.07-4.5s-1-.17-1.09 0a24.61 24.61 0 0 0 -.11 4.54c.11.25.96.08 1.27-.04z" fill="#1d1d1b"/></svg>