<svg height="64" viewBox="0 0 64 64" width="64" xmlns="http://www.w3.org/2000/svg"><path d="m40.4 33a2.85 2.85 0 0 1 -.8-1.3 6.72 6.72 0 0 0 -2.66-3.47 8.72 8.72 0 0 0 -3.76-1.63 2.46 2.46 0 0 1 -1.18-.4c-.26-.2-2.22.61-2.22.61a4.29 4.29 0 0 1 -.45.88 9.38 9.38 0 0 1 -1.33 1.45 6.7 6.7 0 0 0 -2.34 3.37c-.61 2.11-.72 3.27 3.39 6.58a9.09 9.09 0 0 0 5.58 2.34 5.47 5.47 0 0 0 2.12-.43c.71-.29 1.34-1.73 1.85-2.88.17-.39.34-.77.51-1.13a5.4 5.4 0 0 1 1-1.53zm3.28 1.51a20.4 20.4 0 0 1 5.07 2 20.61 20.61 0 0 1 8.13 6.91c.27.37.53.71.78 1 2 2.34 1.78 5.1 1.59 8v.47c-.23 3.64-1.69 4.49-6.53 7.32l-2.1 1.24a16 16 0 0 1 -8.4 2.55c-4.46 0-9-2-14.8-5.16a71.45 71.45 0 0 1 -20-16.77c-4-4.74-6.12-11-5.48-16.35a23.48 23.48 0 0 1 6-12.33 9.08 9.08 0 0 1 6.06-2.39 10.72 10.72 0 0 1 4.33 1c3.93 1.74 7.26 5.39 8.51 6.76l.35.39c1 .81 2 2.63 3.12 1.83a17.52 17.52 0 0 1 2.15-3.77 4.44 4.44 0 0 1 -1.31-2.35c-.73-2.66-.71-4.43.08-5.25a15.7 15.7 0 0 1 -.92-3.43c-.7-3.35-.63-3.56-.47-4 .49-1.48 2.91-2.18 7.24-2.18a23.85 23.85 0 0 1 12.15 3.22c8.62 5.15 10.33 11.06 11.84 16.28 0 .1 2.76 9.91-.45 11a34.74 34.74 0 0 1 -5.12.6 3.51 3.51 0 0 1 -.92-.11 2 2 0 0 1 -.61.58 16.13 16.13 0 0 1 -4.97 1.09 2.47 2.47 0 0 1 -1.48-.43l-.19-.12a2.37 2.37 0 0 1 -.44.28 20.8 20.8 0 0 1 -3 .84z" fill="#fff"/><path d="m47.87 38.29c-5.28-2.64-6.13-2.21-7-.43s-1.6 4.23-3.38 5-5.27 1.35-9.69-2.21-5-5.46-4-8.65 3.13-4.18 4-5.4.24-4.3-1.84-6c-.44-.36-4.05-4.9-8.35-6.81s-7.12 0-8.34 1.11a21.4 21.4 0 0 0 -5.39 11.1c-.61 5.16 1.59 10.8 5 14.85a70.79 70.79 0 0 0 19.48 16.27c9.33 5.09 14.6 6.63 21.23 2.7s7.48-4 7.67-7 .43-5.28-1.11-7.12-3-4.78-8.28-7.41zm7.92 11.33a5 5 0 0 0 -.7.9s-1.88-3.52-2.21-3.52-.9.45-.73.69 2.16 3.36 2 3.6-.78.94-.94.86-2.37-3.92-2.37-3.92-.82.45-.7.65 2.33 4 2.17 4.25a5.86 5.86 0 0 1 -1.23.66 37.6 37.6 0 0 0 -2-3.44c-.17 0-.9.41-.86.54a31.5 31.5 0 0 1 1.78 3.51 7 7 0 0 1 -1.35.62c-.17-.05-1.43-2.7-1.64-2.75s-.9.25-.86.45a26.69 26.69 0 0 1 1.39 3c-.16.08-1 .49-1.1.41s-1.29-2.79-1.44-2.79-.82.16-.82.49 1.39 2.82 1.15 2.86-1.6.45-1.68.29a21.85 21.85 0 0 0 -1.27-2.91c-.2 0-1-.08-.86.21s1.39 2.82 1.11 2.86-1.89.12-2-.08-.82-2.25-.94-2.33-1-.16-1 .12.86 2.13.74 2.13-1.56.08-10-4.95-13.43-8.92-18.43-15.67-4.95-10.63-4.22-14.6 5-6.71 5.73-7.12c1.53-.84 3.84-1 8.47 2.79s5.89 6.66 5.6 7.81-3.15 4.17-3.89 5.93a7.51 7.51 0 0 0 1.8 8.18c3 3.11 6.63 5.15 9.49 5.52s4.91-.45 5.77-1.8 2.37-5.07 2.86-5.27 4.83.85 8.35 4.09 3.68 3.51 3.48 3.76-.5.53-.33.65a17.79 17.79 0 0 1 1.43 2.09c.29.53.53.98.25 1.23zm-22.58-25a11 11 0 0 1 4.82 2 9.75 9.75 0 0 1 3.64 4.91c.29.24 4.14-.78 4.38-.9s0-2.42 0-2.62a13.39 13.39 0 0 0 -3.52-6.55 11.1 11.1 0 0 0 -8.38-3.23 16.14 16.14 0 0 0 -2 3.36c-.15.46 1.06 3.03 1.06 3.03zm1.35-5.31c.12 0 4.86 0 7.4 3.06s2.82 5.4 2.58 5.49-1.84.24-1.84.24a9 9 0 0 0 -4.13-5 20.7 20.7 0 0 0 -4.91-1.72 14 14 0 0 1 .9-2.07zm9.45.24c4.45 3.77 4 8.84 4.09 9.9s.42 1 .61 1.19 3.89-.53 4.21-.74.25-2.29.21-2.94a20.45 20.45 0 0 0 -7.61-12.89c-6.38-4.78-12.6-3.39-12.84-3.15s.32 4.54 1.14 4.75a18 18 0 0 1 10.18 3.88zm-10-7.4c.08-.33 2.2-.45 4.41 0a17.82 17.82 0 0 1 9.49 5.44c3.64 3.8 3.72 9.57 3.72 10.06s-1.3.53-1.67.53c0 0 .65-4.17-3.81-9.45s-11.61-5.07-11.94-5-.27-1.25-.21-1.58zm25.17 7.85c-1.51-5.19-3.18-10.43-10.96-15.09s-16.4-2.46-16.49-2.21a40.68 40.68 0 0 0 1.27 5.93 18.09 18.09 0 0 1 7-.16c4.9.69 8.91 3.88 11.49 7.65s3.44 12.59 3.51 12.88 4.87-.37 5-.41.69-3.31-.82-8.59zm-.12 5.16c-.29.16-2.09.41-2.21.16s-1.64-9.2-5.4-13.32a20.12 20.12 0 0 0 -18.08-5.8l-.49-2.62a20.49 20.49 0 0 1 12.35 1.25 21.59 21.59 0 0 1 11.5 11.41c1.8 4.09 2.61 8.76 2.33 8.96z" fill="#232021"/></svg>