<svg height="64" viewBox="0 0 64 64" width="64" xmlns="http://www.w3.org/2000/svg"><path d="m11.93 64c-1.54 0-5.93-4.35-5.93-5.89 0-.3 0-.67 3.3-13.59-1.45-2.52-5.92-10.74-5.53-19.66a25 25 0 0 1 12.43-20.94 34.73 34.73 0 0 1 16.11-3.92 31.08 31.08 0 0 1 12.07 2.37c9.36 3.93 14.48 11.85 15.67 24.22 1 10.33-1.84 15.85-5 20.28-3.67 5.08-9.14 8.39-16.26 9.84a45 45 0 0 1 -8.88.87c-1.5 0-2.66-.07-3.31-.13-13.73 6.55-14.14 6.55-14.67 6.55z" fill="#fff"/><path d="m58.12 26.78c-.88-9.15-4-18.23-14.49-22.62s-21.3-1.39-26.5 1.46a23 23 0 0 0 -11.42 19.38c-.44 10 5.71 19.25 5.71 19.25s-3.42 13.42-3.42 13.86 3.44 4 3.95 4 14.28-6.59 14.28-6.59a43 43 0 0 0 12.15-.66c6.42-1.36 11.62-4.36 15.06-9.12s5.56-9.81 4.68-18.96zm-4.32 13.39c-2.12 5-9.56 9.2-10.2 9.5s-2.44.83-2.44.83a6.83 6.83 0 0 0 -.92-1.5c-.25-.1-.93.34-.88.54s.68 1 .49 1.22-1.52.29-1.52.29a11.37 11.37 0 0 0 -1.27-2.15c-.29-.14-1.12.15-1 .4a13.22 13.22 0 0 1 1 2.19 7.38 7.38 0 0 1 -2 .29 16.89 16.89 0 0 0 -1.36-2.58c-.25-.15-1.32.1-1.32.34a25.41 25.41 0 0 0 1.22 2.54 6.45 6.45 0 0 1 -1.66 0 21 21 0 0 0 -1.61-2.79c-.29-.14-1.17.1-1.17.35s.93 2.53.93 2.53l-1.42-.17-1.76-2.78s-.92 0-.87.29 1.12 2.49 1 2.63-.39.39-.59.3-1.85-2.25-2-2.3-.83.2-.78.49 1.76 1.81 1.56 2.1-1.51 1.17-1.7 1-1.86-2.49-2.05-2.59-1.13.54-1 .68 1.47 2.44 1.47 2.44l-1.57.54a21.59 21.59 0 0 0 -1.75-2c-.2-.05-1 .54-.88.73s1.61 1.42 1.37 1.61a10.08 10.08 0 0 1 -1.22.64s-1.22-1.32-1.52-1.32-.44.44-.44.58a8.63 8.63 0 0 0 .78 1.22s-5.56 2.54-6 2.25-.88-.88-.75-1.15 3.28-13.36 3.28-13.36-6-9.88-5.78-17.64 5.34-16.4 9.22-19.25 16.25-5 23.5-3 13.61 9.05 15.73 16.74 0 14.27-2.12 19.32zm-23.47-34c-6.33.6-10.79 2.6-14.69 8.02s-5.42 10-4.39 16.79 5.85 12.83 5.95 13.02-3.58 8.91-3.85 9.41.63 1 1.22 1 10.68-7.76 11-7.86a44.06 44.06 0 0 0 5.85.59 32 32 0 0 0 12.79-2.3c4.83-1.9 9.51-6 10-14s-1.43-13.58-7.04-19.34-10.5-6-16.84-5.36zm18.79 10.2c4.78 5.9 4.54 14.34 2.88 18.93s-5.18 7.7-10.54 9.19-9.91 1.66-11.72 1.27-3.66-.83-4.1-.83-8.29 5.71-9 6c-.14.07 2.73-6.29 2.68-6.73s-4.54-6-5.66-10a24.75 24.75 0 0 1 1.61-16.5c2.83-5.51 11.18-9.37 17-9.47a21 21 0 0 1 16.85 8.11zm-17 7.56c.44-.68-.39-3-2.79-6.15s-4.74-3.51-5.74-2.78-4.59 4.26-4.05 8.7 6.3 12.55 10.45 17 9.86 2.83 12.25 1.46a7.75 7.75 0 0 0 3.95-5.51c.1-1.71-6.2-7.42-6.54-7.62s-4.1 3.22-4.49 3.17-4.44-6.49-4.39-6.78.88-.84 1.32-1.52zm1.36 10c1.37 1 1.12 1.22 1.81.83s3.56-3.7 4.1-3.51 5.51 4.73 5.27 5.37-1.08 2.39-1.32 2.24-1.71-3.07-2.59-3-.73.73-.63 1 2 2.34 1.85 2.59a1.32 1.32 0 0 1 -.63.34 32.1 32.1 0 0 0 -1.93-2.79c-.15 0-1.08.29-.93.58s1.85 2.2 1.56 2.44-.88.59-1 .39-1.91-2.58-1.91-2.58-1.29.17-1.13.47 1.46 2.09 1.22 2.09-2.34.64-6.39-3.22-9.28-9.37-9.63-13.42 2.05-7.61 3.66-7.41c.37 0 5.91 5.61 5.08 6.29s-2.93 2.29-2.1 3.51 4.25 6.74 5.61 7.71zm-9.15-15.69c-1.37.44-1.95 4.05-1.95 4.63s1.8.69 2 .64 0-.24 0-1.27a7.7 7.7 0 0 1 .64-3c.28-.24-.1-1.19-.69-1z" fill="#1d1d1b"/></svg>