<svg height="64" viewBox="0 0 64 64" width="64" xmlns="http://www.w3.org/2000/svg"><path d="m55.86 44.34c-.51-.82-2-1.05-2.93-1.87s-2.43-4.67-1.88-9.15 4.21-7.09 4.58-8.19-.6-3.75-3-6.77-6.72-3.94-10.7-3.8-8.81 2.84-9 2.65c-5.08-4.53-9.33-3.15-13.72-1.69a16.26 16.26 0 0 0 -11 14.05c-1 8.41.5 11.66 3.84 18.85s7.8 10.89 10.45 12.35 4.76.46 8.6 0 4.08.59 7.87 1.69 5.54.78 10.43-3.47a18.53 18.53 0 0 0 6.23-10.67c.27-1.51.73-3.15.23-3.98zm-1.74 2.52c-.19 0-1-1.37-1.42-1.23s-.69.13-.5.45 1.28 1.83 1.14 2.52-.46 1.69-.69 1.6-3-7.09-3.47-7.18-1-.09-.87.73 4 7.55 3.84 7.91-.6 1.47-.82 1.19-4.33-9.15-4.62-9.05-.83.36-.74.68 5.08 8.83 4.62 9.24-1.05 1.42-1.19 1.15-4.4-9.29-4.66-9.34-.92.23-.78.64 5 9.06 4.9 9.2-1.38 1.42-1.47 1.28-4.16-7.91-4.39-7.91-1.33.5-1 1.14 4.57 7.23 4.53 7.41a6.42 6.42 0 0 1 -1.1 1s-3.16-6.63-3.75-6.63a.8.8 0 0 0 -.78 1c.09.37 3.89 6.08 3.52 6.13s-.73.32-.82.09-3.16-5.58-3.48-5.63-1.28.23-.91.87 3.34 4.76 3.06 4.85-1 .28-1.05.14-2.1-3.71-2.47-3.71-1 .46-.87.92 1.83 1.78 1.24 1.83-4.17-2-6.78-1.24-3.75 2.21-7.41 1.09-8.65-4.71-12-11.17-4.57-13.15-3.24-18.36 4.71-9.84 10.07-11.85 9.06-.37 10.25.27 1.69 2.43 2.19 2.79 1.28-.77 3.34-2a15.14 15.14 0 0 1 11-1.33 11.43 11.43 0 0 1 6.54 5.45 1.35 1.35 0 0 1 0 1.37c-.19.32-4.4 4.26-5.68 6.77s-1.32 7 .32 9.56a15.08 15.08 0 0 0 5.16 4.5c.92.55 1 0 1.33.73s.09 2.18-.09 2.13zm-41.5-19.54c-2 4.17-1 6.68-1 6.68.28.42.83.14 1.19.1s.69-3.12.83-5.45 3.7-6 3.88-6.27-.22-.18-.59-.27-2.34 1.05-4.31 5.21zm28.46-14.32c2.61-1.6 6.17-5 6.13-7.41s-.6-5.17-4.21-4.48-7.59 5.72-9.19 8.78-.37 4.35-.19 4.58c1.38 1.64 4.85.04 7.46-1.47zm-.78-9.42c2.88-1.6 4.25-1.88 5-.28s-3.39 6.64-5.68 8-4.94 2.29-5.76 1.29c-.21-.28 3.56-7.41 6.44-9.01z" fill="#fff"/></svg>