<svg height="64" viewBox="0 0 64 64" width="64" xmlns="http://www.w3.org/2000/svg"><path d="m62.63 29.45c-.77-1.1-9.25-8.19-9.25-8.19s7.35-6 8-7.13.53-2.26-.89-3.5-15.72-9.63-16.49-9.49-12 7.86-12 7.86-11.87-7-12.43-7-10.31 5.6-13.52 7.61-4.63 2.72-4.63 3.32 11 9 11 9c-2.56 2.47-9.8 8.26-10.86 9.28s-.49 2.72.64 3.89a78.9 78.9 0 0 0 9.28 7.27c3.6 2.36 8.47 4.27 9.5 4.23s11.12-11.29 11.47-11.4 10.91 8.8 12.32 9.29 2 .28 6.43-2 10.34-6.24 11-7.13 1.21-4.82.43-5.91zm-18.46-25.7c.21 0 13.7 7.84 13.7 8.15s-8.55 7.59-9 7.52-15.36-8.22-15.43-8.42 10.56-7.29 10.73-7.25zm-38.8 9c0-.15 13.52-8.15 13.84-8.12s11.86 6.37 11.79 6.85-14.4 9.11-15.14 9.14-10.31-7.27-10.49-7.87zm13.42 30.78a45 45 0 0 1 -9.85-5.79c-4.24-3.28-5.19-4.9-4.8-5.61s10.1-8.61 10.55-8.68c0 0 13.14 6.92 14.12 7.45a3.28 3.28 0 0 1 1.56 2c-.07.25-11.23 10.63-11.58 10.63zm12.35-13.66c-.35-.07-11.36-6.6-11.5-6.81 0 0 14.54-8.76 14.82-8.76s12.68 6.6 12.08 6.85-15.04 8.79-15.4 8.72zm29.45 1.73c-.15.57-1.31 1.41-1.31 1.41a17.36 17.36 0 0 0 -1.94-2c-.21 0-1 .74-.81.88s1.83 1.73 1.62 1.94a10.37 10.37 0 0 1 -1.41.78s-2.47-2.51-2.61-2.51-1 .6-.85.71 2.89 2.4 2.65 2.47-1.31.88-1.49.77a31 31 0 0 0 -2.68-2.57c-.28 0-.85.46-.78.67s2.65 2.33 2.44 2.54a10.46 10.46 0 0 1 -1.48.78s-2.69-3.15-2.86-3.15-1 .71-.78 1a32.26 32.26 0 0 1 2.75 3 12.27 12.27 0 0 1 -1.2.64s-2.82-3-3-3.07-1.17.67-.92.84a28.62 28.62 0 0 1 3.14 3c-.14.11-1.27.71-1.27.71a46.33 46.33 0 0 0 -3.67-3.82c-.28 0-.81.82-.81.82s3.56 3.42 3.39 3.63a1.39 1.39 0 0 1 -.57.32l-12.31-9.51c-.24-.18-.92-.63-.71-.91s16.42-9.36 16.88-9.25 8.79 6.81 9.78 7.8.95 1.48.81 2.08zm-44-23.47c-.25 0-5.41 3-5.55 3.21s.46.92.81 1 5.35-3.15 5.46-3.34-.5-.87-.74-.87zm-3.87 20.54c-.43-.14-4.34 3.39-4.34 3.57s.77.88 1 .88a53.79 53.79 0 0 0 4.13-3.64c.13-.17-.37-.67-.79-.81zm36.78 16.73c-.78 0-4.62 2-4.94 2s-9.78-8.94-10.63-8.83-13.93 10.82-13.93 10.93-3.67-2.26-4.13-2.19c-1.76.28-1.62 3.81-.84 4.55s15 11.58 17.22 11 18.27-11.31 18.42-11.74.1-5.33.1-5.33a2.18 2.18 0 0 0 -1.27-.39zm-6.39 5.76a27.15 27.15 0 0 0 -2.22-2.16c-.18 0-.71.42-.57.6s2.09 1.83 1.94 2.15-.74 1-.88.81-3.74-4.06-4.09-4.06-.92.43-.82.53 4.13 4 4 4.24a3.41 3.41 0 0 1 -1.34.74c-.1-.07-4.66-4.76-4.8-4.76s-.85.46-.56.7 4.73 4.73 4.52 4.84-1.63 1-1.63 1-4.06-4.35-4.23-4.38-1 .78-.75.88 4.52 3.81 4.24 4.13a4.48 4.48 0 0 1 -1.45 1c-.1-.07-4.69-4.87-4.83-4.91s-.71.71-.67.82 4.62 4.3 4.41 4.55a.78.78 0 0 1 -.46.28s-9.71-4.94-11.58-6.67c-.34-.32 12.38-10.49 12.66-10.49s10.21 8.65 10.21 9-1.1 1.16-1.1 1.16z" fill="#fff"/></svg>