<svg height="64" viewBox="0 0 64 64" width="64" xmlns="http://www.w3.org/2000/svg"><path d="m54 10c-13.26-7.78-25-5.68-34.69-3.59s-18.24 10.17-18.31 19.59 2.23 14.25 8.05 18 16 4.46 18.8 5.07 2.77 3.38 2.77 5.47-.38 4.77 1.49 4.94c11.36 1 23.06-14.61 27-21.57s8.16-20.12-5.11-27.91zm1.42 28.54s-.95-2.37-1.56-2.3-1.35.2-.81.88 1.58 1.88 1.44 2.18-1.08 1.28-1.28 1a23.49 23.49 0 0 0 -1.76-2.63c-.2 0-1.29.6-.88.94s2 2.1 1.83 2.44-1.15 1.22-1.4 1.09-1.76-3.45-2.24-3.38-.94.94-.94.94l2.18 3.3s-1.15 1.69-1.49 1.35-2-3.85-2.3-3.85a2 2 0 0 0 -1.08.88c0 .2 2.5 3.51 2.37 3.72s-1.08 1.15-1.29 1-2.29-4.12-2.5-4.12-1.21.67-.81 1.08a19.85 19.85 0 0 1 2.37 4.06c-.14.2-1.08 1.21-1.42.88s-1.9-3.72-2.17-3.72-1.08.47-.74.87a39.26 39.26 0 0 1 1.69 3.66s-1.12 1.31-1.39 1.19-1.9-4-2.17-4-1 .41-.87.75 2.29 3.65 2.16 3.85-1.29 1.08-1.56 1-1.42-3.51-1.69-3.6-1 .48-.81.81 1.76 3.45 1.56 3.59-1 .88-1.09.61-1.21-2.71-1.55-2.71-.81.14-.54.68 1.55 2.77 1.28 3-2.9 1.83-3.31 1.22.14-7.71-1.22-8.79c-1.64-1.32-14.33-2.57-19.14-5.14s-8.61-6.19-9.8-12.17 4.06-15.9 9.87-18.68a52.32 52.32 0 0 1 33.64-2.77c14.2 3.79 14.81 14.88 15.15 16.84s.44 7.64-5.71 14.07zm-30.61-29.27a42 42 0 0 0 -6.09 1.49 34.16 34.16 0 0 0 -6.49 3.18c-.47.35.13 1.28.81 1.15s3.52-1.89 5.72-2.84a45.32 45.32 0 0 1 6-1.69.67.67 0 0 0 .05-1.29zm-11.91 19.41c-.88-.2.14-8.32 0-9.67s-3.9-1.2-4.39-.4-.51 13.93 0 15.28 6.69 1.08 8.18.88.88-4.06.88-5.07-3.79-.82-4.67-1.02zm3.32 4.74c-.54.06-5 .4-5.14 0s-.34-11.7-.14-12.45c.11-.39.75.07.75.68s-.2 8.11.37 8.25c0 0 4.22.27 4.29.68s.41 2.77-.13 2.84zm4.78-14.88c-1.76.34-1.69 14.74-.88 15.62s3.38.88 4.06.07.2-12 .06-14.34-2.48-1.49-3.24-1.35zm2.09 14.74c-.54.34-.87.47-.94 0s-.15-12.58.36-13.39c.17-.29.74 0 .67.88s.48 12.17-.07 12.51zm12.54-14.47c-.55.2-.07 5.88-.21 6.22s-3.18-4.26-4.53-5.75-3.54-.85-3.58-.07c-.07 1.36.27 14.54.4 15.29s2.91.61 3.32.2-.21-6 .27-6.36 3.24 3.32 4.53 4.94 3.24 2.16 4.17.72-.34-12.45-.54-14.54-3.29-.85-3.83-.65zm3.31 14.74c-.61.07-7.37-7.3-8-7.44s-.67 1.08-.74 2 .4 5.34.07 5.55-.75.27-.82-.07-.74-13.46-.27-13.53 2.17 2.44 2.17 2.44c.74.74 4.46 5.34 5.34 5.41s1.28-1.22 1.22-2.64-.41-3.85 0-3.92.88-.14.88.4.76 11.73.15 11.8zm7.57-4.19c-.2 0-.27-.68-.2-.95s2.64-.2 3.11-.4.07-2.71.14-3.39-1.76-.94-2.37-.94-.41-.21-.14-.68 5.35.47 6.16.07.4-3.92.07-4.67-11.19-.51-11.37.07c-.27.88-.06 15.62.68 16.3s10.75.23 11.41.13.41-4.73.14-5.14-7.42-.4-7.63-.4zm5.82 4.33c-.47.06-8 .54-8.39.13s-.27-13.73.21-14.06 7.23-.27 7.71.13.54 2 0 2-6-.4-6.29.14-.34 3.65.2 3.72 2.37-.07 2.37.27.4.81 0 .94-3 0-3.11.27-.07 3.86.4 3.93 6.83-.07 7 .33.37 2.13-.1 2.2z" fill="#fff"/></svg>