<svg height="64" viewBox="0 0 64 64" width="64" xmlns="http://www.w3.org/2000/svg"><path d="m13.79 34.27a78.37 78.37 0 0 0 7.84-1.38c3.42-.66 9.82-.12 10.36-.3s.18-4.31.06-8.44-1.37-7.19-3-11.26-5.87-5.27-8.44-5.27-4.68 1-6.89 3.59a5.26 5.26 0 0 0 -1.26 5.09 19.21 19.21 0 0 0 -2.56.7 6.74 6.74 0 0 0 -3.54 3 10.4 10.4 0 0 0 -1.07 6.9c.53 2.1 2 5 4.25 6.41a9.72 9.72 0 0 0 4.25.96zm-7.46-9.82c0-1.68 1-4.76 2.4-5.81a6.42 6.42 0 0 1 4.13-1.11c.51.15.75.63 1.17.72s.72-.69.57-1a4.63 4.63 0 0 1 -1-3.35c.3-1.74 2.84-4.22 4.91-4.64a8.49 8.49 0 0 1 8.39 2.64c2.67 3.18 3.63 8.72 3.93 11.26a29.79 29.79 0 0 1 0 6.68 81.89 81.89 0 0 0 -9.5.36c-2.72.45-4.91 1.25-7 1.25s-4.19.21-5.54-.86c-1.79-1.45-2.49-4.47-2.46-6.14zm25.54 9.76c-.18 0-3 .12-6.22.12a54 54 0 0 0 -11.14 1.44c-3.66.83-6.17 3.65-5.81 6.58s1.26 6.59 3.77 8.09a9 9 0 0 0 5.33 1.07 18.39 18.39 0 0 0 1 3.84c.54 1 2.21 3.35 7 3.47s8.56-3.71 9.1-5.81 0-5.87-.42-9.46-1.84-9.34-2.61-9.34zm1.8 12.79c-.27-.09-4.49-5-4.79-4.94a.8.8 0 0 0 -.33 1.17c.36.45 5.12 4.7 5.12 5.12s0 1.44-.21 1.17-4.37-4.7-4.61-4.7-.6.87-.36 1.2 4.67 4.61 4.61 4.85-.21 1.4-.45 1.19-3.8-4.76-4-4.73-.81.93-.57 1.2 3.92 4.03 3.73 4.27-.36 1.14-.66.84a43.11 43.11 0 0 0 -2.87-3.47c-.27 0-.63.87-.54 1.11s3 2.84 2.76 3.08-.78.63-1.08.36-1.42-2.31-1.83-2.31-1 .54-.75.78 1.83 2 1.38 2.1a7.72 7.72 0 0 1 -4.61-1 4.2 4.2 0 0 1 -1.92-3.53c.09-.78.69-2.16.33-2.49a1.25 1.25 0 0 0 -1.61-.06 7.91 7.91 0 0 1 -6.05.42c-3-.93-3.78-4-4.07-5.24a4.55 4.55 0 0 1 1.76-4.94c1.86-1.29 3.51-2.13 9.28-2.69s8-.84 8.39-.54.36.78.81.87.62-.63.62-.63.27-.06.3.06 1.32 4.43 1 4.22-3.21-3.41-3.45-3.35-.51.45-.3.63 3.74 3.75 3.83 4 .9 2.57.48 2.3-3.86-4.1-4.13-4.07-.54.87-.18 1.2 4.4 3.92 4.55 4.25.69 2.35.42 2.3zm6-17.3a47.13 47.13 0 0 1 9.16-1.92c3.47-.42 5.63-.12 7.43-3.35s2.15-5-.18-8.92-7.49-2.82-7.49-2.82a18 18 0 0 0 -.36-1.92 6.54 6.54 0 0 0 -3-4.17 11.19 11.19 0 0 0 -8.23-1.08c-2.81.78-5.45 2.88-5.75 5.69s.78 4.61 1.86 7.13a32.37 32.37 0 0 1 2.1 7.78c.18 1.74-.11 4.71.6 4.92s2.53-.78 3.91-1.38zm13-15.48c.72 0 2.37 2 2.73 2.57s.51 1.17.33 1.35-.42-.48-1.38-1.65a12.76 12.76 0 0 1 -1.67-2.31zm-17.26 6.58c-.72-2.19-2.28-5.42-2.64-6.5a5.76 5.76 0 0 1 1.89-6c2.36-1.8 6.11-2.55 8.89-1.17a6.41 6.41 0 0 1 3.5 5.39c0 1.17-.24 1.77.3 2.16s1.11-.3 1.44-.6a4.3 4.3 0 0 1 2-.27 12.09 12.09 0 0 1 2.54 2.81 9.26 9.26 0 0 0 2 2.31c.33.12.54-.12.72.15s.06 2.09-.3 2-3.75-4.81-4.44-4.81-.9.72-.63 1 4.7 4.61 4.64 4.73-.63 1.23-.78 1a41.76 41.76 0 0 1 -2.85-3.59c-1.25-2-1.34-2.41-1.69-2.41s-.63.84-.42 1.23 2.66 3.56 3.44 4.46 1.2.84 1.2 1-.27.66-.48.57a43.2 43.2 0 0 1 -3.53-3.36c-1.23-1.28-1.35-1.52-1.71-1.43a.66.66 0 0 0 -.18 1.05c.33.33 4.55 4.19 4.34 4.49s-1.34 1-1.49.66-3.75-4.88-4.26-4.91-.62.59-.42 1 3.93 4.05 3.66 4.14-.75.32-.9.14-3.25-3.04-3.81-3.9-.75-1.17-1.08-1.2-.72.45-.21 1.2 4.46 3.89 4.13 4-2.15.72-2.3.42-3.87-4.07-4.14-4.28-.42.42.18 1 3.3 3.2 3.06 3.26-1.65.39-1.86 0-2.6-3.17-2.93-3.17-1 .54-.54.93 2.42 2.45 2.09 2.54-1 .3-1.28.15-1.74-2.12-2.31-2-.78.45-.45.66 1.47 1.35 1.29 1.55-1.74.72-2.22 1.14a66.19 66.19 0 0 0 -1.46-7.54zm18.14 9.4c-3.23-.54-10.36 1.67-12.34 2.15s-4.5.41-4.79.66c-.53.48-.3 4.43-.18 7.13s.76 9.16 2.16 11.55 3.35 5.15 8.32 4.62 6.53-3 7.31-5.63-.84-7-.84-7a10.89 10.89 0 0 0 3.06-1.56c1.85-1.25 2.21-2.69 2.63-6.1s-2.1-5.28-5.33-5.82zm2.94 9.7a12.11 12.11 0 0 1 -3.36 2c-.84.3-1.53.54-1.73.36s-5.21-6.1-5.72-6.16a.42.42 0 0 0 -.45.65c.15.24 5.33 5.84 5.33 5.84a1.89 1.89 0 0 0 .15 1 9.48 9.48 0 0 1 1 2.25c.18.77.33 1.16.18.95s-5.3-6.28-5.83-6.61-.87-.33-1-.06 5.27 5.72 5.75 6.26.92.83.95 1-.27 1.89-.5 1.8-6.47-6.41-6.68-6.41-.33.81-.15 1.11 6.57 5.66 6.57 5.87-.72 2-.84 1.76-6.38-5.92-6.68-6-.78.36-.48.75 6.74 5.8 6.74 6-1.11 1.05-1.56.78-4.46-4.94-5-4.94-.57.66-.27 1.08 4.64 4.31 4.46 4.34-.75.27-.93.15-3-3.08-3.38-3-.9.24-.63.63 2.25 1.91 2 2.06-1.5-.45-2.4-1.2a10.16 10.16 0 0 1 -2.9-4.55 34.71 34.71 0 0 1 -1.53-8.8 35.67 35.67 0 0 1 .09-4.73c0-.19 2.58.12 4.85-.39s7.73-2 8-1.86 4.88 5.81 5.33 6 .57-.27.27-.51-3.81-4.55-4.05-4.88-.54-.84-.33-1a2.09 2.09 0 0 1 1.35 0c.3.18 2.94 3.39 3.18 3.39s.32-.15.24-.27a15.2 15.2 0 0 1 -1-1.95c0-.12.54-.09.66 0a8.8 8.8 0 0 1 1.25 3.39 9.73 9.73 0 0 1 -.95 3.9zm-42.1 4c-1.05-1.5-.12-2.84 0-3.71s-.65-1.17-1-.72a7.25 7.25 0 0 0 -.66 3.65 4.84 4.84 0 0 0 2.58 3.44.85.85 0 0 0 1.1-.71c.07-.26-.97-.41-2.02-1.91zm-3.15-23.13a4.09 4.09 0 0 0 -2.69 2.23 3.29 3.29 0 0 0 .33 3.17c.63.39 1-.21 1-.59s-.54-1.32-.18-2.13a4.68 4.68 0 0 1 1.94-1.68c.59-.38.14-1.09-.4-1zm25.66-11.77a3.81 3.81 0 0 0 -2.54 1.91c-.54 1-.65 2.66-.33 2.91.15.12.72.3 1-.09s-.09-1.17.36-2.19 1.61-1.4 2.18-1.76.05-.78-.67-.78zm12.43 24.1s-.69.42-.66.6 5.66 6.23 5.84 6.38.15-.12.27-.27a80.79 80.79 0 0 0 -5.45-6.74zm-1.68 1.47c-.21 0-.54.33-.48.66s5.57 5.81 5.78 6 .33-.06.36-.39a49.34 49.34 0 0 0 -5.66-6.3z" fill="#fff"/></svg>