<svg height="64" viewBox="0 0 64 64" width="64" xmlns="http://www.w3.org/2000/svg"><path d="m50.12 11.86c-4.3-8.29-10.95-11.1-18.12-10.86-14.68.53-18.77 9.46-20.74 14.56s-1.59 8.93.64 14.78 9.68 20.15 12.23 25.09 5.63 7.57 8.77 7.57 4.89-.69 7.28-3.19 8.72-14.3 11.91-22.81 2.34-16.85-1.97-25.14zm-.79 12.81c-.43-.05-.64 1.07-.59 1.28s3.19 3.93 3.19 4.36-.16 2.44-.37 2.23-3-3.72-3.19-3.72-.64.58-.48 1.06 3.11 3.94 3.11 4.47-.54 3.08-.85 2.76-2.69-4.36-3.15-4.25-.59.9-.54 1.12 3.3 4.09 3.19 4.67a8.42 8.42 0 0 1 -.53 1.54s-3-4.3-3.35-4.3-.74.85-.63 1.06 3.19 4 3.08 4.47a20.15 20.15 0 0 1 -.9 2s-2.67-4.42-3.1-4.5-1 .8-.8.9 3.3 4.31 3.14 4.63-1.12 1.75-1.12 1.75-3.08-4.14-3.29-4.14-1 .9-1 .9 3.29 3.93 3.19 4.41-.91 2.07-1.17 1.86-3.17-4.41-3.52-4.41-1.06.69-1 1.06 3.6 4.89 3.55 5.12a18.33 18.33 0 0 1 -1.2 2s-2.92-4.73-3.24-4.73-1 .74-.85.9 3.4 4.68 3.35 5-1.17 1.32-1.17 1.32-3.09-4.34-3.32-4.4-.74.69-.69 1 3.29 3.88 3 4.41a3.53 3.53 0 0 1 -1.28 1.17c-.16 0-2.55-4.36-3.08-4.41s-1.12.42-.9.8 3.18 4.37 2.9 4.74-1.55.27-1.55.27a35.38 35.38 0 0 0 -2.65-3.88c-.32-.11-1.07.31-1 .47a33.64 33.64 0 0 1 2.13 3.67c-.16.06-3.09 0-6.22-4.78s-11.43-19.78-13.36-25.78a20.11 20.11 0 0 1 1.6-16.7c2.87-5.37 10.52-9.41 17.38-9.46 4.41-.03 9.35.39 14.56 6.39s5.8 13.77 5.64 13.77-1.54-2.23-1.86-2.23a.87.87 0 0 0 -.64 1c.16.42 2.39 3.4 2.5 3.88a12.06 12.06 0 0 1 0 3.19c-.25 0-2.5-3.88-2.92-3.94zm-30.57-14a15 15 0 0 0 -4.2 8s.58.42 1 .31.1-.47 1-2.81a16.71 16.71 0 0 1 2.92-4.52s-.38-1.3-.72-.96zm12.49-.8c-1.43.16-1.27 1.65-1 2.34s0 5.05-3.4 5.85-5.37-1.7-5.53-1.59c-3 2.07-2.23 9.09 1.12 14.08s11.21 5.64 16.21 2.87 8.19-8.56 5-16.26-10.96-7.43-12.4-7.27zm11.11 13.21c-.53 7.86-5.63 10.42-10.58 10.2s-7-3.77-7.92-5.68-.8-6-.1-6.33a8.62 8.62 0 0 0 7-1.75c3.3-2.77 3.25-5.69 3.88-5.9s8.25 1.59 7.72 9.46z" fill="#fff"/></svg>