<svg height="64" viewBox="0 0 64 64" width="64" xmlns="http://www.w3.org/2000/svg"><path d="m40.61 30c.68-.08 4.08-4.63 4.39-5.35a13 13 0 0 0 0-5.31c-.39-1.59-1.35-5.07-3.87-7.1s-6-2.08-12-1.2-8.13 3.19-10.07 6.23-1.68 7.14-1.76 9.86 1.12 10.7 1 12.49-1.52 2.52-3.48 2.48a2.69 2.69 0 0 1 -2.82-2.24c-.2-.84-.08-4.87-.44-5.51s-1.56-.35-2.72-.35-5 .21-5.39.52c-.52.44-.28 2.08-.24 5.15a16.66 16.66 0 0 0 2.71 8.95c1.6 2.07 4.47 4.59 7.91 4.83a18.51 18.51 0 0 0 10-1.88c4-1.8 5.27-4.87 5.74-9.1s-.87-18.53-.67-20 3.75-2.2 4.71-1.44.84 4.55.88 5.11 1 1.52 2.31 2.23 3.13 1.63 3.81 1.63zm-6-10.06a5.46 5.46 0 0 0 -5.3-.6c-1.79.66-2.31 2.08-2.39 3.66s0 4.87 0 4.87-1.48-3.1-1.92-3.1-.79.16-.71.32 2.79 4.51 2.83 4.79.24 2.72 0 2.6-2.32-4.63-2.72-4.71-.83.52-.59.67 3.35 5.56 3.39 5.75 0 2.16 0 2.16a49.94 49.94 0 0 0 -2.6-5c-.27-.08-.87.28-.71.6l3.39 6.66v2.4s-2.91-6.67-3.11-6.67a1 1 0 0 0 -.64 1c.12.48 3.71 7.11 3.67 7.35s-.2 1.51-.4 1.31-2.71-6.1-3.07-6.1-.84.44-.76.75 3.11 5.75 3.11 6-.64 1.12-.8 1-2.63-5.15-2.83-5.19a.66.66 0 0 0 -.56.76c.12.4 2.71 4.87 2.67 5.15s-.83.88-1 .76-2-4.35-2.4-4.43-.76.52-.8.72 2.2 4.07 2.12 4.31a.55.55 0 0 1 -.68.32c-.24-.12-1.72-3.68-2.08-3.76s-.75.36-.79.64 1.83 3.4 1.75 3.56-.64.47-.84.31-1.71-3.11-2-3.15-.72.44-.72.64 1.72 2.87 1.64 3-.64.72-.92.4-1.68-3.07-2-3.15-.88.48-.88.48 1.84 2.63 1.8 2.75-1.12.28-1.24.08a25 25 0 0 0 -2.15-3.35c-.32-.12-.8 0-.84.28s2 2.87 1.91 2.95-.91.12-1.11-.12a25.46 25.46 0 0 0 -1.92-2.75c-.24 0-.84.36-.84.36a10.82 10.82 0 0 1 1 2c-.16 0-2-.24-4-2.67a12.25 12.25 0 0 1 -2.92-6 15.75 15.75 0 0 1 -.24-4.91c.12-.35 6.07-.52 6.27-.16s-.4 4.91.84 6.55a3.83 3.83 0 0 0 4.48 1.39c1.56-.48 3.51-1.48 3.63-3.84s-.79-7.82-1-10.42-.2-6.78.68-9.26 2.23-4.91 4.91-6.07a32.76 32.76 0 0 1 11.17-1.95c2.84.16 4.79 1 4.83 1.19s-.75.6-.51.8a11.75 11.75 0 0 1 1.87 2.44c.68 1.2 1.2 2.55 1.4 2.47a.31.31 0 0 0 .2-.4 30.28 30.28 0 0 0 -1.25-3.38 11 11 0 0 1 1.84 4.11c.32 2.08.24 3.28 0 3s-3.6-7-4.07-7-.68.32-.56 1 4.43 7 4.47 7.14-.48.88-.6.72-2.56-4.59-3.31-5.43-1.48-.67-1.52-.47 1.82 2.43 2.31 3.43 1.76 2.83 1.8 3.19-.56 1.32-.76 1-2.83-5.39-3.27-5.55-.56.2-.52.4 3.27 5.75 3.19 5.91-.36.68-.64.52a6.08 6.08 0 0 1 -.59-.4 52.15 52.15 0 0 0 -2.52-4.57c-.2 0-.84.36-.68.6a22.27 22.27 0 0 1 1.56 3.07 10.89 10.89 0 0 1 -2.28-.76c-.16-.1.4-3.91-1.16-5.01zm-28.81 17.41a39.7 39.7 0 0 0 .08 4.27c.12.72.6 1.38 1.12 1.24s0-4.24 0-4.39.76.15 1.2-.12.32-.48.08-.76-2.28-.82-2.48-.24zm20-20.88c-.32-.28-1.2-.12-2.35.64a7.48 7.48 0 0 0 -3.16 4.31c-.8 2.43-.28 4.6 0 4.75.6.36.84-.16 1.08-.52s-.08-3 .72-5.15 3-2.83 3.63-3.19.4-.56.08-.84zm34.73 15.21c-.24-.32-8.22-.12-8.86.12s-.4 1-.24 2.07.28 4.16-.52 5-3.19 1-4.67 0-1.4-6.58-1.4-6.74-.07-1.13-.59-1.13-3.84 3.15-4.08 3.39-1.87-.91-2.31-1.15-2.11-1.33-2.36-1c-.44.64.08 4.55.64 8.58s1.16 5.18 3.32 7.67 5.9 3 8 2.95 4.91.32 8.54-2.6a11.49 11.49 0 0 0 4.71-8.58 33.82 33.82 0 0 0 -.18-8.58zm-1.63 6c0-.16-2-4.39-2.44-4.08s-.64.52-.44.8 2.48 4.43 2.48 5-.12 1.36-.32 1.16-2-5.11-2.64-4.71-.32 1.16-.28 1.32 2.24 4.19 2.2 4.67-.48 1.68-.6 1.48-2-4.4-2.39-4.16-.68.2-.6.56 2.31 4.27 2.31 4.51-.8 1-1 1-2.18-4.57-2.47-4.49-.8.28-.72.68 2.4 4.39 2.32 4.51-.92.84-1.12.64-1.88-4.23-2.19-4.23-.8.32-.8.48 2 4.11 1.84 4.23-.84.36-1 .24-2.15-4.43-2.43-4.43-.8.12-.72.4 2.19 4 2 4.07-1.16.44-1.4.12-1.72-4-2.12-4.11-.72.16-.68.36 1.92 3.79 1.72 3.91-1.08.28-1.2.08a28 28 0 0 0 -2.27-3.52c-.24 0-.68.52-.64.64s1.71 2.64 1.36 2.68a13.28 13.28 0 0 1 -4.91-2.76c-1.75-1.55-2.75-4.51-3.13-10.58 0-.24 2.92 1.64 3.59 1.48s3-2.63 3.24-2.51-.12 5 1.28 6.42a4.52 4.52 0 0 0 4.79 1.32c1.87-.44 3.39-1.64 3.43-3s-.28-4.12 0-4.39 5.23-.68 5.63-.36.36 4.72.32 4.56zm-15.09 2.74c-.76-.72-.68-1.87-.8-2.43s-1.12-.52-1.24-.08a4.07 4.07 0 0 0 1.4 3.71c.84.6 1.4.48 1.56.16s-.16-.64-.92-1.36z" fill="#fff"/></svg>