<svg height="64" viewBox="0 0 64 64" width="64" xmlns="http://www.w3.org/2000/svg"><path d="m52.43 48.74c-.08-4.71-.79-37.21-1.11-40.8s-3.92-3.2-6.47-3.2h-29.22c-1.28 0-3.57.17-3.84.8-.72 1.68-.32 4.15-.08 7s1 25.79 1.2 34.25.56 9.74 1.44 11.34 7.1.88 18.2 1 17.81.56 19.17-.72.79-4.96.71-9.67zm-2 6.76c-1.2.06-21.74.3-26.89.3s-7.78-.54-8.38-1-1.38-10.53-1.26-17.72-.36-14.19-.78-19.28-.66-11-.18-11.68c.32-.43 16.69-.08 20.92-.16s14.34-.82 15.38 1.34a11.44 11.44 0 0 1 .92 5.7c0 1.85 1 28.62 1 33.11s.44 9.33-.76 9.39zm-31.65-47.24c.52-.12-.12-1.16-.68-1.16a9.56 9.56 0 0 0 -3.1.52c-.36.32 0 6.15.12 6.58s1-.08 1.15-.59a47.17 47.17 0 0 0 0-4.76c.03-.27 1.99-.47 2.51-.59zm22.91 1.51c-2.55 0-17.4-.24-19.16-.2s-4.21.54-4.47 1.08c-.4.84-.28 4.35-.32 6.59s.26 17.76.12 21.84.24 6.94 1 8.14 2.91 1.12 6.51 1.32 9.66.4 13.41.52 5.71-.12 7.35-1.16 1.51-2.44 1.63-5.43.52-20.48.64-24.75-.32-4.43-.88-6.27-3.27-1.64-5.83-1.68zm4.8 29.31c0 3.47 0 5.78-.44 6.66s-1.32 1.88-5.39 1.88-15.49-.44-16.93-.52-3.39 0-3.87-1.12-.64-6.86-.56-14.65-.44-19.08 0-19.88c.17-.34 8.74-.32 12.85-.4s12.74.16 13.34.44 1.67 2.08 1.67 4.47-.67 19.64-.67 23.12zm-11.49 11.37a3.73 3.73 0 0 0 -4.63.32 2.1 2.1 0 0 0 .4 2.64 5.46 5.46 0 0 0 3.79.6c.79-.4 2.26-2.2.44-3.56zm-1.6 2.32c-1 0-2.83-.52-1.52-1.48a3 3 0 0 1 2.52.24c.51.47-.01 1.24-1.05 1.24zm1.56-40.32c-.52 0-.56.32-.56.72 0 0 8.74 11.73 9.14 12s.48-.28.4-.72-8.51-12-9.03-12zm-4.8 2.35c-.68 0-.72.44-.6.72s2 2.56 4 5.11 9.06 11.1 9.18 11-11.74-16.88-12.58-16.83zm-3.72 3c-.51-.12-.67.48-.59.68a14.59 14.59 0 0 0 2 2.51c1.39 1.56 12.15 16.61 12.15 16.61a39.59 39.59 0 0 0 -1.8-3.75c-1.38-2.6-11.45-15.98-11.76-16.05zm-2.59 5c-1.28 0-.48 1-.44 1.27a47 47 0 0 0 4.15 5.12c2.52 2.87 10.22 13.61 10.62 13.37s-13.93-19.72-14.33-19.73zm-.12 9.22c-.12.08-.6.32-.6.72s11.42 14 11.46 13.73-10.43-14.71-10.86-14.42zm-.73 8.29c-1.2-.16 0 1.52.28 2s3.91 4.15 4.11 3.59-3.77-5.51-4.39-5.59z" fill="#fff"/></svg>