<svg height="64" viewBox="0 0 64 64" width="64" xmlns="http://www.w3.org/2000/svg"><path d="m58.2 12.56c-1.2-5.91-5.81-4.85-5.81-4.85s.74-6.81-6.81-6.71-7.49 6.5-7.49 6.5h-3.91c-3 0-8.87 0-8.87 0s.58-5.28-6.55-5.18-7.18 6.44-7.18 6.44a25.18 25.18 0 0 0 -6.39 1.27c-1.84.78-.74 15.56-.19 24.97.64 11.19 0 21.44.53 23.87s4 3.8 7.82 4c2.63.14 11 .16 19.27 0s15.76-.15 21.38-3.42 5.36-6.45 5.73-18.75-.31-22.22-1.53-28.14zm-2.37 33.53c-1.11 6.28-4 8.23-6.29 9.45a12 12 0 0 1 -3.85 1.37s-1.27-1.42-1.48-1.37-1.16.21-1 .53.84 1 .68 1a6 6 0 0 1 -1.32.11 27 27 0 0 0 -1.84-2.54c-.16 0-1.11.37-1.11.64s1.58 2.11 1.32 2.11-.79.32-.95 0-1.38-2-1.64-2-1 .16-1 .37 1.21 1.64 1 1.69a10.56 10.56 0 0 1 -1.53-.1 12.17 12.17 0 0 0 -1.06-1.59c-.16 0-1.16.06-1.16.32s1.06 1.69.85 1.69-7 .26-13.84 0-11.14.51-12.51-.77-.9-9.76-1-13.09-.32-12.5-1.1-20.42-.79-11.14.84-11.56 6.39-.32 6.5-1.37c0-.21-.32-6 4.64-6.18s3.75 5.17 4.49 5.28 16 .53 16.53-.05-.37-6.44 5.43-6.44 3.91 6.12 4.76 6.33 3.74-.74 4.43 1.22a14.11 14.11 0 0 1 .78 3.28s-3.64-2-3.9-1.79-.53 1.32-.11 1.58 4 1.74 4 2a17.05 17.05 0 0 1 .43 2.85c-.16-.06-4.76-3.43-4.91-3.43s-.43 1.37-.22 1.47 5.07 3.54 5.07 3.54l.24 1.78s-5.38-4-5.59-4-.42 1.54-.11 1.75 5.39 3.8 5.49 4 1.14 16.06.04 22.34zm-42-31c.32 0 .16-1.22 0-1.53s-3.68-.23-4.12.21a16.4 16.4 0 0 0 .11 4.54 1.5 1.5 0 0 0 1.53-.16c.32-.37-.21-2.8-.16-3.06s2.35.01 2.66.01zm26.79 29.15c-.37.32.05 8.45.16 9.24s1.48 1 3.64.84 5.65-.73 6.92-3.22 1-6.81.58-7.18-10.5-.37-11.3.32zm7.87 7.5c-2.85 1.42-4.44 1.63-4.65 1.21a42.58 42.58 0 0 1 -.42-6.7c.37-.38 7.23-.16 7.39.26s.53 3.8-2.32 5.23zm-2.8-28.56c-1.48-.37-2.91-5.71-11.56-5.6s-14.58 5.81-15.68 6.49-5.18.62-5.34.64c-1.21.15-.84 2.37-.74 6s1 18.22 1.06 21a3.37 3.37 0 0 0 2.9 3.59c1.06.21 12.83.21 16.79.11s4.33-1.53 4.6-2.48-.06-9.3.31-9.88 6.44-.47 7.76-.47 5.13 0 6.18-1.22.03-16.36-.16-17.36-4.64-.46-6.12-.82zm4.7 15.25c-.21 2.27-1 2.54-1.74 2.59s-10.25-.02-11.46.26-1.06 2.06-1.11 3.65.48 6.65 0 7.6-4.28 1.58-9.66 1.64-9.5 0-10.19-.74-1.16-7.18-1.32-11.14-.79-13.84-.32-14.29c.27-.26 3.59.21 4.91-.74s6.71-6.6 12.36-7.07 9.5 1.32 11.24 3 2 2.27 3 2.42 3.43 0 3.69.27.81 10.28.6 12.55zm-10-15.52c-2.17-1.11-7-.79-7-.79-10.88 1.06-14.39 8.45-14.2 14.15s1.26 10.24 5.06 12.73 9.51 1.32 9.88 1-.06-7.13-.11-7.61-1.06-.26-3.11-.74-5.23-1.79-4.91-6.23 3.43-6 6.7-6.38 5.91 1.37 6.44 3.06.21 6.54.42 6.91 6.92 0 7.4-.26.15-3.38 0-7.39-4.44-7.36-6.6-8.45zm5.25 13.89c-.22 0-3.49.26-3.49-.06s.37-6.33-3.17-8.44-7.07-2.7-11.51.05a8 8 0 0 0 -2.27 11.72 8.41 8.41 0 0 0 7.34 3.64 15.52 15.52 0 0 1 -.1 4.12c-.21.16-5.28.74-8.13-2.27s-3.91-7.87-3.49-11.88 5.92-9.92 12.36-10.14 11.72 3.7 12.24 7.92.43 5.34.22 5.34zm-14.36-6.18c-.43.11-.16 2.64-.16 2.64a19.72 19.72 0 0 0 -3.12.21c-.42.21-.37 3.43.37 4.59s4.12 3.33 7 2 3.49-4.22 2.54-7.29-6.21-2.26-6.63-2.15zm2 7.23c-1.95.27-3.27-.47-3.27-3.17 0-.47 2.32.06 2.38-.15s-.16-2.53.1-2.53 2.64-.26 2.85 2.06-.05 3.53-2.01 3.79zm-14.28-24.6c2.59 0 2.64-2.59 2.54-4.86s-.4-2.39-1.54-2.58-2.35-.13-2.8.73c-.81 1.54-.81 6.71 1.8 6.71zm.11-5.44a.71.71 0 0 1 1.16.37c.05.37.37 3.49-.69 3.59s-.76-3.69-.5-3.96zm25.55 4.28a3.09 3.09 0 0 0 2.91-1.64 8.38 8.38 0 0 0 0-5.33c-.58-1-4.32-.28-4.65-.21-1.27.26-1 3.9-.9 4.64a3.42 3.42 0 0 0 2.61 2.54zm0-5.12c.44-.38 1.64-.06 1.85.16s.42 3.43-.53 3.69-1.56-.9-1.56-1.82-.16-1.72.21-2z" fill="#fff"/></svg>