<svg height="64" viewBox="0 0 64 64" width="64" xmlns="http://www.w3.org/2000/svg"><path d="m48.85 20.55c-3.23 2.28-4.88 2.53-5.38 2.55.1.95.43 2.49 1.55 3.08 1.66.87 7 1.41 10.91-2.59s5.17-7.37 4.8-13.08-1.73-8.17-2.5-8.79a1.71 1.71 0 0 0 -1.59-.33s-3 4.41-5.5 5.41-6.21.54-7.75 3a21.48 21.48 0 0 0 -1.87 3.83c-.13 0-.92-6.66-5.21-10.16s-7-1.54-7-.88 2 1.54 5.21 5.59 6.25 8.87 6.25 10.7-2.34 14.13-5 18.88a48.1 48.1 0 0 1 -9.09 11.75c-2.58 2.21-2.95 2.71-2.62 3l.33.29a11.85 11.85 0 0 1 -7.39-2.58 15 15 0 0 1 -5.5-12.88c.37-6.08 6.58-11.08 11.5-12.45a14.66 14.66 0 0 1 11.87 1.87s1.58.5 2.08-.54a36 36 0 0 0 2.05-4.83c0-.63-.09-2.67-1.25-3.59s-6.42-3.29-13.13-3-13.44 4.59-16.62 8.34-4.21 9.7-4.63 12.62-.27 9.79 5.19 16.67 11.67 8.91 17.79 9.91a20.19 20.19 0 0 0 17-4.5c5.38-4.37 8.25-10.08 7.5-16.54s-1.21-9.12-2.71-11-2.29-2.2-2.58-1.75a45 45 0 0 0 -2.25 5.59c0 .46.83 6.25-1.79 10.75a15.9 15.9 0 0 1 -10.52 7.75c-3.67.62-4.8.45-4.8.25a36.58 36.58 0 0 0 8.46-6.55c4.25-4.58 8.21-8.75 8.54-15.2a39.62 39.62 0 0 0 -.29-9.34c0-.11-.06-.2-.09-.33-.25-1-.08-1.67 4.21-2.92s7.4-5.55 7.4-5.55.8-.08.63.88-2.25 3.88-6.21 6.67zm-20.21 33.67c5.54-.5 9.75-2.83 13.5-8.08s2.5-12 2.5-12 1.42-3.45 1.54-3.83.75-.42 1.67 2.83a24.78 24.78 0 0 1 .83 6.63c0 .12-1-.67-1.29-.71s-.33 1-.33 1l1.5 1.29s.25 2 .25 2.21-1.54-1.79-1.71-1.79-.62.92-.58 1.17a28.29 28.29 0 0 0 1.91 2.33c.09.12-.41 1.71-.66 1.71s-1.71-1.98-1.92-1.98-.5 1-.5 1.17a10.14 10.14 0 0 0 1.71 2.12c.21.09-.67 1.29-.92 1.42s-1.54-1.54-1.66-1.54-.5.66-.5.83a14.86 14.86 0 0 0 1.29 1.58c.25.34-.46 1.38-.67 1.46s-1.17-2-1.33-2.12-.88.33-1 .71 1.46 2.33 1.62 2.54-1 .87-1.16.87-1.29-2.16-1.46-2.21-.88.59-.88.59 1.25 2.25 1.34 2.37-.5.63-.92.67-1.25-2.21-1.42-2.33-.7.45-.87.54 1.08 2 1.21 2.25-1.17.91-1.46 1-1.17-2.3-1.29-2.34a1.45 1.45 0 0 0 -.88.59c-.16.29 1.17 2.16 1.21 2.29s-1.17.62-1.37.62-.88-2.25-1.17-2.41-.92.16-1 .29a19 19 0 0 0 1.12 2.62c.09.25-1.5.63-1.62.63a23 23 0 0 1 -1-2.38c-.09-.12-.88.17-1 .38s.75 2 .91 2.25-.79.5-1.25.5-.83-2-1-2.34-.83 0-1.12.3.66 2.12.66 2.12a26.63 26.63 0 0 1 -3.37.13 19.59 19.59 0 0 1 -10.1-2.87c-4.88-2.71-8.75-8.5-10.5-13.71s-1-10.12 1-15a18 18 0 0 1 8.5-9.41c3.46-2 6.54-3.42 12.33-3.09a23.79 23.79 0 0 1 9.58 2.5l-1.62 4c-3.33-1.12-10.21-2.87-15.92.34s-9.25 8.58-9.33 14.37 1.71 10 4.87 13 8.19 4.42 13.73 3.92z" fill="#fff"/></svg>