<svg height="64" viewBox="0 0 64 64" width="64" xmlns="http://www.w3.org/2000/svg"><path d="m48.18 38.4c-5.38-2.68-6.25-2.25-7.13-.43s-1.62 4.31-3.44 5.03-5.37 1.37-9.87-2.25-5.06-5.53-4.13-8.75 3.19-4.25 4.07-5.5.25-4.38-1.88-6.13c-.44-.37-4.12-5-8.5-6.94s-7.25 0-8.5 1.13a21.88 21.88 0 0 0 -5.44 11.28c-.62 5.25 1.64 11 5.13 15.16a72.27 72.27 0 0 0 19.81 16.59c9.5 5.19 14.88 6.75 21.63 2.75s7.62-4.12 7.81-7.12.44-5.38-1.13-7.25-3.06-4.88-8.43-7.57zm8.06 11.54a5.53 5.53 0 0 0 -.71.92s-1.92-3.54-2.25-3.54-.92.46-.75.71 2.21 3.41 2 3.66-.79 1-1 .88-2.41-4-2.41-4-.84.46-.71.67 2.37 4.12 2.21 4.33a6.31 6.31 0 0 1 -1.25.67 39 39 0 0 0 -2-3.5c-.17 0-.92.41-.88.54a31 31 0 0 1 1.79 3.54 6.38 6.38 0 0 1 -1.37.62c-.17 0-1.46-2.75-1.67-2.79s-.92.25-.87.46a27.53 27.53 0 0 1 1.41 3c-.16.09-1 .5-1.12.42s-1.34-2.83-1.46-2.83-.83.16-.83.5 1.41 2.87 1.16 2.91-1.62.46-1.71.29a20.7 20.7 0 0 0 -1.29-2.95c-.21-.05-1-.09-.87.2s1.41 2.88 1.12 2.92-1.91.13-2-.08a24.06 24.06 0 0 0 -1-2.38c-.12-.08-1-.16-1 .13s.88 2.16.75 2.16-1.58.09-10.16-5-13.75-9.08-18.88-16-5-10.83-4.25-14.87 5.08-6.83 5.83-7.25c1.56-.87 3.92-1 8.63 2.83s6 6.79 5.71 8-3.21 4.25-4 6a7.63 7.63 0 0 0 1.83 8.34c3 3.16 6.75 5.25 9.67 5.62s5-.46 5.87-1.83 2.42-5.21 2.92-5.38 4.92.88 8.5 4.17 3.75 3.58 3.54 3.83-.5.54-.33.67a15.64 15.64 0 0 1 1.59 2.16c.28.55.53 1 .24 1.25zm-23-25.45a11.07 11.07 0 0 1 4.91 2c3.05 2 3.42 4.75 3.71 5s4.21-.79 4.46-.92 0-2.46 0-2.67a13.65 13.65 0 0 0 -3.58-6.66 11.26 11.26 0 0 0 -8.54-3.24 15.3 15.3 0 0 0 -2 3.41c-.2.45 1.04 3.08 1.04 3.08zm1.37-5.42c.13 0 5 0 7.54 3.12s2.88 5.5 2.63 5.59-1.88.22-1.88.22a9.1 9.1 0 0 0 -4.2-5.13 21.27 21.27 0 0 0 -5-1.75 15.65 15.65 0 0 1 .91-2.05zm9.63.25c4.54 3.83 4.08 9 4.16 10.08s.44 1.05.63 1.21 4-.54 4.29-.75.25-2.33.21-3a20.79 20.79 0 0 0 -7.75-13.12c-6.5-4.88-12.78-3.46-13.08-3.21s.33 4.62 1.16 4.83 5.84.13 10.38 3.96zm-10.17-7.54c.08-.34 2.25-.46 4.5 0a18.19 18.19 0 0 1 9.67 5.54c3.76 3.87 3.76 9.75 3.76 10.25s-1.33.54-1.71.54c0 0 .67-4.25-3.87-9.62s-11.84-5.17-12.17-5.13-.25-1.25-.18-1.58zm25.63 8c-1.55-5.29-3.21-10.63-11.17-15.38s-16.71-2.5-16.79-2.25a39.64 39.64 0 0 0 1.29 6 18.67 18.67 0 0 1 7.08-.15c5 .71 9.09 4 11.71 7.79s3.54 12.86 3.63 13.21 4.95-.38 5.08-.42.71-3.43-.83-8.76zm-.13 5.25c-.29.17-2.12.42-2.25.17s-1.67-9.42-5.5-13.63a20.52 20.52 0 0 0 -18.42-5.88l-.5-2.69a20.91 20.91 0 0 1 12.59 1.32 22 22 0 0 1 11.71 11.62c1.8 4.17 2.66 8.96 2.37 9.13z" fill="#fff"/></svg>