<svg height="64" viewBox="0 0 64 64" width="64" xmlns="http://www.w3.org/2000/svg"><path d="m58.57 17.34c-1.52-5.46-6.47-6.18-11-5.46s-7.25 4.12-9.2 6.78-2.52 4.75-1.76 5 3.35-1.48 4.59.48.2 4.31-1.64 7.19-5 4.75-6.06 4.59-2.52-1.48-3-6a44.65 44.65 0 0 0 -3.75-13.92c-2-4.35-4.23-5.71-6.47-6.55s-4 .68-6.15 2.4-8.8 7.92-9.13 8.45 0 3.51 1.28 5.31 2.36.92 4.51.8 3 2.27 4.63 8.06 4.39 13.77 6.75 16.25 6.31 3.15 10.7 3.87 7.66-1 10.78-3.71 10.45-13.45 12.44-18.09 3.99-9.98 2.48-15.45zm-1.24 5.59s-2-5.31-2.71-6.22-1.2-.76-1.24-.28 1.16 1.63 1.59 2.51 2.08 4.75 2.08 4.75-.28 3-.52 2.68-1.87-5.37-2.53-6.51-.92-1.36-1.4-1.08-.16.72.16 1 2.55 5.75 2.87 6.55a4.32 4.32 0 0 1 .44 1.35c0 .12-.56 1.56-.72 1.44s-2.75-6.75-3.11-6.91a.52.52 0 0 0 -.56.8c.32.56 3.32 6.39 3.32 6.67s-1.07 2.52-1.31 2.2-2.24-5.79-2.52-6-1 .2-.8.6 2.41 5.08 2.63 5.52.32.51.12.87-.68 2-1 1.68-2-5.59-2.4-5.79-.59.4-.47.72 2.43 5.63 2.31 5.95-1 2.35-1.16 2.11-1.75-6.3-2.31-6.22-.76.36-.68.72 2.59 5.86 2.49 6.02-.91 2.32-1.11 1.8-1.56-5.71-2-5.71-1 .56-.88.68a58.91 58.91 0 0 1 2.28 5.83c0 .32-1.8 2.31-1.92 2s-1.75-5.74-2-5.9-.92-.08-.8.44 2.27 5.58 2.07 6-.88 1.88-1.23 1.64-1.92-6.39-2.2-6.47-.64.44-.64.84 2.44 6 2.24 6.39-.76 1.64-1.16 1.24-1.52-5.91-2.08-6a.64.64 0 0 0 -.64.92c.2.4 2 5.75 1.84 6s-.68.84-.84.64-2-5.55-2.27-5.75-.56 0-.6.68 2.28 5.67 2.04 5.99-1.07 1.24-1.23.8-1.72-5.63-2-5.75a.55.55 0 0 0 -.68.64c.12.4 2.52 5.43 2.08 5.75s-1.72 1.28-1.88.6-1.6-4.71-2-4.83-.95 0-.71.68 2.11 4.19 1.71 4.51-1 .68-1.43.4-1.36-4.24-1.8-4.51-1-.32-1 0 1.94 4.39 1.64 4.51-1 .2-1.2-.08-1.56-3.88-1.76-3.92-.79.08-.71.48 1.27 3.2 1.11 3.24a1.68 1.68 0 0 1 -1.27-.16c-.36-.32-1.16-3.16-1.52-3.32s-.88 0-.68.56 1 2.36.76 2.36-2.08-.32-4.31-3.52-4-9.5-5-14.69-1.48-9.42-3.08-10.5a6.84 6.84 0 0 0 -4.83-1 7.12 7.12 0 0 0 -2.86 1.43 1.77 1.77 0 0 1 -.8-2.15 59.92 59.92 0 0 1 8-7.67c2.9-2.18 3.54-2.9 5.45-2.34s4.43 2 6.75 8.74 2.95 14.17 3.59 15.65a3.2 3.2 0 0 0 3.84 2.08c1.91-.44 5.07-2.64 6.78-5.31s2.76-5.75 1.72-8.07-2.4-2.15-3.47-1.93-1.24-.16-1.12-.36 2.39-4.2 4.87-6 7.46-3.4 10.46-2.24 3.87 5.07 4.07 6.59a9.19 9.19 0 0 1 -.16 2.94zm-37.53-9.5c-1.55-.32-3.67 1-4 1.24a.77.77 0 0 0 0 1.08c.4.24 1.08 0 1.68-.48a2.89 2.89 0 0 1 2.19-.6c1.16 0 1.36.72 1.64.88s.6-.08.56-.76-.51-1.04-2.07-1.36zm6.55 15.41c-.2-.52-1-.51-1.12-.16a23 23 0 0 0 .24 6.67c.52 1.64 2.2 4.47 2.64 4.59a.76.76 0 0 0 .88-.72c0-.4-.72-.92-1.88-3.47s-.56-6.39-.76-6.91zm15.21-9.06c-.76.36-.52 1 .44 1.44s.88 1.31 1.2 1.67.28.24.76 0 .32-.56-.16-1.67-1.8-1.66-2.24-1.44z" fill="#fff"/></svg>