<svg height="64" viewBox="0 0 64 64" width="64" xmlns="http://www.w3.org/2000/svg"><path d="m54.05 10.16c-6.88-7.27-16.32-9.42-23.2-9.16-7.27.3-13.27 2.66-19.36 7.28s-9.34 12.72-9.14 21.54 1.18 16.18 8.55 24.48 20.64 10.61 29.88 7.17 16.22-10.02 19.22-19.16c3.7-10.96.93-24.87-5.95-32.15zm2.75 31.21c-3.29 6.34-7.08 11-12.58 14.25s-12.93 4.57-19.07 2.85a28.48 28.48 0 0 1 -16.56-12.92c-4.08-6.88-3.83-14.25-3.29-19.76a22.7 22.7 0 0 1 5.94-13.79c3.59-4 10.37-7.62 19.51-8.65 7.25-.79 13.57 1.95 18.53 5.73a25.61 25.61 0 0 1 6.88 7.42s-3.54-1.13-3.73-.88-.64 1.33-.2 1.47 4.42 1.13 4.72 1.33.93 2.11.69 2a37.27 37.27 0 0 0 -4.38-1.63c-.29 0-.39 1.33-.1 1.43a43.84 43.84 0 0 1 5 1.72 2.68 2.68 0 0 1 .39 1.33s-4.77-1.48-4.91-1.48 0 1.28 0 1.28 5.11 1.52 5.11 1.67.14 1.18.14 1.18-4.42-1.82-4.76-1.62-.54.79-.1.93a44 44 0 0 1 4.86 2.46 23.28 23.28 0 0 1 -2.09 13.68zm-45-26.49c.25-.05.45-.69 2.51-2.5a13.39 13.39 0 0 1 4.18-2.56c.15-.05.05-1-.49-1.18s-1.53.59-4 2.46-2.94 2.73-3 3 .54.83.78.78zm37.04 12.73c-.2-.29-3.74-2.46-3.39-6.19s3.88-5.11 4.37-5.6-.29-2.41-4.81-5.07-9.83-3.19-18.33-1.62-12.29 5.16-14.45 7.33a9.78 9.78 0 0 0 -2.71 4.42c-.34 1 .59 1.67 1.28 1.87s5.95-.05 6.14-.05.3 1.47.25 1.72-1.18.39-1.38.78 9.24 16.8 9.39 17.11a2.22 2.22 0 0 0 1.57 1c.54 0 4.77-8.31 5-8.75s-3.18-9.16-3.67-9.56-3.44-.35-4-.4-.34-1.37-.15-1.72 12.44-.1 12.83 0 .1 1.28.1 1.58-3.39.14-3.69 0-.39 1.09-.19 1.63 6.83 14.49 7.32 15.33 1.77 1.23 2.31.79 6.37-14.3 6.21-14.6zm-7.37 10.71s-5.6-11-5.11-11 3 .1 3-.1.69-5.9-.14-6.24-17.35-.44-17.55-.1-.24 6.09.64 6.09a28.16 28.16 0 0 1 3.69.03 57.56 57.56 0 0 1 2.85 6.88c-.05.3-2.66 4.57-2.66 4.57s-7.42-12.28-7-12.28a1.31 1.31 0 0 0 .78-.3s-.1-5.45-.49-5.6-5.26 0-5.36-.3a27.47 27.47 0 0 1 14.65-7.76c9.34-1.72 17.74 2.8 17.4 3.39s-5.46 4.23-3 8.11 2.83 4.2 2.83 4.34-4.53 10.27-4.53 10.27zm-31.55-10.86c-2.61.84-.92 9.54 1.13 14.8s6.73 8.2 8.11 8.5 3-1 2.94-2.07-6.33-14.25-8.1-18.23-3.22-3.27-4.08-3zm9.63 20.6c-.34.09-3.59-.89-6.09-6.79s-2.46-10.07-1.92-10.42c.29-.18 8.35 17.15 8.01 17.21zm13.76-9.74c-.84-.14-1.87 1.87-3.78 5.51s-4.67 8.8-3.35 10 7.38 1.13 9.19.64 3.49-2.16 3.49-3.49-4.63-12.49-5.55-12.66zm1.08 8c.48-.11 2.85 3.68 1.77 5s-5.26 1.82-5.36 1.47 3.2-6.41 3.59-6.5zm18.87-19.32c-.83.44-10.08 19.79-10.22 20.3s1.33 1.42 2.61 1.37 3.88-.73 7.91-5.6 3.09-11.89 2.85-14.25a2.1 2.1 0 0 0 -3.15-1.82zm0 12.14c-1.23 3.1-4.32 5.5-4.81 4.77-.27-.41 5.06-9.93 5.45-9.88s.59 2.03-.64 5.13z" fill="#fff"/></svg>