<svg height="64" viewBox="0 0 64 64" width="64" xmlns="http://www.w3.org/2000/svg"><path d="m24.52 12.47c-.24-.41-5.21-.65-8.26-.77s-4 .47-4.07.89c-.3 1.08 5.21 10 5.45 10.6s-3.06 5.09-5.45 8.39-3.84 5.42-3.84 6.42 1.44 3.48 2.16 3.66 6.59.12 7.49.12 1.07-.42 1.91-1.62 9.88-15.57 10-17.13-5.15-10.14-5.39-10.56zm.12 16.09c-.12-.16-1.55-3-1.87-3s-.84.2-.64.4 2.35 2.87 2.15 3.39-1.47 2.76-1.71 2.6-3.64-4.59-3.92-4.59-.67.08-.55.47 3.91 4.68 3.79 4.88-.64 1.64-.89 1.29-3.27-4.47-3.71-4.47-.84.64-.68.8 3.79 4.19 3.71 4.51-.32.88-.56.8-3.07-3.83-3.55-3.83-1.12.12-.84.48 4 4.23 4 4.43-.44.76-.68.72-3.59-4.08-3.83-4-.68.4-.64.6 4 3.8 3.92 4.11-1 1.12-1 1-3.6-3.71-4-3.67a.52.52 0 0 0 -.39.76c.2.28 3.15 3.11 3.15 3.11s-1.8.2-2.08 0-1.82-1.96-2.15-1.96-.88 0-.64.48 1.44 1.51 1 1.51-1.76-.08-2.03-.38-.48-1-.28-1.31 1.2-1.88 2.92-4.6 6.18-8.9 6.34-9.66-2-4.23-2.83-5.71-2.76-4.35-2.52-4.59c0 0 4.91.12 6.43.2s2.88-.12 3.35.4a93.25 93.25 0 0 1 5.06 9.27 40 40 0 0 1 -3.83 5.56zm30.96-19.86c.24-1-.54-3.53-1.38-3.89s-10.77-.24-11.43-.06-2.4 3-4.31 6.53-13 23.44-13.42 24c-.66.9.9 4 2 7s6.52 14.49 7.12 15.57.66 1.07 1.92 1.25 10.24.36 11.86.36 1.79-.9 1.91-1.43a15.86 15.86 0 0 0 -.48-2.94c-.18-1.26-8.08-18.2-8.14-18.8s.72-2.64 2-5.15 12.11-21.48 12.35-22.44zm-15.91 15.11c.48.44 3.2 3 3 3.4s-.28 1.59-.72 1.11-3-3.47-3.28-3.39-1 .2-.55.64 3.19 3.51 3.15 3.87-.36 1.56-.64 1.28-2.71-2.88-3.27-2.56-.52.64-.2.88a22.09 22.09 0 0 1 2.75 2.68c-.08.16-.36 1.15-.64.92s-1.87-2.08-2.29-1.84-.72.76-.44 1 2.23 1.83 2.19 2.15 1.84 4.11 2.16 5.15 1.84 3.95 1.44 3.6-5.31-6.07-5.67-5.87-.8.36-.64.76 7.23 6.82 7.39 7.1a38.11 38.11 0 0 1 1.75 4.67c-.26-.36-7.04-7.46-7.32-7.36s-.64.6-.2 1.23 8.14 7.41 8.34 7.77 2.16 4.31 2.2 4.67.16 1-.16.64-9-9.5-9.31-9.34a1.34 1.34 0 0 0 -.19 1.63c.39.48 8.66 7.71 8.58 7.83a6 6 0 0 1 -2.56.16c-.28-.24-6.38-6.35-6.66-6.27s-.72.72-.32 1 5.91 5.07 5.47 5.07a10 10 0 0 1 -2.44-.28c-.08-.16-3.27-4-3.63-4s-1.12.24-.68.76 3.55 3.13 3.27 3.13-3.07.2-3.39-.12-5.63-12-7-15.25-2.51-5.63-2.39-6 6-11.14 8.42-15.25 7.4-12.77 7.79-13.09 10.06-.68 10.42-.12-9.11 18.4-9.35 18.12-1.83-2.19-2.15-1.87-.68.12-.4.59 2.08 2.24 2.08 2.4-.12.76-.32.64-2.56-3-2.88-2.88-1.19.2-.71.64zm-22.11-7.81c0-.12 1 .08 1.15-.36s-.12-.68-.44-.68a23.82 23.82 0 0 0 -2.39 0c-.32.08.19 1 .8 2 .84 1.39 2.15 3.19 2.59 3.23s.32 0 .56-.4-2.31-3.72-2.27-3.79zm3 9.82c-.24 0-.76.28-.72.6a19 19 0 0 0 2.76 3.55c.52.36.24.32.64-.16s-2.26-4.12-2.69-4.04zm24.5-17.5c.2-.24 1.76 0 2.16.08s.52-.84.52-1.16-2.6-.19-3.32-.19-5.44 7.62-5.44 8.14.8.44 1.24.2 4.64-6.83 4.84-7.07z" fill="#fff"/></svg>