<svg height="64" viewBox="0 0 64 64" width="64" xmlns="http://www.w3.org/2000/svg"><path d="m57 43.38c-1.53-7.58-8.74-20.45-13.7-30.05s-7.44-12.63-10.95-12.33-5.38 2.16-8 6.6-7.45 14.07-10.96 21.88-6.17 13.74-6.64 15.87c-.57 2.53-.43 4.92 2.15 10.77s7.1 7.72 13.9 6.55a16.12 16.12 0 0 0 10.25-6.88s4.26 3.56 8.15 4.4a14.52 14.52 0 0 0 11.74-2.86c3.47-2.67 5.62-6.33 4.06-13.95zm-1.36 5.29c-.28-.14-2-3.13-2.34-3.13s-.7.61-.47.93a34.58 34.58 0 0 1 2.29 3.42c0 .28-.93 1.22-.93 1.22a28.48 28.48 0 0 0 -2.19-3.28c-.28-.09-.84.52-.7.84s2 3.09 1.82 3.28-.89.8-.94.66a17.52 17.52 0 0 0 -1.9-2.61c-.19 0-.85.47-.66.8s1.83 2.11 1.69 2.48-1.08 1.12-1.13 1a20.74 20.74 0 0 0 -1.68-2.66c-.14 0-.7.46-.61.7a16.66 16.66 0 0 1 1.4 2.68c-.09.28-.93.7-.93.7s-1.64-2.81-2.06-2.85-.89.51-.8.79 1.69 2.2 1.5 2.39a5.53 5.53 0 0 1 -1.4.42 15 15 0 0 0 -1.6-2.25c-.23-.05-.84.32-.84.61s1.31 2 1.08 2-2.25 0-5.39-1.69a37.41 37.41 0 0 1 -5.14-3.46c-.33-.14-.66 1.12-3 2.95s-8.8 4-12.5 3.79-7.49-3.18-9.08-6.83-1.5-4.87-1.45-5.81c.09-1.71 5.2-12.45 8.24-19.28s9.74-20.64 11.7-22.18a7.72 7.72 0 0 1 5.71-1.92c1.92.19 5.34 4.31 8.52 10.72s10.72 21.11 12.26 25.9 1.55 5.62 1.55 5.62a24.16 24.16 0 0 0 -2.25-3c-.28 0-.56.89-.47 1.13s2.86 3.46 2.91 3.93.09 2.13-.19 1.99zm-29.1-38.67c.29 0 .52-.51 1.5-2.11s1.96-2.51 1.96-2.75a.71.71 0 0 0 -.65-.56c-.33 0-.8.42-1.88 1.78a14 14 0 0 0 -1.77 3.23c-.04.14.56.41.84.41zm14.28 10.12c-3.32-6.88-6.18-12.51-8.19-12.59-3.51-.14-6 4.59-8.8 10.34s-10.63 24.13-11.05 26.54a6.85 6.85 0 0 0 3.79 7.45c3.47 1.78 6.74-.24 8.71-1.22s3.46-3.65 3.28-4.07-1.64-2.11-3.56-5.25-1.73-6.36-.79-9.78 4-6.08 6.64-6.5 4-.24 7.17 2 3.23 8.75 2.57 11.94-4.35 7.91-4.45 8.52 1.92 2.76 5.2 3.79 5.9.51 7.82-1.55 2.34-4.68.7-9.59-5.72-13.15-9.04-20.03zm5.24 29.58c-2.38 1-7.39-.75-7.44-1.31s3.18-4.91 3.51-10.15.7-8-3.13-12-8.62-2.52-10.49-1.73a10.65 10.65 0 0 0 -6.18 8.49c-.65 5.15-.14 8.76.84 11.1a33 33 0 0 0 2.34 4.07c.09.32-.88 1.64-3 2.29s-5.75.54-6.51-2.4.23-5 2.2-10.25 8-19.09 9.83-22.32 2.94-4.22 4.72-4.08 4.12 5 6.13 9 8.52 18.67 9.27 21.86.3 6.45-2.09 7.43zm-18.25-19c.14-.19-.14-.8-.56-.75s-1.78.93-2.16 3.32.2 3.27.33 3.42c.28.33 1.5 0 1.45-.52a10.23 10.23 0 0 1 -.28-2.85 5.53 5.53 0 0 1 1.22-2.57zm3.74-1.45c-2.95.79-3.6 2.94-3.32 5.71s3.32 7.63 4.59 7.63 3.41-2.63 4.12-7.77-3.15-6.13-5.39-5.52zm1.73 11.28c-.56 0-2.34-4.36-2.48-5.34a2.67 2.67 0 0 1 1.74-2.67 2.36 2.36 0 0 1 3.13 2.25c0 1.78-1.82 5.81-2.39 5.81z" fill="#1d1d1b"/></svg>