<svg height="64" viewBox="0 0 64 64" width="64" xmlns="http://www.w3.org/2000/svg"><path d="m46.16 13c-1.6-8.5-11.52-11.44-16.68-9.54-13.11 4.82-10.81 17.66-7.63 22.1s11.63 8 17.83 4.34 8.07-8.51 6.48-16.9zm-11.58 9.33c.17.11 3 4.93 3 4.93l-1.7.61s-2.23-4.87-2.62-4.87-.82.43-.71.6 2.2 4.4 2.2 4.4a9.92 9.92 0 0 1 -2.53 0c-.27-.22-1.64-2.8-1.86-2.91s-1.32.66-1.32.66 1.43 2.14 1.15 2.25a10.1 10.1 0 0 1 -7.19-4.3c-2.31-3.62-3.79-13.61 5.26-18a13 13 0 0 1 12.4 1.81c3.89 3.23 3.89 10.64 3.57 10.53s-2.58-4.94-3.41-5.1-.87.49-.71.66 3.29 5.65 3.29 6a4.57 4.57 0 0 1 -.49 1.76c-.17 0-3.24-5.54-3.68-5.6s-.76 1-.65 1.21 3.56 5.21 3.51 5.82-1.05 1.81-1.21 1.7-2.88-5.18-3.28-5.23-.93.43-.66.65a44.81 44.81 0 0 1 3.13 5.54 14.83 14.83 0 0 1 -1.59 1.05s-2.47-4.61-2.8-4.72-1.26.44-1.1.55zm-5-14.43c-.49 0-1.42.55-3 2.25a6.93 6.93 0 0 0 -1.92 3.51c0 .33.88.55 1.15.55s.39-1.15 1.43-2.74a6.82 6.82 0 0 1 3-2.31s-.39-1.26-.71-1.26zm22.6 23.53c-4.44-.49-14.31 1.54-15.79 10.7s2.08 14.7 8.88 18 17.61-2 17.78-12.5-5.05-15.54-10.92-16.2zm8 14.87s-.22 2.91-.54 2.52-2.8-4.44-3-4.5-.77.83-.77.83 3.4 4.72 3.35 5.1a12.2 12.2 0 0 1 -1.16 2s-2.8-5.25-3.13-5.35-.82.5-.77.72 3.41 5.15 3.13 5.59-.82 1.48-1 1.32-2.8-5.1-3.07-5.1-.94.54-.83.82 3.3 4.83 3.13 5.16-1.32.93-1.48.76-2.63-4.6-3-4.66-.83.44-.83.44 2.8 4.88 2.53 5.1a7.78 7.78 0 0 1 -2 .33 46.9 46.9 0 0 0 -2.68-4.28c-.33-.16-.77.39-.77.66s2.52 3.68 2.25 3.68a5.18 5.18 0 0 1 -1.81-.17c-.33-.22-1.81-2.91-2.25-3s-.94.55-.83.77a14.75 14.75 0 0 1 1.21 2.14 10.52 10.52 0 0 1 -6.36-3.84c-2.25-3.13-2.64-10.48.22-15s9.1-6.26 13.6-5a11.29 11.29 0 0 1 6.68 6.66 11.26 11.26 0 0 1 .28 4.28s-1.54-3-1.87-3.07-.87.49-.82.66 2.55 4.43 2.55 4.43zm-13-10.2a13 13 0 0 0 -3.62 2.52 7.64 7.64 0 0 0 -2.56 3.68c0 .32.77.65 1 .6s.66-1.59 2.14-3.07a21.76 21.76 0 0 1 3.57-2.58c.15-.17-.3-1.25-.62-1.15zm-32-4.28c-10.26.22-14.7 9-14 15.58a15.13 15.13 0 0 0 13.43 13.22c7.35.71 16-7.13 14.43-16.73s-9.04-12.18-13.93-12.07zm10.82 15.3s-2.3-4.44-3.07-4.5-.88.55-.66.77 3.35 4.17 3.24 4.72-.33 1.26-.49 1.26-2.84-4.22-3.22-4.37-.88.66-.77.88 3.4 4.77 3.4 4.77l-.82 1.42s-2.8-4.38-3-4.44-1 .6-.82.77 3.24 4.5 3.07 4.83-.38.82-.55.82-2.58-4.06-2.9-4.17-.83.66-.83.66 3.13 3.89 2.8 4.28a3.24 3.24 0 0 1 -1 .66 49.48 49.48 0 0 0 -2.79-4.28c-.22 0-.94.66-.88.82s3 3.89 2.63 4.11a15.1 15.1 0 0 1 -1.86.72l-2.42-3.62s-.93.27-.82.65 2.08 3.3 1.86 3.41a2 2 0 0 1 -1.15 0c-.16-.11-2.08-2.86-2.41-3a1 1 0 0 0 -1 .38c0 .17 2.14 2.69 1.86 2.86s-3.51-.5-6.53-3.46-6.38-9.3-1.47-15.72a12.53 12.53 0 0 1 9.76-5.05c4.77-.18 9.05 2 10.48 7s.36 6.82.36 6.82zm-15-11.19a17.48 17.48 0 0 0 -3 2.64c-1.21 1.26-2.09 2.52-2 2.9s1.31.61 1.48.28a6.44 6.44 0 0 1 1.09-2 14.62 14.62 0 0 1 3.08-2.63c.17-.12-.31-1.31-.6-1.19z" fill="#1d1d1b"/></svg>