<svg height="64" viewBox="0 0 64 64" width="64" xmlns="http://www.w3.org/2000/svg"><path d="m53.66 38.42a16.87 16.87 0 0 0 4.91-13.42c-.59-5.21-5.5-12.46-13.23-14s-17-2.46-25.21.71-12.64 7.67-13.89 11.86-2.24 11.02 4.43 16.71 20 5.33 20 5.33a61.41 61.41 0 0 0 7.33 5.33c3.9 2.33 11.08 3.89 12.1 3.47s.66-1.86.72-2.63 0 0-1.74-2.4-2.75-7-2.45-7.13a16.57 16.57 0 0 0 7.03-3.83zm-9.86-.56c.36.36 2.68 2.88 2.52 3.12s-1.12.08-1.28.36a2.75 2.75 0 0 0 -.24.72s-2.47-4.06-2.87-4.06-1.28-.24-1.08.6 4.07 5.27 4.27 5.55a43.41 43.41 0 0 0 2.32 4.85c1.11 1.72 1.71 2.24 1.35 2.24s-1.23.24-1.43-.2-7.83-11.82-8.39-12-1.12 0-.84.44 8.27 11.32 8.27 11.32a13.79 13.79 0 0 1 -2.68-1c-.52-.4-6.86-10.42-7.3-10.62s-1.44.4-1 .76 6.67 9.34 6.67 9.34-3-1.08-3.44-1.72-4.59-7.7-5.07-7.94-.88.16-.8.4 5 7 4.72 7a9.14 9.14 0 0 1 -3.36-2.52c-.8-1.24-1.12-2.28-1.51-2.32s-1.16.32-1.28.16-2.24-2.87-2.6-2.83-.48.44-.24.76 1.44 2 1.08 2-.84.24-1.16 0-2-2.63-2.63-2.47-1 .68-.64.92 1.32 1.36.92 1.4-7.11-.24-11.86-3-6.71-5.55-7.26-8.3 1-7.31 1-7.31a14.52 14.52 0 0 1 5.87-7.06c3.4-2.28 6.59-4.48 14.69-5.27s15.21-.76 21.32 3.23 7 9 7.27 9.86.48 2.36.32 2.08-1.28-1.32-1.56-.92-.64.08-.2.68 1.63 1.45 1.67 1.89 0 1.72-.24 1.48-2-2.48-2.44-2.08-.76.48-.36.76 2.36 2.28 2.36 2.76 0 1.11-.36.88-2.44-3.16-2.68-2.8-.75.36-.52.76 2.72 2.87 2.68 3.35-.36 1.08-.48.84-2.23-2.91-2.67-2.79-.64.32-.52.75 2.71 2.8 2.47 3.16-.48 1-.68.72-2.43-3.4-2.91-3.36-1 .32-.56.8 3 3 2.87 3.56-.55 1.35-.95 1.07-3.48-4.07-3.72-4-1.07.4-.56.84 3.32 3.51 3.08 3.87-.76 1.28-1.08 1-3.07-4.34-3.51-4.18-1 .2-.64.8 3.23 3.79 3 4-.76 1-1.23.56-2.76-4.07-3.2-3.91-1.05.66-.69 1.02zm-28-19.24c-.88.08-5.07 2.84-6.11 5.23a8.45 8.45 0 0 0 .12 5.87.67.67 0 0 0 1-.8c-.32-.76-.24-2.23.28-4.47s4.33-4.45 4.91-4.79.7-1.12-.18-1.04zm33.93-.16c.48.4.76-.08.92-.52s-.36-1.51-2.68-3-7.74-1.77-8.18-.88c-.08.16-.12.88.36 1s2.32.16 4.59.24 4.53 2.76 5.01 3.16zm-29.46 5a4.07 4.07 0 0 0 -1.16 6.31c1.32 1.2 3.79 1.16 5.35.32s2.8-2.56 1.2-4.71a5.24 5.24 0 0 0 -5.37-1.93zm4.47 5c-.4.56-3.15 1.16-3.71.92s-1.64-2.4.44-3.11a3.45 3.45 0 0 1 2.63.28 1.45 1.45 0 0 1 .66 1.89zm7.12-4.28-.17.09a3.47 3.47 0 0 0 -1.8 3 4 4 0 0 0 2.68 3.28c2.19.68 4.95 0 5.86-1a3.47 3.47 0 0 0 0-4.71c-1.49-1.62-4.58-1.7-6.55-.68zm5 5.08a5.09 5.09 0 0 1 -3.48.2 2 2 0 0 1 .8-3.47 4.72 4.72 0 0 1 3.55.68c.88.53.12 2.05-.83 2.57zm8.5.88a4.21 4.21 0 0 0 4.51-.32c1.08-.72 1.88-2.12.48-4.67s-4.69-2.13-6-.88a3.55 3.55 0 0 0 1.05 5.85zm.48-3.43a4.25 4.25 0 0 1 2.83 0c.84.31 1.6 1.27.92 1.71s-2 1.36-3.11 1-2.16-1.62-.6-2.73z" fill="#1d1d1b"/></svg>