<svg height="64" viewBox="0 0 64 64" width="64" xmlns="http://www.w3.org/2000/svg"><path d="m56.12 19.35c-2.68-6.23-5.31-8-12.34-11.74s-14.13-3-18.36-2.27-10.82 6.15-12.66 8.26-4.67 7.28-6.19 14a24 24 0 0 0 .52 12.17 23.34 23.34 0 0 0 6.51 11c4.07 4.15 8.46 7.39 15.21 8.3s13.33-.83 20.19-6.18 8-12.7 8.46-16.25 1.33-11.06-1.34-17.29zm-1 20c-2.12 5.31-5.75 9.42-12.18 12.78s-12.45 4-18.28 2.23-10.22-7.18-12.54-11a34 34 0 0 1 -4.12-12.67c-.2-3 1.56-9 2.48-10.7a24.32 24.32 0 0 1 8.34-9.7c4.55-3.07 8.1-4.43 14.09-4.35s10.58 2.79 14.37 5.23 5.59 5.35 7.55 11.14 2.48 11.81.33 17.08zm-10.74-6.7c-1.16.12-1.56.83-3.07 2.63a20 20 0 0 1 -6.15 4.79c-2.12 1-5.59.8-8.55-.8a12.55 12.55 0 0 1 -5.23-5.51c-1.11-1.91-1.87-1.9-3-1.63-1.84.44-2.51 2.23-2.19 2.87s1.23 4.87 4.35 7.63a14.84 14.84 0 0 0 11.77 3.95c4.87-.48 9.78-4.67 11.3-6.47s3.71-4.59 3.28-5.51-1.35-2.07-2.51-1.95zm-.08 4.55a25.77 25.77 0 0 1 -5.95 5.67 13.13 13.13 0 0 1 -8.62 2.55c-3.67-.16-7.19-2.59-8.66-3.75a5.29 5.29 0 0 1 -1.92-3.36c0-.39.28-1.31 1.08-1.15.42.08 3.71 3.75 6.15 4.67a14.29 14.29 0 0 0 8.18.68 15.89 15.89 0 0 0 7.27-4.51c1.31-1.67 1.31-2.15 1.79-2.15s1.2.39.68 1.35z" fill="#1d1d1b"/></svg>