<svg height="64" viewBox="0 0 64 64" width="64" xmlns="http://www.w3.org/2000/svg"><path d="m21.69 7.88a.62.62 0 0 0 -.27-.88c-.4-.18-2.57.93-4 4s-1.47 4.61-1.24 4.84.89 0 1.24-.09.23-1.11 1-3.64 3.05-3.96 3.27-4.23zm9-1.73c-11.14.71-12.38 13-11.27 18.77s4.88 9.81 9.94 9.68 12.65-1.6 12.87-14-8.03-14.67-11.49-14.45zm-.09 27c-1.24 0-8.25-.4-8.78-7.9s3-14.34 9.8-14.78c2.93-.19 9.1 1.11 9.15 11.58s-8.87 11.08-10.12 11.13zm20.11-26.47a17.37 17.37 0 0 0 -2.88-3.81 29.26 29.26 0 0 0 -4.48-.05c-.23.09-.09 3.29-.09 3.29-3.2-4.35-10.43-6.26-17.26-4.4s-10.51 5-12 13.18-.23 13.54.62 16a14.83 14.83 0 0 0 12.04 10.67 19.67 19.67 0 0 0 15.18-3.77 37.8 37.8 0 0 1 0 4c-.09 2.35-.4 7.23-2.93 9.49s-7.5 1.78-11.94.8-4.48-6.21-4.66-6.88-5.72-2.57-6.08-2 0 7.28 1.25 9.63 4.65 7.17 8.82 8.7 8.92 2.53 15.36-.44 8-11 8.3-13.53.88-40.26.75-40.88zm-3 33c-.28-.11-2.46-2.68-2.71-2.68s-.18 1.42 0 1.42a13 13 0 0 1 2.53 2.22c.09.31.27 3.1 0 3s-2.4-3.95-2.84-3.81-.09 1.28-.09 1.28 2.88 3.47 2.88 3.64 0 1.38-.22 1.33-2.26-2.61-2.41-2.52-.62 1-.35 1.29a27.9 27.9 0 0 1 2.5 2.79c-.05.18-.13 1.25-.31 1s-2.27-2.49-2.62-2.31-.62.76-.44 1 2.57 2.35 2.53 2.79a5.74 5.74 0 0 1 -1.34 3.11c-1.15 1.47-1.86 2-2.08 2s-2-2.27-2.18-2.31-.71.53-.57.75 1.9 2.4 1.9 2.4-1 .89-1.19.8-2-2.62-2.18-2.62-.66.62-.53.84 1.77 2.14 1.64 2.31a2.31 2.31 0 0 1 -1.15.4c-.14 0-1.47-2.35-1.69-2.35s-.62.53-.62 1.07 1.38 2.08 1.11 2.08-.75.27-.89.13a26.27 26.27 0 0 0 -1.39-2.57c-.18 0-.76.14-.67.67s1 2 .8 2-.62.18-.75 0-.85-2.08-1.11-2.08-1 0-.85.62.58 1.63.58 1.63-1.24.09-1.33 0-.62-1.82-1-1.86-.93.35-.75.75.4 1.29.18 1.29-5.11-.76-7.81-3.6-3.95-4.79-4.58-7.1 0-3.68.27-3.68a16.61 16.61 0 0 1 3.2 1c0 .13.88 5.54 3.68 6.74a22.17 22.17 0 0 0 9.32 1.6c3.59 0 5.46-1.33 6.66-3.24s1.82-2.84 2.08-9 .71-9.45.36-9.67-1 .26-1.07.57-5.95 6.75-13.71 6-11.21-6.8-12.58-10.02-1.86-8.7-.58-14.6 4.93-10 11.05-11.36 12.61.67 14.61 2.62 3.1 3.56 3.54 3.15c.26-.25 0-4.44.14-4.44s2.93 0 3 .36-.17 5.5-.17 5.5-1.38-1.73-1.65-1.55-.53 1-.35 1.11a15.2 15.2 0 0 1 1.91 1.95c0 .18.22 2 0 1.86s-2.35-2.08-2.53-2-.31 1.07 0 1.2 2.62 2.22 2.62 2.22a24.73 24.73 0 0 1 .13 3.1c-.13 0-2.53-2.92-2.75-2.75a1.42 1.42 0 0 0 0 1.38c.27.31 2.53 2.4 2.53 2.53a11.74 11.74 0 0 1 0 2.22c-.13 0-2.75-2.84-2.88-2.58a1.9 1.9 0 0 0 0 1.33c.18.18 2.88 2.27 2.93 2.45s0 2-.18 2-1.73-2-2.09-1.91-.3 1.43-.12 1.43a14.94 14.94 0 0 1 2.57 2.4c0 .31.27 2.71 0 2.62s-2.35-2.44-2.57-2.26-.35 1.28-.13 1.33a20.21 20.21 0 0 1 2.75 2.26c0 .13.13 2.4-.05 2.22s-2.57-2.18-2.57-2.18a4.15 4.15 0 0 0 0 1.43c.18.26 2.49 1.86 2.49 2s.22 1.86 0 1.77-2.49-1.88-2.57-1.59-.18 1.29 0 1.42 2.66 1.38 2.7 1.69.3 2.63-.01 2.55zm-5.3 11.65c-.2-.07-.53.66-.47.86a14.21 14.21 0 0 0 1.34 1.4 8.55 8.55 0 0 0 .4-.93c.04-.29-1.09-1.29-1.29-1.35zm.71-1.33 1.67 1.8c.33.27.8-.4.8-.6a9.7 9.7 0 0 0 -1.93-2.2c-.34-.09-.54 1-.54 1z" fill="#232021"/></svg>