<svg height="64" viewBox="0 0 64 64" width="64" xmlns="http://www.w3.org/2000/svg"><path d="m61 29.69c4.56-6.71.77-15.16-.49-15.64s-2.23.48-3.69 1-23.5 11.82-23.5 11.82 2.14-6.61 1.75-12.14a15.26 15.26 0 0 0 -7.29-12.34c-4.37-2.92-10.41-.39-10.78 0-1.36 1.46-14.86 45.07-15.74 48s-.68 5.23 2.24 8.34 8.5 4.27 14.66 2.53 6.8-12 7.19-12.92 7.09-3.69 7.09-3.69 7.1 13.89 9.91 16a11.91 11.91 0 0 0 12 1.26c5-2 4.57-5 4.08-6.8s-8.26-16.61-8.55-16.9 6.56-1.82 11.12-8.52zm-14.81 2.18c.15.25 1.75 3.26 1.51 3.35s-.88.78-.64 1.22 8.17 14.67 9.19 17a7.11 7.11 0 0 1 .82 4.18c-.1.68-.29.77-.29.77s-3.45-9.39-3.84-9.39-1 .44-.92.58 4.66 9.06 4.18 9.42a2.58 2.58 0 0 1 -1.8.44c-.15-.14-4-10.54-4.37-10.54s-1.27.2-1.07.49 4.86 10.34 4.57 10.39l-1.41.22s-4-9.76-4.38-9.86-.77 0-.68.25 4.33 9.76 4.13 9.76-1 .05-1.16-.19-3.4-7.63-3.69-7.68-1.07.34-.93.88 3.69 6.36 3.4 6.41a4.85 4.85 0 0 1 -1.89-.57c-.29-.25-2.48-5.3-2.62-5.3s-1 .39-.83.58 1.8 3.84 1.8 3.84a20 20 0 0 1 -5-7c-2-4.57-5.19-11.08-5.63-11.17s-10.64 4.65-10.64 4.79-2.52 7.92-3.3 8.7a4.3 4.3 0 0 1 -1 .87s-2.62-6.75-3.06-6.8-.78.2-.73.88 3.26 6.85 3.11 6.94-.83.93-.87.73-2.87-6.31-3.31-6.31a1.15 1.15 0 0 0 -.77.48s3.44 6.37 3.2 6.46-1.46 1.07-1.8.88-2.67-4.91-2.86-4.91-1.26.34-1.07.73 2.87 4.76 2.57 4.76-1.31.49-1.4.24-2.09-4.27-2.43-4.27-1.07.39-1 .53 2 3.84 1.7 3.84-1.12.24-1.32-.15-1.21-3.34-1.55-3.44-1.17 0-1 .43 1.36 2.82.78 2.82a6.84 6.84 0 0 1 -4.59-2.62c-1.46-2-.29-4.33 1.56-11.47s12.58-39.73 13.35-40.46a9.52 9.52 0 0 1 8-.09 11.82 11.82 0 0 1 5.79 12.38c-.88 5.88-3.94 14.67-3.45 15.25s21.45-10.92 24.3-12.33a56.74 56.74 0 0 1 6.41-3 10.23 10.23 0 0 1 1 2.68c.19.87.1 1.7 0 1.55s-1.46-2.57-1.89-2.53-.88.39-.54.83 2.43 3.79 2.43 4.52-.44 3-.63 2.62-2.38-5.1-2.72-5.1-.88.63-.73.83 3.25 5.34 3.11 5.78-1.29 1.58-1.39 1.34-2.82-5.83-3.21-5.83-.82.58-.68.82 3.11 5.54 3 5.74-1.26 1.31-1.4 1.16-2.39-5-2.87-5-1 .63-.68.92 2.53 4.91 2.53 4.91-1 1.07-1.12.92-2-4.37-2.43-4.42-.92.44-.73.58 2.33 4.52 2.09 4.57-1 .68-1.17.48-2.13-4.46-2.33-4.46-1 .38-.87.72 2.33 4.18 2.09 4.33-1.32.58-1.32.58-1.45-3-1.6-3.06-1.2.34-1.01.58zm-28.19 11.71c-.24 0-.69.73-.68.87.05.78 3.25 6.71 3.25 6.71a1.72 1.72 0 0 0 .59-.93 38.66 38.66 0 0 0 -3.16-6.65zm1.7-1.07c.1.39 1.55 3.4 1.8 3.84s.73-.2.87-.73-1.21-3.35-1.65-3.79-1.14.3-1.05.68zm1.8-37.28a2.32 2.32 0 0 0 -2.36-.23c-.61.25-3 7.82-3 8s.76.53 1.29.44 2.36-5.93 2.77-6.44 1.32 0 1.51 0 .17 0 .61-.12-.05-1.02-.85-1.65z" fill="#232021"/></svg>