<svg height="64" viewBox="0 0 64 64" width="64" xmlns="http://www.w3.org/2000/svg"><path d="m34.55 29.12c6.62-1.42 9.07-6.52 9-12.8s-4.26-12-11.12-12.69-12.9 2-14.56 7.06-1.23 10.06.93 12.59c4.43 5.2 9.14 7.26 15.75 5.84zm-12.2-22.31c2.77-2.18 8-2.84 12.5-1s4.85 3.09 5.59 4.66.63 1.91.63 1.91-.83-1.08-1.42-.83-.64.54-.24.83a15.54 15.54 0 0 1 2.45 2.75c0 .29.14 1.76-.2 1.66s-2.3-2.4-2.6-2.2-.83.73-.54 1 2.75 2.55 2.7 2.84-.34 1.52-.64 1.37-2.59-3.18-2.84-3-.88.64-.54.93 2.89 2.75 2.84 3-.54 1.47-.78 1.33-2.45-3-2.65-3-.73.83-.54 1 2.41 2.79 2.41 2.79-.49.79-.74.79-2.3-2.8-2.65-2.8-1 .25-.68.88 2.84 2.8 2.69 3-1.52 1.17-1.76.83-1.77-2.8-2.11-2.84-.88.24-.83.63 1.81 2.55 1.61 2.75a2.3 2.3 0 0 1 -1.37.24c-.19-.1-1.66-2.35-2-2.4s-.93 0-.78.64 1.76 2.2 1.37 2.15-5.69-.14-9.31-2.94-6.29-11.67.43-16.97zm27.06 42.55a81.94 81.94 0 0 0 -6.33-5.63 2.74 2.74 0 0 0 2-.45c1.13-.68 1.52-2.79 1.62-6.42s-1.23-6.32-2.84-6.32-3.53 1.52-7.65 2.55-6.32.68-9.8-.1-6.72-2.41-8.29-1.91c-5.63 1.81-4.56 8.77-2.55 11s6.08 2.55 6.08 2.55-4.11 4.37-5.65 6.25-3.09 4.76-.05 7.35 4.14 2.65 7.05 1.67 9.85-8.14 10.09-8.23 3.73 4.16 7.36 5.93 6.22 1.61 8.08-.93 1.81-6.08.88-7.31zm-2.16 1.64c-.15 0-3.19-2.7-3.58-2.5s-1.08.59-.54 1 3.78 2.75 3.63 3-.39 1.13-.74 1-3.57-3.16-4.02-2.91-.89.78-.4 1.13 3.73 2.2 3.58 2.5-.54.93-.88.68-3-2.55-3.53-2.55-1 .39-.59.69 3.34 2.3 2.94 2.35-1.17.39-4.9-2.45-5.69-5.69-6.08-5.44-8.86 9.41-11.14 9.66-4.46-.3-5-2.45 5.4-7.75 7.21-9.17 2.84-2.4 1.77-2.8-5.79-.34-7.36-1.81-3.33-6.27 1-8.33c.95-.45 6.13 2.11 12.6 2.35s11.62-2.74 12.65-2.7 1.37 3.73.93 5.84-.44 2.84-2.4 3.14-3.44-.3-4 0-.44 1.17.34 1.47a55.64 55.64 0 0 1 7.4 5.93c1.26 1.27 1.26 2.37 1.11 2.37zm-25.1-36.44c.25-.49.2-2.06.93-3.58s2.55-1.57 3-1.76.4-1.08-.05-1.38-2.4-.39-4.11 2a5.33 5.33 0 0 0 -1 4.51c.35.36.99.7 1.23.21zm-1.27 19.36c-.74-.1-2.4-.33-3.34.79-.73.88-.49 3-.39 3.33s.35 1.22 1.08 1.13.93-.59.74-1.08-.49-2.26.14-2.6 1.23 0 1.82-.05.68-1.44-.05-1.52zm8.92-14.36c3.23.59 5.44-2.26 4.46-5.74s-5.34-3.39-6.81-1.82c-3.53 3.64-.89 7 2.35 7.56zm.64-6a2.31 2.31 0 0 1 2.56 1.93c.1 1.23-.88 3-3.33 2.55s-2.03-4.26.77-4.46z" fill="#1d1d1b"/></svg>