<svg height="64" viewBox="0 0 64 64" width="64" xmlns="http://www.w3.org/2000/svg"><path d="m59.92 12.77c-.46-1-2.77-1.25-7.45-3.36s-6-7.85-7.58-8a86.2 86.2 0 0 0 -9.49-.41 4.18 4.18 0 0 0 -3.56 2.37c-.2.86.19 25.45.26 33.69s-.59 9.69-4.68 9.89-6.59-1.32-5.67-6.6 4.61-4.15 5.54-4.87 1.45-9.1 1.25-10.16a8.6 8.6 0 0 0 -4.68-4.88 13.54 13.54 0 0 0 -8.51.53 20.87 20.87 0 0 0 -9.42 9.1c-3 5.47-2.44 13.19-1.26 17.41s3.83 11.6 12.27 14 15.36 1.79 20.76-1.57 9.23-10 10-13.52.14-20.7.14-20.7.72.27 1.91.86a18.76 18.76 0 0 0 6.13 1c2.24.06 3.49-.66 4-1.78s.5-11.94.04-13zm-2.35 2.63a5.19 5.19 0 0 0 -1.37-1.15c-.23 0-.33.4-.3.66a11.51 11.51 0 0 0 1.64 1.75c0 .52 0 1.08-.06 1.66a16.54 16.54 0 0 0 -2.5-3c-.3 0-.37.23-.43.6s2.09 2.72 2.88 3.6c0 .79-.09 1.55-.14 2.2a31.2 31.2 0 0 0 -2.91-4.22c-.23 0-.72.16-.75.36s2.56 4.06 3.49 5.45a1.16 1.16 0 0 1 -.1.38c-.08.11-.46.15-1 .15a52.2 52.2 0 0 0 -3.37-5.65c-.23-.07-.63 0-.73.2a57.86 57.86 0 0 0 2.78 5.38c-.33 0-.69-.08-1-.13a30.86 30.86 0 0 0 -3.18-5.15c-.33-.14-.66.23-.86.52s1.59 3 2.42 4.32a11 11 0 0 1 -2.45-.82c-2.31-1.19-3.43-3.56-4.09-3.69s-1.18.52-1.12 1.45 1.22 17.87.56 24.07a11.05 11.05 0 0 0 -1.84-1.82c-.2 0-.6.36-.53.59a28.84 28.84 0 0 0 2.19 2.38 16.06 16.06 0 0 1 -.54 2.06 15.91 15.91 0 0 0 -2.44-2.73c-.36-.09-.53.33-.6.7s1.93 2.43 2.61 3.15a16.83 16.83 0 0 1 -.83 1.57 31.38 31.38 0 0 0 -2.46-3.05c-.16-.14-.86.39-.86.49s2.08 2.66 2.76 3.49c-.24.38-.5.75-.78 1.12a28.07 28.07 0 0 0 -3.06-3.52.84.84 0 0 0 -.6.53 30.31 30.31 0 0 0 3 3.74c-.25.29-.51.57-.79.86a29.36 29.36 0 0 0 -3-3.81c-.27-.07-.73.26-.69.49s2.19 3 3 4q-.48.43-1 .84a21.44 21.44 0 0 0 -2.52-3.29c-.26-.07-.53.16-.69.46s1.73 2.65 2.4 3.5c-.34.23-.71.46-1.08.68a26.49 26.49 0 0 0 -2.38-3.62c-.23-.13-1 .23-1 .5a36.14 36.14 0 0 0 2.46 3.62c-.45.23-.91.45-1.4.66a19.45 19.45 0 0 0 -2.11-3c-.2 0-.83 0-.92.36s1.39 2.16 2.11 3.05c-.51.2-1 .37-1.58.53a19.94 19.94 0 0 0 -1.81-2.62.73.73 0 0 0 -.73.63c-.05.36.95 1.61 1.49 2.25l-.47.12c-9.46 2.11-19.68-4.09-22.29-9.1s-2.6-14.5 0-19.51 6.06-7.45 10.74-8.18c2.78-.43 4.95.4 5.28 1.19s.39 8.37.06 8.5a7.64 7.64 0 0 0 -6.26 6c-1.19 5.34.39 9 5.27 10.16s9.91-.47 10.59-5.21.27-36.92.2-37.78a2.42 2.42 0 0 1 1.78-2.44 53.06 53.06 0 0 1 8.7.2c.53.26 3.23 7.12 8 8.77s5.06 1.65 5.19 2.15a11.51 11.51 0 0 1 .02 1.4zm-36.57 9.17c-.06-.39-1.78-.66-3.49.4a8.44 8.44 0 0 0 -3.1 3.1c0 .59.13.59.53.52s0-.26 2.31-1.91 3-1.18 3.36-1.32a.63.63 0 0 0 .39-.79z" fill="#1d1d1b"/></svg>