<svg height="64" viewBox="0 0 64 64" width="64" xmlns="http://www.w3.org/2000/svg"><path d="m57.6 5c-2.6-4-11.34-4.13-22.27-4s-19.51.58-25.27 2-6.75 5.88-6.75 9.13c0 1.59.25 22 .42 28.61s.41 11.17 2.08 15.76 3.67 4.42 8.42 5.58 19.68 1.09 28.94.5 13.51-1.33 15.18-4 2.25-11.67 2.33-24-.5-25.7-3.08-29.58zm1 26.52-4.45-4.11s-.56 1.33-.33 1.55 4.56 3.95 4.67 4.39 0 3.28 0 3.28-4.17-4.28-4.33-4.22-.73 1.33-.28 1.72a56.87 56.87 0 0 1 4.5 4.34 25.94 25.94 0 0 1 .11 2.72 53.16 53.16 0 0 0 -3.94-3.78c-.28 0-.67.89-.56 1.23s4.34 3.94 4.34 4.33.27 3.89 0 3.5-4.33-5.32-4.68-5.21-.89 1.17-.89 1.17 5.45 5.17 5.56 5.78-.33 3.34-.56 3.34-5.94-6-6.22-6-.89 1.23-.89 1.23 6.35 5.83 6.35 6.33-.23 1.55-.73 1.66-7.17-6.5-7.17-6.5-1.05.78-.78 1.22 7.16 6.12 6.68 6.51-3.17.44-3.17.44-4.72-5-4.95-5.11-.94.72-.94.72 5.11 4.56 4.61 4.78-3.11.72-3.39.44-3.61-4.05-4.06-4.16-1.39.61-1.22.88 3.84 3.73 3.5 3.79-4-.06-4-.06a33.66 33.66 0 0 0 -2.84-3.22c-.33-.12-1.33.22-1.22.72a14.82 14.82 0 0 0 2.22 2.5s-13.23.67-19.34.22-12.73-2.61-14-6.22-1-25.8-1.11-31.47-.75-10.95 1.91-13.57c1.85-1.89 7.57-3.11 13.52-3.68a213.67 213.67 0 0 1 25.18-.21c5.95.45 10.17 1.5 10.84 4.17s1.78 15 1.78 15-2.89-3-3.39-2.62-.45.95-.28 1.06 3.67 3.34 3.73 3.5 0 2.95 0 2.95a38.62 38.62 0 0 0 -3.38-3.21c-.27 0-.55 1.06-.38 1.56s4 2.89 4 3.33zm-41.6-23.78c.5-.17 0-.83-.39-1.17s-6.51.39-8 1.5-1.24 5.59-1 5.73 1.44.5 1.78.17-.34-3.56.44-4.62 6.63-1.44 7.17-1.61zm14.12 5.62c-8.21.22-13.12 4.64-14.27 7.89a17.64 17.64 0 0 0 -.73 7.17c.28.67 9.84.45 10.23.34s-.11-2.06-.05-2.45 8.17-.67 8.67-.5.5 7.39.5 7.61-7.56.39-8.12.28-.16-2.55-.66-2.61-8.68.17-9.23.39-.84 1.78.72 7 6.23 7.51 14.9 7.23 14-7.28 13.18-18.12-7.01-14.46-15.18-14.23zm8.78 28.35c-2.67 2.06-11.56 3.95-15.67.83s-4.79-7.73-4.62-7.89 6.34-.5 6.34-.06a25 25 0 0 0 .5 3.95c.17.11 11.06-.17 11.12-1.06s-.72-13.23-1.39-13.34-11.34.5-11.51.78-.06 1.89-.22 2a19.45 19.45 0 0 1 -4.45.08c-.18-.14-.39-6.84 5.78-8.9s14.84-2.95 17.68 5.62-.93 15.93-3.6 17.99z" fill="#1d1d1b"/></svg>