<svg height="64" viewBox="0 0 64 64" width="64" xmlns="http://www.w3.org/2000/svg"><path d="m16.09 23.37c1.55 1.63 6.91 7.94 8.91 9.46a5.4 5.4 0 0 0 5.9.51 4 4 0 0 0 2.3-4.46c-.2-1.88-4.06-13.44-5.2-17.48s-2.45-6.8-5.33-7.4-6.34 2-8.17 3.35-3.41 2.73-3.71 4.94a13.32 13.32 0 0 0 1.58 7.13s2.16 2.34 3.72 3.95zm-3.42-11.68c.19-1.16 1-2.15 3-3.62s4.88-3.41 7-2.6 3.12 3.26 4.79 8.65 4.32 13.53 4.29 14.25-3 2.25-3.54 2-8.95-8.8-11.4-11.5-4.56-4.51-4.14-7.18zm6-1.76c.66-.24.81-1 .27-1.14s-1 .15-2.15.81a9.6 9.6 0 0 0 -2.67 2.54.83.83 0 0 0 .72 1c.42 0 .51-.54 1.29-1.47a6.54 6.54 0 0 1 2.59-1.74zm31.94 17.07c.12-.56-.15-4.64-2.13-6.7a13.93 13.93 0 0 0 -6.7-3.74c-1.59-.24-2.4.62-3.27 2.42a105.37 105.37 0 0 0 -3.8 10.48c-.54 3 1 5.18 1.83 5.3s2.45-.12 5.36-1.5 8.59-5.67 8.71-6.26zm-8.83 2.76c-.21-.24-1.32-2.1-1.5-2s-.63.45-.48.75 1.2 1.72 1.2 1.84-.36.57-.57.39-1.14-1.56-1.43-1.56-.84.27-.69.57 1.14 1.41 1.05 1.65-1.59 1.31-2.48.68a2.35 2.35 0 0 1 -1.11-2.27 85.16 85.16 0 0 1 2.9-8.38c.87-2.07 1.32-3.42 2-3.48a7 7 0 0 1 5.63 2.19c2.24 2.36 2.15 2.33 2.18 3s.06 1.11-.15.84-1.94-3-2.48-2.81a.73.73 0 0 0 -.48.95c.12.15 2.36 3.09 2.33 3.24s-.8.93-1 .66-2.31-3.93-2.67-3.84a.76.76 0 0 0 -.39 1c.15.27 2.52 3.33 2.31 3.54s-.81.86-1 .65a25.74 25.74 0 0 0 -2.19-2.69c-.24 0-.71.66-.56.87a25 25 0 0 1 1.94 2.54c-.09.12-.42.48-.6.36s-1.54-2.35-1.76-2.35-.75.69-.66.86 1.52 2 1.37 2.25-.49.79-.71.57zm11.88 10.11c-.21-1.74-1.28-1.83-4.16-2.78a57.49 57.49 0 0 0 -9.76-2c-.9.06-1.65 2.69-2 3.44a8.33 8.33 0 0 0 -.83 3.27c0 1.4.39 1.94 2.12 3.89s5.24 5.84 6.29 6.85a2.24 2.24 0 0 0 3.11.18c1-.65 2.82-3.26 4.08-5.68a13.16 13.16 0 0 0 1.15-7.17zm-2.09 4.7c-.12-.09-4.16-5-4.58-4.82s-.81.57-.57.78 4.64 4.91 4.64 4.91-.42 1.26-.54 1.14-4-4.37-4.34-4.31-.69.32-.51.5l4.33 4.59s-.33.74-.42.65-3.22-3.65-3.58-3.56-.63.87-.42 1 3.23 3.08 3.23 3.08a1.18 1.18 0 0 1 -1.11.33c-.74-.12-4.55-3.8-6.55-5.69s-2.55-2.17-2.49-3.06 1-3.65 1.5-3.92c.16-.1 5.84 1.13 6.71 1.4a7.21 7.21 0 0 1 1.37.57 2.69 2.69 0 0 0 .6 1.83c.72 1 3.39 2.51 3.33 3.17s-.48 1.5-.6 1.41zm.81-2.25a39.85 39.85 0 0 1 -3.18-3.86 3.81 3.81 0 0 1 1.32.24 29.33 29.33 0 0 1 2.07 2.3c.03.13-.06 1.44-.21 1.32zm-22.31-1.49c-.39.18-1.77 2.78-3 5.33s-4.65 8.44-4.5 9.22a7.54 7.54 0 0 0 2 2.78 4 4 0 0 0 2.69 1.26c1.23.12 6.53.75 7.28.66s1.5-.39 1.68-1 .27-15.9-.36-17.15-5.45-1.26-5.79-1.1zm3.59 8c-.27-.36-2.21-3.17-2.3-3.11s-.72.48-.54.87 2.84 3.83 2.84 4a5.86 5.86 0 0 1 0 1.05c-.06-.09-2.15-3.18-2.48-2.94a1 1 0 0 0 -.36 1.3c.27.45 2.78 3.08 2.87 3.38a4.91 4.91 0 0 1 -.09 1.29s-2.81-3.81-3.08-3.67-.3.9-.24 1.08 3.14 3.74 3.14 3.74-.33.81-.42.72-3.17-3.39-3.5-3.18-.21 1 .09 1.35 2.66 2.28 2.66 2.46-.86.21-.95.18-2.4-2.35-2.64-2.24-.48.36-.33.6 1.35 1.41 1.35 1.41-3.26-.78-4-1-1.47-.69-1.41-1.38 4.55-9.1 5.15-10.39a9.82 9.82 0 0 1 1.47-2.45c.22-.16 1.35-.15 1.35.09s-.27.56.08.74 1.32.42 1.32.6.24 2.52.06 2.31-1.76-2.67-2-2.49-.69.81-.48 1.14 2.45 2.64 2.48 2.88.23 2.01-.04 1.65zm-21-14.58c-.36.27.06 4.2.33 4.4a1.05 1.05 0 0 0 1.11-.12c.15-.24-.18-2.78-.12-3.26s.78-.09 1.17-.3.18-.57 0-.75a4.69 4.69 0 0 0 -2.54.02zm16.83 3.35c-.06-1 0-1.25-.57-1.82s-5.87-1.86-7.51-2.4-6-1.64-6.53-1.88a4.44 4.44 0 0 0 -3.14-.15c-1.5.66-1.56 3.2-1.35 4.76s.57 5.54.93 6.25 2.12 3.06 2.87 3.33 1.11.12 3.8-.72a94.62 94.62 0 0 0 11.01-4.59c.83-.6.5-1.83.44-2.79zm-2.81.3c-.18.33-4.76 2.13-8.57 3.24s-4.4 1.11-5 .69-1.2-3.27-1.4-5.48-.3-3.84 1-3.93c.36 0 7.43 2 10.15 2.61s3.39.6 3.66.87a3.06 3.06 0 0 1 .11 1.99z" fill="#1d1d1b"/></svg>