<svg height="64" viewBox="0 0 64 64" width="64" xmlns="http://www.w3.org/2000/svg"><path d="m19.61 64c-5.53 0-9.5-2.64-11.79-7.83-2.68-6.09-2.82-8.79-2.2-11.65.49-2.24 2.89-7.58 6.52-15.66v-.1c3.19-7.1 7.88-16.74 10.68-21.4 2.71-4.44 4.98-6.92 9.34-7.36h.66c4.39 0 7.18 4 11.86 13 .74 1.44 1.53 3 2.32 4.5 4.6 8.75 9.81 18.66 11.13 25.15 1.44 7.09 0 11.85-4.67 15.45a16.38 16.38 0 0 1 -9.93 3.45 14.78 14.78 0 0 1 -3.06-.32 21.47 21.47 0 0 1 -7.1-3.45 17.22 17.22 0 0 1 -10 5.87 22.75 22.75 0 0 1 -3.76.35z" fill="#fff"/><path d="m56.26 43c-1.5-7.31-8.49-19.8-13.26-29.1s-7.26-12.26-10.66-11.9-5.22 2.09-7.81 6.4-7.17 13.6-10.53 21.16-6 13.32-6.49 15.44c-.51 2.4-.41 4.71 2.09 10.39s6.9 7.48 13.48 6.35a15.68 15.68 0 0 0 9.92-6.67s4.13 3.45 7.89 4.26a14.11 14.11 0 0 0 11.4-2.76c3.38-2.57 5.46-6.18 3.97-13.57zm-1.32 5.13c-.27-.14-1.95-3-2.27-3a.66.66 0 0 0 -.45.91 33 33 0 0 1 2.22 3.31c0 .27-.91 1.18-.91 1.18a28 28 0 0 0 -2.13-3.18c-.27-.09-.82.5-.68.82s2 3 1.77 3.18-.86.77-.91.63a16.92 16.92 0 0 0 -1.86-2.54c-.18 0-.82.45-.64.77s1.78 2 1.64 2.41-1 1.09-1.09 1a22 22 0 0 0 -1.63-2.62c-.14 0-.69.46-.59.68a16.89 16.89 0 0 1 1.36 2.68c-.09.27-.91.68-.91.68s-1.59-2.72-2-2.77-.86.5-.77.77 1.63 2.14 1.45 2.32a5.53 5.53 0 0 1 -1.36.41 15.22 15.22 0 0 0 -1.54-2.23c-.23 0-.82.32-.82.59s1.27 1.91 1 2-2.18 0-5.22-1.64a36.08 36.08 0 0 1 -5-3.36c-.31-.13-.63 1.09-2.9 2.86s-8.54 3.86-12.12 3.68-7.21-3.15-8.76-6.67-1.45-4.72-1.4-5.63c.08-1.66 5-12.07 8-18.7s9.45-20 11.35-21.51a7.48 7.48 0 0 1 5.54-1.86c1.86.18 5.17 4.17 8.26 10.39s10.37 20.45 11.87 25.13 1.5 5.44 1.5 5.44a23.61 23.61 0 0 0 -2.18-2.9c-.27 0-.54.86-.45 1.09s2.77 3.36 2.81 3.81.09 2.04-.18 1.91zm-28.23-37.45c.27 0 .5-.5 1.45-2s1.84-2.5 1.84-2.68a.69.69 0 0 0 -.63-.55c-.32 0-.78.41-1.82 1.73a13.4 13.4 0 0 0 -1.72 3.13c.02.09.61.37.88.37zm13.84 9.8c-3.22-6.67-6-12.13-7.94-12.21-3.41-.13-5.81 4.45-8.53 10s-10.31 23.41-10.72 25.73a6.63 6.63 0 0 0 3.64 7.25c3.4 1.75 6.58-.25 8.48-1.18s3.36-3.54 3.18-3.94-1.59-2.05-3.49-5.13-1.68-6.17-.78-9.48 3.91-5.9 6.45-6.31 3.9-.23 6.94 1.9 3.13 8.49 2.5 11.58-4.22 7.71-4.28 8.31 1.86 2.68 5 3.67 5.71.5 7.58-1.49 2.27-4.54.68-9.31-5.49-12.72-8.71-19.39zm5.09 28.69c-2.32.95-7.18-.73-7.22-1.27s3.09-4.77 3.4-9.85.68-7.72-3-11.62-8.39-2.43-10.21-1.68a10.32 10.32 0 0 0 -6 8.21c-.63 5-.13 8.49.82 10.76a29.67 29.67 0 0 0 2.27 4c.08.31-.86 1.59-2.95 2.22s-5.54.5-6.31-2.31.23-4.81 2.13-9.94 7.78-18.57 9.55-21.69 2.88-4.1 4.58-4 4 4.86 5.95 8.76 8.26 18.11 9 21.2.35 6.25-2.01 7.21zm-17.71-18.39c.14-.18-.13-.77-.54-.72s-1.73.91-2.09 3.22.19 3.17.32 3.31c.27.32 1.45 0 1.41-.5a9.59 9.59 0 0 1 -.28-2.76 5.61 5.61 0 0 1 1.18-2.55zm3.63-1.4c-2.85.77-3.49 2.86-3.22 5.53s3.22 7.4 4.45 7.4 3.31-2.54 4-7.53-3.06-5.99-5.23-5.4zm1.68 10.94c-.54 0-2.27-4.23-2.4-5.18a2.59 2.59 0 0 1 1.68-2.59 2.29 2.29 0 0 1 3 2.18c.04 1.68-1.73 5.59-2.28 5.59z" fill="#1d1d1b"/></svg>