<svg height="64" viewBox="0 0 64 64" width="64" xmlns="http://www.w3.org/2000/svg"><path d="m41.71 64a12.3 12.3 0 0 1 -3.49-.6 27.68 27.68 0 0 1 -2.9-1 5.8 5.8 0 0 0 -2.6-.64 12 12 0 0 0 -1.36.09c-.88.11-1.65.24-2.4.37a19.13 19.13 0 0 1 -3.28.39 7.64 7.64 0 0 1 -3.83-1c-2-1.11-7.08-4.58-10.94-12.86-3.28-7.08-4.91-10.63-3.91-19.34a17.71 17.71 0 0 1 12-15.23 21.57 21.57 0 0 1 6.84-1.46 11.15 11.15 0 0 1 5.16 1.28 7.14 7.14 0 0 1 1-4.34c1.75-3.38 6-8.66 10.26-9.52a7.79 7.79 0 0 1 1.39-.14c1.84 0 4.93.83 5 6.35 0 2.56-2.16 5.12-4.22 6.88 4 .39 7.15 1.89 9.08 4.34 1 1.25 4.14 5.56 3.2 8.38a6.25 6.25 0 0 1 -1.36 2 10.52 10.52 0 0 0 -3 5.57 11.6 11.6 0 0 0 1.22 7.23 4.78 4.78 0 0 0 .91.49 4.77 4.77 0 0 1 2.31 1.76c.8 1.31.48 2.95.16 4.52 0 .23-.09.47-.13.7a20.1 20.1 0 0 1 -6.67 11.45c-3.26 2.79-5.57 4.33-8.44 4.33z" fill="#fff"/><path d="m55.13 44c-.49-.8-2-1-2.84-1.82s-2.35-4.52-1.82-8.87 4.09-6.88 4.44-7.94-.58-3.67-2.91-6.6-6.5-3.77-10.36-3.68-8.53 2.75-8.74 2.57c-4.9-4.39-9.05-3.06-13.31-1.66a15.78 15.78 0 0 0 -10.59 13.64c-1 8.16.43 11.36 3.67 18.28s7.55 10.56 10.12 12 4.61.44 8.34 0 3.95.57 7.63 1.64 5.37.75 10.12-3.37a18 18 0 0 0 6-10.34c.3-1.48.74-3.08.25-3.85zm-1.68 2.44c-.18 0-1-1.33-1.38-1.2s-.66.14-.49.45 1.25 1.77 1.11 2.44-.44 1.64-.66 1.55-2.93-6.88-3.38-7-1-.09-.84.71 3.86 7.32 3.73 7.68-.58 1.42-.8 1.15-4.17-8.87-4.48-8.78-.8.35-.71.66 4.92 8.57 4.48 9-1 1.37-1.15 1.1-4.31-9-4.53-9.05-.89.23-.75.62 4.88 8.79 4.74 8.92-1.34 1.31-1.42 1.21-4-7.67-4.26-7.67-1.28.49-.93 1.11 4.44 7 4.4 7.19a7 7 0 0 1 -1.07.93s-3.06-6.46-3.64-6.46a.79.79 0 0 0 -.75.94c.09.35 3.77 5.9 3.41 5.94s-.71.31-.79.09-3.07-5.41-3.38-5.46-1.24.22-.88.85 3.24 4.61 3 4.7-.93.26-1 .13-2-3.59-2.4-3.59-1 .44-.84.89 1.77 1.73 1.2 1.77-4-1.91-6.57-1.2-3.68 2.22-7.23 1.11-8.39-4.57-11.62-10.82-4.44-12.74-3.15-17.8a16.14 16.14 0 0 1 9.76-11.49c5.19-1.95 8.78-.35 9.93.27s1.65 2.35 2.13 2.71 1.25-.76 3.24-2a14.77 14.77 0 0 1 10.7-1.28 11 11 0 0 1 6.34 5.28 1.29 1.29 0 0 1 0 1.33c-.17.31-4.25 4.12-5.5 6.56s-1.28 6.84.31 9.28a14.65 14.65 0 0 0 4.93 4.35c.89.53 1 0 1.28.71s.08 2.18-.09 2.14zm-40.24-18.97c-1.91 4-1 6.47-1 6.47.27.4.8.14 1.15.09s.67-3 .8-5.28 3.6-5.85 3.77-6.08-.22-.17-.57-.26-2.25 1.02-4.15 5.06zm27.59-13.94c2.53-1.5 6-4.79 6-7.14s-.58-5-4.13-4.35-7.36 5.55-8.92 8.52-.36 4.22-.17 4.44c1.28 1.6 4.69 0 7.22-1.47zm-.75-9.09c2.79-1.55 4.12-1.82 4.83-.27s-3.28 6.44-5.5 7.72-4.79 2.22-5.59 1.24c-.19-.23 3.46-7.13 6.26-8.69z" fill="#232021"/></svg>