<svg height="64" viewBox="0 0 64 64" width="64" xmlns="http://www.w3.org/2000/svg"><path d="m31 64a26.08 26.08 0 0 1 -7.13-.89 32.93 32.93 0 0 1 -16.06-10.82c-4.4-5.35-6.54-9.68-7.16-14.5-.65-5.12.59-13.45 2.77-18.57 2.58-6.05 6.58-12.76 16.25-16.61 4.33-1.73 7.72-2.61 15-2.61h.33c6.17 0 11.22.94 15.45 2.89 3.64 1.66 8.24 5.11 10.3 9.66 1.66 3.69 3.29 8.17 1.62 14.6-1.22 4.72-2.14 8.28-4.54 11.42 2.13 1.32 4.57 5 4.89 5.76 1 2.5 1.07 4.62.08 6.31s-7.48 8.63-16 10.93a62.25 62.25 0 0 1 -15.8 2.43z" fill="#fff"/><path d="m60.88 45.1c-.6-1.44-3.74-5-4.41-5s-1.79 1-2.63 1.55a68.37 68.37 0 0 1 -8.9 4.41 33.32 33.32 0 0 1 -10.18 2.54 21.54 21.54 0 0 1 -11.76-2.39c-4.11-2.27-8.24-6.21-9.28-11.21s.08-7.92 3.7-13.17 11.21-8.39 16.9-9.42a19.76 19.76 0 0 1 15.27 3.82c3.34 2.86 3.58 6.08 3.82 9.46a6.46 6.46 0 0 1 -3.5 5.85 1.46 1.46 0 0 1 -1.71-.44c-.4-.48-.08-8.75 0-10.18s-.88-2.43-1.55-2.43-5.85-.31-6.56 0-.6 1.36-.6 1.36a30.22 30.22 0 0 0 -2.78-1.59 22 22 0 0 0 -10-.08c-4.46 1-7.16 4.81-8.47 7.67a12.64 12.64 0 0 0 .27 10.7 16.77 16.77 0 0 0 11 7.79c5.17 1.19 10.62-1.67 10.62-1.67a34 34 0 0 0 6.79.64c2.43-.2 5.65-1.87 8.43-4.85s3.7-6.29 5.13-11.81.24-9.39-1.51-13.28-5.84-7.08-9.3-8.67-8.19-2.7-14.99-2.7-10 .76-14.28 2.47c-9.62 3.81-13.08 10.68-15.15 15.53s-3.25 12.89-2.62 17.54 2.82 8.75 6.72 13.46a31.07 31.07 0 0 0 15.07 10.2c5.84 1.67 14 .56 21.83-1.55s14-8.67 14.83-10 .4-3.12-.2-4.55zm-9.82 8.23c-.36-.32-4-6.29-4.29-6.21s-.88.4-.68.56 4.37 5.81 3.94 6.08-.84.72-1 .4-3.74-6.44-4-6.44-.88.44-.8.6 4.53 6.16 4 6.32-.76 1-1.24.32-3.53-5.69-3.85-5.73-1 .48-.88.64 3.46 5.56 3.34 5.72-.91.76-1.11.48-3.14-5.53-3.54-5.73-1 .4-.83.52 3.38 5.45 3.14 5.53-1.16.44-1.32.28-2.86-5.17-3.41-5.21-1 .24-.84.32 3.26 5.13 3 5.17-1.11.47-1.27.23-2.74-5.68-3.26-5.72-1.11.12-.88.51 2.79 5.37 2.79 5.37-.8.56-1.12.12-3.26-5.25-3.49-5.37-.92 0-.72.24 3.62 5.21 3.14 5.21-.68.6-1.07 0a49.23 49.23 0 0 0 -3.42-4.81c-.24 0-.84.16-.72.52s2.82 4.41 2.51 4.37-.88.32-1.12 0-3-4.93-3.5-4.93-.87.48-.83.6 3.38 4.17 2.74 4.29-1.35.32-1.51-.16a23.94 23.94 0 0 0 -2.62-4.05c-.32-.12-1-.28-.88.12s2.79 3.89 2.07 3.89-1 .12-1.27-.32-1.95-3.61-2.07-3.61-1 .12-.83.63 1.78 2.83 1.23 2.83a33.18 33.18 0 0 1 -13.36-7.8c-5-5.13-6.36-8.75-6.88-12.92a30.4 30.4 0 0 1 1.35-13.6c1.58-4.45 4.3-9.42 7.86-12.59s9.67-7 21.83-6.58c5.61.19 11.61.8 16.19 3.82a16.45 16.45 0 0 1 7.75 11.76 23.38 23.38 0 0 1 -1.71 12.77c-1.71 4.09-3.74 6.52-5.69 7.27s-6.36 1.51-7.15.8-3.06-5.73-3.62-5.61-.6.6-.44 1 2.43 4.22 2 4.18-.76.12-1.07-.48-2.31-6-2.83-6-1 .12-.83.4a33.77 33.77 0 0 1 1.79 4.33c-.08.16-.36.84-.64.56s-1.84-3.58-2.14-3.5a.93.93 0 0 0 -.41 1.28 30.26 30.26 0 0 1 1.67 3.1c-.08.2-.4.64-.64.24s-1.63-3.42-1.95-3.5-1.07.12-.79.56 1.91 3.58 1.87 3.7-.6.59-.8.19-1.59-3.22-2-3.22-.67.16-.44.68 1.49 2.77 1.49 2.89a.41.41 0 0 1 -.72.12c-.4-.4-1.79-3.54-2.19-3.54s-1.11.48-.87.8 1.71 2.62 1.35 2.74-.36.44-.72 0-1.51-2.58-1.85-2.62-.92.4-.72.63 1.66 2.23 1.26 2.23-1.27 0-1.51-.2-1.51-2.74-1.79-2.8-1 .12-.75.44 1.19 2.18.75 2.06a17 17 0 0 1 -6.4-3.93c-2.27-2.47-2.62-6.72-2.07-9a13 13 0 0 1 5.23-6.89 14.49 14.49 0 0 1 9.15-1.91 9.54 9.54 0 0 1 6.46 3.23 1.84 1.84 0 0 0 1.07.72c.44.12.4 0 .36-.52a16.6 16.6 0 0 1 -.12-2.66c.12 0 5.33 0 5.57.36s.16 4.09.24 5.92-.72 5.33.59 6.4a2.83 2.83 0 0 0 3.46.52 8 8 0 0 0 3.58-5.25c.44-2.5.91-7-2.82-11s-7-5.81-11.18-6.8-11.45.31-14.87 1.45-9.42 5.68-11.49 10.46a27 27 0 0 0 -1.83 13.4c.48 2.5 3.62 7.87 6.21 9.9a25 25 0 0 0 11.84 5c4.93.59 12.45-1.79 13.21-2.07s3.65-1.47 4-1.31a67.72 67.72 0 0 1 4.14 6.28c.01.13-.15.84-.51.53zm4.94-3.33c-.24-.52-3.1-5.73-3.5-5.61s-1 .36-.75.6 3.53 5.44 3.38 5.68-.52.84-.92.48-3.1-5.69-3.42-5.69a1.31 1.31 0 0 0 -.87.68c0 .16 3.5 5.49 3.38 5.65s-.44.79-.88.55c-.27-.15-2.54-4.65-3-5.17s-.88-1.07-.76-1.31a21.1 21.1 0 0 1 4.38-2.27 34.51 34.51 0 0 1 3.82 5.93c-.07.23-.59.98-.86.48zm1.47-.92c-.32-.36-3.34-6.08-3.42-6.24s1-.52 1.08-.48 3.73 5.29 3.53 5.65-.84 1.42-1.16 1.06zm2.63-2.46c-.24.35 0 .91-.52.59s-3.19-5.21-3.31-5.33.16-.4.44-.28 3.65 4.65 3.42 5.01zm-27.25-22.44c-3.18-1.07-6.52-.32-7.91.76-3.66 2.82-2.83 6.44-.68 9s5.61 2.31 8.55 1.47 3.9-3.14 4.13-5.36a5.55 5.55 0 0 0 -4.09-5.87zm-.48 10.26c-2.94.64-4.61.64-6.16-.76s-1.35-4.37 1.23-5.68a10.14 10.14 0 0 1 5.81-.52 3.73 3.73 0 0 1 2.38 2.35c0 .39-.32 3.97-3.26 4.61zm-7-11.09c.52-.28-.2-1.08-.59-1a11 11 0 0 0 -3.14 2 5 5 0 0 0 -1.48 3.5c.12.4.84.28 1.28.16s.39-1.27.91-2.35 2.47-2.04 2.98-2.31zm-12.84-6.8c.6-.56.8-1.55-.12-1.32s-4.49 4.62-5.41 7.08-1.19 5.33-.83 5.89a4.32 4.32 0 0 0 1 0c.44-.08.2-1 1.12-4.73a14.91 14.91 0 0 1 4.2-6.92zm33.16 4.17a7.2 7.2 0 0 0 -3.69-.12.5.5 0 0 0 .16.72s1.91.08 2.23.08.08 2.86.12 3.46.48.31 1 .31.49-4.09.14-4.45zm5.57 12.28a5.56 5.56 0 0 1 -3.18.67c-1.16-.23-1.8-1.77-2-1.71-1 .32-.36 1.63.72 2.27s2.14.4 3.57 0 1.25-1.46.89-1.23z" fill="#1d1d1b"/></svg>