<svg height="64" viewBox="0 0 64 64" width="64" xmlns="http://www.w3.org/2000/svg"><path d="m21.46 55.59c-.53 0-1.07 0-1.62-.05-1.63-.1-3.42-.23-5.06-.35-2.28-.17-4.43-.32-5.28-.32-.56 0-1 0-1.28.06a5.86 5.86 0 0 1 -.65 0 2.49 2.49 0 0 1 -1.68-.58 18.9 18.9 0 0 1 -2.82-3.85c-.07-.39-.07-.39-.07-5.5 0-3.81 0-9 0-12.79 0-2.23-.12-5.28-.21-8.35-.41-12.66-.41-12.66.21-13.43.81-1.15 2.41-1.23 5.6-1.43.71 0 1.4 0 2.11-.09l.81-.06c2-.17 5.29-.44 8.2-.44 2.69 0 4.37.23 5.42.74 2 .94 7.89 3.8 9.14 8.56 1.12 4.29-.14 10-.67 11.69l-.16.5a13.56 13.56 0 0 1 1 1.43 10.59 10.59 0 0 1 .8-1.68 13.25 13.25 0 0 1 4.39-4.42c-.33-.13-.95-.36-2.38-2.34 0-.06-.07-.11-.1-.16-.69-1.18-.36-4.94 0-6a2.44 2.44 0 0 1 1.43-1.57c.38-.15.74-.29 5.47-.29 2.44 0 5.34.05 6.33.1 2.54.13 5.62.78 5.89 3.08 0 0 .5 5-.63 6.24a2.16 2.16 0 0 1 -.61.47 10.59 10.59 0 0 1 3.79 3.24c1.75 2.64 1.79 3.89 1.89 6.64 0 .43.12 4.24-.59 5.41-.11.2-.23.38-.34.56a8.83 8.83 0 0 1 1.67 5.25c-.25 1.32-1.35 5.73-4.93 7.18a20.86 20.86 0 0 1 -8 1.42c-.61 0-1.23 0-1.88 0a14.45 14.45 0 0 1 -9.4-4.31 14.13 14.13 0 0 1 -2.13-3.46c-1 3-2.53 5.45-4.34 6.62a17.47 17.47 0 0 1 -9.37 2.32z" fill="#fff"/><path d="m10.81 13.61a17.7 17.7 0 0 0 -3.47.18c-.3.21-.17 5.8 0 5.78a7.45 7.45 0 0 0 1-.12c.15-.06.06-4.34.06-4.58s2.78-.06 3.11-.33-.07-.93-.7-.93zm1 13.15a2.07 2.07 0 0 0 1 1.67 2.2 2.2 0 0 0 1.79.6 66 66 0 0 0 7.1-.66c2-.38 2.85-2.27 3.09-4.52s-.51-4-2.25-4.91a14.51 14.51 0 0 0 -6.29-1.08 28.36 28.36 0 0 0 -4 .6c-1.25.39-.48 7.43-.42 8.3zm3.19-5.33a3.33 3.33 0 0 1 1.77-1c.81-.09 5.33-.39 5.75.06a4.56 4.56 0 0 1 1.08 4.11c-.57 1.89-1.47 2.58-3 2.76s-4.55.45-5.3.48-.77.23-.83-.09-.15-4.91-.18-5.18.38-.81.71-1.14zm-2.84 8.57c0-.36-.48-.21-.84-.36s-.32-2.25-.42-2.64-1.14-.48-1.26-.09a18.27 18.27 0 0 0 .24 3.83c.12.48 1 .18 1.89.15s.42-.54.39-.89zm13.71-13.3c1.14 1.46.93 2.93 1.14 3.23s.78.15 1.14 0 .33-2-1.26-3.83c-1.79-2.1-3.59-2.1-3.89-2.04s-.42.84-.18 1 1.87.11 3.05 1.64zm5.31 13.73.52-1.64c.52-1.63 1.6-6.9.64-10.58s-5.83-6.21-8.06-7.21-10.86-.24-13.42 0-5.9.18-6.31.72c-.23.32.28 14 .4 20.52s0 17.52 0 17.8a24.27 24.27 0 0 0 2.2 2.92c.28.24.76 0 2.31 0s6.47.44 10.46.68 7.51-.48 9.79-2 4.51-6.27 4.67-12.38-3.2-8.83-3.2-8.83zm.38 7.35c-.06-.09-.63-1.11-.9-1.05s-.66.54-.57.81 1.62 2.72 1.59 2.93-.09.87-.27.66-1.29-2.43-1.41-2.43-.74.42-.56.9 1.56 3.06 1.61 3.4-.33 1.73-.45 1.52a22.47 22.47 0 0 0 -1.7-2.81c-.18 0-.69.63-.6.9s1.7 2.89 1.7 3.07-.83 1.23-1 1.17-1.47-3.18-1.68-3.21-1 .24-.84.57a37.87 37.87 0 0 1 1.52 3.48c-.06.18-.36.57-.51.48s-1.47-3.48-1.74-3.54-.93.33-.87.48a29.88 29.88 0 0 1 1.77 3.47c-.12.18-.57.75-.78.48s-1.76-3.77-2-3.77-.78.42-.69.66 2 3.38 1.59 3.53-1 .15-1.05 0-1.65-3.35-1.8-3.41-.78.06-.75.3 1.74 3.08 1.47 3.14a3.49 3.49 0 0 1 -1.41-.12c-.12-.12-1.29-3.17-1.55-3.2s-.9.33-.81.54a20.93 20.93 0 0 1 1.19 2.63h-1.34a16.94 16.94 0 0 0 -1.44-2.69c-.24-.06-.84.36-.75.57s1.26 2 1.08 2a4.45 4.45 0 0 1 -1.26-.06c-.18-.12-1.2-2.48-1.47-2.51s-.77 0-.8.36 1.16 2.3 1 2.36a2.37 2.37 0 0 1 -.92 0c-.16-.09-1.16-2.48-1.4-2.48s-.9.27-.9.51 1.11 1.88 1 1.88a6.43 6.43 0 0 1 -1.32 0c-.12-.09-1.08-2.39-1.2-2.39s-1 .42-.89.51.95 1.58.77 1.64a4.13 4.13 0 0 1 -1.49 0c-.21-.12-.63-1.94-.78-1.94s-.72.36-.69.54.48 1.49.36 1.52-1.2.12-1.26 0-.13-10.36-.16-15.42-.45-20.9-.33-21.16 4.58-.51 8.06-.69 8.53-.54 10.48.42 6.19 3.44 5.92 7.84-1.28 6.89-2.09 7.67-2 .95-2 1.52 1.26.54 1.65 1a31 31 0 0 1 2.9 3.32c.06.36.06.42-.06.48s-.72.69-.48.81a7 7 0 0 1 1.44 1.92c-.01.26-.07.98-.13.89zm-7.56-4.47c-.48-.35-6-.71-8.12-.71s-3.92.06-4.16.54c-.15.29-.09 10.8 0 11.07s.33.3 1 .36 4.85.06 6.26.09a9.57 9.57 0 0 0 5.12-.9c2.3-1.07 2.87-2.54 2.72-5.33a7.63 7.63 0 0 0 -2.82-5.12zm1.55 6.8a3.94 3.94 0 0 1 -3.29 3.24 56.33 56.33 0 0 1 -6.29 0c-1 0-1.11.06-1.14 0s-.09-6.44 0-6.86 1.77-.78 4.68-1 4.1-.33 4.64.09a7.58 7.58 0 0 1 1.42 4.53zm14.78-16.77a28.84 28.84 0 0 0 5.21-.18c2.79-.2 8.27-.18 8.57-.18s.27-3.95.18-4.7-2.29-1.22-4.01-1.28-10.36-.18-11 .06-.63 4.31-.42 4.67a8.63 8.63 0 0 0 1.47 1.61zm-.09-5c.16-.11 7.19-.24 9-.15s2 .15 2.12.36a2.25 2.25 0 0 1 0 1.47c-.21.24-7.48.18-9 .18s-1.8.15-2 0a3.38 3.38 0 0 1 -.12-1.89zm18.18 23.72a34.42 34.42 0 0 0 -5-.15c-.36.06-.72 1.79-1.5 2.72a4.33 4.33 0 0 1 -3.68.87c-.72-.27-1.74-4.13-1.65-4.31s10.09-.3 10.36-.3 1.38-1.71 1.47-1.86a14.34 14.34 0 0 0 .3-4.31c-.09-2.66-.12-3.44-1.56-5.6s-4.67-3.59-6.77-3.83-5.68-.33-8.14.81a11.76 11.76 0 0 0 -5.25 4.58 17.54 17.54 0 0 0 -1.8 8.92 19.1 19.1 0 0 0 3.6 9.16 12.43 12.43 0 0 0 8 3.66 20.1 20.1 0 0 0 9-1.23c2.76-1.11 3.6-5.06 3.72-5.69a8.61 8.61 0 0 0 -1.1-3.44zm-11.42 7.39c-.21-.15-1.35-2.72-1.59-2.84a1 1 0 0 0 -1 .21c-.15.24.81 2.24.54 2.18a12.65 12.65 0 0 1 -5.48-3.62 15.73 15.73 0 0 1 -3.27-8 12.59 12.59 0 0 1 3.51-8.21c1.88-1.67 3.86-2.78 8-2.81a11.94 11.94 0 0 1 6.56 1.82 6.56 6.56 0 0 1 3.05 4.2c.15.92.3 2 .15 2s-.84-2.84-1-2.81a1.32 1.32 0 0 0 -.72 1c0 .42 1.65 4.25 1.65 4.49s.15 1.11 0 1.14-1.68-4.32-1.88-4.32-.84.09-.78.63 1.64 3.86 1.52 3.89a1.82 1.82 0 0 1 -.89 0c-.24-.11-1.14-3.08-1.44-3.11s-.66.45-.63.63 1 2.46.87 2.46h-.3a17.08 17.08 0 0 0 -1.14-2.37c-.15 0-.72.18-.69.36s.87 2.15.87 2.15-.36.12-.48-.09a15.12 15.12 0 0 0 -1.17-2.43c-.21 0-.72.39-.63.63a9.32 9.32 0 0 1 .57 1.82c-.12 0-.54.12-.63-.06s-.77-2.09-1-2.12-1 .3-.87.48.72 1.67.57 1.67-6.29-.2-6.47 0a8.77 8.77 0 0 0 -.12 4.08 5.38 5.38 0 0 0 2.72 3.62l1.65.69.9 2.72s-.7.07-.95-.08zm2-.06a7.66 7.66 0 0 1 -1-2.33c.09-.28.69-.12.93.06a7.5 7.5 0 0 1 1.07 2.3 1.33 1.33 0 0 1 -1-.03zm2.36 0a.38.38 0 0 1 -.42-.06 12.42 12.42 0 0 1 -1.19-2.24c-.05-.14.57-.21.77 0a8 8 0 0 1 .86 2.3zm2.31-.84c-.18.24-1.11.81-1.32.57a13.34 13.34 0 0 1 -.84-2.63c0-.24.51-.54.75-.42s1.61 2.25 1.43 2.48zm.81-.47a13.65 13.65 0 0 1 -1.44-2.7.29.29 0 0 1 .42-.3 11.86 11.86 0 0 1 1.54 2.79c-.11.21-.26.27-.5.21zm1.07-.84a31 31 0 0 1 -1.55-3.6c0-.25.18-.35.51-.35s1.64 3.29 1.64 3.38-.37.75-.58.57zm1.26-1.47c-.39 0-1.08-2.25-1-2.45a3 3 0 0 1 1.62-.09c.12.15-.21 2.54-.6 2.54zm-10.34-11.29c1.62 0 6.32-.09 6.62-.09s.27-1 .15-1.88a3.83 3.83 0 0 0 -3.41-3.33c-2.61-.39-5.24.6-6.26 1.8s-1 3.33-.78 3.44a21.25 21.25 0 0 0 3.68.06zm.9-3a6.87 6.87 0 0 1 3.11-.39c.69.12 2.36 1.65 1.38 2a40.89 40.89 0 0 1 -5.87.11c-.2-.06.21-1.29 1.38-1.71zm-5.45-2.22c-.24-.15-2.21 1.71-3.11 3.54s-1.43 4.55-1.17 4.67.36.09.63.06.42-1.5 1-3.27a13.59 13.59 0 0 1 2.39-3.71c.77-1.01.5-1.13.26-1.28z" fill="#1d1d1b"/></svg>