<svg height="64" viewBox="0 0 64 64" width="64" xmlns="http://www.w3.org/2000/svg"><path d="m26.19 61.25c-.05 0-5.07-.13-7-2.18a13.29 13.29 0 0 1 -3.54-6.58l-.45-1.59c-.82-2.94-1.68-6-.52-7.95a3.2 3.2 0 0 1 1.17-1.17 13 13 0 0 1 -3.84-5c-.73-2.26-2.87-13-3.42-16.08-.11-.64-.27-1.33-.42-2-.77-3.43-1.64-7.32.94-9.44a27.1 27.1 0 0 1 9.31-4.62c3.47-1.06 10.43-1.89 15.86-1.89a33.12 33.12 0 0 1 4.47.25c5.19.74 14.12 4.75 15.56 6.64a10.86 10.86 0 0 1 2.17 8.09c0 .16-2.94 16.27-4.26 18.83a20.77 20.77 0 0 1 -4.17 5.49 3.3 3.3 0 0 1 .81.46c1.12.88 1.19 2.38 1.09 6.8v1.24c0 .08-.11 7.87-4 9.25a28.67 28.67 0 0 1 -8.51 1.38h-8.49z" fill="#fff"/><path d="m52.72 10.86c-.96-1.26-9.16-5.15-14.25-5.86s-15.33.29-19.47 1.55a26.23 26.23 0 0 0 -8.62 4.25c-2 1.68-.42 6.23.18 9.58s2.7 13.78 3.35 15.81 3.9 4.85 5.69 5.87 9.4 2.28 12 2.22 10-1.08 12.63-2.1 5.15-4.55 6.17-6.53 3.6-15.57 4.11-18.26a8.87 8.87 0 0 0 -1.79-6.53zm.3 6.77c-.21-.18-2.34-3.95-2.67-3.95s-1 .71-.69 1 3 4.2 3.06 4.4a6.83 6.83 0 0 1 -.6 2.16c-.12-.05-3.12-5.44-3.41-5.41s-.78.78-.6 1 3.71 5.3 3.71 5.63-1 3.11-1.14 2.84-3-5.3-3.35-5.42-.78.45-.6.69 3.77 5.81 3.77 6.17-.42 2.93-.69 2.72-4.28-7.36-4.67-7.63-.78.27-.69.45 5.09 8 5.06 8.2-.45 2.61-.59 2.4-4.05-6.8-4.35-6.89-.8.63-.68.84 4.61 6.47 4.58 6.71-.63 2-.78 1.91-3.77-5.87-3.95-6-.78.33-.69.48 4 5.9 3.89 6.23-.63 1.26-.87 1-3.47-4.55-3.71-4.64-.9.54-.69.84 3.62 4.25 3.44 4.49-1.08 1-1.25.75a40.92 40.92 0 0 0 -2.64-3.42c-.21 0-.72.63-.6.81s2.25 3.09 2.19 3.18-1.26.8-1.44.71-2-3.41-2.28-3.44-.8.51-.68.81 1.79 3 1.79 3-1.23.6-1.4.36a27.78 27.78 0 0 0 -2.22-2.93c-.27-.09-.84.21-.69.42a25.2 25.2 0 0 1 1.92 2.9 18 18 0 0 1 -2.49.18 23.83 23.83 0 0 0 -1.7-2.57c-.21 0-1 .36-.78.8a19 19 0 0 1 1.07 1.89 51.63 51.63 0 0 1 -9.61-.75c-4.43-.84-8.2-3.17-9-4.49-.52-.85-1.95-7.69-2.69-11.5s-1.48-6.84-1.61-8.76-.45-3.56.81-4.58 6.59-3.74 13.36-4.79 12.73-.81 16.83.57 9 3.71 9 4-.45 1.11-.15 1.44 2.37 2.12 2.37 2.3.01 3.07-.22 2.89zm-8.51 26.37a36.16 36.16 0 0 1 -7.72 1.73c-2.22.06-9.58 0-12.1-.72s-6.43-1.92-7.48-1.67c-2.28.54-.42 5.51.36 8.62a11.28 11.28 0 0 0 3.05 5.69c1.14 1.2 4.91 1.56 5.57 1.56s8.68-.06 11.2-.06a26.82 26.82 0 0 0 7.84-1.26c2-.72 2.7-5.75 2.7-7.37s.24-6.05-.3-6.46a3.88 3.88 0 0 0 -3.12-.06zm1.83 6.25a3.27 3.27 0 0 1 -.69 1.75s-1.71-5.6-2.12-5.66-1 .51-.78.75a59.61 59.61 0 0 1 2.48 6c0 .42-.24 1.65-.39 1.41s-2.48-7.11-2.84-7.23-1.2.12-1.08.45 3.35 7.18 3.32 7.54-.71 1.32-1 1.05-3.66-8.32-4-8.2-1 .6-.8.81 4 7.57 3.65 7.66-1.8.27-1.89.09-2.9-6.2-3.17-6.35-.78.42-.75.51 3.11 5.75 2.78 5.84a2.38 2.38 0 0 1 -1.1.06c-.12-.09-2.73-5.78-3-5.84s-.78.45-.72.78 2.61 5.06 2.4 5.06-1.08.18-1.26 0-2.06-4.49-2.38-4.52-1 .42-.87.66 2.24 4 2.12 4-1.1.15-1.16 0-1.8-3.68-2.1-3.71-.75.51-.69.66 1.76 3.18 1.52 3.18-1.17-.06-1.23-.18-1-2.48-1.32-2.51-.95.44-.86.71a13.77 13.77 0 0 1 .8 1.86c-.12 0-1.16.12-1.34-.06s-.75-1.59-1.05-1.68-.81.33-.75.54.69 1.08.39 1.08a18.37 18.37 0 0 1 -4.4-1.38 5.48 5.48 0 0 1 -3-3.14c-.54-1.35-2.93-7.9-1-7.84.24 0 3.29 1.1 6.37 1.82a42.1 42.1 0 0 0 10.9 1 35.62 35.62 0 0 0 7.67-1.39c.72-.3 1-.45 1.16-.36s1.14 2.94 1.47 3.21.57-.48.36-.81a11.91 11.91 0 0 1 -.87-2.67c.09-.12.42-.42.72-.33s.51.63.51 1.38a26.18 26.18 0 0 1 -.01 4.04zm-4.07-41.19a19.77 19.77 0 0 0 -9.73-1.67 41.8 41.8 0 0 0 -12.25 1.79c-2.78 1-4.57 2.11-4.73 3.42-.24 2 1.26 2.3 3.62 3.23s6.59 1.17 11.74 1.23a47.8 47.8 0 0 0 12.55-1.41c3-.81 3.35-2 3.17-3.23s-1.64-2.28-4.37-3.36zm-1 5.75a61.25 61.25 0 0 1 -14 .9c-5.12-.39-6.77-.66-6.92-2.39 0-.52 1.41-2.16 4.82-2.85a37.83 37.83 0 0 1 12.83-.47c5 .69 7.15 1.8 7.24 2.61s.35 1.57-3.96 2.2zm-28.07-2.06c-.06-.6-.69-.48-1-.12s-.12 1.85.09 3.2a9 9 0 0 0 1.16 3.44s.51-.06.63-.06.24-.38-.06-1a43.79 43.79 0 0 1 -.82-5.46zm11.25 10.75c.48-.39-.42-1-.93-.78a5.21 5.21 0 0 0 -2.06 2.72 6.26 6.26 0 0 0 .33 3.21c.36.15.72.21.75-.15a13.88 13.88 0 0 1 -.15-2.4c.12-1.05 1.61-2.21 2.06-2.6zm9.82-1a8.79 8.79 0 0 0 -7 .81 6 6 0 0 0 -2.91 3.23c-.24 1.05-1.1 4.25-.33 6.2s3.33 3.32 5.39 4a8 8 0 0 0 6.92-1.08c2.34-1.55 2.49-6.11 2.4-7.18s-1.17-5.04-4.47-5.97zm1.73 11.69a7 7 0 0 1 -6 1.46c-2.27-.51-4.34-1.79-4.67-3.83a5 5 0 0 1 1.5-4.22 8.86 8.86 0 0 1 2.12-1.38 11.7 11.7 0 0 1 5.54-.87 2.87 2.87 0 0 1 2.6 2.65c.06 1.1.36 4.93-1.09 6.19zm-5.51-7.67c-2.6.93-2.66 4.28-2 5.78a3.6 3.6 0 0 0 3.5 2 3.13 3.13 0 0 0 2.9-2.16 4.55 4.55 0 0 0 -.33-4.25 3.3 3.3 0 0 0 -4.12-1.37zm2.31 5a2.52 2.52 0 0 1 -3.06-.84 2.19 2.19 0 0 1 1.29-3 2.65 2.65 0 0 1 2.84 1.2 2 2 0 0 1 -1.12 2.61z" fill="#1d1d1b"/></svg>