<svg height="64" viewBox="0 0 64 64" width="64" xmlns="http://www.w3.org/2000/svg"><path d="m29.54 61.6c-2.93 0-12.85-.26-17.17-2.45l-.14-.07c-3.45-1.74-4.89-2.62-6.15-6.9-1.15-3.91-2-10.18-2.39-17.58-.38-7.14-.7-17.72-.52-19.88.23-2.72 2.76-5.94 3.88-7.02 2.85-2.7 7.47-4.59 12.66-5.06 1.79-.16 4-.25 6.32-.25a61.15 61.15 0 0 1 13.49 1.22c5.68 1.47 9.12 4.31 9.48 7.78.09 1 .15 2.83.21 4.71 0 1.36.1 3.2.18 4.45h.28c.85 0 1.84-.08 2.71-.08a12.84 12.84 0 0 1 2 .12l.42.07c1.72.24 5.29.75 5.74 6.25.33 4 .67 16.15 0 18.83a18.65 18.65 0 0 1 -9.86 12.42c-6 3.07-13.45 3.46-19.28 3.46z" fill="#fff"/><path d="m58.5 27.07c-.36-4.32-2.87-4.24-4.51-4.52s-5.91.16-6.35 0-.44-8.34-.68-11-3.31-4.83-7.94-6-13.89-1.4-19.12-.92-9.25 2.37-11.46 4.51c-1 1-3.12 3.83-3.27 5.75s.12 12.14.51 19.6 1.24 13.51 2.32 17.13 2 4.11 5.27 5.75 11 2.19 16.29 2.23 13.73.08 20.2-3.23a16.73 16.73 0 0 0 8.82-11.1c.52-2.2.28-13.89-.08-18.2zm-.8 9.5c-.24-.32-2.55-4.31-3.11-4.67s-.68.48-.36.84a51.58 51.58 0 0 1 3.39 4.83 13 13 0 0 1 -.12 3.19c-.16-.12-3.83-6.07-4.23-6.27s-1 .08-.56.72 4.47 5.87 4.59 6.47-.3 3.67-.48 3.32a68.44 68.44 0 0 0 -4.31-6.71c-.4-.2-.76 0-.68.24s4.59 7 4.59 7.23-.71 2-1 1.64-3.16-5.79-3.64-5.83-.91.08-.63.72 3.71 5.55 3.71 5.71-.76 1.71-1.16 1.63-3.07-5.27-3.43-5.35-.92.12-.76.52 3.67 5.71 3.63 5.83-1.6 1.72-1.83 1.52-3.11-6.15-3.43-6.15-.84.2-.64.52 3.36 5.71 3.36 6-1.48 1.11-1.72 1-3.11-5.94-3.39-6.06-.84.16-.68.48 3.47 5.94 3.35 6-1.16.64-1.48.56-3.07-5.63-3.43-5.71-.72.32-.4 1 3.12 4.87 2.92 5.07a4.55 4.55 0 0 1 -1.92.36c-.24-.08-2.87-6.31-3.35-6.39s-.72.48-.44 1.24 3.31 5.19 3.07 5.39a6.58 6.58 0 0 1 -1.92.4c-.23 0-3.67-5.91-4-5.91s-.84.36-.64.76 3.65 5.22 3.33 5.29a7.32 7.32 0 0 1 -2.28 0c-.2-.16-1.91-4.43-2.71-4.75s-1-.16-.84.4 2.83 4.55 2.51 4.55a5.54 5.54 0 0 1 -1.63 0c-.28-.16-2.44-5-2.8-5.19a.54.54 0 0 0 -.72.68c.16.52 2.48 4.59 2.48 4.59a5.06 5.06 0 0 1 -1.32 0c-.2-.12-2.31-4.51-2.63-4.63s-.92.2-.88.44 2.67 4.11 2.51 4.23a4.29 4.29 0 0 1 -1.87-.08c-.28-.16-2-4.35-2.52-4.47s-1 .36-.84.56a25.27 25.27 0 0 1 2.24 3.91 10.53 10.53 0 0 1 -1.6-.15c-.12 0-1.75-4-2.15-4s-.8.36-.68.56 1.75 3.23 1.55 3.31-1.43.16-1.71-.2-1.24-3.15-1.72-3.23-.84.16-.8.44 1.68 2.79 1.52 2.83a5.9 5.9 0 0 1 -2-.28c-.2-.2-1.11-2.71-1.59-2.83s-.92.12-.84.32 1.42 2.24 1.12 2.28-4.63-.72-6.39-2.12a17.29 17.29 0 0 1 -5.11-7.78c-.92-3.19-1.8-14-1.8-19.68s0-10.9.48-12.06a16.67 16.67 0 0 1 2.8-3.91c1.13-1.18 4.71-2.67 8.62-3.51s10.5-.48 15.69 0 9.46 1.59 10.66 3.87a7 7 0 0 1 1.16 4.19c0 1.44.12 2.4.12 2.4s-1.12-2.16-1.6-1.76-.44.76-.16 1.08a14.75 14.75 0 0 1 1.88 3.07c0 .36-.44 4.43.63 4.63s5.47-.16 7.15 0 3 .8 3.31 3.16.36 3.95.2 3.87-1.59-1.92-1.79-1.8-.48.32-.2.52a15.12 15.12 0 0 1 2 2.24c.11.3.59 5.19.35 4.87zm-40.52-11.38c1 .4 2.76.16 8.78-.6s9.87-.68 10.54-.84 1-.48.88-1.59a11.56 11.56 0 0 0 -1.71-5.27c-1.2-1.68-6.07-1-9.27-.6s-9 1.52-9.3 2.11c-1.87 3.32-.88 6.39.08 6.79zm2.36-4.11c.2-.34 4.95-1.56 8.9-2s6.63-.32 7 0a3.6 3.6 0 0 1 .55 2 8.77 8.77 0 0 0 .36 1.43c0 .28-.08.08-1.15.16a55.07 55.07 0 0 0 -8.47.44 43.41 43.41 0 0 1 -5.95.76c-1.23 0-1.23.2-1.43 0a6.34 6.34 0 0 1 .19-2.79zm28.06 16.09c-.2 0-.56-.56-.72-1s-2.43-4-2.67-4.39-1.12-.78-1.21-.2 2.68 4 2.8 4.19-1 0-1.64 0-2.88-4.35-3.51-4.95-1.2-.16-.92.4 3.67 4.35 3.67 4.55-1.8.28-2.2.16-3.15-4.83-3.63-5.07-1.16.2-.8.6 3.52 4.27 3.8 4.59-2.2 0-3-.12-3.23-5.07-3.79-5.63-1.48 0-1.24.32 4 5.07 4.19 5.23-1.87.28-2.47.16-3.26-5.27-3.58-5.63-1 .08-.84.48 3.55 4.79 3.83 5-2.4.14-2.67.14-2.52-4.58-3-4.86-.88.24-.92.56 3.16 4.15 3.32 4.43-2 .24-2.4.16-2.08-3.36-2.35-3.75-1.16.12-1.2.23a35.13 35.13 0 0 0 2.79 3.6c.24.16-1.63.24-2.07.12s-1.76-3.28-2.17-3.64a.65.65 0 0 0 -1 .15 26.4 26.4 0 0 0 2.36 3.6c.2.24-1.28.12-1.8.08s-1.64-2.24-1.92-2.76a.7.7 0 0 0 -1-.2c-.2.12 1.39 2.68 1.59 2.88s-2.27.16-2.51.12a11.92 11.92 0 0 1 -1.36-2.4c0-.12-.44-.2-.64.16s1.4 2.4 1.4 2.4a5.4 5.4 0 0 0 -2.12.72c-.48.47-.56 2-.59 4.19 0 2.91 2 3.39 4.87 3.59s19.6.12 22.27 0 3.28-.16 4.87-1.64 1.28-3.87 1.52-5-1.14-1.53-1.34-1.57zm-1.32 5.83c-1 1.2-2 1.36-5.42 1.4s-10.74 0-15.25 0-5.35 0-5.51-.16a6.81 6.81 0 0 1 .24-2.75c.23-.43 4.63-1.76 7.5-1.92s7.79 0 10.26-.32a51 51 0 0 1 6.95-.56c2 0 2.47.2 2.51.56a7.52 7.52 0 0 1 -1.28 3.75zm-37.64-15c-.36.2 0 8.52.24 8.63a.75.75 0 0 0 .84-.44 74.41 74.41 0 0 0 0-7.91c-.2-.73-.72-.5-1.08-.28zm7.22-16.76c0-.28.24-.84-.87-.56a8.88 8.88 0 0 0 -4.91 3.71c-1.28 2.2-1.14 4.58-.76 5s.76.48 1.07.2 0-2.35 1-4.63a5.16 5.16 0 0 1 3.72-2.87.8.8 0 0 0 .75-.87zm25.23 0c1.52.64 1.68 2.83 2.08 3.31s1.32-.52 1.16-1.08a7 7 0 0 0 -2-3.07c-1.43-1.4-4.2-1.75-4.63-1.46s-.44.84-.28 1 2.16.6 3.67 1.24zm1.32 5.59c-.48.71 2.24 4.71 2.52 5.19s.76-.08.64-.4-2.08-4.23-2.24-4.47-.71-.7-.92-.38zm-.88 2.71c-1.23.36 1.36 3.35 1.88 3.87s.64.16.68-.12-2.16-3.93-2.56-3.81z" fill="#1d1d1b"/></svg>