<svg height="64" viewBox="0 0 64 64" width="64" xmlns="http://www.w3.org/2000/svg"><path d="m31.72 61.75a2.56 2.56 0 0 1 -.62-.07l-.47-.1c-1.43-.3-2.57-.65-5.36-2.71-3-2.24-9.21-6.54-12.9-8.66l-2.13-1.21c-3.74-2.11-5.73-3.27-6.6-4.57a8.46 8.46 0 0 1 -1.49-5.5c0-.48.07-1.27.12-2.24.17-2.86.45-7.65.36-10.31-.06-1.85-.2-3.4-.3-4.53a8.77 8.77 0 0 1 -.05-2.61c.39-1.84 1.39-2.45 5.17-4.13 2.61-1.17 5.11-2.61 7.53-4 1.19-.68 2.34-1.34 3.43-1.93 1.92-1 4.33-2.5 6.27-3.68 1.38-.84 2.38-1.45 2.9-1.72l.51-.27a8.34 8.34 0 0 1 3.52-1.27c.93 0 1.79.48 5.38 2.76 1.22.77 2.48 1.57 3.34 2 2.33 1.28 10.55 5.45 12.38 6.27.08 0 7.5 3.89 8.28 6.33.26.83.32 2.37.42 5.78.06 1.73.12 3.69.23 5.65.2 3.72.37 11.33 0 12.63s-1.14 1.89-12.32 8.74l-.94.57c-12 7.34-15.11 8.73-16.67 8.73z" fill="#fff"/><path d="m59.64 31.19c-.28-5-.24-9.94-.56-10.93s-5.23-4.26-7.18-5.11-10.22-5.07-12.54-6.35-7-4.55-7.75-4.55a10.15 10.15 0 0 0 -3.11 1.31c-1.16.6-5.87 3.64-9.14 5.39s-7.07 4.2-11.1 6-3.86 2-4 2.76c-.12.52.28 3 .4 6.62s-.43 10.73-.51 12.67a6.51 6.51 0 0 0 1.16 4.31c.79 1.2 4.31 3 8.06 5.15s10 6.51 13.09 8.78 3.8 2.16 5.11 2.48 9.43-4.49 15.77-8.41 12.18-7.42 12.38-8.14a98.48 98.48 0 0 0 -.08-11.98zm-1.08 8.62c-.21-.18-4-4.52-4.22-4.34s-.39.62-.3.77 4 4.2 4.1 4.47-.18.71-.42.62-3.56-3.38-4-3.44-1 .51-.63.84a46.13 46.13 0 0 1 3.62 3.27c0 .21-.84 1.08-1.08.93s-3.18-3.21-3.63-3.21-.92.42-.68.63 3.41 3.08 3.26 3.32-.81 1.14-1.23.84-2.84-3.24-3.29-3.24-.87.45-.69.66a40.26 40.26 0 0 1 2.93 3.12c0 .24-.86.63-1.1.54s-2.79-3.15-3.15-3.15-.87.3-.69.48 3 3.23 2.94 3.35-.72.75-.9.54-2.43-3.08-3-3.08-.87.3-.75.45 3 2.93 2.78 3.14-.9.63-1.17.45a36.05 36.05 0 0 0 -3.26-2.84c-.39-.06-.84.45-.66.66s3.21 2.63 2.85 2.84-1.38 1.2-1.74 1-2.55-2.76-3.08-2.73-1.05.3-.75.63 2.72 2.46 2.51 2.7-.57.69-.87.45a23.25 23.25 0 0 0 -2.8-2.48c-.36 0-.9.27-.72.51s3 2.16 2.73 2.63-1.2 1-1.38.87-2.58-2.66-3-2.6-.74.3-.48.57 2.61 2.33 2.49 2.63-.75.81-.9.63a26.73 26.73 0 0 0 -3.23-3c-.21.09-.75.83-.45 1s3 2.19 2.72 2.4-1 .93-1.28.75a30.84 30.84 0 0 0 -2.82-2.25c-.3 0-.72.51-.3.84a17.78 17.78 0 0 1 2.22 1.95.6.6 0 0 1 -.69.36c-.33-.12-2.4-1.92-2.76-1.89s-.95.45-.74.69 2.39 1.47 2.3 1.77-.63.77-1 .56l-13.52-8.05c-3.2-1.92-7.28-4.4-9.58-5.81s-3.41-1.67-3.71-2.93.24-7 .39-10.15a49 49 0 0 0 -.18-6.59c-.06-.81-.19-2.41-.14-2.79.1-.83 1.83-1.52 5.19-3.08s14.09-7.82 15.84-8.9 4.16-2.52 4.8-2.4 6 3.92 9.7 5.43a130.49 130.49 0 0 1 12.65 6.23c1.2.84 1.76 1.32 1.76 1.48s-.28.44.16.72a17 17 0 0 1 2.47 2.15c0 .2.28 1.92.12 1.84s-2.12-2.63-2.67-2.63-.87.51-.6.81 3.15 2.85 3.29 3.25.36 1.19.15 1a25.41 25.41 0 0 0 -2.51-2.33.5.5 0 0 0 -.42.69c.12.51 2.9 3 3 3.17a6.4 6.4 0 0 1 -.06 1.92 27.64 27.64 0 0 0 -2.45-2.76c-.18.06-.24.69-.24.69s2.63 3.15 2.75 3.44.3 2.73.12 2.34a19 19 0 0 0 -2.48-2.75c-.18 0-.42.35-.3.71s2.78 3.21 2.87 3.39.18 2.51 0 2.15-2.63-3.14-2.87-3-.57.51-.39.78 3.17 3.38 3.26 3.68.2 1.88-.01 1.69zm-45.78-16c.69.33 6.44 4.13 7 4.46s2.09.09 3.92-.69 5-2.36 5.15-2.69a68.76 68.76 0 0 0 0-7c-.12-1 0-4.73-.36-4.85s-7.48 3.5-9.58 4.76-7.36 3.9-7.57 4.2c-.47.56.75 1.46 1.44 1.79zm2.28-.81c.08-.26 5.84-3.38 7.87-4.76s4.22-2.61 4.43-2.22.78 7.64.24 8.15-6.34 3.32-7.06 2.87-5.81-2.95-5.48-4.04zm19.1 1.53c.09.39 6 3.11 6.47 3.26a4 4 0 0 0 2.15-.51c.87-.36 8.45-4.4 9.22-4.79s1.23-.6 1.26-1.26-1.17-1.67-3.71-3.14-8.38-4-10.93-5.09-3.31-.77-3.83-.45c-.78.48-.54 2.25-.57 3.23s-.15 8.37-.06 8.76zm1.44-11.07c.17-.19 5.21 1.86 9.76 4.19s6.41 3.35 6.35 3.77-5.33 2.85-7.58 3.87-2.9 1.28-3.17 1.22-5.06-2.21-5.27-2.75 0-4.88-.06-6.23-.3-3.77-.03-4.07zm1.13 16a30.08 30.08 0 0 0 -5.26-3c-.57-.12-1.56.57-2.79 1.32s-2.81 1.74-2.75 2.1c.15 1 4.73 3 5.57 3.14s4-1.95 4.58-2.33.98-.82.65-1.27zm-5.18 2.15a5 5 0 0 1 -1.55-1.14c-.07-.24 2.81-1.95 3.26-1.65s1.47.63 1.5.9-2.76 2.06-3.21 1.85zm-5.55-19.89c.59-.42 4.13-2.18 4.79-2.57s1.7.39 2 .54.84-.15 1-.51-1.35-1-1.8-1.29-1-.24-1.82.09a61.38 61.38 0 0 0 -5.45 2.93c-.21.21 0 .8.21.9s.43.33 1.07-.09zm-15.91 8.51c.33-.3 0-.48-.42-.75s-2.85.87-3.09 1.25a5.15 5.15 0 0 0 .54 2.79c.33.27.78-.12 1-.48s-.12-1.14-.12-1.53 1.76-.99 2.09-1.28zm2.09 13c1-.6 2.58-1.32 2.4-1.8s-3.45-2.66-4.16-3.11a1.63 1.63 0 0 0 -2 .48c-.09.27 0 3.77 0 4.37s-.12 1.29.63 1.65 2.14-1.03 3.13-1.63zm-1-2.54c.13-.25 1.38.65 1.35.92s-1.08 1-1.38.87-.15-1.6-.02-1.83zm16.44 7.09c-.69-.39-7.36-3.86-7.81-3.92s-10.64 5.32-10.65 5.5c0 .54 3 1.82 6.86 4s10.74 6.21 11.34 6.64a1.56 1.56 0 0 0 1.83-.18c.39-.39.09-9.43.06-10.18s-.99-1.51-1.68-1.9zm.33 10.78c-.48-.09-9.46-5.18-10.9-5.93a8 8 0 0 1 -2.48-1.7c.1-.53 6.23-4.83 6.85-4.68s6.29 3 6.5 3.45.46 8.91-.02 8.82zm13.58-14.89c-.87-.12-7.93 3.61-8.09 4.16s.66 9 .72 9.22a1.63 1.63 0 0 0 1.11.93c.6.15 2-.42 4.28-1.62s10.78-6.16 11.08-6.67a1.72 1.72 0 0 0 -.06-1.59 71.17 71.17 0 0 0 -9.04-4.43zm.29 10c-3 1.77-5.62 3.35-6 3s-1-6.19-1-6.61 7.75-4.55 8.53-4.25 6.08 2.6 6.11 3.11-4.61 3.01-7.64 4.78zm11.74-18a48.07 48.07 0 0 0 -6.91 4.2c-.15 1.37 3.2 2 4.67 2.6s2.9 1.23 3.26.81.12-3.86.06-5.75-.64-1.86-1.08-1.86zm-.18 6.17c-.42-.15-4.31-1.73-4.58-2s4.16-2.76 4.49-2.46.51 4.62.09 4.46z" fill="#1d1d1b"/></svg>