<svg height="64" viewBox="0 0 64 64" width="64" xmlns="http://www.w3.org/2000/svg"><path d="m20.35 59.32c-1.49 0-10.92-3.17-14.63-4.92-4.84-2.28-5.79-5.1-5.72-8.64.06-3 1.26-10.13 3.44-18 2.27-8.16 4.67-15.44 4.7-15.51.32-1 .39-1.19 8.19-4.19 7.33-2.81 8.19-2.81 8.56-2.81h.27c.85.1 2 .67 2.73 2.78q.15.45.24.84a30.73 30.73 0 0 1 3.73-.23h1c.83 0 1.68.1 2.52.19a2.36 2.36 0 0 1 0-.25c-.18-2.84.62-3.38 1-3.63a2 2 0 0 1 1.11-.34c1.14 0 7.68 2 13.92 5.85 7.64 4.7 11.71 23.56 12.31 28 .83 6.1-.1 10.15-2.91 12.73-2.3 2.11-6.33 5.13-14.85 7a35.89 35.89 0 0 1 -7.09 1c-.88 0-3.55 0-4.58-1.86-.42-.74-.7-3.52-.68-5.52a26.59 26.59 0 0 1 -3.24.2h-.19a23.83 23.83 0 0 1 -3.3-.26 5.17 5.17 0 0 1 -.07 2.55c-.38 1-4.59 4.9-6.28 5z" fill="#fff"/><path d="m12.67 20.32c-.18 0-.49.58-1.2 2.7s-1.92 5.06-1.86 5.28a1.13 1.13 0 0 0 1.11.48c.22-.13.17-.44.84-2.61s2.17-5.27 2.21-5.5-.93-.39-1.1-.35zm39.65 24.84c-.13 0-.49.84-.49.84.18.18 3.75 2.13 3.87 2.13a1.33 1.33 0 0 0 .56-.65 35.73 35.73 0 0 0 -3.94-2.32zm.8-1.8c-.13 0-.49.84-.49.84.18.18 4.46 2.48 4.58 2.48a1.33 1.33 0 0 0 .56-.65 51.52 51.52 0 0 0 -4.65-2.67zm.31-.75c.18.17 4.9 2.66 5 2.66a1.38 1.38 0 0 0 .56-.65c0-.15-5-2.86-5.09-2.86s-.47.85-.47.85zm-2.07-4.82c.18.18 6.2 3.93 6.32 3.93a1.33 1.33 0 0 0 .56-.65c0-.15-6.26-4.12-6.39-4.12s-.49.84-.49.84zm.38-2.42c.18.18 6 3.81 6.12 3.81s.15-.68.15-.83-5.65-3.82-5.78-3.82-.49.84-.49.84zm-.74-3.07c.17.17 5.76 3.63 5.87 3.63s.15-.68.15-.83-5.4-3.64-5.54-3.64-.48.84-.48.84zm.26-2.39c.18.17 5.29 3.36 5.41 3.36s.14-.68.14-.82-4.93-3.39-5.06-3.39-.45.85-.45.85zm4.17-1a38.44 38.44 0 0 0 -4-2.64c-.13 0-.48.84-.48.84.17.18 4.25 2.63 4.37 2.63s.15-.74.15-.87zm-.92-3.45a25.33 25.33 0 0 0 -3.23-2.12c-.14 0-.49.85-.49.85.18.17 3.45 2.09 3.57 2.09s.19-.72.19-.86zm-3.05 21.33c-.13 0-.48.84-.48.84a24.59 24.59 0 0 0 2.71 1.48 1.4 1.4 0 0 0 .57-.65 17.7 17.7 0 0 0 -2.8-1.67zm-11.27-21.29a5.15 5.15 0 0 0 -5.47 4.76c-.09 3.31.18 6.91 2.36 8.42a4.69 4.69 0 0 0 6.8-2c1.33-2.76 1.86-10.26-3.69-11.18zm1.59 10.73c-1.06 1.5-2.78 1.44-4.31.11s-1.09-4.87-1-5.34 1.62-1.59 3.11-1.33a3.67 3.67 0 0 1 3 2.16 6.53 6.53 0 0 1 -.8 4.4zm-19.37-10.43c-5.55.92-5 8.42-3.69 11.16a4.67 4.67 0 0 0 6.79 2c2.19-1.5 2.46-5.11 2.37-8.41a5.15 5.15 0 0 0 -5.47-4.75zm2.72 10.84c-1.54 1.36-3.25 1.36-4.31-.12a6.46 6.46 0 0 1 -.74-4.4 3.71 3.71 0 0 1 3-2.16c1.49-.25 3.05.86 3.1 1.33s.49 4.02-1.05 5.35zm36.66 2.13c-.77-5.67-5-22.63-11.4-26.59s-12.76-5.67-12.94-5.55-.3 2.54.06 2.72a18.66 18.66 0 0 0 3.49 1.59c2.42.89 2.78 1.66 2.78 1.66a51.25 51.25 0 0 0 -11-1.95 30.56 30.56 0 0 0 -9.33 1.18s2.66-1.6 2.83-1.77-.41-2.72-1.36-2.84-14.81 5.27-14.92 5.67c-.36 1.06-2.6 8-4.67 15.42s-3.33 14.53-3.39 17.49.59 5 4.61 6.85 13.06 4.79 13.82 4.73 4.44-3.31 4.63-3.78a14 14 0 0 0 -.23-3s-.42-.53-3.55-1.59a15.63 15.63 0 0 1 -5.26-3.13s6.9 4.12 14.22 4.17 14.53-3.49 14.53-3.49a16.77 16.77 0 0 1 -4 2.25 33.56 33.56 0 0 1 -5.08 1.71c-.36.12 0 5.32.29 5.85s1.66 1.66 9.57-.06 11.76-4.49 13.94-6.5 3.13-5.37 2.36-11.04zm-1.79 5.43a3.4 3.4 0 0 1 -1.3 2.66c-.54.41-1.7 1.55-7.6 3.72a76.48 76.48 0 0 1 -12 3.37c-.71.09-.88.13-1 0s-.48-2.08-.26-2.22a27.8 27.8 0 0 0 9.35-5.49c3.94-3.77 3.81-4.83 3.63-5.1a1.1 1.1 0 0 0 -1.2-.14c-.22.17-4.34 4-12.9 5.4s-12 .89-16.74-.66a25.16 25.16 0 0 1 -7.31-3.86 4 4 0 0 0 -.85 1.51 13.87 13.87 0 0 0 4.18 4.13c2.75 1.78 6 3 5.9 3.19a15.62 15.62 0 0 1 -2.57 2.57 70.62 70.62 0 0 1 -10.33-3.01c-3.81-1.55-4.34-3.5-4.74-4.43s.31-8.59 1.77-14.18 5.33-17.4 5.93-18c.38-.39 10-4.08 10-4.08s-6.08 5.42-6.25 5.73-.36 1.36.23 1.36a1.44 1.44 0 0 0 1-.59s4.9-4 15.18-3.78 14.54 3.37 14.88 3.19a6.15 6.15 0 0 0 .89-1.42s-1-1.71-1.13-1.89a10.88 10.88 0 0 1 4.24 2.82c1.89 1.95 5.49 9.45 7.08 16.48s2.05 11.19 1.92 12.72z" fill="#1d1d1b"/></svg>