<svg height="64" viewBox="0 0 64 64" width="64" xmlns="http://www.w3.org/2000/svg"><path d="m33.56 64a22.39 22.39 0 0 1 -7.74-1.54c-5.27-1.9-8.89-8.14-9.57-9.37-1.25-2.27-2.15-9.78-1.11-11.34a2.18 2.18 0 0 1 1.93-1c.7 0 6.84 1.22 7.45 3.51a6.72 6.72 0 0 1 .12.7c.26 2 .81 4.11 2.94 4.58a27.63 27.63 0 0 0 5.77.75 6.14 6.14 0 0 0 4.1-1.08c1.3-1.16 2-3.8 2.19-7.83 0-.11 0-.21 0-.31a21.12 21.12 0 0 1 -9.64 2.43 20 20 0 0 1 -3.54-.32c-6.55-1.18-11-5.09-13.2-11.61-1.1-3.24-2.11-8.74-.67-16.51 1.52-8.14 5.18-12.15 13.07-14.3a21.74 21.74 0 0 1 5.66-.76 18.19 18.19 0 0 1 10 2.75 1.81 1.81 0 0 1 1-.84c.31-.13.5-.2 2.55-.2 2.68 0 3 .12 3.28.26 1 .44 3.7 4 3.93 5.07.32 1.5-.67 40-.7 40.24-.15 1.13-1.38 11.08-9.2 14.72a20.24 20.24 0 0 1 -8.62 2z" fill="#fff"/><path d="m22 8.61a.59.59 0 0 0 -.26-.9c-.39-.17-2.49.9-3.91 3.87s-1.43 4.47-1.21 4.69.86 0 1.21-.08.21-1.08.94-3.53 3.02-3.79 3.23-4.05zm8.78-1.68c-10.8.69-12 12.61-10.93 18.21s4.73 9.51 9.64 9.38 12.26-1.52 12.51-13.6-7.87-14.2-11.22-13.99zm-.09 26.21c-1.2 0-8-.39-8.52-7.66s2.89-13.9 9.51-14.33c2.84-.18 8.82 1.08 8.87 11.23s-8.65 10.72-9.86 10.76zm19.45-25.69a16.82 16.82 0 0 0 -2.79-3.7 28.81 28.81 0 0 0 -4.35 0 16.28 16.28 0 0 0 -.09 3.18c-3.09-4.26-10.11-6.11-16.74-4.3s-10.17 4.86-11.66 12.78-.21 13.13.61 15.59a14.38 14.38 0 0 0 11.7 10.32 19.1 19.1 0 0 0 14.72-3.65 35.42 35.42 0 0 1 0 3.87c-.09 2.28-.39 7-2.84 9.21s-7.27 1.72-11.58.77-4.34-6-4.51-6.67-5.56-2.49-5.9-2 0 7.06 1.21 9.34 4.47 7 8.52 8.48 8.65 2.45 14.89-.43 7.78-10.63 8-13.13.94-39.06.81-39.66zm-2.92 32c-.26-.08-2.37-2.62-2.58-2.54s-.18 1.38 0 1.38a12.77 12.77 0 0 1 2.45 2.15c.09.3.26 3 0 2.93s-2.32-3.83-2.75-3.7-.09 1.25-.09 1.25 2.8 3.35 2.8 3.53 0 1.33-.22 1.29-2.23-2.59-2.41-2.5-.6 1-.34 1.25a26.18 26.18 0 0 1 2.45 2.71c0 .17-.13 1.2-.3.95s-2.19-2.41-2.54-2.24-.6.73-.43.95 2.5 2.28 2.45 2.71a5.51 5.51 0 0 1 -1.29 3c-1.11 1.42-1.8 2-2 1.94s-1.89-2.2-2.11-2.24-.69.51-.56.73 1.85 2.32 1.85 2.32-.94.86-1.16.78-1.89-2.54-2.11-2.54-.64.6-.51.82 1.72 2.06 1.59 2.23a2.29 2.29 0 0 1 -1.12.39c-.13 0-1.42-2.28-1.64-2.28s-.6.52-.6 1 1.34 2 1.08 2-.73.25-.86.13a27 27 0 0 0 -1.42-2.46c-.17 0-.73.13-.65.65s1 2 .78 2-.61.17-.74 0-.81-2-1.07-2-1 0-.82.61.6 1.55.6 1.55-1.2.08-1.29 0-.6-1.76-1-1.8-.9.34-.73.73.39 1.25.17 1.25-4.95-.74-7.57-3.49-3.83-4.65-4.43-6.89-.05-3.57.26-3.57a16.38 16.38 0 0 1 3.09 1c0 .13.86 5.38 3.58 6.54a21.51 21.51 0 0 0 9 1.55c3.49 0 5.3-1.29 6.46-3.14s1.76-2.76 2-8.74.69-9.16.34-9.38-.94.26-1 .56-5.76 6.54-13.3 5.85-10.79-6.67-12.12-9.79-1.81-8.43-.56-14.16 4.77-9.72 10.71-11.01 12.22.64 14.2 2.53 3 3.49 3.4 3.06c.25-.25 0-4.3.13-4.3s2.84 0 2.93.34-.17 5.34-.17 5.34-1.34-1.68-1.6-1.51-.51.95-.34 1.08a15.62 15.62 0 0 1 1.89 1.89c0 .17.22 1.89 0 1.81s-2.28-2-2.45-1.9-.3 1 0 1.17 2.54 2.15 2.54 2.15a25.26 25.26 0 0 1 .13 3c-.13 0-2.46-2.84-2.67-2.67a1.34 1.34 0 0 0 0 1.34c.26.3 2.45 2.32 2.45 2.45a11.85 11.85 0 0 1 0 2.15c-.13 0-2.67-2.75-2.79-2.5a1.87 1.87 0 0 0 0 1.3c.17.17 2.79 2.19 2.84 2.36s0 2-.18 1.94-1.67-2-2-1.85-.34 1.29-.17 1.38a14.05 14.05 0 0 1 2.5 2.32c0 .3.25 2.62 0 2.54s-2.28-2.37-2.5-2.2-.34 1.25-.13 1.29a19.81 19.81 0 0 1 2.67 2.2c0 .13.13 2.32 0 2.15s-2.5-2.11-2.5-2.11a3.68 3.68 0 0 0 .05 1.38c.17.26 2.41 1.81 2.41 2s.21 1.81 0 1.72-2.5-1.89-2.59-1.59-.17 1.25 0 1.38 2.59 1.33 2.63 1.63.24 2.53-.02 2.44zm-5.14 11.3c-.2-.06-.52.65-.46.84a14.58 14.58 0 0 0 1.29 1.36 6.65 6.65 0 0 0 .39-.95c.07-.25-1.03-1.22-1.22-1.28zm.71-1.29 1.61 1.74c.32.26.77-.39.77-.58a9.12 9.12 0 0 0 -1.87-2.06c-.3-.16-.51.87-.51.87z" fill="#232021"/></svg>