<svg height="64" viewBox="0 0 64 64" width="64" xmlns="http://www.w3.org/2000/svg"><path d="m33.2 64c-13.94 0-18.69-6.8-20.09-9.72a10.47 10.47 0 0 1 -.32-8 10.72 10.72 0 0 1 5.68-6.08c1.89-.87 4.37-1.86 6.76-2.77a11.41 11.41 0 0 1 -3.57-1.59c-4-2.89-6.4-8.58-7.17-10.45-.27-.64-.47-1.16-.63-1.57h-5.08a4.9 4.9 0 0 1 -4.49-2.29 3.78 3.78 0 0 1 .47-4c1-1.43 4.32-5.21 8.21-9.63l2.69-3.07.4-.47c2.24-2.62 3.73-4.36 5.65-4.36 2.58 0 25.29 0 28.91.09h.38c4.07.1 6.31.15 6.58 2.57a11.07 11.07 0 0 1 -.15 3.46 3.57 3.57 0 0 1 -.77 1.35l.34 3.24a6.44 6.44 0 0 1 2 3.8c.19 1.5 1.23 15.37 1 17.27-.26 2.29-2.84 4.31-5.53 4.31a5.59 5.59 0 0 1 -2.91-.82c-1.69-1-2.33-2.94-2.56-5.29a18.24 18.24 0 0 1 -3.63 4.83c2.34 1.88 6.63 6 7.24 11.39.43 3.72.52 8.47-2.57 12.2-2.64 3.2-7 5-13.41 5.47-1.14.13-2.31.13-3.43.13z" fill="#fff"/><path d="m40.73 28c-.21 0-.77.64-.68.77a19.47 19.47 0 0 0 1.95 1.78 3.68 3.68 0 0 0 .72-.81c.09-.29-1.78-1.74-1.99-1.74zm.72-2.67c-.21 0-.76.64-.68.76.26.39 2.76 2.47 2.76 2.47a3.68 3.68 0 0 0 .72-.81c.13-.26-2.59-2.38-2.8-2.38zm1.74-2.25c-.21 0-.76.64-.68.76a19.34 19.34 0 0 0 1.91 1.74 3.33 3.33 0 0 0 .72-.8c.13-.26-1.74-1.66-1.95-1.66zm.21-2.93c-.21 0-.76.64-.68.77.26.38 2.38 2.25 2.38 2.25a3.44 3.44 0 0 0 .72-.81c.18-.26-2.2-2.17-2.42-2.17zm-.29-1.74a19.47 19.47 0 0 0 1.89 1.78 3.81 3.81 0 0 0 .72-.8c.12-.3-1.74-1.7-2-1.7s-.72.63-.61.76zm-30.44-3c-.17 0-.68.76-.68.76 0 .3 1.83 1.57 1.83 1.57s.72-.68.85-.85-1.83-1.45-2-1.45zm2.59-1.66s-1 .44-.89.68a16.11 16.11 0 0 0 2.63 2.41c.22 0 .64-.72.72-.85a23.67 23.67 0 0 0 -2.46-2.21zm2-2.25c-.26 0-1.14.88-1 1a21.61 21.61 0 0 0 2.93 2c.34 0 .5-.38.55-.68a9.12 9.12 0 0 0 -2.48-2.29zm8.27-5.94c0-.3-3.27-.3-3.56-.25a22.86 22.86 0 0 0 -3.14 3.6 2.12 2.12 0 0 0 1.35.22c.22-.09 2-2.42 2.13-2.59s2.33.12 2.59 0a1.55 1.55 0 0 0 .63-.95zm2.76 37.14c-5.35 1.49-7.72 3.74-7.51 6.62s1.27 6 6.58 6.5a35.8 35.8 0 0 0 14.39-2c3.18-1.23 2.93-3.06 2.71-5.52s-1.23-6.28-4-6.66-9.69.36-12.17 1.09zm12.18 1.4c1.7.17 2.47 3.27 2.25 5.18s-.72 2.72-3.72 3.43-9.3 1.95-12 1.1a3.5 3.5 0 0 1 -1.74-5.39 7 7 0 0 1 3.39-2.93c2.62-1.12 10.13-1.49 11.82-1.36zm-10.86-34.52c-7.56 2-4.93 14.18-1.7 17.83s8.23 3.95 10.65.59 1.57-10.82-.56-15.49-6.43-3.46-8.39-2.93zm7.26 17.28c-1.7 2-4.59 2.42-7.3-1s-4.93-12 2-13.41c2.9-.59 5.52 1.65 6.11 4.58s.88 7.79-.81 9.83zm20.24-12.1a4.74 4.74 0 0 0 -2-3.06l-.51-5a2.57 2.57 0 0 0 .94-1.1 9.34 9.34 0 0 0 .08-2.72c-.08-.76-1.36-.76-5.09-.85s-27.76-.08-28.87-.08-2.49 1.77-4.53 4.15-9.34 10.53-10.78 12.56.51 3.34 2.65 3.23h6.28a17.43 17.43 0 0 0 1 2.77c1 2.32 3.11 7.19 6.51 9.63s11.09 2.09 11.09 2.09-9.56 3.28-14.6 5.6a8.65 8.65 0 0 0 -4.42 11.49c1.76 3.68 7.31 9.57 21.68 8.49s14.94-9 14.21-15.51-7.87-11.09-7.87-11.09v-.9a15.78 15.78 0 0 0 5.26-7.19c1.7-4.76-.17-13.81-.17-13.81l3.91-4.25v4.14a3.53 3.53 0 0 0 -.93.84c-.25.43-.34 1.11-.08 6.29s-.85 11.63 1.69 13.15 5.35-.5 5.52-2-.71-14.92-.97-16.87zm-11.63-2.07c0 .4 2 6 1 10.64a15.74 15.74 0 0 1 -4.87 8.72c-1.61 1.47-1.61 1.81-1.61 1.95a10.91 10.91 0 0 0 1 3c.27.11 5.62 2.46 6.72 7.52a14.25 14.25 0 0 0 -1.56-1.12c-.26-.09-.68 1-.68 1l2.5 2c0 .31.05.62.05.92a20.51 20.51 0 0 0 -2.13-1.58c-.25-.08-.67 1-.67 1l2.75 2.22a10.09 10.09 0 0 1 -.22 1.39 9.65 9.65 0 0 0 -1.76-1.46c-.25-.09-.68 1-.68 1l2 1.76a7.47 7.47 0 0 1 -.51 1 9.13 9.13 0 0 0 -1.49-1.16c-.25-.09-.68 1-.68 1l1.43 1.25a7.72 7.72 0 0 1 -.53.61c-.62-.5-1.49-1.1-1.62-1.18s-.85.55-.85.68a14.05 14.05 0 0 0 1.43 1.42 8.93 8.93 0 0 1 -1 .7 2.64 2.64 0 0 0 -1.11-1.14 1.68 1.68 0 0 0 -.84.46c-.09.15.52.83.89 1.23-3.72 1.74-9.51 2.33-14.65 1.79-5.64-.6-9.46-2-11.12-6s.26-7.3 4.8-9.47 15.92-5.68 16-5.9a14.1 14.1 0 0 0 -.68-3.18c-.13 0-6.32.89-11.88-2.29a15.56 15.56 0 0 1 -7.69-9.55c-.68-2.21-.85-2.89-1-3s-7.54-.33-7.61-.53 12.54-14.64 12.88-14.75 31.8.11 31.75.45-7.76 8.21-7.76 8.6zm10.78 15.69c-.26 3.27-2.33 3.48-3.18 1.62s-.68-14.52-.68-14.52a5.64 5.64 0 0 0 1.06-1.48c0-.22-.46-6.12-.42-6.29a2.84 2.84 0 0 1 .51-.63l.55 6s1.23.5 1.27.8 1.19 11.24.89 14.5zm-2.46-.63c.3.29 1.45 1.19 1.74 1.14s.13-.38.26-.76-1.36-1.36-1.57-1.36-.43.98-.43.98zm.09.76c-.21 0-.43.85-.43.85.3.3 1.45 1.19 1.74 1.15s.13-.26.26-.64-1.36-1.36-1.57-1.36z" fill="#1d1d1b"/></svg>