<svg height="64" viewBox="0 0 64 64" width="64" xmlns="http://www.w3.org/2000/svg"><path d="m32 64a2.4 2.4 0 0 1 -2.45-1.6c-.15-.46-.2-1.09-.4-4.86 0-.86-.09-1.89-.14-2.71-4.67-.42-13.21-2-17.55-7.84-6-8.06-6.47-17.2-6.3-23.37.18-7.57 7.1-23.3 27.2-23.62h.4c7.17 0 13.24 3.06 19.76 9.92 6.85 7.23 6.95 16.6 5.84 23.19-1 6-3.8 17-11 22.86-6.44 5.26-9 6.35-11.5 7.13a14.4 14.4 0 0 1 -3.86.9z" fill="#fff"/><path d="m51.11 11.25c-6.06-6.4-11.73-9.42-18.72-9.31-18.57.29-25.12 14.41-25.31 21.73s.72 15.18 5.92 22.16 17.55 7.17 17.74 7.17.44 8.2.63 8.78 1.8.14 3.93-.53 4.51-1.6 10.87-6.79 9.16-15.09 10.28-21.68.73-15.12-5.34-21.53zm4.37 16.75s-4.71-6.45-5-6.36-.34 1-.34 1 5.19 6.35 5.24 6.79a25.6 25.6 0 0 1 -.53 3.06s-4.46-6.41-4.66-6.41-.63.2-.53.83 4.8 6.4 4.8 6.79a17.72 17.72 0 0 1 -.68 2.3l-4.7-6.31s-.78.78-.73.92 5 6.46 5 6.7a6.53 6.53 0 0 1 -.82 2.08c-.15-.09-4.42-6.93-4.71-6.93s-.68.73-.68.73 4.9 7.32 4.9 7.56-.87 2.09-1 1.94-4.46-7.42-4.75-7.37-.68.77-.53.92 4.6 7.32 4.6 7.52a8 8 0 0 1 -1.5 2.18c-.19 0-4-7-4.22-7.08s-.73.58-.73.58l4.13 7.23-1.31 1.4s-3.73-6.84-4.1-6.89-.59.48-.59.48l4 7.13s-.68 1.21-.87 1.12-4-6.65-4.27-6.7-1 .59-.92.73 4.22 6.89 4.22 6.89-1.53 1.55-1.77 1.17-3.43-6.41-3.73-6.46-1 .54-.92.78 4 6.3 3.78 6.69a7.34 7.34 0 0 1 -1.65 1.16s-2.91-5.17-3.2-5.28-.87 1-.87 1 3.2 4.9 3 4.9-1.21.82-1.31.68-2-3.64-2.33-3.64-.92.63-.77.87 2.08 3 1.89 3.2a29.38 29.38 0 0 1 -3.73 1.1s-.49-8.63-.73-8.83-11.5.2-16.15-5.77-7.28-12.86-6.89-19.26 6.65-19.55 24-19.79c7.33-.1 13.98 4.65 17.32 8.65s5.14 10.81 5.34 12.71a15.06 15.06 0 0 1 0 3.29zm-32.98-20.14a21 21 0 0 0 -5.24 4.51c-2.42 2.72-3.15 5.24-3.1 5.48s.68.44 1.06.44.34-1.51 2.77-4.81a14.54 14.54 0 0 1 5-4.46s-.3-1.23-.49-1.16zm-1.6 10.86a81.5 81.5 0 0 0 -.15 9.9c.2.92 3.69.53 3.69.53s-.05 4.56.44 4.85 6.11-2.52 6.45-3.2 0-12-.1-12.27-9.81-.45-10.33.19zm8.92 11.35c-.14.24-3.93 2.62-3.93 2.33a45.38 45.38 0 0 0 -.19-4.66c-.15 0-2 0-2 0s.05-6.11 0-6.25 6.11-.24 6.21 0 .09 8.34-.09 8.58zm4.61-11.74c-.39.3-.39 9.75-.19 10a27.61 27.61 0 0 0 3.83.24s.14 3.93.14 4.36.68 1.22 1 1.22a21.63 21.63 0 0 0 4.56-3c.24-.49.29-12.27.19-12.47a88.53 88.53 0 0 0 -9.53-.35zm7.9 12a7.93 7.93 0 0 1 -2.61 2c0-.24 0-5-.39-5.19s-2.91.19-2.91-.29 0-6.11.39-6.31a28.15 28.15 0 0 1 5.67.1 89.71 89.71 0 0 1 -.15 9.72z" fill="#1d1d1b"/></svg>