<svg height="64" viewBox="0 0 64 64" width="64" xmlns="http://www.w3.org/2000/svg"><path d="m20.69 61.25c-1.93 0-4.6-.09-6.19-.14h-1.27c-.19 0-.41 0-.63 0a9 9 0 0 1 -1 .06 2.73 2.73 0 0 1 -1.78-.54c-.77-.61-2.38-3.76-1.94-5.38.07-.27.22-.63.86-2.17s2-4.69 2.65-6.69h-1.29l-1.1.07a2.54 2.54 0 0 1 -2-.65c-.26-.26-2.57-3.81-2.15-5.49 0-.08 3-8.1 4.84-8.72a3.26 3.26 0 0 1 1-.13 7.15 7.15 0 0 1 -.69-3.54c0-1.29 2.42-7.32 2.79-7.88.91-1.36 3.46-2 4.28-2h.3a8.48 8.48 0 0 1 .92.16c.37.07 1 .19 1.53.27l.62-1.77c4.15-11.71 4.44-11.9 5.21-12.42.54-.36 1.09-.52 3.82-.52 3.25 0 8.87.14 10.06 1.11a5.82 5.82 0 0 1 1.47 2.43 14 14 0 0 1 1.67-3.55c.74-.74 1.92-1 4.52-1 1.34 0 2.82.08 3.89.13l1.26.05a4.78 4.78 0 0 1 4.15 2.23c.13.24 1.54 3.72 1 5.27l-.23.58c-1.92 4.76-2.86 7.38-3.33 8.81h.06a11 11 0 0 1 2.11.18 5.56 5.56 0 0 1 2.73 2.12 2 2 0 0 1 .35 1.65c-1.84 8-3.39 8.33-4.31 8.52a6.9 6.9 0 0 1 -1.07.09 2 2 0 0 1 .84.62c.8 1 1.36 4.39 1.36 4.63 0 .94-3.51 6.75-5.11 7.15a10.12 10.12 0 0 1 -2.07.13c-.45 0-1.2 0-1.8.05-5.02 14.61-6.2 14.83-7.38 15.03s-4.9.21-6.51.21c-5.68 0-6-.17-6.46-.44a3.16 3.16 0 0 1 -1.09-1.25c-1 2.09-1.32 2.22-1.93 2.46a8.55 8.55 0 0 1 -2.96.27z" fill="#fff"/><path d="m55.57 21.94c-.72-.18-3.42-.06-4.07-.36s3.89-11.38 4.07-11.86a10.11 10.11 0 0 0 -.84-3.59 2.82 2.82 0 0 0 -2.4-1.2c-1.19 0-7.48-.53-8.26.24s-5.39 15.39-5.45 15.83-1.38.12-1.92-.06 2.76-10.72 2.82-11.2a6.67 6.67 0 0 0 -1.26-3.35c-.66-.54-10.86-.9-11.5-.48s-5.27 14.17-5.51 14.59-3.53-.36-4.07-.42a4.61 4.61 0 0 0 -2.69 1.08 45.66 45.66 0 0 0 -2.49 6.77c0 .66 0 2.33.66 2.81s4.43.12 4.79.3-.24 1.86-.48 2.52-.24.12-.9.12-5.38-.3-5.74-.18-3.42 6.83-3.54 7.3 1.38 3.36 1.62 3.6 4.79-.36 5.33.36-3.74 10.36-3.92 11.01.95 3.06 1.25 3.3 1.44 0 2.16 0 8.92.36 9.7.06 6.07-14.91 6.47-15.33 1.56-.12 1.79.24-4.37 10.78-4.49 11.26a4.94 4.94 0 0 0 1 2.75 93.54 93.54 0 0 0 11.62 0c1.32-.24 6-14.49 6.17-14.85s4.43-.24 4.91-.36 3.59-5 3.59-5.21a16.5 16.5 0 0 0 -.9-3.35c-.3-.36-6.7-.36-7.12-.54s.71-2.88 1.13-3.36 6.17.18 7.37-.06 2.75-7 2.75-7-.93-1.2-1.65-1.38zm-2.57 5.95c-.64 0-5.87-.68-6.27-.32a28.93 28.93 0 0 0 -2.23 5.31c-.16.8.16 2 .8 2.12s4.39.16 5.07.2a10.45 10.45 0 0 0 1.23 0s-1.15 3.67-1.31 3.19-1.24-2.32-1.64-2.28-.76.32-.6.64 1.67 2.25 1.55 2.76-.44 1.15-.68.91-2.51-4.11-2.75-4.15-.88.32-.64.6a31.8 31.8 0 0 1 2 3.51c-.12 0-.64.32-.72 0a33.41 33.41 0 0 0 -2.81-4.47c-.24 0-.72-.08-.52.44s2.44 4 2.28 4-1 .4-1.28 0-2.84-4.75-3.15-4.79-.88.12-.64.64 2.79 4 2.59 4.08-1 .19-1 .19 0 .64-.16.4-3.43-5.39-3.59-5.27-.68.88-.48 1 3.67 4.95 3.67 5.15-.55 2.6-.79 2.2a63.85 63.85 0 0 0 -3.84-5.55c-.28 0-.76.68-.48 1s3.84 5.39 3.8 5.59-.32 2.35-.72 1.75-3.44-5.87-3.67-5.51-.52 1-.4 1.24 3.55 4.95 3.55 5.35-.12 1.6-.28 1.4-3.62-5.12-3.89-5.12-.76.64-.56.84 4 5 4 5.43-.4 2-.6 1.79-3.19-4.55-3.51-4.51-.72.24-.48.72 3.31 4.11 3.31 4.83-.12 1.48-.44 1.48-.71.4-1 .08-3-4.47-3.28-4.55-.56.16-.52.39 3.4 4.56 2.8 4.56-1.2.16-1.44 0-2.12-3.4-2.51-3.32-1 .4-.64.8 2.39 2.56 1.95 2.56-3.79.16-3.75-.24 4.55-12 4.83-13.1 0-1.59-.44-1.67-4.83-.44-5.15-.4-1.2 3-1.36 2.91-3.21-5.31-3.56-5.39-.88.52-.68.8 3.84 5.83 3.72 6.15-.56 1.51-.68 1.08-3.32-5.79-3.72-5.67a.62.62 0 0 0 -.35 1c.27.52 3.71 5.59 3.79 6s.08 2.12-.28 1.32-3.59-6.15-3.91-6.19-.76.24-.52 1 4.23 6.23 4.27 6.35-.36 1.55-.52 1.28-4.47-6.79-4.87-6.47a.94.94 0 0 0 -.36 1.04c.16.51 4.59 5.58 4.55 6.18s-.08 2-.48 1.84-4.27-6.63-4.67-6.55-.84.68-.68.88 4.91 6.65 4.87 6.85-.2 1.24-.56 1.08-4.79-6.19-5-6a1.58 1.58 0 0 0 -.32 1c.08.12 4.44 5.27 4.28 5.35a2.75 2.75 0 0 1 -1.4.07c-.36-.15-3.63-4.39-3.79-4.35s-.92.68-.68 1a30.55 30.55 0 0 1 2.47 3.16c-.2 0-1.43 0-1.55-.2s-1.76-2.8-2.08-2.44-.6.4-.36.72 1.56 1.56 1.24 1.72-3.08.51-3.08.24 4.16-11.18 4.52-12.26.67-1.88-.08-1.88-7.27.08-7.07-.56 1.53-5.85 2.33-5.93 6.19.55 6.87.08 1.56-4.2 1.72-5.35.24-1.6-.16-1.84a26.09 26.09 0 0 0 -4.51-.36c-.68 0-1.28.12-1.28-.12s1.92-5.63 2.31-5.87 4.92.4 5.67.36 1.24-1.64 2.2-4.19 3.54-10.54 3.9-10.63a94.3 94.3 0 0 1 9.42.6c.2.16-1.75 7.86-2.47 9.74s-1.16 4.35-.84 4.71 2.44.44 3.23.56 2.52.36 3.12-1 4.82-14.96 5.07-15.28 7.06-.24 7.5-.12.25 1.79.25 2.04-5 13.29-4.31 14 3.47.68 4 .68 2.16-.16 2.24.32-1.26 4.6-1.93 4.64zm-18.76.32c-.8-.08-2.37-.14-2.68.28s-2 5.43-1.79 6.11 4.55.75 5.23.67 1.71-5 2-5.86-1.93-1.12-2.73-1.2zm.24 5.59c-.32 0-1.88.16-2-.16a18.61 18.61 0 0 1 .92-3.24 2.68 2.68 0 0 1 1.84.4c.19.28-.41 3-.73 3zm-8 6.39a9.79 9.79 0 0 0 -1.23-2.88c-.2-.16-.88-.19-.88.12a14.72 14.72 0 0 0 1.91 3.39c.4.24.16-.28.24-.63zm-10.1-17.37c-.75-.12-1.67 2.88-1.38 3.18s.08.56.76.48.79-1.55.87-2.11 3.36.32 3.76.36.52-.44.63-1-3.88-.79-4.64-.91zm15.93-12.82c.48 0 .52-.79.28-1.23s-3.43-.32-3.83-.32-2.59 7-2.52 7.38a1.14 1.14 0 0 0 1.12.4c.44-.12 1.64-5.59 1.8-6.19s2.67-.04 3.15-.04zm12.94-1.83a18.6 18.6 0 0 0 -1.44 5.43c.16.2.56.16 1 0s1-3.6 1.12-4.07 1.23-.2 1.59-.36a.55.55 0 0 0 .12-.88 5.11 5.11 0 0 0 -2.39-.12z" fill="#1d1d1b"/></svg>