<svg height="64" viewBox="0 0 64 64" width="64" xmlns="http://www.w3.org/2000/svg"><path d="m48.67 63.81a12.92 12.92 0 0 1 -7.86-2.63c-2.48-1.88-7.19-10.53-9.27-14.5a41.73 41.73 0 0 0 -4.21 2.09c0 .12 0 .26-.08.42-.54 3.05-2 11.14-8.06 12.87a21.64 21.64 0 0 1 -5.93.86c-4.23 0-7.83-1.36-10.15-3.83-3-3.2-3.75-6.09-2.59-9.93.13-.44 13.73-45 15.61-47 .84-.9 4.08-1.95 7-1.95a10.35 10.35 0 0 1 5.87 1.64 16.62 16.62 0 0 1 7.88 13.36 32 32 0 0 1 -.7 8.18c6.81-3.5 18-9.2 19.14-9.59a9.82 9.82 0 0 0 1-.42 5.58 5.58 0 0 1 2.53-.74 3.76 3.76 0 0 1 1.36.25c1.57.61 2.57 3.13 3 4.59.71 2.26 2 8.08-1.65 13.38a23.57 23.57 0 0 1 -9.58 8c2.43 4.42 7.14 14 7.41 14.95 1.4 5-2 7.59-5.05 8.86a15 15 0 0 1 -5.66 1.16z" fill="#fff"/><path d="m60 29.77c4.4-6.46.75-14.61-.47-15.08s-2.15.47-3.56.94-22.7 11.42-22.7 11.42 2.06-6.36 1.68-11.7a14.71 14.71 0 0 0 -7-11.9c-4.21-2.81-10-.38-10.4 0-1.33 1.41-14.34 43.46-15.19 46.27s-.65 5.06 2.16 8.05 8.24 4.12 14.14 2.44 6.55-11.62 6.93-12.46 6.84-3.56 6.84-3.56 6.83 13.4 9.57 15.46a11.45 11.45 0 0 0 11.61 1.21c4.78-2 4.4-4.87 3.94-6.55s-8-16-8.25-16.3 6.26-1.78 10.7-8.24zm-14.32 2.11c.14.23 1.68 3.13 1.45 3.23s-.84.75-.61 1.17 7.87 14.14 8.85 16.39a7 7 0 0 1 .8 4c-.1.65-.28.74-.28.74s-3.33-9-3.7-9.08-.94.42-.89.56 4.49 8.76 4 9.13a2.41 2.41 0 0 1 -1.73.42c-.14-.14-3.89-10.16-4.21-10.16s-1.22.19-1 .47 4.68 10 4.4 10l-1.37.25s-3.84-9.42-4.21-9.51-.75 0-.66.24 4.17 9.41 4 9.41-1 0-1.12-.19-3.28-7.35-3.56-7.4-1 .33-.89.84 3.56 6.14 3.28 6.19a4.89 4.89 0 0 1 -1.85-.58c-.28-.24-2.39-5.11-2.53-5.11s-.93.38-.79.56 1.73 3.7 1.73 3.7a19.28 19.28 0 0 1 -4.79-6.73c-1.92-4.4-5-10.68-5.43-10.77s-10.26 4.5-10.3 4.64-2.44 7.63-3.19 8.38a4.28 4.28 0 0 1 -1 .84s-2.5-6.51-2.92-6.51-.75.18-.7.84 3.14 6.6 3 6.69-.79.89-.84.71-2.76-6.09-3.18-6.09a1.11 1.11 0 0 0 -.75.47s3.32 6.13 3.09 6.23-1.41 1-1.73.84-2.58-4.73-2.77-4.73-1.21.33-1 .7 2.77 4.59 2.49 4.59-1.27.47-1.36.23-2-4.12-2.34-4.12-1 .38-.94.52 1.92 3.7 1.64 3.7-1.08.23-1.27-.14-1.21-3.27-1.5-3.37-1.13 0-.94.42 1.31 2.72.75 2.72a6.59 6.59 0 0 1 -4.45-2.53c-1.41-2-.28-4.17 1.5-11s12.14-38.35 12.85-39.06a9.16 9.16 0 0 1 7.72-.09 11.38 11.38 0 0 1 5.57 11.94c-.84 5.67-3.79 14.14-3.32 14.7s20.7-10.53 23.41-11.89a55.71 55.71 0 0 1 6.18-2.86 9.61 9.61 0 0 1 .94 2.58c.19.84.09 1.64-.05 1.5s-1.4-2.48-1.82-2.44-.85.38-.52.8 2.34 3.65 2.34 4.35-.42 2.91-.6 2.53-2.3-4.91-2.63-4.91-.84.6-.7.79 3.14 5.15 3 5.57-1.13 1.5-1.23 1.27-2.71-5.62-3.09-5.62-.79.56-.65.8 3 5.33 2.85 5.52-1.21 1.27-1.35 1.13-2.3-4.83-2.77-4.83-1 .61-.65.89 2.43 4.73 2.43 4.73-.93 1-1.07.89-1.88-4.21-2.35-4.26-.89.42-.7.56 2.25 4.36 2 4.4-1 .66-1.12.47-2.06-4.31-2.25-4.31-.93.38-.84.71 2.25 4 2 4.16-1.26.57-1.26.57-1.41-2.91-1.55-3-1.09.37-.95.61zm-27.21 11.28c-.23 0-.66.71-.65.85 0 .74 3.13 6.46 3.13 6.46a1.65 1.65 0 0 0 .57-.89 37.09 37.09 0 0 0 -3.05-6.42zm1.64-1c.09.38 1.5 3.28 1.73 3.7s.71-.19.85-.7-1.17-3.23-1.6-3.65-1.09.26-.98.62zm1.73-35.97a2.22 2.22 0 0 0 -2.24-.26c-.59.24-2.91 7.54-2.91 7.68s.73.52 1.24.43 2.3-5.65 2.7-6.19 1.26 0 1.45 0 .16 0 .58-.12-.04-.93-.82-1.54z" fill="#232021"/></svg>