<svg height="64" viewBox="0 0 64 64" width="64" xmlns="http://www.w3.org/2000/svg"><path d="m49.49 64c-4-.08-16.32-.43-26.39-.74l-8-.26c-3-.1-4.39-.15-5.75-.15a9.16 9.16 0 0 1 -7.22-3.92 11.49 11.49 0 0 1 -1.27-5.86c0-1.14.25-21 .17-26.81 0-.94-.06-2.11-.11-3.4-.37-10.1-.39-18 3-20.38.61-.48 2.51-1.78 11.14-2.33 1.26-.08 3.84-.15 8.13-.15h8.2 6.27 2.78.61 4.2c5.17 0 8.68.35 11 1.1 5.2 1.66 6.24 4.54 6.41 9.6.09 2.56.18 10.9.28 19 .09 7.46.18 15.17.26 18.11.15 5.77-.8 10-2.92 12.91s-6.4 3.28-9.91 3.28z" fill="#fff"/><path d="m61.29 47.82c-.17-6.13-.37-32.16-.54-37s-1.19-6.64-5.06-7.82-11-1-15.21-.94-21.39-.17-25.3.08-8.51.77-10.18 1.92c-3.31 2.35-2.11 16.37-2 22.17s-.13 25.5-.17 26.9a9.65 9.65 0 0 0 1 4.81 7.22 7.22 0 0 0 5.55 3c2.26 0 4.48.12 13.86.41s22.13.66 26.36.74 7.7-.41 9.22-2.51 2.63-5.58 2.47-11.76zm-7.86-4.4c.08.12 5.6 4.53 5.68 4.85a9.28 9.28 0 0 1 -.21 1.81l-5.59-4.85-.37.86s5.84 4.82 5.8 5a10.2 10.2 0 0 1 -.66 2.06c-.08-.02-6.08-5.53-6.08-5.53s-.53.9-.41 1.07 6.37 5.42 6.25 5.79a6.6 6.6 0 0 1 -.84 1.69c-.12 0-5.59-4.85-5.72-4.89s-.53.94-.53.94 5.92 4.49 5.63 4.69a12 12 0 0 1 -1.81.66s-4.4-3.7-4.56-3.7-.74.9-.74.9 4.19 3.09 4.07 3.09l-2.18-.09s-2.47-2-2.63-2-1 .41-.91.62 2.31 1.64 2 1.68-20.69.37-29.82-.49-12.14-.83-13.38-3.38-.2-11 0-17.07-.9-22.13-.66-25.54 0-4.57 1.53-6c.71-.59 7.15-1.36 12.54-1.82s17 .29 25.38.29 12 .41 13.08 4.81.57 18.35.57 18.35a26.36 26.36 0 0 0 -2.86-2.06c-.2 0-.57.49-.24.82s3 2.1 3.08 2.55a10.07 10.07 0 0 1 0 1.69s-3.58-3.21-3.7-3.17-.62.78-.33 1.11 4 3.05 4.07 3.25a6.18 6.18 0 0 1 .08 1.93c-.12 0-3.62-3.24-3.86-3.2s-.54.86-.54.86 4.24 3.37 4.36 3.62a15.85 15.85 0 0 1 .17 2.3s-3.5-3.37-3.71-3.37-.45 1-.45 1 4.07 3.45 4.07 3.69 0 1.85 0 1.85-4.28-3.62-4.49-3.62-.45.78-.33.91 4.53 3.82 4.69 4a12.83 12.83 0 0 1 .13 2.49s-4.78-4.19-4.9-4.19-.25 1-.25 1 5.1 4.23 5.19 4.4a17.77 17.77 0 0 1 .15 1.92s-5.19-4.61-5.39-4.61-.45.91-.37 1.03zm-42.24-36.81a3.55 3.55 0 0 0 -2.83 2.8c-.25 1.6 0 2.75.12 2.79 0 0 .74 0 .82-.32a21.73 21.73 0 0 1 .17-2.76c.24-1.27 2.09-1.44 2.34-1.56s.33-.99-.62-.95zm29.62 27c1.39-1.81 1.31-8.84 1-11.18s-2-2-4.52-2.14-4.61-.25-5.35 1-.57 6.13-.66 7-8.18 0-8.55 0-.25-17.2-.53-17.85-10.12-.6-10.53-.13c-.66.74 0 17.36-.09 22.83s.25 18 .25 19.16 1.19 2.1 4.07 2.1 5.68 0 6.46-.94.16-7.28.25-10.16 1.56-3.21 3.2-3.46 2.92.54 3.87 2.39.23 11.06.32 11.77 2.1.91 5.1.78 4.19-.12 5.47-1.11 1.07-3.7 1.19-10.44-2.63-7.69-2.63-7.69.28-.1 1.68-1.91zm-6.3 2.39s4.36.53 4.81 3.74a36.31 36.31 0 0 1 0 9.25c-.33 2.55 0 3.05-.62 3.33s-6.38.58-6.54.17.41-9.58-.33-11.6-3.17-3.41-6-3.17-5.31 2.35-5.35 5 .25 8.88 0 9.21-6.29.41-6.5 0-.81-37.59-.44-37.93a42.33 42.33 0 0 1 6.17.09c.12.16-.09 17.19 1.07 17.44s11.84.61 12-.09.53-7.56.78-7.69 5.84.21 5.92.74.45 7.57-1 8.47-1.21 1.04-2.48 1.13-1.52.37-1.6.82a3.09 3.09 0 0 0 .11 1.09zm9.25-26.53c-3.1 2.37 1.61 6.29 1.61 6.29s2.13-1.41 2-1.67-1.51-.92-1-1.41 1.31.93 1.73.8 1.87-1.68 1.8-2-3.03-4.37-6.14-2.01zm4.71 2.63s-1.9-1.17-2.78-.4.46 2.46.46 2.46l-.6.42c-.23-.11-2.64-2.92-1.35-4.23s4.57.9 4.62 1.14-.35.61-.35.61zm3.77 1.32c.26-.14.93-1.51 1.42-1s-.93 1.31-.8 1.73 1.68 1.87 2 1.8 4.38-3.06 2-6.16-6.29 1.61-6.29 1.61 1.43 2.16 1.67 2.02zm3.76-3.16c1.31 1.3-.9 4.57-1.13 4.62s-.61-.36-.61-.36 1.17-1.89.4-2.78-2.46.47-2.46.47l-.42-.6c.09-.23 2.89-2.61 4.22-1.35zm.56 12.52c3.1-2.36-1.61-6.29-1.61-6.29s-2.13 1.42-2 1.67 1.51.93 1 1.42-1.31-.93-1.73-.8-1.87 1.68-1.8 2 3.02 4.37 6.12 2zm-5.06-2c0-.23.36-.61.36-.61s1.89 1.17 2.78.4-.47-2.46-.47-2.46l.6-.42c.23.11 2.65 2.91 1.35 4.22s-4.58-.91-4.64-1.14zm-3.42-1.93c-.25.13-.93 1.51-1.41 1s.93-1.31.79-1.72-1.68-1.87-2-1.8-4.37 3-2 6.15 6.29-1.6 6.29-1.6-1.43-2.18-1.69-2.04zm-3.76 3.15c-1.31-1.3.9-4.56 1.13-4.61s.61.35.61.35-1.17 1.89-.4 2.78 2.47-.52 2.47-.52l.42.6c-.12.27-2.92 2.69-4.23 1.4z" fill="#1d1d1b"/></svg>