<svg height="64" viewBox="0 0 64 64" width="64" xmlns="http://www.w3.org/2000/svg"><path d="m18.83 63.35h-.25c-1.34-.16-5.49-2-6.86-5.15-.93-2.14-.81-6.07-.67-8.16a26.75 26.75 0 0 1 -8-8.37c-3.43-6.09-3.24-13.26-2.83-16.99.53-4.74 1.86-10.23 7.67-15.07l.44-.37c5.22-4.36 8.1-6.76 20.89-8.24a51.93 51.93 0 0 1 5.91-.35c9.43 0 14.59 3 18.76 6.32 5.32 4.2 9.76 13.36 10.09 20.86.34 7.77-3.37 16.43-9.98 23.17-5.55 5.74-14.28 7.78-20 7.78-.39 0-.76 0-1.08 0a26.56 26.56 0 0 1 -4.1-.47c-8.54 5.04-9.48 5.04-9.99 5.04z" fill="#fff"/><path d="m62 27.91c-.32-7.23-4.66-15.72-9.35-19.41s-10.65-7.01-23.21-5.56-14.91 3.66-20.31 8.16-6.5 9.48-7 13.79-.3 10.67 2.59 15.82a25.63 25.63 0 0 0 8.36 8.29s-.61 6 .42 8.39 4.47 3.89 5.3 4 9.71-5.24 9.71-5.24.58.42 4.47.64 13.57-.9 19.67-7.17 9.71-14.47 9.35-21.71zm-4.3 10.29c-3.76 7.68-10.64 13.28-16 14s-13.95.64-14.43.74-8.72 4.53-10.1 4.5-1.83-1-2.06-3.06.1-6-.09-6.46c0 0-4.66-1.9-8.46-8.84s-2.56-14.51-1.81-17.79 5.41-9.93 11.67-13 16.21-3.83 23-3.09 12.82 3.36 16.64 10.8 5.4 14.52 1.64 22.2zm-38.9-27.68c-.22-.19-2.83.16-6.27 2.9s-4.43 5.9-4.24 6.17a2 2 0 0 0 1.58.35c.38-.19.38-2.47 3.31-5a16.52 16.52 0 0 1 5.69-3.09 1.71 1.71 0 0 0 -.07-1.33zm20.67 27c1.51.45 2.32.29 4.05-.9s6.92-10.29 7.85-12.41 1.54-3.86 1-4.6-2.47-.32-3.31.07-9.68 7.32-10.06 7.32-10.35-7.17-10.7-7.42a2 2 0 0 0 -1.74.19c-.42.29-12.14 13.51-12.47 14.08-1 1.77 1.57 3 3.08 2.67s10.83-5.42 11.66-5.62 9.17 6.21 10.64 6.66zm-21.47-4.05c-.28-.1 10.29-9.67 10.67-9.57s10.51 6.36 11.41 6.26 8.49-6.52 8.88-6.43-5.4 9-6.08 10.39-1.35 2-3.6.93-7.52-5.5-8.84-6-2.73-.67-5 .77-6.77 3.91-7.44 3.65zm4.92 14.09a49.48 49.48 0 0 0 3.08 4.79 1.58 1.58 0 0 0 1.12-.58c.1-.29-2.76-4.76-2.89-4.86s-1.31.65-1.31.65zm4.85-1c-.29-.1-1.51.21-1.54.42a40.66 40.66 0 0 0 3.41 4.6.87.87 0 0 0 1.06-.39 24.28 24.28 0 0 0 -2.93-4.6zm2.19.35a43 43 0 0 0 3.57 4.57.82.82 0 0 0 .83-.23 38.4 38.4 0 0 0 -3-4.72c-.18-.04-1.36.23-1.36.41zm3.41-.64a54.19 54.19 0 0 0 3.69 5.27 1.23 1.23 0 0 0 1.06-.09c.2-.16-3.21-5.4-3.34-5.5a5.53 5.53 0 0 0 -1.41.35zm3.27-.48a40.87 40.87 0 0 0 3.73 4.6.57.57 0 0 0 .71-.42 46.55 46.55 0 0 0 -3-4.57c-.15-.13-1.44.42-1.44.42zm5-.93c-.29-.16-1.6.43-1.61.54a37.21 37.21 0 0 0 3.6 4.31c.22.16.64-.13.83-.48s-2.58-4.18-2.86-4.34zm3-1.35c-.35-.2-1.38.54-1.38.54a32.74 32.74 0 0 0 3.47 4c.22.06.58-.23.74-.48s-2.47-3.84-2.82-4.03zm2.64-1.93c-.26-.1-1.45.83-1.45.83a40.76 40.76 0 0 0 3.6 3.6c.22.07.61-.29.71-.51a22.4 22.4 0 0 0 -2.85-3.89zm2.34-1.77c-.26-.1-1.2.61-1.12.8a32.65 32.65 0 0 0 3.05 3.06c.13 0 .61-.39.74-.61s-2.4-3.12-2.66-3.22zm1.93-1.74c-.16-.06-.78.54-.71.68s2.77 2.6 3 2.73.58-.45.61-.67a20.88 20.88 0 0 0 -2.89-2.71zm1.93-2.63c-.19 0-.8.83-.8 1 0 .36 2.21 2 2.37 2s.29-.32.42-.7-1.79-2.27-1.98-2.27z" fill="#1d1d1b"/></svg>