<svg height="64" viewBox="0 0 64 64" width="64" xmlns="http://www.w3.org/2000/svg"><path d="m24.86 64a16.86 16.86 0 0 1 -13-5.65c-5.3-5.95-5.67-13.35-5.42-17.35.31-4.88 4.14-11.41 9.35-13.36a8.37 8.37 0 0 1 2.87-.56 4.72 4.72 0 0 1 2.22.51c0-5.13-.05-9.82 0-11 .12-3.45 2.49-10 8.53-13.77a18.64 18.64 0 0 1 9.89-2.82 20.29 20.29 0 0 1 9.83 2.65c6 3.35 9 10.2 8.42 19.29-.48 7.9-3.11 11.21-6.9 13.74a12.1 12.1 0 0 1 -6.6 2.32h-.52c.08 5.92.1 10.36 0 11.57-.39 3.51-4.18 11-11.59 13.36a23.47 23.47 0 0 1 -7 1.13z" fill="#fff"/><path d="m41.38 22.68c0-1.95-.81-1.81-1.43-1.86a51.11 51.11 0 0 0 -5.14-.19 2 2 0 0 0 -1.48 1.43c-.33 1.1-.24 18.34-.33 22.15s-4.1 8.38-8.19 8.24-7.67-2.45-7.34-8.15 3.43-6.95 3.53-7.3a33.76 33.76 0 0 0 -.1-6.43c-.38-1.91-2.86-1.62-4.38-1.05-4.19 1.57-7.81 7.19-8.1 11.67s.48 10.91 4.91 15.91 11.24 6.09 18 4 10-9.1 10.24-11.72-.24-24.75-.19-26.7zm-2.79 25c-.59-.68-1.47-1.63-1.78-1.68a.62.62 0 0 0 -.72.57 21.26 21.26 0 0 0 2.25 2.43 11.31 11.31 0 0 1 -.63 2 20.29 20.29 0 0 0 -2.1-2.64c-.14 0-.85.1-.9.57s1.7 2.32 2.46 3.15a8.57 8.57 0 0 1 -.63.94 15.7 15.7 0 0 0 -2.07-2.47c-.24-.09-.71.29-.81.57s1.5 2.11 2.09 2.82a11.94 11.94 0 0 1 -1.09 1 15.63 15.63 0 0 0 -2.19-3c-.24-.15-.33 0-.71.47s1.26 2.44 1.91 3.27a10.56 10.56 0 0 1 -1.15.68l-.2.11a9.37 9.37 0 0 0 -1.56-2.49c-.29-.09-.67.24-.72.38a25.56 25.56 0 0 0 1.32 2.59l-.88.42a18.44 18.44 0 0 0 -1.72-2.77c-.29-.24-.38-.09-.86.24s1 2.21 1.52 3l-1.1.41a12 12 0 0 0 -1.56-2.84c-.43-.19-.62.19-.77.43a12.46 12.46 0 0 0 1.38 2.72 9.67 9.67 0 0 1 -6.9-.34c-3.86-1.66-7.91-4.86-9.38-9.95s-.29-11 2.43-13.62 5.43-3.72 5.76-2.91a23 23 0 0 1 .24 4.62s-3 .43-3.72 6.29 1.53 10 5.62 11.33 8.19-.38 11.15-4.9 2.24-9.57 2.24-15-.1-11.34.23-11.39a28.29 28.29 0 0 1 4.05.19c.05.12-.09 21.86-.5 24.81zm-20.59-13.52c.38-.53.05-.82-.62-.67-1 .24-2.91 2.57-3 3s.66 1.29.86 1.24.23-.53.85-1.57 1.47-1.48 1.91-2zm30.19-29.82a17 17 0 0 0 -17.77.2 16.55 16.55 0 0 0 -7.62 12.19c-.09 2.81.17 25.9.19 26.38.05.91.38 2.53 1.1 2.72a18.57 18.57 0 0 0 4.95 0c1.48-.23 2.1-.38 2.34-1.9s-.29-17.76 0-23.29a7.46 7.46 0 0 1 9.15-7.14c4 1 6.81 3.66 6.19 8.62a6.64 6.64 0 0 1 -4.29 5.88 45.41 45.41 0 0 0 -.1 6.39c.19.76.33 1.43 1.1 1.57s3.14.09 6.14-1.91 5.57-4.52 6-12.24-1.67-14.27-7.38-17.47zm5.48 18.34a12.07 12.07 0 0 1 -.87 3.32 7.61 7.61 0 0 0 -1.9-1.75c-.24 0-.47.24-.62.53s1.5 1.71 2 2.26a11.38 11.38 0 0 1 -.95 1.48 8.3 8.3 0 0 0 -2-2.27c-.19 0-.43.29-.48.67a11 11 0 0 0 1.73 2.46 11.3 11.3 0 0 1 -1.29 1.23 6.86 6.86 0 0 0 -1.29-1.88.48.48 0 0 0 -.53.43 10.64 10.64 0 0 0 1.19 2 7.25 7.25 0 0 1 -.9.53 10.71 10.71 0 0 0 -1.14-1.73c-.19-.19-.81.19-.86.38a9.79 9.79 0 0 0 .91 1.8c-1.78.61-2.3.8-2.43.49a12.32 12.32 0 0 1 -.15-3.19c.15 0 4.91-1.86 5-10.24s-6.24-9.24-9.63-9.43-9.33 2.43-10.38 8 .1 24.19-.47 24.67-4.05.38-4.2 0c0 0-.19-24.91 0-26.67a15.63 15.63 0 0 1 7.78-10.43 15.48 15.48 0 0 1 16 1.24c4.67 3.29 6.05 10.77 5.48 16.1zm-18.48-16.34a5.24 5.24 0 0 0 -3.19 1.1 10.58 10.58 0 0 0 -2.77 2.56c0 .15.43 1.1.76 1s.91-1.09 2-1.95a26.52 26.52 0 0 1 3.39-1.85c.14-.14.09-.76-.19-.86z" fill="#1d1d1b"/></svg>