<svg height="64" viewBox="0 0 64 64" width="64" xmlns="http://www.w3.org/2000/svg"><path d="m12.08 63.58a7.57 7.57 0 0 1 -1.37-.12 1.94 1.94 0 0 1 -1.52-2.3c.05-.24.11-.5.18-.75a2.35 2.35 0 0 1 -2.25-2c-.07-.7 1.41-7.29 2.24-8.22a2 2 0 0 1 .62-.46 1.94 1.94 0 0 1 -.55-1.73v-.18a11.81 11.81 0 0 1 .27-1.7h-.27a2.46 2.46 0 0 1 -.66-.11 12.27 12.27 0 0 1 -5.1-5.92 1.94 1.94 0 0 1 .52-2 2.64 2.64 0 0 1 -.55.06 2.21 2.21 0 0 1 -1.59-.63c-.85-.86-2-5.36-1.89-6.87a2 2 0 0 1 1.36-1.65l.73-.2a2.61 2.61 0 0 1 -2.08-1.66c-.23-.71-.36-1.89.53-5.14.85-3.1 1.58-4 2.43-4.3a1.69 1.69 0 0 1 .44-.12 2.41 2.41 0 0 1 -.42-.48 2.2 2.2 0 0 1 -.24-2.1 15 15 0 0 1 2.43-3.61 26 26 0 0 1 2-2.12 1.94 1.94 0 0 1 1.29-.49h.07a5.26 5.26 0 0 1 .89.13 2.28 2.28 0 0 1 -.08-.54c0-1.15.65-2 4.21-3.74 2.15-1 2.8-1.33 3.59-1.33a2.53 2.53 0 0 1 .77.12c.67.23 1.53.88 1.72 2.71v.13l.9-.26a2.71 2.71 0 0 1 -.46-1.61 2.67 2.67 0 0 1 1.57-2.39 33 33 0 0 1 6.65-1.35 2.64 2.64 0 0 1 2.71 3 2.21 2.21 0 0 1 -.24.71h.79a2.64 2.64 0 0 1 -.26-1.17 3 3 0 0 1 1-2.34 2 2 0 0 1 1.22-.43c5.94 0 6 .15 6.66.77a1.92 1.92 0 0 1 .41.62 2.07 2.07 0 0 1 1.25-.65 1.66 1.66 0 0 1 .32 0 2.2 2.2 0 0 1 .44.05c4.08 1 4.48 1.17 4.91 2a2.42 2.42 0 0 1 .24.93 2.53 2.53 0 0 1 .91-.5 2.16 2.16 0 0 1 .56-.08c1.47 0 4.59 2.94 4.86 4a2.93 2.93 0 0 1 -.33 2.25 2.26 2.26 0 0 1 -1.09.92c.37.28.74.57 1.09.88a3.19 3.19 0 0 1 2.72-1.81c1.61 0 2.93 2 3.3 2.63a10.41 10.41 0 0 1 1.39 3.9 2.41 2.41 0 0 1 -1.14 2l-.16.11a5.49 5.49 0 0 1 .6 0 2.36 2.36 0 0 1 1.71.63c.92.92 1.35 5.68 1.05 6.56a2 2 0 0 1 -1.67 1.37h-.17a7.51 7.51 0 0 1 -.94.09c.24 0 .72-.06 1-.06a2.58 2.58 0 0 1 .8.12 2 2 0 0 1 1.34 1.65c0 .05.9 5.15-.65 6.39l-.13.1a1.94 1.94 0 0 1 .24 2.13c-1.91 3.7-2.46 4.1-3.44 4.24a2.93 2.93 0 0 1 -.53 0 3.16 3.16 0 0 1 -.55 0 2.17 2.17 0 0 1 .59 1 2.38 2.38 0 0 1 -.66 2.14c-3 3.84-3.93 3.84-4.43 3.84a2.92 2.92 0 0 1 -2.41-1.25 2.3 2.3 0 0 1 -.2-.42c-.25.24-.51.47-.78.7a1.89 1.89 0 0 1 .5.65 3.59 3.59 0 0 1 .51 2.33c-.37 1.83-6.18 4.17-6.9 4.17a2.08 2.08 0 0 1 -1.13-.34 3.63 3.63 0 0 1 -1.31-1.48 4.83 4.83 0 0 1 .14 1 1.93 1.93 0 0 1 -1.6 2l-5 .84a1.63 1.63 0 0 1 -.31 0 1.94 1.94 0 0 1 -1.14-.37 2 2 0 0 1 -.78-1.28 3.33 3.33 0 0 1 .51-2.61c-.8 0-1.6.06-2.38.06h-.1a2.85 2.85 0 0 1 .64 1.38 2.32 2.32 0 0 1 -1.19 2.51 4.33 4.33 0 0 1 -2 .29c-.75 0-1.56 0-1.56 0a2.1 2.1 0 0 1 -.79-.21 2.16 2.16 0 0 1 -.61 1.22s-4.27 3.43-5.7 3.43a2.58 2.58 0 0 1 -.39 0 3.07 3.07 0 0 1 -2.08-1.87 2.85 2.85 0 0 1 0 1.95c-.63 1.46-3.5 2-5.16 2.23a6 6 0 0 1 -.88.01z" fill="#fff"/><path d="m57.7 21.73c-2-7.55-6-9.94-12.6-13s-16.57-2.76-22-1.38a24.64 24.64 0 0 0 -14.77 9.89c-3.72 5.56-3.16 8.16-1.33 15.41s9.44 13.35 9.44 13.35-1.68 5.56-2.19 7.7.51 3 2.3 2.8 10.76-6.07 10.76-6.07a44.46 44.46 0 0 0 13.15-.43c8.16-1.28 9.95-4.75 14.13-8.88s5.15-11.84 3.11-19.39zm-9.84 11.37c.15.16 5.76 4.65 5.76 4.65l-1.38 2.14s-5.4-4.49-5.66-4.44-.61 1-.61 1 5.41 3.93 5.2 4.28a12.71 12.71 0 0 1 -1.78 1.53l-4.39-3.49s-1.07.45-1 .71 4.85 3.36 4.69 3.52-2.6 1.43-2.6 1.43l-4.18-3.32s-1.22.66-1 1 3.93 2.91 3.57 3.06-3.06 1-3.06 1-2.75-2.6-3-2.65-.91.46-.86.66 2.7 2.4 2.55 2.5a17.45 17.45 0 0 1 -7.86 1c-4.18-.46-5.4-1-6.27-.92s-8.26 6.78-9 6.27c-.21-.14 2.39-6.68 2.19-6.88s-3.57-2-7.8-8.26-5.13-12.38-3.44-17.28 10.3-10.86 15.6-12a36.25 36.25 0 0 1 19.84 1c7.5 2.66 10.71 6.79 12.14 9.64s1.49 7.75 1.49 7.75-6.38-5.51-6.68-5.41-.36.92-.21 1.07 6.78 5.25 6.78 5.51 0 2.65-.1 2.5-6.43-5.67-6.59-5.67-.81.61-.51 1 6.84 5.56 6.84 6a8 8 0 0 1 -.67 2.19c0-.15-6.27-5.5-6.57-5.5s-.72.76-.57 1 6.58 5.1 6.58 5.35a12 12 0 0 1 -1.17 1.89s-5.35-4.59-5.56-4.59-.87.66-.71.76zm7.29-10.7a2.06 2.06 0 0 0 .2-.72c0-.3-5.55-5-5.55-5-.31.16-.72 1.13-.51 1.33s5.86 4.39 5.86 4.39zm-36.92-8.88a16.56 16.56 0 0 0 -5 3.62 17.57 17.57 0 0 0 -2.8 4.74c-.11.31.91.62 1.12.57a21 21 0 0 1 2.5-3.93c2-2.45 4.69-3.57 4.79-3.93s-.28-1.21-.61-1.07zm10.77-9.89c.2 0 .46-.56-.15-1s-6.11 1-6.28 1.12a.73.73 0 0 0 -.1 1.28c.53.28 6.37-1.35 6.53-1.4zm9.89.46c.36 0 .21-1.38 0-1.53s-5.3-.21-5.3-.21c-.25.21-.41 1-.15 1.23s5.14.42 5.49.51zm6.73 1.12c.21 0 .36-.92.26-1.12a27 27 0 0 0 -3.62-1c-.31.05-.41 1.07-.26 1.27a17.67 17.67 0 0 0 3.66.85zm6.38 3.79c.25-.05.41-.51.31-.92s-2.67-2.64-3-2.55a1.24 1.24 0 0 0 -.62 1.13 12.52 12.52 0 0 0 3.31 2.34zm5 5c1 1 1.37 2.86 1.53 2.91s.81-.31.81-.61a9.47 9.47 0 0 0 -1.12-2.91c-.66-1.12-1.4-1.68-1.63-1.68-.56 0-1 .66-1.07.91s.48.44 1.48 1.38zm4.43 11c.41-.05-.35-4.49-.51-4.64s-1.07 0-1.07 0c-.15.3.31 4.18.31 4.53s.91.21 1.31.16zm.31 4a7.18 7.18 0 0 0 -1.12.06 46.82 46.82 0 0 0 0 4.74c0 .46 1 .1 1.22-.1s.09-4.62-.06-4.7zm-3.28 10.43c0 .35.67.41 1 .35s2-3.21 2-3.21l-.81-.51a16.57 16.57 0 0 0 -2.19 3.37zm-1.88 3.11a43.11 43.11 0 0 0 -3.16 3.62c-.21.41.51.61.76.61a20.78 20.78 0 0 0 3.21-3.57c-.05-.2-.81-.66-.81-.66zm-12.19 9.28c-.46.31.15.92.46 1.12s5-2.34 5-2.6a3.67 3.67 0 0 0 -.36-1.12c-.1.25-4.64 2.29-5.1 2.6zm-4.08 1.18c-.36.06-4 .57-4.39.72s-.2 1.17-.2 1.17l5-.81s-.1-1.08-.41-1.08zm-10.15.77a13.7 13.7 0 0 0 -1.89-.1c-.91.1-.51 1.17-.51 1.17a16.27 16.27 0 0 0 2.66-.05c.3-.11.1-.93-.26-.98zm-5.71 1.63a48.53 48.53 0 0 0 -4.45 2.79c-.4.41.31 1.08.56 1.13a34.82 34.82 0 0 0 4.34-2.86c.26-.25-.25-1.07-.45-1.02zm-8.52 3.93a11.77 11.77 0 0 1 -2.29 1 4.06 4.06 0 0 1 -2.09-.21c-.16 0-.46 1.43-.46 1.43a5.66 5.66 0 0 0 1.58 0c.82-.1 3.47-.71 3.62-1.07s-.2-1.11-.36-1.11zm-5.1-8c-.25 0-1.83 6.33-1.78 6.73s.92.36 1.32.26 1.74-6.43 1.74-6.73-1.02-.18-1.28-.18zm1.64-2.8c.45-.16.66-2.14.61-2.35s-.82-.36-1.18-.25-.51 1.93-.56 2.29c0 .08.66.54 1.13.39zm-2.47-5.48c-.16-.21-.46-.56-1.58-1.79a6.68 6.68 0 0 1 -1.42-2.55l-1.43.82a11.29 11.29 0 0 0 3.88 4.69c.26.1.72-.97.55-1.17zm-7.89-12.24a17 17 0 0 0 1.33 5.35c.2.21 1-.1 1.22-.3s-1.12-5.1-1.27-5.25-1.28.2-1.28.2zm1.74-11.32s-.51.2-1.28 3-.67 3.7-.56 4 1.07.45 1.22.35a10.21 10.21 0 0 0 .31-2.6 26.06 26.06 0 0 1 1.17-4.43c.05-.17-.86-.32-.86-.32zm2.09-3c.2-.05.61-.77 1.22-2s2.4-3.21 2.35-3.49-.92-.3-.92-.3a23.62 23.62 0 0 0 -1.79 1.95 14.16 14.16 0 0 0 -2.09 3.06c-.2.51 1.02.82 1.23.77zm6.47-6.94c.46.05 5.46-3.21 5.46-3.21s-.1-1-.41-1.07-.76.1-2.9 1.12-3.11 1.74-3.11 2 .55 1.1.96 1.15z" fill="#1d1d1b"/></svg>