<svg height="64" viewBox="0 0 64 64" width="64" xmlns="http://www.w3.org/2000/svg"><path d="m22.69 64a14.61 14.61 0 0 1 -4.22-.59c-2.2-.73-3.42-3.38-3.62-7.86-.08-1.73-.09-5.54-.09-8.9v-.46a5.22 5.22 0 0 1 -2.48 1.58 10 10 0 0 1 -2.93.45 7.41 7.41 0 0 1 -7-4.41 11.69 11.69 0 0 1 0-9.52 4.76 4.76 0 0 1 3.14-2.78c-2.06-.55-4-2.39-4.35-6.25-.44-4.76 1.71-8.5 5.1-8.89 1.45-.17 5.81-.25 9.84-.29a6.3 6.3 0 0 1 -1.08-3.08 8.86 8.86 0 0 1 7.63-9.31c.4 0 .79-.07 1.17-.07a6 6 0 0 1 6.2 5.46c0 .06.5 5.51-.08 7.94a5.91 5.91 0 0 1 1.81 1.38c-.13-5.38-.22-10.25-.14-11.35a8.15 8.15 0 0 1 3.66-6 10.26 10.26 0 0 1 4.98-1.05 10.26 10.26 0 0 1 2 .19c2.61.57 5.33 3.12 5.54 7.54.11 2.33.12 6.92 0 10.87a6.73 6.73 0 0 1 4-2 17.22 17.22 0 0 1 2.56-.22 6.64 6.64 0 0 1 6.77 4.62 11.94 11.94 0 0 1 .09 8.89 5.87 5.87 0 0 1 -3.42 3.22l-.35.11a5.05 5.05 0 0 1 4.17 2.66 11.79 11.79 0 0 1 .47 9.69c-1.67 3.9-5.77 3.9-8.49 3.9-1.21 0-4-.08-7-.17a6 6 0 0 1 .91 3.33c0 2.77-.09 5.92-3.12 8.16a8.33 8.33 0 0 1 -4.94 1.45 7.81 7.81 0 0 1 -5.62-2c-2-2.07-1.94-5.27-1.93-7v-.24c0-.44 0-1 0-1.63-.05-2.7 0-3.06.23-3.61.06-.12.13-.23.19-.33a4.77 4.77 0 0 1 -1.39-3.32v-.31c-.22-3.69-.26-7.41 1.74-8.87a6.87 6.87 0 0 1 3.31-1.37l-.32-.13c-1.89-.83-2.79-2.64-3.23-4.68a4 4 0 0 1 -3.18 2.45c-.7.11-2 .2-3.74.27a6.08 6.08 0 0 1 3.46 5.64c0 1.84.08 18.84 0 20.89s-.47 4.47-3 5.54a8.18 8.18 0 0 1 -3.14.5z" fill="#fff"/><path d="m25.76 18c-3.1 0-16.76 0-19.26.3s-3.69 3.56-3.4 6.78 1.9 4.67 3.82 4.67c3.95 0 19 0 21.89-.51s2.3-5.13 2.21-7.55-2.16-3.56-5.26-3.69zm2.76 7.55c-1.06.77-7.55.85-14 1.15s-8.18.42-9-.64-.72-5.6.72-5.9c1-.2 10.57-.42 15.28-.42s7.08.21 7.38 1.06.68 4.03-.38 4.79zm-18.75-4.37c-.39-.08-1.15.38-1.62 1.32a17.26 17.26 0 0 0 -.87 3.16 1.17 1.17 0 0 0 1.13.34c.34-.13 0-.89.25-1.79a9.46 9.46 0 0 1 1.61-2.5c.17-.23-.12-.44-.5-.53zm10.86-4.33c.95.13 7.19.17 7.46-.15s.17-6.11 0-7.4-1-4.22-5.21-3.71a6.91 6.91 0 0 0 -5.88 7.21 4.45 4.45 0 0 0 3.63 4.05zm-.92-7.32c1.87-2.52 6.26-3 6.62-.4s.34 5.58.13 5.75a22.47 22.47 0 0 1 -5.58 0c-1.19-.25-3.03-2.82-1.17-5.35zm1.72 2.66a3.61 3.61 0 0 1 .57-1.66c.55-.72 1.42-.68 1.49-.78a1.81 1.81 0 0 0 0-.92c-.11-.12-.94-.1-2.1 1a2.85 2.85 0 0 0 -1 2.38 1.38 1.38 0 0 0 1.04-.02zm20.71 14.08c.12.06.57-.44.7-.66s-2-2.16-2.1-2.27-.85.53-.85.64 2.25 2.29 2.25 2.29zm-5.82 5.35c1.74.76 5.33 1.14 6.73-.07s2.2-4.15 2.57-7.55.42-12.54.25-16.18-2.35-5.37-4-5.73a9.75 9.75 0 0 0 -5.51.61 6.25 6.25 0 0 0 -2.78 4.5c-.13 1.66.21 14.07.29 17.63s.71 6.02 2.45 6.79zm-.72-24.78c.4-1.84 2.97-3.61 5.4-3.18s3 3.14 3.06 9.76-.48 13.58-1.33 14.66a.76.76 0 0 1 -.09.09c-.76-1-2.72-3.11-2.84-3.19s-.85.53-.85.63 2.35 2.64 2.85 3.18a4.09 4.09 0 0 1 -.83.32 34.21 34.21 0 0 0 -2.52-2.84c-.15-.1-.85.53-.85.64s1.52 1.72 2.18 2.42a6.07 6.07 0 0 1 -1.55-.06c-1.5-.28-2.2-1.36-2.37-3s-.64-17.56-.26-19.43zm6.77 16.38c.13.06.57-.45.7-.66s-1.4-1.63-1.55-1.74-.85.53-.85.64 1.7 1.76 1.7 1.76zm14.76 8c3.25-1.13 3.53-6.11 2.17-9.57s-3.84-3.71-7.21-3.2a5.14 5.14 0 0 0 -4.29 4.64c-.06 1-.38 8.42-.06 8.78s6.15.51 9.39-.61zm-7.42-9.38c.17-.81 3.1-2.63 5.83-1.46s2.7 5.09 2.25 6.61-3 2.47-5.07 2.55-3.14 0-3.29-.11c-.33-.29.11-6.74.28-7.55zm2.88 7.38c.17.11.75-.13.83-.23a14.76 14.76 0 0 0 -2-2.46c-.11 0-.72.2-.74.38a15.47 15.47 0 0 0 1.91 2.35zm2.13-.7c.17.11.7-.29.78-.4a13.4 13.4 0 0 0 -1.93-2.29c-.11 0-.72.2-.74.38a15.55 15.55 0 0 0 1.89 2.35zm1.88-1.21c.17.11.7-.29.79-.4a14.38 14.38 0 0 0 -1.93-2.29c-.11 0-.72.2-.74.38a14.87 14.87 0 0 0 1.88 2.35zm3.29 9.44c-1.12-2-3.1-1.74-6.87-1.69s-14.43.2-15.72.25a5.63 5.63 0 0 0 -3.61 1.1c-1.38 1-1 5.63-.93 7.51s1 2.87 4.05 3 14 .53 16.76.53 5.58-.09 6.7-2.72a9.77 9.77 0 0 0 -.38-7.94zm-1.1 5.45c-.72 2.47-1.06 2.55-2.82 2.85s-13.26 0-16.55-.11-4-.34-4.45-1.21a12.86 12.86 0 0 1 -.36-4.71 2.08 2.08 0 0 1 1-1.42c.62-.27 4.35-.49 8.81-.57s13.17-.13 13.64.1 1.45 2.65.73 5.11zm-15.79-1.84c-.17-.07-.89.54-.89.63a31.56 31.56 0 0 0 3.45 3.38c.24 0 .7-.24.68-.51a29.26 29.26 0 0 0 -3.24-3.5zm3 .06c-.17-.06-.89.55-.89.64a24.7 24.7 0 0 0 3.14 3.07c.23 0 .7-.23.68-.51a24.9 24.9 0 0 0 -2.93-3.2zm3-.42c-.17-.06-.89.55-.89.64a33.58 33.58 0 0 0 3.65 3.48c.23 0 .7-.23.68-.51a33.66 33.66 0 0 0 -3.44-3.61zm2.82-.08c-.17-.06-.89.55-.89.64a34.56 34.56 0 0 0 3.68 3.44c.23 0 .7-.24.68-.51a31.88 31.88 0 0 0 -3.44-3.6zm-11.82 1.16c-.17-.07-.89.54-.89.63a18.21 18.21 0 0 0 2.74 2.57c.23 0 .7-.23.68-.51a18 18 0 0 0 -2.53-2.69zm15.28-1c-.17-.06-.89.55-.89.64a18.56 18.56 0 0 0 2.73 2.56c.24 0 .7-.23.68-.51a17.94 17.94 0 0 0 -2.55-2.69zm-13.59 8.38c-1.65-.06-7.8-.13-7.93.13s0 3 0 4.37-.13 4.32 1.4 5.94 5.79 2 8 .32 2.3-3.89 2.34-6.64a4 4 0 0 0 -3.81-4.12zm1.7 6.26c-.77 2.16-3.12 2.78-5.24 2.56s-2.31-2.07-2.38-3.43a10.59 10.59 0 0 1 .11-3.25 62.73 62.73 0 0 1 6.74 0c.49.15 1.53 1.95.77 4.12zm-2.39-3.21c-.17 0-.55.58-.55.64a7.39 7.39 0 0 0 1.75 1.55c.25.08.62-.51.62-.7a7.14 7.14 0 0 0 -1.82-1.49zm-1.61 1.57c-.17 0-.56.58-.55.64a11.44 11.44 0 0 0 2.21 1.89c.25.08.61-.51.61-.7a11.18 11.18 0 0 0 -2.24-1.83zm-1.76 1.36c-.17 0-.56.58-.55.64a11.44 11.44 0 0 0 2.24 1.92c.25.08.61-.51.61-.7a11.18 11.18 0 0 0 -2.27-1.86zm-15.9-21.83c-4.2-.06-5 2.83-5.11 3.91v4.62s0 11.48.13 14.32.76 5.6 2.29 6.11 4.64.72 6 .15 1.78-1.83 1.85-3.82 0-19 0-20.81-.96-4.41-5.16-4.48zm3.73 24.08c-.32 1.17-1.06 2.06-3.07 2.14s-3.48-.78-3.76-2-.19-14.83-.19-17.68.49-3.29.74-3.59c.54-.62 2.13-.63 3.21-.55s2.59.32 2.75 2.38.64 18.13.32 19.3zm-2.2-10.86c.17-.09.12-.38.12-.55a5 5 0 0 0 -1.33-1.28c-.17 0-.44.72-.36.8s1.4 1.11 1.57 1.03zm.85 4c.17-.09.12-.39.12-.56a15.08 15.08 0 0 0 -2.33-2.27c-.17 0-.44.73-.36.8a17.69 17.69 0 0 0 2.57 1.98zm-3.27 6.17c-.17 0-.44.73-.36.81a11 11 0 0 0 2.06 1.44c.17-.09.12-.38.12-.55a9.2 9.2 0 0 0 -1.82-1.7zm3.16-4c.17-.08.13-.38.13-.55a15.15 15.15 0 0 0 -2.34-2.18c-.17 0-.43.73-.36.8a16.91 16.91 0 0 0 2.57 1.93zm-2.4 2.13c-.17 0-.43.72-.36.8a16.91 16.91 0 0 0 2.57 1.93c.17-.08.13-.38.13-.55a15.15 15.15 0 0 0 -2.32-2.16zm.24-2.23c-.17 0-.44.73-.36.8a33.53 33.53 0 0 0 3.33 2.89c.17-.09.12-.38.12-.55a28.62 28.62 0 0 0 -3.07-3.12zm-8-19a42.31 42.31 0 0 0 -7.84.48c-2.54.53-3.58 6.11-1.91 9.59s5 3.73 7.6 2.94 2.86-3.77 2.8-6.3-.36-6.61-.59-6.61zm-1.3 9.1c-.29.79-3.75 2.1-6 .34s-1.54-6.61 0-7.14a20.76 20.76 0 0 1 5.94-.29 35.2 35.2 0 0 1 .06 7.09z" fill="#1d1d1b"/></svg>