<svg height="64" viewBox="0 0 64 64" width="64" xmlns="http://www.w3.org/2000/svg"><path d="m35.5 61.49a26.18 26.18 0 0 1 -3.5-.24c-5.62-.76-8.82-2.37-11.41-5.73-1.91-2.47-3-6.33-3.15-11.45-.11-3.14-.35-9.65-.32-13.08v-2.62c-1.49 0-2.71 0-3.25-.09h-.47a3.08 3.08 0 0 1 -2.94-1.56c-.25-.56-.29-1-.22-5.65 0-.8 0-1.8 0-2-.07-1.41 0-3 1.23-3.73a3.33 3.33 0 0 1 1.24-.4 7 7 0 0 0 1.29-.36 11.58 11.58 0 0 0 3.85-2.58 12.38 12.38 0 0 0 2.54-3.95c.19-.69.33-1.55.44-2.18a5.26 5.26 0 0 1 .39-1.58 3.93 3.93 0 0 1 3.32-1.76c.44 0 1.95-.05 3.41-.05a17.23 17.23 0 0 1 3.67.16c.74.18 1.57.69 3.64 2.78l.1.1a4.58 4.58 0 0 1 .91 3.18q0 .29 0 .51c0 .54.13 3.3.11 4.91h.48c1.67 0 2.8.06 3.27.1.06 0 5.78.38 6.83.84.33.14 1.33.58 2.47 3.54.1.26.35.91-.05 4.33-.07.56-.08 2.19-.09 3.27a13.25 13.25 0 0 1 -.08 2.34c-.2 1-.92 2.28-3.19 2.52-1.25.13-7.48.25-9 .25h-1.02c0 1.74 0 4.6.1 6a17.42 17.42 0 0 0 .64 4.38 3.82 3.82 0 0 0 .94 1.35 5.81 5.81 0 0 0 2.42.56 4.54 4.54 0 0 0 1.83-.38c1.48-.65 3.06-1.5 4.21-2.12a9.89 9.89 0 0 1 2.39-1.1 2.9 2.9 0 0 1 .62-.06 4.65 4.65 0 0 1 3 1.17 6 6 0 0 1 1.6 4 59.32 59.32 0 0 1 -.26 7.89c-.53 2.06-3.92 4.45-7.05 5.89a25.41 25.41 0 0 1 -10.94 2.6z" fill="#fff"/><path d="m22.07 22a39.3 39.3 0 0 0 -4.95.22.68.68 0 0 0 .38 1c.52.1 3.81-.14 4-.06s.1 4 .28 4.25a1.17 1.17 0 0 0 1.18.14c.3-.18 0-3.47 0-4.39s-.67-1.16-.89-1.16zm3.31-12.7c-.22 0-.3 1.1-.6 1.84a17.81 17.81 0 0 1 -2.21 3.71 6.82 6.82 0 0 1 -2.32 1.46.66.66 0 0 0 .66 1 6.41 6.41 0 0 0 3.43-2.52 14.7 14.7 0 0 0 2.08-5c.02-.65-.82-.49-1.04-.47zm12.62 9.93c.26.12 2.73.21 2.95.25s.16 1.9.32 2.18.46.32.84.22.32-3.39.1-3.49a26 26 0 0 0 -4.17-.16c-.42.16-.28.88-.04 1zm-9.84 9.77c-.24.42.14 9.66.22 10s1.09.3 1.25.12-.22-8.39-.29-9.43-1.05-.89-1.18-.69zm23.61 16.2a4 4 0 0 0 -1-2.65 2.6 2.6 0 0 0 -1.87-.6c-.5.1-3.44 1.9-6.21 3.11a7.29 7.29 0 0 1 -6-.25 5.19 5.19 0 0 1 -1.82-2.32 18.41 18.41 0 0 1 -.79-5.07c-.1-2-.14-7.39-.06-7.75s1.45-.35 3-.35 7.66-.12 8.8-.24 1.36-.52 1.44-.92 0-4.27.14-5.45a19.21 19.21 0 0 0 .18-3.38c-.1-.25-.92-2.21-1.42-2.43s-5.16-.59-6.16-.65-5.58-.12-5.66-.16-.06-.5 0-1.16 0-4.79-.08-5.53.03-2.09-.26-2.4-2.14-2.2-2.8-2.36-5.73-.1-6.51-.06a2.24 2.24 0 0 0 -1.69.63c-.14.28-.3 2-.7 3.42a14.06 14.06 0 0 1 -3 4.75 13.61 13.61 0 0 1 -4.65 3.07c-1.11.42-1.93.41-2.17.56s-.3 1.16-.26 1.92-.14 6.54 0 6.94.86.34 1.75.42 4.84.08 5 .1.14 1.28.12 4.61.19 9.6.31 13 .7 7.66 2.74 10.3 4.51 4.21 10.1 5a22.77 22.77 0 0 0 13.36-2.21c3.6-1.66 5.73-3.71 5.95-4.57a60.42 60.42 0 0 0 .22-7.29zm-4.19 6.45c-.1.16-1 1-1.12.8s-2.46-5.74-2.71-5.82-.88.2-.78.54 2.67 5.77 2.65 5.87-1.29.8-1.45.64-2.48-5.59-2.68-5.68-1 .32-.92.62 2.84 5.41 2.74 5.53-1.24.7-1.56.54-2.73-5.91-3-6-1 .18-.88.64 2.69 5.77 2.63 5.9-1 .48-1.15.32-2.7-6.34-2.92-6.42-.92.48-.84.68 2.64 5.88 2.46 6-1 .32-1.12.1-2.53-5.35-2.73-5.41a1.16 1.16 0 0 0 -.82.48c0 .16 2.53 4.79 2.27 5s-1.47.2-1.69-.08-1.96-4.82-2.25-4.9-.92.2-.84.52 2.2 4.17 2.16 4.29a3.21 3.21 0 0 1 -1.58-.12c-.28-.16-1.7-3.65-2-3.73a.54.54 0 0 0 -.69.44c0 .36 1.27 2.75 1 2.85a4 4 0 0 1 -1.76-.41c-.16-.18-1.1-2.22-1.42-2.26s-.64.2-.62.42a12.18 12.18 0 0 0 .52 1.38 4.37 4.37 0 0 1 -.88-.38c-.26-.2-3.13-2.06-4-4.27s-1-6.33-1-9.11-.32-9.6-.32-12.13.22-3.14-.4-3.38-4.15.06-5.17.14-1.17.06-1.21-.1-.2-6.74.14-7.14a23.58 23.58 0 0 0 3.91-1.46 15.52 15.52 0 0 0 4.35-4.35 15.34 15.34 0 0 0 2-4.53c.16-1 .29-1.64.43-1.72s6.49-.16 6.81.28.28 3.69.32 6.17-.1 4.73.6 4.87 4 .2 7 .36 4.41.18 4.65.42-.22 1.75-.42 2.89a32.43 32.43 0 0 0 -.16 4.61v.46a8.32 8.32 0 0 1 -1.72 0c-.02-.18-2.31-5.01-2.55-5.01s-.82.4-.74.7 2.35 4.3 2.21 4.3a2.31 2.31 0 0 1 -1.11 0c-.16-.12-2.2-4.07-2.4-4.11s-.78.42-.68.7 2.18 3.51 2.06 3.55a6.46 6.46 0 0 1 -1.52 0c-.1-.08-1.56-3.37-1.94-3.49s-1.07.22-.89.48a29.22 29.22 0 0 1 1.75 3.07 4.89 4.89 0 0 1 -1.43 0c-.14-.12-1.42-2.77-1.76-2.87s-.86.2-.8.52 1.14 2.15 1.18 2.29-1.46.26-1.68 1.06a45.11 45.11 0 0 0 -.24 7.58c.08 3.7.52 7.19 1.5 8.75a7.09 7.09 0 0 0 5.05 3.09 10.27 10.27 0 0 0 3.75.2 12.87 12.87 0 0 0 2.76-.84c.56-.3.77-.52.93-.38s2 4.26 2.36 4.95.46.97.36 1.13zm1-1a.3.3 0 0 1 -.5.06c-.1-.16-2.34-5-2.06-5.45.17-.24.72-.34.86-.16a20.2 20.2 0 0 1 1.48 2.9 11 11 0 0 1 .22 2.66zm-.06-4.85a5.14 5.14 0 0 1 -.72-1.33c0-.28.66-.7.78-.52s.12 1.96-.06 1.86z" fill="#1d1d1b"/></svg>