<svg height="64" viewBox="0 0 64 64" width="64" xmlns="http://www.w3.org/2000/svg"><path d="m30.39 64a26.08 26.08 0 0 1 -4.23-.36c-5.89-1-12.71-3-18.64-10.42-6.33-7.97-5.82-15.65-5.52-17.82s1.3-9 5-13.35c3.46-4 10.48-8.53 17.72-8.85h1.2a27.25 27.25 0 0 1 10.87 2.21 59.89 59.89 0 0 0 -3.9-5.55 26 26 0 0 0 -3.83-4c-.94-.82-1.83-1.6-1.67-2.92.2-1.59 2.09-2.84 4.29-2.84a9.3 9.3 0 0 1 5.79 2.43 15.12 15.12 0 0 1 4.33 6.22c1.5-1.93 3.89-2.35 5.83-2.68a14.21 14.21 0 0 0 2.37-.56c1.31-.52 3.41-3 4.47-4.58a2 2 0 0 1 1-.74 3.29 3.29 0 0 1 1.11-.19 3.69 3.69 0 0 1 2.31.81c1.7 1.34 2.86 5 3.19 10 .41 6.16-1 10-5.25 14.32a12.46 12.46 0 0 1 -7.74 3.66q.13.15.27.33c1.82 2.22 2.32 5.13 3.09 11.74s-2.09 13.14-8.06 17.96a21.46 21.46 0 0 1 -14 5.18z" fill="#fff"/><path d="m48.5 20.79c-3.17 2.23-4.78 2.48-5.26 2.49.09.94.41 2.44 1.51 3 1.63.85 6.81 1.39 10.69-2.53s5.06-7.2 4.69-12.75-1.67-8-2.45-8.61a1.7 1.7 0 0 0 -1.55-.39s-2.9 4.33-5.39 5.31-6.07.53-7.58 2.89a21.5 21.5 0 0 0 -1.84 3.8c-.12 0-.9-6.53-5.1-10s-6.81-1.51-6.89-.85 2 1.51 5.1 5.46 6.12 8.69 6.12 10.49-2.29 13.9-4.86 18.5a47 47 0 0 1 -8.89 11.5c-2.53 2.17-2.9 2.65-2.57 2.94l.32.29a11.65 11.65 0 0 1 -7.26-2.49 14.69 14.69 0 0 1 -5.38-12.61c.36-5.95 6.44-10.85 11.26-12.2a14.4 14.4 0 0 1 11.62 1.84s1.55.49 2-.53a35.08 35.08 0 0 0 2-4.73c0-.62-.08-2.61-1.22-3.51s-6.28-3.22-12.85-2.94-13.1 4.49-16.24 8.16-4.12 9.51-4.48 12.36-.29 9.59 5.05 16.32 11.42 8.73 17.42 9.71a19.78 19.78 0 0 0 16.69-4.41c5.26-4.28 8.07-9.87 7.34-16.19s-1.18-8.94-2.65-10.73-2.25-2.16-2.53-1.72a43.11 43.11 0 0 0 -2.2 5.47c0 .45.81 6.12-1.76 10.53a15.53 15.53 0 0 1 -10.36 7.54c-3.59.62-4.69.45-4.69.25a36 36 0 0 0 8.28-6.45c4.16-4.48 8-8.56 8.36-14.89a39.18 39.18 0 0 0 -.28-9.11c0-.1-.05-.2-.08-.32-.25-1-.09-1.63 4.12-2.86s7.29-5.41 7.29-5.41.77-.09.61.85-2.23 3.8-6.11 6.53zm-19.78 33c5.42-.49 9.54-2.77 13.21-7.91s2.45-11.79 2.45-11.79 1.39-3.39 1.51-3.75.73-.41 1.63 2.77a24.44 24.44 0 0 1 .82 6.49c0 .12-.94-.66-1.27-.7s-.32 1-.32 1l1.47 1.27s.24 1.91.24 2.16-1.46-1.82-1.67-1.82-.61.9-.57 1.15a27.09 27.09 0 0 0 1.87 2.28c.08.12-.4 1.67-.65 1.67s-1.67-1.91-1.88-1.87-.49.94-.49 1.14a10 10 0 0 0 1.68 2.12c.2.08-.66 1.27-.9 1.39s-1.51-1.51-1.63-1.51-.49.65-.49.81a14.39 14.39 0 0 0 1.27 1.51c.25.33-.45 1.35-.65 1.43s-1.14-2-1.31-2.08-.85.33-.93.7 1.42 2.28 1.59 2.48-1 .86-1.15.86-1.26-2.12-1.42-2.16-.86.57-.86.57 1.22 2.2 1.31 2.32-.49.62-.9.66-1.23-2.16-1.39-2.29-.69.45-.86.53 1.07 2 1.19 2.21-1.14.89-1.43.93-1.19-2.24-1.27-2.28a1.44 1.44 0 0 0 -.86.57c-.16.29 1.14 2.12 1.18 2.24s-1.14.62-1.34.62-.9-2.21-1.15-2.37-.89.16-1 .29a19.6 19.6 0 0 0 1.08 2.57c.09.24-1.46.61-1.59.61s-.89-2.2-1-2.33-.85.17-1 .37.74 2 .9 2.2-.77.49-1.22.49-.82-2-1-2.28-.82 0-1.1.28.65 2.08.65 2.08a25.68 25.68 0 0 1 -3.3.13 19.17 19.17 0 0 1 -9.84-2.78c-4.77-2.65-8.56-8.32-10.28-13.42s-.93-9.91 1-14.69a17.66 17.66 0 0 1 8.32-9.22c3.39-1.91 6.41-3.34 12.08-3a23.12 23.12 0 0 1 9.38 2.44l-1.59 3.88c-3.26-1.1-10-2.82-15.58.33s-9.06 8.4-9.14 14.07 1.67 9.79 4.77 12.69 8 4.39 13.43 3.9z" fill="#232021"/></svg>