<svg height="64" viewBox="0 0 64 64" width="64" xmlns="http://www.w3.org/2000/svg"><path d="m55 55.23c-1.87 0-4.67-2.33-5.59-3.23s-2.25-2.08-2.93-2.67c-.43 0-1 0-1.65 0a25.64 25.64 0 0 1 -7.33-.89 17.46 17.46 0 0 1 -8.46-6c-.22-.28-.43-.58-.63-.88l-.1.06a15.64 15.64 0 0 1 -6 1.49 31.13 31.13 0 0 1 -3.65-.33 23.94 23.94 0 0 1 -4.19 3.52 8.47 8.47 0 0 1 -3.76 1.16 3.72 3.72 0 0 1 -.91-.11c-.39-.11-4.06-1.79-4.2-4-.07-1.31 2.28-5.17 2.3-5.21l.17-.28a16.67 16.67 0 0 1 -3.84-3.82 12.72 12.72 0 0 1 -2.33-8.49c.35-3.32 3.05-7.64 4.88-9.48 1.52-1.55 5.45-4.75 9.39-5.8a49.63 49.63 0 0 1 11-1.5 17.17 17.17 0 0 1 9.32 3.29c1.71 1.24 4.68 3.57 5.34 5.3a4.35 4.35 0 0 1 .22 2.23c1-.08 2.29-.14 3.64-.14a22.68 22.68 0 0 1 8.31 1.26c4 1.62 7.14 5.23 7.79 9 .29 1.65 1 7.36-1.47 11.11a17.44 17.44 0 0 1 -2.43 3v7.1s-.13 3.72-2.3 4.25a2.76 2.76 0 0 1 -.59.06z" fill="#fff"/><path d="m59.86 30a10.71 10.71 0 0 0 -6.57-7.47c-3.69-1.46-9.54-1.12-12.29-.83s-5.38 1.76-5.72 1.76.28-.76 1.31-1.4 2.44-.87 2.92-1.29a2.88 2.88 0 0 0 .54-2.7c-.36-.94-2.5-2.83-4.65-4.39a15.19 15.19 0 0 0 -8.15-2.91 48.14 48.14 0 0 0 -10.57 1.43c-3.21.86-6.8 3.58-8.48 5.27s-4 5.61-4.31 8.29a10.79 10.79 0 0 0 2 7.2 19 19 0 0 0 4.65 4.25c.12.1-.1.64-1 2a23.45 23.45 0 0 0 -2 4c0 .68 2.16 2.06 2.73 2.22a5.35 5.35 0 0 0 3.2-.88 30 30 0 0 0 4.41-3.89 37.79 37.79 0 0 0 4.37.46 13.56 13.56 0 0 0 5.11-1.28 2.09 2.09 0 0 0 1.3-1.84 20.65 20.65 0 0 0 2 3.3 15.44 15.44 0 0 0 7.46 5.27c3.83 1.17 9.08.69 9.12.75s2 1.72 3.6 3.26 3.71 2.79 4.29 2.65.72-.68.78-2.37 0-8 0-8 1-.56 2.77-3.19 1.66-6.89 1.18-9.67zm-32.62-2.31s-.74-3.75-1.12-3.75-.85.46-.73.64a26.17 26.17 0 0 1 1.27 4.05c0 .5-.42 1.92-.5 1.74s-1.37-5.19-1.87-5.43a.48.48 0 0 0 -.72.44c.08.14 1.12 2.93 1.38 3.73s.71 2.06.75 2.22-.19 1.63-.14 2.25a5 5 0 0 1 0 1.16s-2-6.09-2.16-6.53-.18-.76-.56-.8-.56.72-.48.86 2.48 7.31 2.72 7.55.53.26.63.4a.83.83 0 0 1 -.1.89 1.64 1.64 0 0 1 -1.25.36c-.22-.12-2-6-2.32-7.18s-.08-1.44-.72-1.44-.58.28-.5.46 1.06 4.13 1.7 6 .94 2.27.8 2.41a1.35 1.35 0 0 1 -.92.06c-.08-.08-2.29-6.48-2.41-7s-.28-.92-.6-.94a.55.55 0 0 0 -.56.5c0 .2 1.67 5.19 2 6a9.2 9.2 0 0 1 .6 1.51 3.82 3.82 0 0 1 -1.07-.12c0-.08-1.6-4-2.06-5.19s-.58-1.93-.84-2-.64.52-.58.64 1.74 4.67 1.92 5 .62 1.13.5 1.17-.76 0-1-.38-2-5.09-2.24-5.28-.91 0-.89.13 1.75 4.22 1.91 4.56a2.09 2.09 0 0 1 .24.85c0 .06-.5.38-.6.3s-1.47-3.45-1.72-3.47-.74.34-.74.6 1.31 2.67 1.39 2.87.48.46.18.68-.51.34-.61.24-.52-1.36-.82-1.32-.9.38-.78.7.72 1 .62 1.3-2.1 1-2.8 1.66-1.35 1.12-1.55 1 1.9-3.79 2.11-4.2.26-1 0-1.13a35.67 35.67 0 0 1 -4.3-3.56 12 12 0 0 1 -2.42-4.53 11.48 11.48 0 0 1 .78-5.59 17.85 17.85 0 0 1 5.19-6.36 20.25 20.25 0 0 1 9.75-3.88c4.16-.6 7.65-1.23 11.68 1s5.41 3.93 5.77 4.55.34 1.58.14 1.68-2.32.88-3.65 1.54-2.34 1.19-2.34 1.19 1.36-1.85.5-2.81a4.69 4.69 0 0 0 -4.75-1.56c-2 .66-2.74 2.52-2.28 3.55s2.4 1.54 3.26 1.64a11 11 0 0 0 2.23-.1 18.09 18.09 0 0 0 -2.67 2.38c-.45.68-1.65 2.09-1.65 2.09zm3.24-5.69c-1 .16-1.68-.08-1.6-.73 0-.25.8-.8 1.46-1s1.47-.16 1.65.34-.54 1.19-1.51 1.39zm27.42 11.74c-.08 0-1.85-4.51-2.17-4.45s-.74 1.18-.64 1.36 2.47 4.59 2.49 4.77a2.77 2.77 0 0 1 -.32 1.1c-.08 0-2.39-5.27-2.75-5.19s-.54.79-.5.91 2.93 5.41 2.91 5.61-.77 1.44-.91 1.34-2.54-5.29-2.76-5.35-.86.5-.84.62 2.7 5.25 2.68 5.45-1 1.06-1.14 1-2.12-5.71-2.4-5.91-1.07.42-1 .62 2.33 5.57 2.37 5.87.58 4.57.36 4.47-3.59-8.23-3.87-8.65-.24-.49-.44-.47-.44.31-.3.81 4.71 9.54 4.63 9.6a12 12 0 0 1 -2.83-1.95c-.38-.54-3.84-7.55-4-7.63s-.87.24-.83.5 3.69 6 3.47 6.07a18.87 18.87 0 0 1 -2-.16c-.08 0-2.65-5.69-2.87-5.77s-1.06.32-.94.64 2.79 5.13 2.58 5.17a6.26 6.26 0 0 1 -1.2.08c-.18 0-3-5.37-3.3-5.47s-.81.38-.73.78 2.61 4.71 2.51 4.71a7.31 7.31 0 0 1 -1.46-.06c-.16-.1-2-4.23-2.35-4.35s-.86.46-.8.74 2.08 3.53 1.84 3.55-3.16-3.65-3.46-3.65-.94.2-.7.72 1.8 2.07 1.64 2.29-4.17-1.14-6.05-3.09a10.86 10.86 0 0 1 -3-6.95c0-2.07 2-4.75 2.89-5.75a21.35 21.35 0 0 1 4.67-3.41 20.81 20.81 0 0 1 7.69-1.52c3.33-.12 5.55 0 8.26 1.64a13.64 13.64 0 0 1 4.43 4.07 9.44 9.44 0 0 1 1.2 3.73 3.14 3.14 0 0 1 -.06 1.56zm-30-10.17c-.36-.11-.84.29-.71.49a11.75 11.75 0 0 0 1.09 1.41c.17.07.42-.24.44-.5s-.5-1.3-.85-1.4zm-8.52-4.57a3.88 3.88 0 0 0 -4.13 0c-1.76 1.33-1.23 3.5-.12 4a4.69 4.69 0 0 0 4.07-.18 2.18 2.18 0 0 0 .18-3.82zm-1.46 2.9c-.77.38-1.58.2-1.51-.43a1.55 1.55 0 0 1 .93-1.14c.5-.23 1.35-.46 1.74 0s-.38 1.2-1.16 1.57zm-8.12-1.22a5.58 5.58 0 0 0 -2.62 2.95 7.91 7.91 0 0 0 -.18 4.37 3.92 3.92 0 0 0 1.84 2c.51.24.69-.19.73-.43s-.13-.42-.58-.84-1.07-1.26-.84-3.38a5.51 5.51 0 0 1 2-3.71c.6-.59.36-1.13-.35-.96zm24.7 5.63c-.72.13-1.74 1.33-2.26 2.09a9.46 9.46 0 0 0 -1.47 4.51 5.86 5.86 0 0 0 1.9 3.91c.48.22 1-.3.93-.66s-2-1.87-1.36-4.42a10.76 10.76 0 0 1 2.66-4.55.5.5 0 0 0 -.4-.88zm4.85.22a3.89 3.89 0 0 0 -2.8 1 2.72 2.72 0 0 0 -.12 3.76 3.54 3.54 0 0 0 4.25 1.12c1.47-.75 2.55-2.19 1.9-3.88a3.21 3.21 0 0 0 -3.23-2zm1.18 4.47a1.7 1.7 0 0 1 -1.75.5 3.16 3.16 0 0 1 -.18-2.28 2.32 2.32 0 0 1 1.4-.71 2.55 2.55 0 0 1 1.51.54c.11.23-.31 1.36-.98 1.95zm7.86-3.68a2.81 2.81 0 0 0 -2.83 3.08c.27 1.6.76 2.4 2 2.82s2.48.57 3.41-.41a3 3 0 0 0 .55-3.56 3.46 3.46 0 0 0 -3.13-1.91zm1.51 4.79c-.55.21-1.24.34-1.61-.43s-.17-2.15 1-2.3a1.84 1.84 0 0 1 1.5.93 1.54 1.54 0 0 1 -.89 1.82z" fill="#1d1d1b"/></svg>