<svg height="64" viewBox="0 0 64 64" width="64" xmlns="http://www.w3.org/2000/svg"><path d="m12 31.34h-1.35c-2.4 0-3-.13-3.57-.48-.9-.54-1.08-.66-6.49-21.99l-.44-1.73a2.82 2.82 0 0 1 .37-2.57 3.24 3.24 0 0 1 2.76-1.17h.37 1.8s1.75-.06 2.48-.06c1.14 0 2.22 0 2.91.89.28.36.3.39 2 5.29.31.91.68 2 1 3 1.32-2.59 1.64-3 2.5-3.26a27.53 27.53 0 0 1 4-.21c2.09 0 3.24 0 3.91 1.08.09.13.17.3.69 1.31l.63 1.24c2.72-9 2.72-9 4-9.28a6.37 6.37 0 0 1 1.59-.09c5.16 0 5.38.18 5.9.6a16.26 16.26 0 0 1 1.64 2.29c.06-.08.13-.15.2-.23a15.25 15.25 0 0 1 7.62-4.57 11.51 11.51 0 0 1 2.65-.29 16.32 16.32 0 0 1 10.71 4.09c3 2.69 3 7.17 2.7 9.61a14.4 14.4 0 0 1 -1.13 4.4c1.85 1.45.39 6.65.37 6.7-.44 1.19-3.67 5.63-11.5 5.63h-.11c-7.45 0-11.43-2.67-13.75-9.07a18.56 18.56 0 0 1 -.62-2.14c-3.33 9.49-3.46 9.58-4.07 10s-.77.67-5.65.67c-3.89 0-4.19-.16-4.6-.39-.82-.45-1.05-1.06-2.28-4.43a.69.69 0 0 1 0-.13c-2.2 4.26-2.6 5-3.89 5.2l.09.16a11.22 11.22 0 0 1 4.72 1.59 10.73 10.73 0 0 1 5.37-1.32 14.21 14.21 0 0 1 1.44.08c5.09.51 9.25 5.65 10.55 9.45a1.62 1.62 0 0 0 0-.19l-.06-.1c-.39-.72-.61-6.56.71-7.61a1.91 1.91 0 0 1 1.17-.43s.85 0 1.92 0c4.13 0 5.68 0 6 1.82 0 0 .07.52.11 1.24a4 4 0 0 1 2.77-.67c0-1.88.19-2.42.89-2.94s1-.45 3-.45c3.58 0 5.37 0 5.62 1.94a7.13 7.13 0 0 1 0 1.14c1.81.11 3.21.54 3.21 2.22v4.09 2.69c0 1.23-.07 3.09-2 3.09h-1a20.33 20.33 0 0 0 0 2.16c.53.07 1.27.13 1.94.15a2 2 0 0 1 1.88 1.79c.61 7.78.6 7.94-.58 8.65-.79.47-4.4.54-6.48.54a16 16 0 0 1 -3.47-.24c-3.07-.73-3-4.23-3-7 0-.41 0-.83 0-1.25 0-1.14 0-2.35.06-3.41v-1.19a3.21 3.21 0 0 1 -1.61-.33 2.23 2.23 0 0 1 -1.06-1.4c0 1.27 0 2.9-.1 5-.24 10-.4 10-1.6 10.64-.9.45-3.58.5-4.69.5a3.12 3.12 0 0 1 -2.47-.65 14.47 14.47 0 0 1 -2.09-3.36c-.05-.26-.09-.44.36-8.36v-.55a22.32 22.32 0 0 1 -5.7 7.26c-5.32 4.77-9.83 6.91-11.33 6.91h-.13c-1.74-.1-10.11-5.77-13.72-10.5-4-5.27-4.66-11.13-1.72-15.69a11.7 11.7 0 0 1 7.46-5.15z" fill="#fff"/><path d="m15.05 29.28c.53-.07 4-7.65 4.39-7.65s2.62 7 3 7.23 7.79.21 8.18-.07 7.09-19.7 7.16-20a16.77 16.77 0 0 0 -1.95-3.4 53.05 53.05 0 0 0 -5.83-.16c-.28.07-3.75 12.08-3.93 12.29s-3.29-6.09-3.47-6.37-5.35-.15-5.71 0-3.11 6-3.32 6.13-4.01-11.59-4.26-11.91-4.54 0-5.92 0-1.59.54-1.39 1.24c.12.39 5.61 22.32 6.1 22.64s6.42.1 6.95.03zm-6.8-22.53c.1.15 4.74 13 5.06 13.18a1 1 0 0 0 1-.21c0-.11 3.16-7 3.4-7s3.94 0 3.94 0 3.88 7.28 4.27 7.28a1 1 0 0 0 1-.36c.14-.28 4.21-13 4.43-13a24.4 24.4 0 0 1 3 .25c0 .07-2.12 8.87-3.61 14.61a9.94 9.94 0 0 0 -1.81-1.5c-.32-.07-.92 1.13-.81 1.28a19.14 19.14 0 0 0 2.29 1.49c-.12.46-.23.89-.34 1.28a16.59 16.59 0 0 0 -2.27-2.17c-.28-.07-.8 1.12-.8 1.12a25.93 25.93 0 0 0 2.85 2c-.14.49-.25.85-.32 1.07a27.32 27.32 0 0 0 -2.92-2.48c-.32-.11-.78 1-.78 1l2.3 1.85c-1.2 0-2.8.06-2.8.06s-4-8.43-4.21-8.5a14 14 0 0 0 -3.4.14c-.25.21-4.15 8.82-4.36 8.89s-4.36-.03-4.36-.03-5.29-19.72-5.32-20.14a27.59 27.59 0 0 1 4.57-.11zm42 22.85c6.87 0 9.53-3.68 9.78-4.36s.57-4.35.32-4.46-5.07-.28-5.21-.25-.53.46-1.42 1.14-1.87 1.27-4.81.28-3.26-3.12-3.26-3.12 12.71.64 13.67.11 3.08-8.89-.71-12.29a14 14 0 0 0 -11.61-3.37 13.37 13.37 0 0 0 -6.66 4c-2.58 2.76-4 9.07-2 14.56s5.01 7.73 11.88 7.76zm-10.25-19.27a10.33 10.33 0 0 1 8.7-5.77c3.12-.13 8.47 1.44 10.09 4.71a8.83 8.83 0 0 1 .87 3.18 7 7 0 0 0 -1.47-1.3c-.21 0-.81 1.16-.81 1.16l2.3 1.76a11.35 11.35 0 0 1 -.21 1.57 23.06 23.06 0 0 0 -2.87-2.83c-.18 0-.92.5-.92.64s1.41 1.8 2.1 2.6h-1a10.66 10.66 0 0 0 -1.78-1.79c-.32-.14-1 .5-1.1.64s.38.61.83 1.11c-4.36-.05-10.22-.07-10.46.13-.39.32-.68 2.59.17 3.86a6.71 6.71 0 0 0 5.85 3.4 8 8 0 0 0 5.31-1.77c.14 0 2.8-.07 2.87.18a5.8 5.8 0 0 1 0 1.56c-.08.21-1.07 3.33-5.28 3.57s-9.14.89-12.37-4.35-2.25-9.59-.82-12.26zm4.78 2.48c.43.07 9.21.14 9.6 0s.36-.18.5-.68-1-4-4.86-4.25-5.72 3.42-5.84 3.69a1 1 0 0 0 .55 1.24zm5.6-3c2 0 3.15 1.45 2.9 1.63a33.92 33.92 0 0 1 -6.28-.15 4.47 4.47 0 0 1 3.33-1.49zm-23.61 23.86c-4.53-.46-6.62 1.71-6.62 1.71a9.19 9.19 0 0 0 -5-2.09 9.77 9.77 0 0 0 -9.15 4.46c-2.3 3.58-2.13 8.54 1.63 13.46s11.67 9.71 12.27 9.79 4.68-1.64 10.1-6.46 6.7-8.93 5.92-12.08-4.61-8.32-9.15-8.79zm5.6 11.09c-1.49 3.93-11.12 12.15-12.58 12.05s-8.57-3.76-11.79-8.81-.67-8.93 2.2-11.48a6.54 6.54 0 0 1 9.49.64c.17.18 1 .49 1.21.17s2.19-2.65 6.41-2 6.55 5.5 5.06 9.43zm-22.1-6a4.49 4.49 0 0 0 -1.14 3.84c.21.14 1.31.21 1.49 0s-.32-1.85 1-2.84a8.77 8.77 0 0 1 2.94-1.24c.43-.21.14-.74-.18-1a3.62 3.62 0 0 0 -4.11 1.19zm8 13c-.25 0-1.1.95-1.1.95a16.16 16.16 0 0 0 3.33 1.79c.43.15.71-.21.89-.6s-2.84-2.16-3.08-2.19zm2.09-2c-.11 0-1.1.57-1 .71a17.66 17.66 0 0 0 3.26 2.44c.28 0 .46-.25.56-.6s-2.68-2.52-2.78-2.55zm2.51-1.67c-.25-.07-1.1.61-1 .75a28.69 28.69 0 0 0 2.81 2.16c.36.21.82-.32 1-.67s-2.52-2.17-2.77-2.24zm2.27-1.34c-.32-.07-1.27.52-1.14.7a22.5 22.5 0 0 0 2.8 2 1.24 1.24 0 0 0 .82-.46c.22-.26-2.12-2.17-2.44-2.24zm2.12-1.63c-.46-.11-1 .63-1 .63a7.84 7.84 0 0 0 2.37 1.56c.25 0 .39-.28.6-.6s-1.47-1.49-1.93-1.59zm.89-.92a8.81 8.81 0 0 0 2.34 1.41c.67.22.49-.25.67-.56s-1.63-1.53-1.88-1.6-1.19.63-1.09.75zm11.23-9.39a21.83 21.83 0 0 0 -.17 5.19c.21.39 5.73.14 6 0s.28-4.53.21-4.88-6-.31-6-.31zm4.64 1.45c0 .28.21 1.56 0 1.67a20.89 20.89 0 0 1 -3.54 0c0-.11-.11-1.7.18-1.78 0 0 3.34-.15 3.4.11zm-4.61 5.17c-.17.22-1 15.59-1 15.77a22.41 22.41 0 0 0 1.56 2.37 20 20 0 0 0 5.03-.21c.5-.25.71-17.68.64-17.89a38.49 38.49 0 0 0 -6.19-.04zm4.11 15.2c-.1.14-3.68.28-3.75 0s.71-14.06.88-14.31a10.89 10.89 0 0 1 3.51 0c.22.18-.49 14.17-.6 14.31zm18.1-5.35a13.74 13.74 0 0 1 -3.4-.46c-.81-.39-.24-5.7-.24-5.7h2.83c.11 0 .14-7.65.14-7.93s-3.15-.32-3.26-.32.11-2.52.07-2.8-5.38-.28-5.52-.18a27.16 27.16 0 0 0 -.11 3.33 22.66 22.66 0 0 0 -3.29.11c0 .32-.18 3.89-.11 4.14s.46 3.54.78 3.72a14.25 14.25 0 0 0 2.51.07c.25 0 0 3.54 0 6.56s-.35 6 1.46 6.41 8.32 0 8.5-.07-.32-6.88-.32-6.88zm-1.12 3.56c-.45-.64-1.47-1.74-1.67-1.72s-.93.18-1 .32a11.62 11.62 0 0 0 1.18 1.72h-.8a11.71 11.71 0 0 0 -1.44-1.55c-.25-.11-.75.18-1 .35s.43.8.8 1.21c-.83 0-1.55 0-1.83 0-.81.07-1.45-.25-1.48-1.17s-.11-11.93-.22-12.29-.42-.67-1.34-.67c-.75 0-1.49.14-1.56 0a7.81 7.81 0 0 1 0-2.55c.28-.28 3.23.14 3.23 0a24 24 0 0 1 .21-3.26c.14 0 2.73-.1 2.73.15a16 16 0 0 0 0 2.94 23.65 23.65 0 0 1 3.22.24c.07.11-.25 2.59-.25 2.59s-2.51-.07-2.65.67a79.82 79.82 0 0 0 .07 9.42 1.83 1.83 0 0 0 1.73 1.21h1.81a18.11 18.11 0 0 1 .3 2.39z" fill="#1d1d1b"/></svg>