<svg height="64" viewBox="0 0 64 64" width="64" xmlns="http://www.w3.org/2000/svg"><path d="m31.78 64c-8.5 0-16.61-3.4-21.69-9.09-7.79-8.73-8.6-16.8-8.78-25-.21-9.31 3.39-17.71 9.63-22.44 6.4-4.85 12.52-7.15 19.87-7.47h1.19c4.15 0 14.66.93 22.77 9.49 7.28 7.71 10 21.94 6.24 33.12-3.01 9.13-10.07 16.16-19.82 19.79a27.25 27.25 0 0 1 -9.41 1.6z" fill="#fff"/><path d="m53.38 10.83c-6.67-7.06-15.82-9.14-22.5-8.83-7.05.25-12.88 2.54-18.77 7s-9.06 12.31-8.87 20.89 1.15 15.72 8.3 23.73 20 10.29 29 7 15.7-9.76 18.65-18.62c3.54-10.63.86-24.12-5.81-31.17zm2.67 30.26c-3.2 6.15-6.87 10.67-12.2 13.82s-12.54 4.43-18.49 2.76a27.6 27.6 0 0 1 -16.06-12.53c-3.96-6.67-3.72-13.82-3.2-19.14a22 22 0 0 1 5.77-13.34c3.48-3.86 10.06-7.39 18.92-8.39 7.06-.8 13.15 1.86 18 5.53a24.94 24.94 0 0 1 6.64 7.2s-3.43-1.09-3.62-.85-.62 1.28-.2 1.43 4.29 1.09 4.58 1.28.91 2.05.67 1.91a35.51 35.51 0 0 0 -4.24-1.57c-.29 0-.39 1.28-.1 1.38a38.77 38.77 0 0 1 4.81 1.67 2.47 2.47 0 0 1 .38 1.28s-4.62-1.46-4.71-1.46 0 1.24 0 1.24 5 1.48 5 1.62.15 1.15.15 1.15-4.29-1.77-4.63-1.58-.52.77-.09.91a43.25 43.25 0 0 1 4.72 2.38 22.66 22.66 0 0 1 -2.1 13.3zm-43.66-25.69c.24-.05.43-.67 2.43-2.43a13.18 13.18 0 0 1 4.06-2.48c.14-.05 0-1-.48-1.14s-1.48.57-3.91 2.38-2.85 2.65-3 2.91.67.81.9.76zm35.94 12.34c-.19-.28-3.63-2.38-3.29-6s3.76-5 4.24-5.43-.28-2.31-4.67-4.91-9.53-3.1-17.78-1.57-11.91 5-14 7.1a9.44 9.44 0 0 0 -2.62 4.29c-.33 1 .57 1.62 1.24 1.81s5.77-.05 6-.05.28 1.43.24 1.67-1.15.38-1.34.76 9 16.25 9.1 16.58a2.17 2.17 0 0 0 1.53 1c.52-.05 4.62-8.06 4.86-8.49s-3.1-8.86-3.57-9.24-3.34-.34-3.86-.38-.34-1.34-.15-1.67 12.06-.1 12.44 0 .1 1.24.1 1.52-3.29.15-3.58 0-.38 1.05-.19 1.57 6.63 14.06 7.1 14.87 1.72 1.19 2.24.77 6.15-13.94 5.96-14.2zm-7.15 10.39s-5.43-10.72-5-10.72a13.63 13.63 0 0 0 2.91-.09c0-.2.67-5.72-.14-6.06s-16.83-.43-17-.09-.24 5.91.62 5.91a28.62 28.62 0 0 1 3.58 0 55.83 55.83 0 0 1 2.76 6.68c-.05.28-2.57 4.43-2.57 4.43s-7.2-11.92-6.77-11.92a1.3 1.3 0 0 0 .76-.28s-.09-5.29-.47-5.43-5.1 0-5.2-.29a26.65 26.65 0 0 1 14.2-7.53c9.06-1.67 17.21 2.72 16.87 3.29s-5.29 4.1-3 7.86 2.81 4.1 2.81 4.24-4.36 10-4.36 10zm-30.6-10.53c-2.52.81-.85 9.25 1.1 14.35s6.53 7.95 7.86 8.24 3-1 2.86-2-6.15-13.82-7.86-17.68-3.12-3.18-3.96-2.91zm9.34 20c-.33.09-3.48-.86-5.91-6.58s-2.38-9.77-1.85-10.1c.28-.21 8.1 16.55 7.76 16.65zm13.35-9.44c-.81-.14-1.81 1.81-3.67 5.34s-4.53 8.5-3.24 9.69 7.15 1.1 8.91.62 3.38-2.1 3.38-3.38-4.49-12.14-5.38-12.3zm1 7.72c.46-.1 2.76 3.58 1.71 4.86s-5.1 1.77-5.19 1.43 3.1-6.17 3.53-6.32zm18.3-18.68c-.81.43-9.78 19.19-9.92 19.68s1.29 1.39 2.53 1.34 3.76-.72 7.67-5.43 3-11.54 2.77-13.82a2 2 0 0 0 -3-1.8zm0 11.77c-1.2 3-4.2 5.34-4.67 4.63-.27-.39 4.9-9.63 5.29-9.58s.62 1.92-.57 4.92z" fill="#1d1d1b"/></svg>