<svg height="64" viewBox="0 0 64 64" width="64" xmlns="http://www.w3.org/2000/svg"><path d="m44.22 64c-1.54 0-3.24 0-5.13 0-1.62 0-3.39-.06-5.32-.07-7.61-.11-24.35-.93-27.5-2.93s-3.79-6.37-3.86-9.81c-.09-4.54-.64-35.66-.48-40v-.23c.14-4 .34-9.5 8.67-9.5h.4a5.09 5.09 0 0 1 3.51-1.46c1.13 0 12.78.18 22.13.32l11.5.16a7.4 7.4 0 0 1 2.54.63h2.07a17.7 17.7 0 0 1 4.25.33c3.67 1 5.13 4.77 5.06 13-.2 22.52-.51 35.31-.91 38-.57 3.83-1.16 7.79-6 10-2.74 1.31-6.08 1.56-10.93 1.56z" fill="#fff"/><path d="m42.63 48.23c-.16 0-1 .86-.81 1.13s7.26 6.07 7.59 6.13 0 0 .16-.38-6.75-6.88-6.94-6.88zm13.9-44.92a29.94 29.94 0 0 0 -6.21-.24 7 7 0 0 0 -2.18-.65c-.8 0-31.77-.48-33.63-.48a3.12 3.12 0 0 0 -2.66 1.45c-7.85-.48-7.85 3.47-7.98 7.82s.4 35.81.48 39.92.89 6.86 3 8.23 15.56 2.5 26.45 2.58 16.69.56 20.56-1.21 4.36-4.76 4.92-8.55.81-28.71.89-37.74-1.87-10.65-3.64-11.13zm-44.17 9.33s0 37.53-.21 37.53l-1.62-.06s-.64-36.13 0-37.58c.18-.39 1.83.11 1.83.11zm-.16 43.17c-.16 0-5 .92-5.91-2.58s-.65-18.33-.7-26.72-1.08-20 1-21.18 5.1-.76 5.1-.76v3.77s-2.74-.76-2.85 2.47-.16 39.95.54 40.48 3.07.65 3.07.65a31.38 31.38 0 0 1 -.25 3.87zm14.36.86c-8.55-.21-9.47-.27-9.41-.48s6.29-3.66 6.29-3.66a50.55 50.55 0 0 0 10.05 1c5.75 0 6.78-.22 7.15-.11s5.43 3.44 5.11 3.71-10.65-.24-19.19-.46zm-.76-5.59c-.37-.2 6.62-3.71 6.83-3.66s6.35 4.25 6.13 4.41-12.26-.37-12.96-.75zm24.63 6.34c-.65.06-16.78-11.66-17.8-11.82s-17.79 10.26-18.39 9.94-1-50.32-.43-51.61c.18-.43 4.84-.43 9-.38s26.45.16 26.66.76.27 14.94.27 14.94a23.31 23.31 0 0 0 -3-2.42c-.32 0-.53.92-.32 1.13s3.12 2.21 3.12 2.42.05 2.69.05 2.69a31.38 31.38 0 0 0 -3-3c-.27 0-.16 1.45-.16 1.45s3 2.75 3.17 3a6.84 6.84 0 0 1 .06 1.83s-2.66-2.58-2.78-2.58-.38 1-.22 1.29 3 2.69 3.12 3.06a20.89 20.89 0 0 1 .06 2.53 24.94 24.94 0 0 0 -2.69-2.53 1.44 1.44 0 0 0 -.15 1.29c.21.38 2.95 2.58 3 3s0 2.26 0 2.26-2.85-3.21-3-3.27-.43 1.24-.27 1.45 3.27 3.34 3.37 3.61a13.84 13.84 0 0 1 -.05 2.2 48.8 48.8 0 0 0 -3.71-3.82c-.27 0-.16 1.4-.16 1.4s3.92 3.71 4 4.14a19.52 19.52 0 0 1 .16 2.74 57.34 57.34 0 0 0 -4.41-4.41c-.27 0-.59 1.08-.32 1.35l4.68 4.62v2.91s-4.73-5.17-4.89-5.22-.59 1-.43 1.18 5.21 5.38 5.21 5.7.06 3.23.06 3.23-5.54-6.4-5.76-6.4-.32 1.61-.32 1.61 6.29 5.92 6.29 6.29.62 3.39-.02 3.44zm.7-44.62s2.63-.54 3.17 0-.22 33.2-.22 35.11-2.26 1.5-2.26 1.5zm6.77 38.39a5.85 5.85 0 0 1 -3.49 3.71c-2.32.8-2.1 1.29-2.32.8a22 22 0 0 1 0-4.94c.16 0 2.58.37 3-.92s.32-14.73.65-23 .26-16.84-.26-17.7-.86-1-2-1-2 0-2 0a27.92 27.92 0 0 1 0-3.66c.16-.1 5.48-.32 6.45 3s.4 42.69-.03 43.71zm-40.48-44.84c-.49.27-.27 6.45-.22 6.77s.91.16 1.18.06.06-6.08-.05-6.56-.73-.38-.91-.27zm24.58 17.53c-.59-1.35-6.67-1.13-6.67-1.13s-2.09-7.32-3.28-7-4.85 6.94-4.9 7.25c0 0-6.62.22-6.78 1.35s5.76 5.65 5.76 5.65l-2.48 7s-.11 1.07.7 1.23 7.1-4.51 7.1-4.51 7.74 4.68 8.12 4.14-1.78-7.86-1.78-7.86 4.84-4.78 4.21-6.12zm-4.42 11.66c-.22 0-5.7-3.49-6.13-3.49s-5.59 4-5.59 3.65 2.15-5.91 1.93-6.07-3.17-3.55-3-3.87a23.34 23.34 0 0 0 3.93.16c.27-.22 2.74-4.46 2.95-4.36s1.24 3.93 1.56 4 5.65.43 5.65.43-2.37 3.44-2.37 3.6 1.28 5.95 1.07 5.95z" fill="#1d1d1b"/></svg>